<svg width="97" height="80" viewBox="0 0 97 80" fill="none" xmlns="http://www.w3.org/2000/svg">
<g clip-path="url(#clip0_510_2215)">
<mask id="mask0_510_2215" style="mask-type:luminance" maskUnits="userSpaceOnUse" x="0" y="0" width="97" height="80">
<path d="M97 0H0V80H97V0Z" fill="white"/>
</mask>
<g mask="url(#mask0_510_2215)">
<path d="M30.35 60.5067C30.0829 60.5067 29.8225 60.4534 29.5754 60.3534C29.3283 60.2534 29.108 60.1067 28.921 59.9134C28.734 59.7267 28.5871 59.5067 28.4803 59.26C28.3801 59.0134 28.3267 58.7534 28.3267 58.4867C28.3267 58.22 28.3801 57.96 28.4803 57.7134C28.5804 57.4667 28.7273 57.2467 28.921 57.06C29.108 56.8734 29.3283 56.7267 29.5754 56.62C29.8225 56.52 30.0829 56.4667 30.35 56.4667C30.6171 56.4667 30.8776 56.52 31.1246 56.62C31.3717 56.72 31.5921 56.8667 31.779 57.06C31.966 57.2467 32.1129 57.4667 32.2198 57.7134C32.3199 57.96 32.3734 58.22 32.3734 58.4867C32.3734 58.7534 32.3199 59.0134 32.2198 59.26C32.1196 59.5067 31.9727 59.7267 31.779 59.9134C31.5921 60.1 31.3717 60.2467 31.1246 60.3534C30.8776 60.46 30.6171 60.5067 30.35 60.5067ZM30.35 54.5C29.8225 54.5 29.315 54.6 28.8275 54.8067C28.34 55.0067 27.906 55.3 27.532 55.6734C27.1581 56.0467 26.8709 56.48 26.6706 56.9667C26.4703 57.4534 26.3701 57.96 26.3701 58.4934C26.3701 59.02 26.4703 59.5267 26.6773 60.0134C26.8776 60.5 27.1714 60.9334 27.5454 61.3067C27.9193 61.68 28.3534 61.9667 28.8409 62.1667C29.3283 62.3667 29.8358 62.4667 30.37 62.4667C30.8976 62.4667 31.4051 62.3667 31.8926 62.16C32.38 61.96 32.8141 61.6734 33.188 61.2934C33.562 60.92 33.8491 60.4867 34.0495 60C34.2498 59.5134 34.3499 59.0067 34.3499 58.4734C34.3499 57.9467 34.2498 57.44 34.0428 56.9467C33.8424 56.46 33.5486 56.0267 33.1747 55.6534C32.8007 55.28 32.3667 54.9934 31.8792 54.7934C31.3917 54.5934 30.8842 54.4867 30.35 54.4867V54.5Z" fill="#552B42"/>
<path d="M30.1764 53.3534C30.4502 53.3534 30.6773 53.26 30.8709 53.0667C31.0646 52.8734 31.1581 52.6467 31.1581 52.3734V49.02C31.1581 48.7467 31.0646 48.52 30.8709 48.3267C30.6773 48.1334 30.4502 48.04 30.1764 48.04C29.9027 48.04 29.6756 48.1334 29.482 48.3267C29.2883 48.52 29.1948 48.7467 29.1948 49.02V52.3734C29.1948 52.6467 29.2883 52.8734 29.482 53.0667C29.6756 53.26 29.9027 53.3534 30.1764 53.3534Z" fill="#552B42"/>
<path d="M30.1764 63.7933C29.9027 63.7933 29.6756 63.8867 29.482 64.08C29.2883 64.2733 29.1948 64.5 29.1948 64.7733V68.1267C29.1948 68.4 29.2883 68.6267 29.482 68.82C29.6756 69.0133 29.9027 69.1067 30.1764 69.1067C30.4502 69.1067 30.6773 69.0133 30.8709 68.82C31.0646 68.6267 31.1581 68.4 31.1581 68.1267V64.7733C31.1581 64.5 31.0646 64.2733 30.8709 64.08C30.6773 63.8867 30.4502 63.7933 30.1764 63.7933Z" fill="#552B42"/>
<path d="M35.4984 56.3333C35.6787 56.3333 35.8523 56.2867 36.0059 56.1933L38.884 54.4533C39.111 54.3133 39.2579 54.1067 39.3247 53.8467C39.3848 53.5867 39.3514 53.34 39.2112 53.1067C39.0709 52.88 38.8706 52.7267 38.6102 52.6667C38.3498 52.6 38.1027 52.64 37.869 52.7733L34.9909 54.5133C34.5635 54.7733 34.4166 55.14 34.5568 55.62C34.6904 56.1 35.0042 56.34 35.5051 56.3333H35.4984Z" fill="#552B42"/>
<path d="M24.3534 60.9534L21.4753 62.6934C21.2416 62.8334 21.088 63.0334 21.0213 63.3001C20.9545 63.5667 20.9945 63.8134 21.1348 64.0467C21.275 64.2801 21.482 64.4267 21.7424 64.4934C22.0096 64.5601 22.2566 64.5201 22.4903 64.3734L25.3684 62.6334C25.5955 62.4934 25.7424 62.2867 25.8092 62.0267C25.8693 61.7667 25.8359 61.5201 25.6956 61.2867C25.5554 61.0601 25.3551 60.9067 25.0946 60.8467C24.8342 60.7801 24.5871 60.8201 24.3534 60.9534Z" fill="#552B42"/>
<path d="M34.6771 61.2467C34.5369 61.48 34.5035 61.7267 34.5703 61.9867C34.637 62.2467 34.7839 62.4467 35.0177 62.5867L37.9091 64.3C38.1428 64.44 38.3899 64.4733 38.657 64.4067C38.9174 64.34 39.1244 64.1933 39.258 63.96C39.3982 63.7267 39.4316 63.48 39.3648 63.2133C39.2981 62.9467 39.1445 62.7467 38.9107 62.6133L36.0193 60.9C35.7856 60.76 35.5385 60.7267 35.2781 60.7933C35.0177 60.86 34.8173 61.0133 34.6771 61.2467Z" fill="#552B42"/>
<path d="M25.6825 55.9C25.8227 55.6667 25.8561 55.42 25.7893 55.16C25.7225 54.9 25.5756 54.7 25.3419 54.56L22.4505 52.8467C22.2167 52.7067 21.9697 52.6733 21.7092 52.74C21.4488 52.8067 21.2485 52.96 21.1082 53.1867C20.968 53.42 20.9346 53.6667 21.0014 53.9267C21.0682 54.1867 21.2218 54.3867 21.4488 54.5267L24.3402 56.24C24.574 56.38 24.821 56.4133 25.0815 56.3467C25.3419 56.28 25.5422 56.1333 25.6825 55.9Z" fill="#552B42"/>
<path d="M79.1506 55.2934C79.391 55.2934 79.6047 55.2134 79.7916 55.06C84.1588 51.32 84.3124 45.2867 84.3191 45.0334C84.3191 44.76 84.2323 44.5334 84.0453 44.34C83.8584 44.1467 83.6246 44.0467 83.3575 44.04C83.0904 44.04 82.8567 44.1267 82.663 44.3134C82.4694 44.5 82.3692 44.7267 82.3625 45C82.3625 45.0534 82.209 50.4134 78.5229 53.5667C78.1756 53.86 78.0822 54.2267 78.2424 54.6534C78.4027 55.08 78.7099 55.2934 79.1639 55.2934H79.1506Z" fill="#552B42"/>
<path d="M93.9081 13.1334L92.1653 16.94L79.5044 9.76003L81.4743 6.54669C81.9417 5.78003 82.536 5.13336 83.2572 4.59336C83.9717 4.05336 84.7664 3.66669 85.6345 3.43336C86.5026 3.20003 87.3774 3.12669 88.2722 3.22669C89.167 3.32669 90.0084 3.58669 90.7963 4.00669C91.591 4.42669 92.2788 4.98003 92.8597 5.66003C93.4407 6.34003 93.8747 7.10669 94.1686 7.95336C94.4557 8.80003 94.5826 9.67336 94.5358 10.5667C94.4891 11.46 94.2821 12.32 93.9081 13.1334ZM90.5493 20.4534L77.5812 12.8867L78.476 11.4267L91.3372 18.7267L90.5426 20.4534H90.5493ZM84.5928 33.46H64.9537L76.5595 14.56L89.7346 22.2467L84.5928 33.46ZM91.3306 35.42C91.4374 35.42 91.4975 35.4734 91.5242 35.58C91.7579 36.7667 91.9182 37.9667 92.0117 39.18H23.4719C23.5588 37.9734 23.719 36.7734 23.9527 35.58C23.9728 35.4734 24.0395 35.4267 24.1464 35.42H91.3372H91.3306ZM86.6094 56.4934C80.0586 62.8934 77.9351 68.92 77.254 71.9334C77.2073 72.14 77.1004 72.3067 76.9401 72.44C76.7732 72.5734 76.5862 72.6334 76.3792 72.6334H61.7551C62.276 71.0667 62.3093 69.4934 61.8419 67.9134C60.5665 63.58 55.8453 61.1334 51.3112 62.46C50.8304 62.6 50.363 62.78 49.9156 63C49.7553 62.5534 49.4348 62.3067 48.9607 62.2734C48.4865 62.24 48.1326 62.4267 47.9056 62.8467L44.7738 68.5934L38.5234 70.42C37.9825 69.2267 37.3749 68.0667 36.7004 66.94C38.9909 67.6667 41.308 67.78 43.6586 67.2934C43.9591 67.2334 44.1794 67.0667 44.3197 66.8C44.4666 66.5334 44.4799 66.26 44.3664 65.9734C43.2045 63.0734 41.3882 60.6734 38.9107 58.7667C42.6636 56.94 44.6402 51.6267 44.7337 51.36C44.8205 51.1134 44.8138 50.8667 44.707 50.6267C44.6001 50.3867 44.4265 50.2134 44.1794 50.1134C40.3732 48.5667 36.2864 50.2267 34.1362 51.3934C33.8023 45.82 31.3115 43 31.198 42.8734C31.0244 42.68 30.8107 42.5734 30.5503 42.5534C30.2899 42.5334 30.0628 42.6 29.8558 42.7667C26.6105 45.3534 26.0362 49.14 26.0362 51.4734C25.7156 51.2934 25.3951 51.1267 25.0813 50.98C23.679 47.6267 23.3317 44.06 23.3785 41.1467H92.0985C92.1719 45.7867 91.2237 52 86.6094 56.5V56.4934ZM59.3511 73.2134C58.4363 74.7734 57.1074 75.8 55.3712 76.2934C54.8437 76.4467 54.3028 76.54 53.7552 76.5667L51.8922 73.1L56.2327 70.6267C56.2327 70.6267 56.2794 70.6 56.3061 70.58C56.7402 70.28 56.8871 69.8734 56.7335 69.3667C56.5866 68.86 56.246 68.5934 55.7185 68.5734L50.4898 68.18L50.1626 65.1C50.6902 64.7734 51.2578 64.5267 51.8521 64.3534C55.3512 63.3334 58.9839 65.18 59.9521 68.4734C60.4396 70.14 60.2326 71.7267 59.3445 73.22L59.3511 73.2134ZM47.5517 74.1C47.3113 73.96 47.0575 73.9334 46.7837 74.0067L39.2647 76.2C39.0109 76.2734 38.844 76.1867 38.7638 75.9267L37.9158 73.04C37.8423 72.7867 37.9291 72.62 38.1896 72.5467L45.7086 70.3534C45.9691 70.28 46.1627 70.12 46.2963 69.88L48.2996 66.2L48.6134 69.1867C48.6401 69.42 48.7336 69.62 48.9072 69.7867C49.0809 69.9534 49.2812 70.04 49.5149 70.06L52.8003 70.3067L50.0758 71.86C49.8421 71.9934 49.6952 72.1867 49.6217 72.44C49.5483 72.6934 49.575 72.94 49.7019 73.1734L51.3713 76.2867L47.545 74.0934L47.5517 74.1ZM32.7472 63.2067C32.3666 63.4 32.1863 63.7067 32.2064 64.1267C32.4 68.3867 31.0044 71.1334 30.1363 72.4067C27.4786 68.88 28.3667 63.5334 28.38 63.48C28.4602 63.02 28.2932 62.6734 27.8792 62.4467C27.4652 62.22 27.0846 62.2667 26.744 62.5867C23.6122 65.4867 20.2066 65.6467 18.4971 65.5C19.7592 62.76 21.7558 60.7534 24.4869 59.4867C24.8809 59.3334 25.0946 59.0467 25.1147 58.6267C25.1414 58.2067 24.9611 57.8934 24.5871 57.7C24.5404 57.6734 19.9929 55.2534 18.4236 51.7067C19.9862 51.52 23.1648 51.5867 26.5704 54.1534C26.931 54.4267 27.2983 54.44 27.6789 54.2067C28.0595 53.9734 28.2064 53.6334 28.1263 53.1934C28.1129 53.14 27.2315 48.2334 30.3099 44.9934C31.0711 46.24 32.2998 48.92 32.1997 53.0934C32.193 53.5 32.3666 53.7934 32.7272 53.9867C33.0878 54.1734 33.4284 54.1534 33.7623 53.9134C33.809 53.88 38.3431 50.66 42.49 51.62C41.6486 53.4334 39.5318 57.2467 36.5201 57.4C36.0126 57.4267 35.7121 57.6867 35.6053 58.1734C35.4984 58.6667 35.6721 59.0267 36.1261 59.2534C38.7304 60.76 40.7004 62.86 42.0359 65.5467C39.0176 65.8134 36.2731 65.0734 33.8023 63.32C33.4751 63.0534 33.1212 63.02 32.7406 63.2067H32.7472ZM23.7925 68.96L22.6038 71.72C22.497 71.9667 22.3234 72.0334 22.0763 71.9267L14.8778 68.84C14.6307 68.7334 14.3769 68.7267 14.1232 68.8334L10.2301 70.3933L11.8928 67.8933C12.0264 67.6934 12.0798 67.48 12.0531 67.24C12.0264 67.0067 11.9262 66.8067 11.7593 66.64L9.38871 64.3667L12.4805 64.9C12.7409 64.9467 12.9813 64.8934 13.2017 64.74C13.422 64.5867 13.5556 64.3867 13.609 64.1267L14.3102 60.66L15.8594 64.78C15.9596 65.04 16.1332 65.2267 16.3936 65.34L16.4337 65.36C16.3602 65.5534 16.2801 65.74 16.2133 65.94C16.1198 66.2067 16.1398 66.4667 16.2734 66.72C16.407 66.9734 16.6073 67.1334 16.8878 67.2067C18.2901 67.5267 19.7057 67.58 21.1348 67.3667L23.5988 68.4267C23.8459 68.5334 23.9127 68.7067 23.8058 68.9534L23.7925 68.96ZM8.07989 70.08C7.46554 69.9934 6.87123 69.8267 6.29695 69.58C4.56743 68.86 3.35877 67.6267 2.65761 65.8933C2.02323 64.3467 2.03659 62.8 2.691 61.26C4.05325 58.1067 7.87956 56.7067 11.2318 58.14C11.7393 58.3534 12.2067 58.6267 12.6474 58.9534L11.8661 62.8134L6.938 61.9667C6.938 61.9667 6.8779 61.96 6.85119 61.9534C6.32366 61.9134 5.95638 62.1334 5.7427 62.62C5.53569 63.1067 5.62918 63.5267 6.02316 63.88L9.79605 67.5L8.07989 70.08ZM42.0826 26.8134C41.8222 23.9067 41.2079 22.08 40.5334 20.9267C42.7771 21.1467 46.1694 22.0667 48.5667 25.3734C48.0926 26.4334 47.8188 27.5467 47.732 28.7067C46.9841 27.32 46.116 26.02 45.1143 24.8067C44.934 24.6 44.7136 24.4934 44.4465 24.4734C44.1794 24.4534 43.939 24.5334 43.732 24.7067C43.525 24.88 43.4115 25.1067 43.3915 25.3734C43.3714 25.64 43.4449 25.88 43.6185 26.0867C43.6519 26.1267 46.6034 29.6067 47.5049 33.4667H47.1109C46.5433 33.34 42.5568 32.24 42.076 26.82L42.0826 26.8134ZM51.6317 24.1467C53.181 22.3067 54.0357 20.8067 54.4764 19.6134C56.3996 23.0934 58.857 29.34 54.7101 33.46H54.049C55.3712 30.2334 54.8303 25.7534 54.8036 25.5334C54.7702 25.2667 54.6434 25.0467 54.4297 24.88C54.216 24.7134 53.9756 24.6467 53.7018 24.68C53.428 24.7134 53.2143 24.84 53.0474 25.0534C52.8805 25.2667 52.8137 25.5067 52.8471 25.78C53.0274 27.2534 53.1743 31.3267 51.8521 33.4667H50.4965C49.8822 32.0467 48.5132 27.86 51.625 24.1534L51.6317 24.1467ZM92.0785 2.47336C91.5709 2.18003 91.0434 1.93336 90.4892 1.74003C89.9349 1.54669 89.374 1.40669 88.793 1.32669C88.2121 1.24669 87.6311 1.22003 87.0502 1.24669C86.4625 1.27336 85.8882 1.36003 85.3206 1.50003C84.753 1.64003 84.2055 1.83336 83.6712 2.08003C83.1437 2.32669 82.6362 2.62003 82.1688 2.96669C81.6947 3.31336 81.2606 3.70003 80.8599 4.12669C80.4593 4.55336 80.112 5.02003 79.7982 5.51336L62.6366 33.4534H57.261C59.2243 30.62 59.4847 26.92 57.9956 22.6267C57.1275 20.2 55.9322 17.94 54.4163 15.8534V15.84C54.2427 15.6267 54.0223 15.5 53.7552 15.4667C53.4881 15.4334 53.2477 15.4934 53.0274 15.66C52.8137 15.8267 52.6868 16.04 52.6534 16.3067C52.62 16.5734 52.6801 16.8134 52.8471 17.0334C52.8671 17.0734 53.5282 18.82 50.1159 22.88C49.9423 23.0934 49.7753 23.3067 49.6151 23.5267C45.0475 18.0067 38.1962 18.9334 37.8891 18.98C37.6487 19.0134 37.4483 19.1267 37.2881 19.3134C37.1278 19.5 37.0477 19.7134 37.0543 19.96C37.0543 20.2067 37.1412 20.42 37.3014 20.6C37.4617 20.78 37.6687 20.8934 37.9091 20.92C37.9291 20.92 39.6453 21.6667 40.1194 26.9734C40.4065 30.1867 41.7287 32.2 43.131 33.4467H24.133C23.6189 33.4467 23.1648 33.6134 22.7641 33.94C22.3634 34.2667 22.1164 34.68 22.0162 35.1867C21.6155 37.1934 20.6005 43.7534 22.6573 50.0867C19.3919 49.2534 16.9746 49.98 16.8277 50.02C16.5806 50.1 16.3869 50.2534 16.26 50.48C16.1332 50.7067 16.0998 50.9467 16.1666 51.2C17.0547 54.6134 20.2132 57.1934 22.1364 58.4934C20.1598 59.7267 18.5772 61.34 17.3953 63.34L15.0781 57.1667C14.9245 56.7534 14.624 56.5134 14.1833 56.46C13.7426 56.4067 13.3953 56.56 13.1416 56.92C12.7743 56.6934 12.387 56.4934 11.993 56.3267C7.65251 54.4667 2.66429 56.3267 0.874669 60.4734C-0.000107735 62.5134 -0.0201407 64.5534 0.821247 66.6067C1.72273 68.8467 3.28531 70.4334 5.51566 71.3667C5.97642 71.5667 6.45053 71.72 6.93133 71.84C6.77106 72.2867 6.85787 72.68 7.20511 73.0067C7.54567 73.34 7.93966 73.4134 8.38038 73.2334L14.4638 70.7934L21.2883 73.72C21.5755 73.8467 21.876 73.9067 22.1898 73.9134C22.5037 73.9134 22.8042 73.86 23.098 73.7467C23.3918 73.6334 23.6456 73.4667 23.8726 73.2467C24.0996 73.0267 24.2733 72.7734 24.3935 72.4867L25.5821 69.7267C25.709 69.44 25.7691 69.14 25.7757 68.8267C25.7757 68.5134 25.7223 68.2134 25.6088 67.92C25.4953 67.6267 25.3217 67.3734 25.108 67.1467C24.8876 66.92 24.6339 66.7467 24.3467 66.6267L24.1597 66.5467C24.8876 66.2467 25.5821 65.88 26.2432 65.4467C26.2098 67.9334 26.6706 71.8934 29.4752 74.6267C29.6688 74.8134 29.8959 74.9067 30.1697 74.9067C30.4368 74.9067 30.6705 74.8067 30.8575 74.62C30.9843 74.4934 33.6754 71.7534 34.1162 66.4L34.1629 66.48C35.1178 68.1134 36.1796 69.92 36.7071 71.1734C36.3732 71.4734 36.1395 71.8467 36.0193 72.28C35.8924 72.7134 35.8991 73.1534 36.026 73.5867L36.8741 76.4734C36.9609 76.7734 37.1078 77.0467 37.3014 77.2867C37.4951 77.5334 37.7355 77.7267 38.0093 77.88C38.283 78.0334 38.5769 78.12 38.8907 78.1534C39.2046 78.1867 39.5117 78.16 39.8122 78.0734L46.9306 75.9934L52.994 79.4734C53.3813 79.6934 53.7552 79.6867 54.1359 79.4534C54.5098 79.22 54.6834 78.88 54.65 78.4334C55.0774 78.3734 55.4981 78.28 55.9121 78.16C57.9822 77.5667 59.6049 76.3734 60.7935 74.5867H76.3725C77.0403 74.5867 77.6413 74.38 78.1622 73.9667C78.683 73.5467 79.0236 73.0134 79.1638 72.36C79.7982 69.5534 81.7881 63.9334 87.9784 57.8867C95.7245 50.3134 94.1218 38.6 93.4407 35.1867C93.3405 34.68 93.0935 34.2667 92.6928 33.94C92.2921 33.6134 91.8381 33.4534 91.3239 33.4467H86.743L95.6844 13.9334C96.1518 12.92 96.4189 11.8667 96.4857 10.7534C96.5592 9.64669 96.4256 8.56003 96.0917 7.50003C95.7579 6.44003 95.2437 5.47336 94.5492 4.60669C93.8547 3.74003 93.0267 3.02003 92.0651 2.46003L92.0785 2.47336Z" fill="#552B42"/>
</g>
</g>
<defs>
<clipPath id="clip0_510_2215">
<rect width="97" height="80" fill="white"/>
</clipPath>
</defs>
</svg>
