<svg width="85" height="80" viewBox="0 0 85 80" fill="none" xmlns="http://www.w3.org/2000/svg">
<g clip-path="url(#clip0_635_1489)">
<mask id="mask0_635_1489" style="mask-type:luminance" maskUnits="userSpaceOnUse" x="0" y="0" width="85" height="80">
<path d="M84.5287 0H0V79.847H84.5287V0Z" fill="white"/>
</mask>
<g mask="url(#mask0_635_1489)">
<path fill-rule="evenodd" clip-rule="evenodd" d="M42.0085 52.6391V62.1342C42.0218 62.62 42.4731 74.6569 52.9737 77.6911C63.5074 74.6369 63.9389 62.2274 63.9389 62.101V52.6324H42.0085V52.6391ZM52.9737 80C52.8741 80 52.7746 79.9867 52.6816 79.9601C40.2496 76.6198 39.7518 62.3006 39.7451 62.1542V51.5013C39.7451 50.8758 40.2496 50.3701 40.8735 50.3701H65.0672C65.6912 50.3701 66.1956 50.8758 66.1956 51.5013V62.1276C66.1956 62.3006 65.6912 76.6198 53.2591 79.9601C53.1595 79.9867 53.0666 80 52.967 80H52.9737Z" fill="#1E4A35"/>
<path fill-rule="evenodd" clip-rule="evenodd" d="M51.6862 50.3701H54.2616V19.3695H51.6862V50.3634V50.3701ZM55.39 52.6391H50.5512C49.9273 52.6391 49.4229 52.1334 49.4229 51.5079V18.2383C49.4229 17.6129 49.9273 17.1072 50.5512 17.1072H55.39C56.0139 17.1072 56.5184 17.6129 56.5184 18.2383V51.5013C56.5184 52.1267 56.0139 52.6324 55.39 52.6324V52.6391Z" fill="#1E4A35"/>
<path fill-rule="evenodd" clip-rule="evenodd" d="M51.1751 17.1005H54.7726L57.5405 12.7622V9.08923H48.4006V12.7622L51.1684 17.1005H51.1751ZM55.3899 19.3695H50.5512C50.1662 19.3695 49.8078 19.1699 49.5954 18.8439L46.3164 13.7071C46.1969 13.5274 46.1372 13.3145 46.1372 13.0949V7.95807C46.1372 7.3326 46.6417 6.8269 47.2656 6.8269H58.6688C59.2928 6.8269 59.7972 7.3326 59.7972 7.95807V13.0949C59.7972 13.3145 59.7375 13.5207 59.618 13.7071L56.3391 18.8505C56.1333 19.1766 55.7749 19.3762 55.3833 19.3762L55.3899 19.3695Z" fill="#1E4A35"/>
<path fill-rule="evenodd" clip-rule="evenodd" d="M52.005 52.6391L52.9675 56.4385L53.9299 52.6391H52.005ZM52.9741 62.1675C52.4564 62.1675 52.005 61.8149 51.8789 61.3158L49.4562 51.7874C49.3699 51.4481 49.4429 51.0887 49.662 50.8093C49.8744 50.5365 50.2063 50.3701 50.558 50.3701H55.3968C55.7486 50.3701 56.0738 50.5298 56.2929 50.8093C56.5053 51.0887 56.5849 51.4481 56.4986 51.7874L54.0826 61.3158C53.9565 61.8215 53.5051 62.1675 52.9874 62.1675H52.9741Z" fill="#1E4A35"/>
<path fill-rule="evenodd" clip-rule="evenodd" d="M83.865 16.6415H63.7666C63.1426 16.6415 62.6382 16.1358 62.6382 15.5103V7.96478C62.6382 7.33932 63.1426 6.83362 63.7666 6.83362C64.3905 6.83362 64.8949 7.33932 64.8949 7.96478V14.3792H82.7299V7.96478C82.7299 7.33932 83.2344 6.83362 83.8583 6.83362C84.4822 6.83362 84.9867 7.33932 84.9867 7.96478V15.5103C84.9867 16.1358 84.4822 16.6415 83.8583 16.6415H83.865Z" fill="#1E4A35"/>
<path fill-rule="evenodd" clip-rule="evenodd" d="M79.9619 16.6415C79.338 16.6415 78.8335 16.1358 78.8335 15.5103V7.96478C78.8335 7.33932 79.338 6.83362 79.9619 6.83362C80.5858 6.83362 81.0903 7.33932 81.0903 7.96478V15.5103C81.0903 16.1358 80.5858 16.6415 79.9619 16.6415Z" fill="#1E4A35"/>
<path fill-rule="evenodd" clip-rule="evenodd" d="M75.8667 16.6415C75.2427 16.6415 74.7383 16.1358 74.7383 15.5103V7.96478C74.7383 7.33932 75.2427 6.83362 75.8667 6.83362C76.4906 6.83362 76.995 7.33932 76.995 7.96478V15.5103C76.995 16.1358 76.4906 16.6415 75.8667 16.6415Z" fill="#1E4A35"/>
<path fill-rule="evenodd" clip-rule="evenodd" d="M71.7714 16.6415C71.1475 16.6415 70.6431 16.1358 70.6431 15.5103V7.96478C70.6431 7.33932 71.1475 6.83362 71.7714 6.83362C72.3954 6.83362 72.8998 7.33932 72.8998 7.96478V15.5103C72.8998 16.1358 72.3954 16.6415 71.7714 16.6415Z" fill="#1E4A35"/>
<path fill-rule="evenodd" clip-rule="evenodd" d="M67.6762 16.6415C67.0523 16.6415 66.5479 16.1358 66.5479 15.5103V7.96478C66.5479 7.33932 67.0523 6.83362 67.6762 6.83362C68.3002 6.83362 68.8046 7.33932 68.8046 7.96478V15.5103C68.8046 16.1358 68.3002 16.6415 67.6762 16.6415Z" fill="#1E4A35"/>
<path fill-rule="evenodd" clip-rule="evenodd" d="M71.4594 18.5445H76.172V16.6415H71.4594V18.5445ZM77.307 20.8135H70.331C69.7071 20.8135 69.2026 20.3078 69.2026 19.6823V15.5103C69.2026 14.8848 69.7071 14.3792 70.331 14.3792H77.307C77.931 14.3792 78.4354 14.8848 78.4354 15.5103V19.6823C78.4354 20.3078 77.931 20.8135 77.307 20.8135Z" fill="#1E4A35"/>
<path fill-rule="evenodd" clip-rule="evenodd" d="M73.019 77.7311H74.612V20.8135H73.019V77.7311ZM75.747 80H71.8906C71.2667 80 70.7622 79.4943 70.7622 78.8689V19.6823C70.7622 19.0568 71.2667 18.5511 71.8906 18.5511H75.747C76.3709 18.5511 76.8754 19.0568 76.8754 19.6823V78.8689C76.8754 79.4943 76.3709 80 75.747 80Z" fill="#1E4A35"/>
<path fill-rule="evenodd" clip-rule="evenodd" d="M37.7342 80H1.17476C0.550838 80 0.0463867 79.4943 0.0463867 78.8688C0.0463867 78.2434 0.550838 77.7377 1.17476 77.7377H37.7342C38.3581 77.7377 38.8626 78.2434 38.8626 78.8688C38.8626 79.4943 38.3581 80 37.7342 80Z" fill="#1E4A35"/>
<path fill-rule="evenodd" clip-rule="evenodd" d="M19.4545 80C18.9235 80 18.4456 79.6208 18.346 79.0751C13.3413 52.8188 25.6141 30.3552 25.7402 30.1356C26.0455 29.59 26.7358 29.3904 27.2801 29.6965C27.8244 30.0025 28.0235 30.6945 27.7182 31.2402C27.5987 31.4597 15.7308 53.2313 20.5696 78.6559C20.689 79.2681 20.2841 79.867 19.6735 79.9801C19.6005 79.9934 19.5275 80 19.4611 80H19.4545Z" fill="#1E4A35"/>
<path fill-rule="evenodd" clip-rule="evenodd" d="M9.52479 36.3637C9.21947 37.7477 9.43851 39.1983 10.1554 40.4492C10.8788 41.7001 12.0205 42.6117 13.3679 43.0442C13.6732 41.6602 13.4608 40.2096 12.7373 38.9587C12.0139 37.7078 10.8722 36.7962 9.52479 36.3637ZM14.1445 45.5062C14.0914 45.5062 14.0383 45.5062 13.9852 45.4929C11.5426 45.1469 9.4385 43.7163 8.20393 41.5804C6.96935 39.4444 6.79014 36.896 7.71275 34.6004C7.90524 34.1147 8.40305 33.8285 8.92078 33.9017C11.3634 34.2477 13.4675 35.6783 14.7021 37.8142C15.9366 39.9568 16.1158 42.4986 15.1932 44.7942C15.0207 45.2267 14.6025 45.5062 14.1445 45.5062Z" fill="#1E4A35"/>
<path fill-rule="evenodd" clip-rule="evenodd" d="M19.9456 51.3282C19.846 51.3282 19.7398 51.3149 19.6336 51.2817C14.6887 49.871 13.1222 44.9139 13.0559 44.7009C12.8767 44.1021 13.2085 43.47 13.8059 43.2837C14.4033 43.104 15.0338 43.4367 15.2197 44.0355C15.2396 44.0888 16.514 48.0345 20.2576 49.0992C20.8616 49.2722 21.2067 49.8976 21.0342 50.5031C20.8948 51.0022 20.4368 51.3282 19.9456 51.3282Z" fill="#1E4A35"/>
<path fill-rule="evenodd" clip-rule="evenodd" d="M5.2368 52.892C4.74562 54.7684 5.00448 56.7579 5.98684 58.4613C6.96919 60.1714 8.55555 61.389 10.4273 61.8947C10.9185 60.0183 10.6596 58.0288 9.67729 56.3254C8.69494 54.6154 7.10858 53.3977 5.2368 52.892ZM11.1774 64.3434C11.1243 64.3434 11.0712 64.3434 11.0181 64.3301C8.06438 63.9109 5.51557 62.1809 4.02213 59.5925C2.52869 57.0041 2.31629 53.93 3.42476 51.1553C3.61724 50.6696 4.11506 50.3835 4.63278 50.4567C7.58648 50.8759 10.1353 52.6059 11.6287 55.1943C13.1155 57.7826 13.3346 60.8567 12.2261 63.6314C12.0535 64.0639 11.6354 64.3434 11.1774 64.3434Z" fill="#1E4A35"/>
<path fill-rule="evenodd" clip-rule="evenodd" d="M18.3992 71.5894C18.2997 71.5894 18.1935 71.5761 18.0873 71.5495C12.0737 69.8395 10.1687 63.8044 10.0891 63.5515C9.90323 62.9527 10.2417 62.3205 10.8391 62.1342C11.4365 61.9546 12.0671 62.2873 12.2529 62.8861C12.2662 62.9394 13.899 68.003 18.7046 69.3737C19.3086 69.5467 19.6537 70.1722 19.4812 70.7777C19.3418 71.2767 18.8838 71.6028 18.3926 71.6028L18.3992 71.5894Z" fill="#1E4A35"/>
<path fill-rule="evenodd" clip-rule="evenodd" d="M35.7098 47.2028C33.7517 47.2161 31.9198 47.9813 30.5325 49.3653C29.1387 50.7627 28.382 52.6125 28.3687 54.5554C30.3201 54.5421 32.1587 53.7769 33.546 52.3929C34.9332 50.9956 35.6965 49.1458 35.7098 47.2028ZM28.3289 56.8244C27.9439 56.8244 27.5523 56.8044 27.1673 56.7512C26.6496 56.6913 26.2447 56.2788 26.1783 55.7598C25.8199 52.7921 26.8222 49.8777 28.9329 47.7618C30.7516 45.9386 33.1743 44.9338 35.7496 44.9338C36.1346 44.9338 36.5262 44.9538 36.9112 45.007C37.4289 45.0669 37.8338 45.4795 37.9002 45.9985C38.2586 48.9661 37.2563 51.8805 35.1456 53.9965C33.3269 55.8196 30.9042 56.8244 28.3289 56.8244Z" fill="#1E4A35"/>
<path fill-rule="evenodd" clip-rule="evenodd" d="M18.4522 61.8814C17.8349 61.8814 17.3304 61.3824 17.3238 60.7636C17.3172 60.1381 17.815 59.6191 18.4389 59.6124C23.4369 59.5392 26.3176 55.0678 26.3442 55.0212C26.6761 54.4956 27.373 54.3359 27.904 54.6686C28.435 55.0013 28.5943 55.6999 28.2624 56.2256C28.123 56.4518 24.7246 61.7816 18.4721 61.8814C18.4721 61.8814 18.4588 61.8814 18.4522 61.8814Z" fill="#1E4A35"/>
<path fill-rule="evenodd" clip-rule="evenodd" d="M31.3092 39.2781C32.6765 39.5775 34.1567 39.3579 35.3846 38.646C36.6325 37.9207 37.5418 36.7762 37.9733 35.4255C36.6059 35.126 35.1258 35.3456 33.8978 36.0576C32.65 36.7829 31.7406 37.9273 31.3092 39.2781ZM32.5371 41.6801C31.5083 41.6801 30.5061 41.4872 29.5569 41.1013C29.0724 40.9083 28.7869 40.4026 28.86 39.8902C29.2051 37.4416 30.6322 35.3323 32.7628 34.0947C34.8669 32.877 37.4755 32.6974 39.7256 33.6023C40.2101 33.7953 40.4955 34.2943 40.4225 34.8133C40.0774 37.2619 38.6503 39.3779 36.5197 40.6089C35.3116 41.3075 33.931 41.6801 32.5438 41.6801H32.5371Z" fill="#1E4A35"/>
<path fill-rule="evenodd" clip-rule="evenodd" d="M23.9549 43.5498C23.2579 43.5498 22.5344 43.47 21.7778 43.277C21.1737 43.124 20.802 42.5051 20.9547 41.8996C21.1074 41.2941 21.7247 40.9215 22.3287 41.0745C26.1054 42.0261 29.1852 39.2381 29.2118 39.2115C29.6698 38.7923 30.3866 38.8189 30.8114 39.278C31.2362 39.7371 31.2097 40.4491 30.7517 40.8749C30.6123 41.0014 27.8378 43.5498 23.9549 43.5498Z" fill="#1E4A35"/>
<path fill-rule="evenodd" clip-rule="evenodd" d="M31.8798 80C31.4085 80 30.9705 79.7006 30.8045 79.2282C30.7581 79.0885 30.7116 78.9487 30.6718 78.809C30.1209 77.1721 27.7114 70.6579 23.2776 68.1627C22.7333 67.8566 22.5408 67.1646 22.8461 66.619C23.1515 66.0734 23.8418 65.8804 24.3861 66.1865C26.9149 67.6105 28.8398 70.0325 30.2204 72.3613C31.0103 67.484 34.1233 64.3168 34.3091 64.1371C34.7538 63.6979 35.4707 63.6979 35.9088 64.1371C36.3468 64.5829 36.3468 65.2949 35.9088 65.7407C35.6897 65.9603 30.7382 71.0439 32.8223 78.0571C32.9153 78.3299 32.9617 78.5029 32.975 78.5495C33.1476 79.1417 32.8157 79.7672 32.2316 79.9535C32.1188 79.9867 32.0059 80.0067 31.8931 80.0067L31.8798 80Z" fill="#1E4A35"/>
<path fill-rule="evenodd" clip-rule="evenodd" d="M4.14181 80C4.02897 80 3.91613 79.98 3.8033 79.9467C3.21256 79.7604 2.88068 79.1416 3.05989 78.5428C3.07317 78.5028 3.11299 78.3697 3.18601 78.1502C4.83875 72.5675 0.789864 68.4421 0.750039 68.4022C0.305326 67.963 0.305326 67.2444 0.750039 66.7986C1.18811 66.3528 1.90497 66.3528 2.34968 66.7986C2.4957 66.945 4.82547 69.3138 5.6087 73.0134C6.71716 71.2567 8.19733 69.5001 10.1089 68.4221C10.6532 68.1161 11.3435 68.309 11.6488 68.8547C11.9542 69.4003 11.7617 70.0923 11.2174 70.3984C7.69951 72.3746 5.77464 77.5713 5.33656 78.8821C5.30337 78.9952 5.26355 79.1083 5.22372 79.2281C5.06442 79.7005 4.62635 80 4.15508 80H4.14181Z" fill="#1E4A35"/>
<path fill-rule="evenodd" clip-rule="evenodd" d="M14.3835 9.8877C11.8945 9.8877 9.87667 11.9171 9.87667 14.4057C9.87667 16.8943 11.9011 18.9237 14.3835 18.9237C16.866 18.9237 18.8904 16.8943 18.8904 14.4057C18.8904 11.9171 16.866 9.8877 14.3835 9.8877ZM14.3835 21.1994C10.6466 21.1994 7.61328 18.1519 7.61328 14.4124C7.61328 10.6729 10.6533 7.62537 14.3835 7.62537C18.1138 7.62537 21.1538 10.6729 21.1538 14.4124C21.1538 18.1519 18.1138 21.1994 14.3835 21.1994Z" fill="#1E4A35"/>
<path fill-rule="evenodd" clip-rule="evenodd" d="M14.3833 6.00848C13.7594 6.00848 13.2549 5.50279 13.2549 4.87732V1.13782C13.2483 0.505697 13.7594 0 14.3833 0C15.0073 0 15.5117 0.505697 15.5117 1.13117V4.87066C15.5117 5.49613 15.0073 6.00183 14.3833 6.00183V6.00848Z" fill="#1E4A35"/>
<path fill-rule="evenodd" clip-rule="evenodd" d="M19.136 7.286C18.9435 7.286 18.751 7.23942 18.5718 7.13296C18.0275 6.82022 17.8483 6.12821 18.1602 5.58259L20.0254 2.34879C20.3373 1.80317 21.0276 1.62352 21.5719 1.93625C22.1162 2.24898 22.2954 2.94099 21.9834 3.48661L20.1183 6.72041C19.9059 7.08638 19.5276 7.286 19.136 7.286Z" fill="#1E4A35"/>
<path fill-rule="evenodd" clip-rule="evenodd" d="M22.6206 10.7727C22.229 10.7727 21.8507 10.5664 21.6383 10.2071C21.3263 9.66811 21.5122 8.96945 22.0498 8.65671L25.2756 6.78696C25.8199 6.47423 26.5102 6.66054 26.8222 7.1995C27.1341 7.74513 26.9483 8.43713 26.4106 8.74987L23.1848 10.6196C23.0056 10.7194 22.8131 10.7727 22.6206 10.7727Z" fill="#1E4A35"/>
<path fill-rule="evenodd" clip-rule="evenodd" d="M27.6253 15.5436H23.895C23.2711 15.5436 22.7666 15.0379 22.7666 14.4124C22.7666 13.7869 23.2711 13.2812 23.895 13.2812H27.6253C28.2492 13.2812 28.7536 13.7869 28.7536 14.4124C28.7536 15.0379 28.2492 15.5436 27.6253 15.5436Z" fill="#1E4A35"/>
<path fill-rule="evenodd" clip-rule="evenodd" d="M25.8462 22.1774C25.6537 22.1774 25.4612 22.1309 25.282 22.0244L22.0562 20.1546C21.5119 19.8419 21.326 19.1499 21.6446 18.6043C21.9566 18.0587 22.6535 17.879 23.1912 18.1917L26.417 20.0615C26.9613 20.3742 27.1405 21.0662 26.8285 21.6119C26.6161 21.9778 26.2378 22.1774 25.8462 22.1774Z" fill="#1E4A35"/>
<path fill-rule="evenodd" clip-rule="evenodd" d="M21.0009 27.0415C20.6093 27.0415 20.231 26.8352 20.0186 26.4759L18.1534 23.2421C17.8414 22.6965 18.0273 22.0045 18.5649 21.6917C19.1092 21.379 19.7995 21.5653 20.1115 22.1043L21.9766 25.3381C22.2886 25.8837 22.1027 26.5757 21.5651 26.8885C21.3859 26.9883 21.1934 27.0415 21.0009 27.0415Z" fill="#1E4A35"/>
<path fill-rule="evenodd" clip-rule="evenodd" d="M14.3833 28.8181C13.7593 28.8181 13.2549 28.3124 13.2549 27.6869V23.9474C13.2549 23.322 13.7593 22.8163 14.3833 22.8163C15.0072 22.8163 15.5116 23.322 15.5116 23.9474V27.6869C15.5116 28.3124 15.0072 28.8181 14.3833 28.8181Z" fill="#1E4A35"/>
<path fill-rule="evenodd" clip-rule="evenodd" d="M7.759 27.0416C7.56651 27.0416 7.37402 26.995 7.19481 26.8885C6.65053 26.5758 6.47132 25.8838 6.78328 25.3382L8.64842 22.0977C8.96039 21.5521 9.65069 21.3724 10.195 21.6852C10.7392 21.9979 10.9185 22.6899 10.6065 23.2355L8.74135 26.4693C8.52895 26.8353 8.15061 27.0349 7.759 27.0349V27.0416Z" fill="#1E4A35"/>
<path fill-rule="evenodd" clip-rule="evenodd" d="M2.91359 22.1774C2.52198 22.1774 2.14364 21.9712 1.93124 21.6119C1.61928 21.0662 1.80513 20.3742 2.34277 20.0615L5.57524 18.1917C6.11287 17.879 6.80981 18.0653 7.12178 18.6043C7.43374 19.1433 7.24789 19.8419 6.71025 20.1547L3.48442 22.0244C3.30521 22.1242 3.11272 22.1774 2.92023 22.1774H2.91359Z" fill="#1E4A35"/>
<path fill-rule="evenodd" clip-rule="evenodd" d="M4.87184 15.5436H1.14156C0.517635 15.5436 0.0131836 15.0379 0.0131836 14.4124C0.0131836 13.7869 0.517635 13.2812 1.14156 13.2812H4.87184C5.49577 13.2812 6.00022 13.7869 6.00022 14.4124C6.00022 15.0379 5.49577 15.5436 4.87184 15.5436Z" fill="#1E4A35"/>
<path fill-rule="evenodd" clip-rule="evenodd" d="M6.13942 10.7727C5.94693 10.7727 5.75444 10.7261 5.57523 10.6196L2.34276 8.74986C1.79848 8.43713 1.61927 7.74512 1.93123 7.1995C2.2432 6.65388 2.9335 6.47422 3.47777 6.78696L6.70361 8.65671C7.24788 8.96944 7.42709 9.66145 7.11513 10.2071C6.90273 10.573 6.52439 10.7727 6.13278 10.7727H6.13942Z" fill="#1E4A35"/>
<path fill-rule="evenodd" clip-rule="evenodd" d="M9.62444 7.28606C9.23282 7.28606 8.85449 7.07979 8.64209 6.72048L6.77694 3.48002C6.46498 2.94106 6.65083 2.2424 7.18847 1.92966C7.72611 1.61693 8.42305 1.80324 8.73501 2.34221L10.6002 5.57601C10.9121 6.11497 10.7263 6.81363 10.1886 7.12637C10.0094 7.23283 9.81693 7.27941 9.62444 7.27941V7.28606Z" fill="#1E4A35"/>
</g>
</g>
<defs>
<clipPath id="clip0_635_1489">
<rect width="85" height="80" fill="white"/>
</clipPath>
</defs>
</svg>
