<svg width="79" height="80" viewBox="0 0 79 80" fill="none" xmlns="http://www.w3.org/2000/svg">
<g clip-path="url(#clip0_510_2362)">
<mask id="mask0_510_2362" style="mask-type:luminance" maskUnits="userSpaceOnUse" x="0" y="0" width="79" height="80">
<path d="M78.6064 0H0V80H78.6064V0Z" fill="white"/>
</mask>
<g mask="url(#mask0_510_2362)">
<path d="M68.8054 42.8667H16.1921C14.0972 42.8667 11.9756 42.7933 9.87402 42.8333V38.04C11.2551 37.9067 12.6094 37.4467 13.797 36.6467C14.9646 35.8667 15.9253 34.8333 16.6191 33.6333C18.1536 36.28 20.9891 38.1 24.2583 38.1C27.5274 38.1 30.3496 36.2933 31.8841 33.6533C32.1443 34.1133 32.4445 34.5467 32.7914 34.96C35.3 37.9733 39.6366 38.8933 43.186 37.3133C44.9206 36.54 46.295 35.24 47.1957 33.66C47.576 34.3333 48.0497 34.9533 48.6034 35.5133C51.5123 38.42 56.2826 38.9533 59.7185 36.6533C60.8728 35.88 61.8268 34.8667 62.514 33.6867C63.1878 34.8533 64.1286 35.8733 65.2894 36.6533C66.3503 37.3667 67.5578 37.8133 68.7988 37.9933V42.8733L68.8054 42.8667ZM31.1502 18.28C31.0768 18.8067 31.0034 19.3333 30.93 19.86H18.6607C20.5088 14.6733 22.3502 9.48 24.1982 4.29333C24.4117 3.68667 24.6319 3.08 24.8454 2.47333C25.4725 2.47333 26.093 2.47333 26.7201 2.47333H33.3252C32.5979 7.74 31.8774 13.0067 31.1502 18.28ZM43.4462 2.47333C44.2001 7.96 44.954 13.4467 45.7146 18.9333C45.7546 19.24 45.8013 19.5467 45.8413 19.86H33.4119C34.1391 14.5933 34.8597 9.32667 35.5869 4.05333C35.6603 3.52667 35.7337 3 35.807 2.47333H43.4529H43.4462ZM49.751 2.47333H54.4012C56.356 7.97333 58.3175 13.4733 60.2723 18.9733C60.379 19.2667 60.4791 19.56 60.5859 19.86H48.3165C47.5626 14.3733 46.8087 8.88667 46.0482 3.4C46.0081 3.09333 45.9614 2.78667 45.9214 2.47333H49.751ZM33.3719 30.8867C33.2651 30.48 33.1984 30.0667 33.1784 29.6533C33.1784 29.6 33.1717 29.5467 33.1717 29.4867C33.1517 28.8333 33.1717 28.1733 33.1717 27.5133V22.3333H45.9681C45.9548 22.3933 45.9414 22.46 45.9414 22.5267C45.9414 22.56 45.9414 22.6 45.9414 22.64V28.1933C45.9414 28.68 45.9548 29.1667 45.9214 29.6533C45.9014 30.0067 45.8614 30.36 45.7746 30.7067C45.7613 30.7667 45.7413 30.8267 45.7279 30.8867C45.6145 31.3133 45.4544 31.7267 45.2542 32.12C44.7939 33.0467 44.1134 33.8533 43.2594 34.4533C40.6307 36.3067 37.0013 35.8933 34.8263 33.5333C34.4393 33.1133 34.1124 32.6333 33.8522 32.12C33.6521 31.7267 33.4986 31.3133 33.3852 30.8867H33.3719ZM18.1069 30.8867C18.0002 30.4867 17.9268 30.0733 17.8934 29.6533C17.8868 29.52 17.8734 29.3933 17.8734 29.26C17.8734 29.0867 17.8401 28.94 17.7867 28.8067C17.7867 28.6867 17.7867 28.5733 17.7867 28.4533C17.7867 26.4133 17.7867 24.3733 17.7867 22.3333H30.6965V27.3733C30.6965 27.8867 30.6832 28.4 30.6898 28.9133C30.6631 29.02 30.6431 29.1333 30.6365 29.26C30.6365 29.3933 30.6298 29.52 30.6164 29.6533C30.5831 30.0733 30.5097 30.4867 30.4029 30.8867C30.2829 31.32 30.1227 31.7333 29.9226 32.12C28.8684 34.1933 26.7402 35.6333 24.2583 35.6333C21.7764 35.6333 19.6481 34.1933 18.594 32.12C18.3938 31.7267 18.2337 31.3133 18.1136 30.8867H18.1069ZM61.213 29.0267C61.1997 29.2333 61.1863 29.4467 61.1663 29.6533C61.1263 30.0733 61.0662 30.4867 60.9728 30.8867C60.8728 31.3067 60.7326 31.72 60.5458 32.12C60.3123 32.6133 60.0054 33.0867 59.5918 33.5333C57.3034 36.02 53.3337 36.3467 50.7384 34.1267C50.0846 33.5667 49.5508 32.88 49.1572 32.12C48.957 31.7267 48.7969 31.3133 48.6835 30.8867C48.6034 30.58 48.5434 30.26 48.51 29.94C48.5034 29.8467 48.49 29.7467 48.49 29.6533C48.45 29.0067 48.4833 28.34 48.4833 27.7V22.3333H61.2397V27.0467C61.2397 27.7133 61.2397 28.38 61.213 29.0267ZM57.7037 2.47333C58.3909 2.47333 59.0981 2.44667 59.7786 2.54C61.9803 2.84667 63.9351 4.08667 65.2227 5.88C68.5719 10.5333 71.8945 15.2 75.2303 19.86H63.2012C61.2797 14.4533 59.3516 9.04 57.4301 3.63333C57.29 3.24667 57.1566 2.86 57.0165 2.47333H57.7037ZM14.9178 5.48667C16.499 3.57333 18.7474 2.5 21.2293 2.47333C21.5629 2.47333 21.8965 2.47333 22.2367 2.47333L16.5991 18.32L16.052 19.86H4.42988C4.22973 19.86 4.02958 19.86 3.82943 19.8467L3.86279 19.8067C7.13194 15.5667 10.4078 11.3267 13.6769 7.08667C13.9838 6.68667 14.2974 6.28667 14.6043 5.88667C14.6576 5.82 14.9045 5.50667 14.9178 5.48667ZM2.58848 29.9333C2.51509 29.1933 2.5618 28.4333 2.5618 27.6933V22.3267H15.3182C15.3182 23.9 15.3182 25.4667 15.3182 27.04C15.3182 27.9267 15.3315 28.8 15.2514 29.64C15.2114 30.06 15.1514 30.4733 15.058 30.88C14.9579 31.3 14.8178 31.7133 14.631 32.1133C14.3975 32.6067 14.0906 33.08 13.6769 33.5267C12.6561 34.64 11.2951 35.3133 9.88069 35.5333C9.47371 35.5933 9.06007 35.62 8.64642 35.6C8.23277 35.5867 7.81912 35.5267 7.41215 35.4333C6.48478 35.2133 5.59744 34.78 4.83019 34.12C3.59592 33.0667 2.76862 31.5533 2.60183 29.9333H2.58848ZM49.3106 76.94H11.1416C10.728 76.94 10.301 76.9133 9.87402 76.9V45.3333H67.5378C67.9515 45.3333 68.3784 45.36 68.8054 45.3733V76.94H49.3106ZM71.274 35.5133C70.8737 35.5867 70.46 35.6267 70.0397 35.62C69.6327 35.62 69.2191 35.5667 68.8054 35.48C68.5653 35.4267 68.3184 35.3667 68.0716 35.2867C66.457 34.7533 65.196 33.58 64.4688 32.12C64.2753 31.7267 64.1152 31.3133 64.0018 30.8867C63.8951 30.4867 63.8217 30.0733 63.7883 29.6533C63.7816 29.52 63.7683 29.3933 63.7683 29.26C63.7683 29.12 63.7416 28.9867 63.7082 28.8733C63.7082 28.7333 63.7082 28.5933 63.7082 28.4533V22.3333H68.2183C68.5586 22.3333 68.8922 22.3333 69.2324 22.3333C71.6009 22.3467 73.9827 22.4133 76.3578 22.36C76.3578 22.92 76.3712 23.4733 76.3845 24.0333C76.4179 25.6333 76.4646 27.2267 76.518 28.8267C76.6247 32.18 74.2896 34.9467 71.274 35.5133ZM78.9131 26.2733C78.8864 25.18 78.8531 24.0867 78.8397 22.9933C78.8331 22.5667 78.8264 22.1333 78.8264 21.7067C78.8264 21.6467 78.8264 21.5867 78.8264 21.5267C78.9665 21.22 78.9598 20.8533 78.693 20.4733C75.0902 15.44 71.4875 10.4067 67.8847 5.36667C67.0641 4.22667 66.2502 3.12 65.1293 2.24C63.2412 0.766667 60.9528 0.0133333 58.5577 0C56.5228 0 54.4879 0 52.4464 0H21.6496C17.9135 0 14.8378 1.56667 12.5694 4.51333C8.5797 9.67333 4.59668 14.84 0.613651 20.0067C0.540262 20.1 0.466873 20.2 0.393484 20.2933C0.360125 20.3333 0.326766 20.3733 0.300079 20.42L0.260049 20.4733C0.0598969 20.7333 0.0198665 21.0333 0.0932556 21.3133V27.56C0.0932556 28.46 0.0532251 29.3733 0.159973 30.2667C0.400155 32.2467 1.26748 34.0933 2.68856 35.5067C3.98288 36.8 5.65081 37.6267 7.40548 37.9333V78.1733C7.40548 78.84 7.97257 79.4067 8.63975 79.4067H62.4873C64.9625 79.4067 67.4644 79.5133 69.933 79.4067C69.9663 79.4067 70.0064 79.4067 70.0397 79.4067C70.42 79.4067 70.7069 79.2667 70.907 79.0533C71.1272 78.8533 71.2807 78.56 71.2807 78.1733V38.0067C72.0879 37.9 72.8885 37.6933 73.6491 37.3733C76.2978 36.24 78.3327 33.7733 78.8464 30.9267C79.1199 29.3933 78.9598 27.82 78.9198 26.2733H78.9131Z" fill="#5B3711"/>
<path d="M41.0509 55.1533C41.1043 54.9466 41.1777 54.7466 41.2444 54.54C41.2578 54.5133 41.3045 54.3933 41.3178 54.3533C41.3512 54.2733 41.3912 54.1933 41.4312 54.1133C41.8649 53.2466 42.3186 52.7066 43.1859 52.2733C44.0399 51.8533 45.1741 51.8266 46.2349 51.9666C46.2349 51.9733 46.2349 51.98 46.2349 51.9866C46.2349 52.0533 46.2082 52.3066 46.2015 52.3933C46.1882 52.48 46.1348 52.7866 46.1148 52.8733C46.0748 53.0666 46.0214 53.2666 45.9613 53.4533C45.928 53.5533 45.8946 53.6533 45.8613 53.7466C45.8479 53.7866 45.8279 53.8333 45.8146 53.8733C45.8146 53.88 45.8146 53.8866 45.8012 53.9C45.521 54.5 45.2541 54.9 44.8605 55.2333C44.7204 55.3466 44.5669 55.4533 44.3868 55.56C44.2801 55.62 44.1733 55.68 44.0465 55.74C43.5128 55.9933 42.8723 56.1133 42.1985 56.1466C41.7515 56.1666 41.2911 56.1466 40.8441 56.1066C40.8441 56.08 40.8441 56.0666 40.8508 56.0533C40.8708 55.9466 40.8841 55.84 40.9108 55.7333C40.9442 55.5733 40.9775 55.4133 41.0243 55.2533C41.0309 55.22 41.0443 55.1866 41.0509 55.1533ZM48.7301 63.7266C48.4566 66.8866 45.5143 69.1866 42.3986 68.88C41.3912 68.78 40.4171 68.5866 39.3963 68.6C38.2021 68.6133 37.0279 68.9466 35.8403 68.9066C34.3458 68.86 32.9314 68.1933 31.8973 67.1133C29.749 64.86 29.8825 61.22 32.1041 59.0733C33.3918 57.8266 35.2399 57.2466 37.0145 57.5466C37.595 57.6466 38.1821 57.9733 38.7625 58.18C38.8893 58.2666 39.0427 58.3266 39.2229 58.36C41.2177 58.72 43.4061 58.7266 45.1874 57.9C47.4425 58.84 48.9569 61.18 48.7368 63.7333L48.7301 63.7266ZM47.269 56.2466C47.4558 56 47.6293 55.7333 47.7894 55.4466C48.5033 54.12 48.8635 52.4466 48.7034 50.94C48.65 50.4133 48.3632 49.8733 47.7961 49.7466C44.627 49.0333 41.2044 49.52 39.4631 52.5533C38.976 53.4 38.6358 54.38 38.4556 55.3733C35.0264 54.3666 31.2435 55.6333 29.1886 58.7333C26.9803 62.0666 27.6541 66.7666 30.6897 69.36C32.1642 70.6133 34.0123 71.34 35.9537 71.3733C37.2614 71.3933 38.5357 71.04 39.85 71.0666C41.071 71.0933 42.2585 71.44 43.4861 71.36C47.4758 71.1 50.7116 68.02 51.172 64.06C51.5522 60.7933 49.8776 57.8466 47.269 56.2466Z" fill="#5B3711"/>
</g>
</g>
<defs>
<clipPath id="clip0_510_2362">
<rect width="79" height="80" fill="white"/>
</clipPath>
</defs>
</svg>
