<svg width="75" height="80" viewBox="0 0 75 80" fill="none" xmlns="http://www.w3.org/2000/svg">
<g clip-path="url(#clip0_510_2422)">
<mask id="mask0_510_2422" style="mask-type:luminance" maskUnits="userSpaceOnUse" x="0" y="0" width="75" height="80">
<path d="M75 0H0V79.9334H75V0Z" fill="white"/>
</mask>
<g mask="url(#mask0_510_2422)">
<path d="M9.06693 53.4955C8.41738 53.4955 7.82809 53.7819 7.43301 54.3015C7.03792 54.801 6.91068 55.4672 7.0714 56.0733L12.4285 76.3364C12.6629 77.229 13.4866 77.8552 14.4241 77.8552H58.3259C59.2634 77.8552 60.087 77.229 60.3214 76.3364L65.6986 56.0533C65.8593 55.4272 65.7321 54.7811 65.337 54.2815C64.9419 53.7819 64.346 53.4755 63.7031 53.4755H9.06693V53.4955ZM58.346 80H14.4241C12.5156 80 10.8281 78.7145 10.346 76.8693L4.98881 56.6062C4.64729 55.3339 4.91515 54.015 5.72542 52.9759C6.53568 51.9368 7.75443 51.3506 9.06693 51.3506H63.7031C65.0156 51.3506 66.241 51.9434 67.0446 52.9759C67.8549 54.015 68.1227 55.3339 67.7812 56.6062L62.404 76.8693C61.9218 78.7145 60.2477 80 58.3393 80H58.346Z" fill="#4E472B"/>
<path d="M63.2746 80H9.49561C8.89962 80 8.41748 79.5204 8.41748 78.9275C8.41748 78.3347 8.89962 77.8551 9.49561 77.8551H63.2679C63.8639 77.8551 64.3461 78.3347 64.3461 78.9275C64.3461 79.5204 63.8639 80 63.2679 80H63.2746Z" fill="#4E472B"/>
<path d="M9.58927 65.5987H63.1674L64.2455 61.542H8.51114L9.58927 65.5987ZM64.0111 67.7502H8.75891C8.27677 67.7502 7.8415 67.4305 7.71427 66.9442L6.08034 60.736C5.99328 60.4163 6.06025 60.0766 6.26114 59.8035C6.46204 59.537 6.78346 59.3905 7.12498 59.3905H65.6451C65.9866 59.3905 66.2946 59.5504 66.5089 59.8035C66.7232 60.0566 66.7768 60.4097 66.6897 60.736L65.0357 66.9442C64.9286 67.4105 64.4933 67.7502 64.0111 67.7502Z" fill="#4E472B"/>
<path d="M11.1159 71.3406H61.6539L62.6048 67.7436H10.165L11.1159 71.3406ZM62.4842 73.4922H10.2856C9.80341 73.4922 9.36815 73.1724 9.24091 72.6862L7.71413 66.9443C7.62707 66.6246 7.69404 66.2848 7.89493 66.0117C8.09582 65.7453 8.41725 65.5988 8.75877 65.5988H64.011C64.3525 65.5988 64.6606 65.7586 64.8748 66.0117C65.0757 66.2782 65.1427 66.6179 65.0556 66.9443L63.5289 72.6862C63.4016 73.1658 62.9731 73.4922 62.4842 73.4922Z" fill="#4E472B"/>
<path d="M9.06692 53.4955H4.39281C3.52897 53.4955 2.71871 53.0292 2.31022 52.2765C1.89505 51.5238 1.91513 50.5979 2.38388 49.8652C2.61826 49.5055 2.86603 49.1658 3.15397 48.846C3.60263 48.3664 4.10487 47.9334 4.66737 47.5737C5.1696 47.254 5.83924 47.3939 6.16067 47.8935C6.4821 48.3931 6.34147 49.0592 5.83924 49.3789C5.44415 49.632 5.08255 49.9318 4.78121 50.2715C4.58031 50.5046 4.38612 50.7378 4.2254 51.0042C4.15174 51.1108 4.19192 51.1841 4.20531 51.2374C4.2388 51.3106 4.31246 51.3439 4.40621 51.3439H9.08031C9.6763 51.3439 10.1584 51.8302 10.1584 52.4164C10.1584 53.0026 9.6763 53.4888 9.08031 53.4888L9.06692 53.4955Z" fill="#4E472B"/>
<path d="M68.4847 53.4954H63.8105C63.2146 53.4954 62.7324 53.0091 62.7324 52.423C62.7324 51.8368 63.2146 51.3505 63.8105 51.3505H68.4847C68.5717 51.3505 68.6253 51.3172 68.6855 51.2439C68.719 51.1907 68.7391 51.1041 68.6855 51.0108C68.5248 50.7577 68.344 50.5112 68.1297 50.2781C67.7012 49.8118 67.1922 49.4188 66.6364 49.1324C66.1141 48.8659 65.8998 48.1998 66.1677 47.6869C66.4355 47.1673 67.1052 46.9542 67.6208 47.2206C68.411 47.6336 69.1342 48.1665 69.7235 48.8326C70.0114 49.1524 70.2793 49.4921 70.4936 49.8518C70.9623 50.5845 70.9757 51.5171 70.5672 52.2631C70.1387 53.0291 69.3619 53.4954 68.4847 53.4954Z" fill="#4E472B"/>
<path d="M20.103 53.4954C19.7815 53.4954 19.4735 53.3555 19.2592 53.0824C18.8842 52.6162 18.9713 51.9367 19.44 51.577C22.0315 49.5387 23.1967 46.3014 22.2659 43.7435C22.2123 43.617 21.094 40.6128 18.2213 40.0599C16.6744 39.7735 15.3418 40.3131 14.6989 40.6661C14.1766 40.9525 13.5137 40.7527 13.2458 40.2398C12.9579 39.7202 13.1588 39.0608 13.6744 38.7943C14.5717 38.3147 16.4266 37.542 18.6364 37.9684C22.6275 38.7211 24.1409 42.5845 24.3016 43.0308C25.5806 46.5212 24.161 50.6311 20.7927 53.2756C20.5784 53.4022 20.344 53.4888 20.1097 53.4888L20.103 53.4954Z" fill="#4E472B"/>
<path d="M8.23682 53.4954C8.00245 53.4954 7.76807 53.4222 7.57388 53.2623C4.21227 50.6178 2.79263 46.4813 4.06495 43.0175C4.22566 42.5912 5.73905 38.7278 9.73012 37.9551C11.0962 37.6886 12.335 37.8818 13.2926 38.1882C13.4935 37.0225 13.7748 35.8835 14.1565 34.7711C14.6386 33.3589 15.2681 32 16.0449 30.7144C16.3529 30.2149 17.0158 30.035 17.5181 30.3414C18.0203 30.6478 18.2011 31.3073 17.8931 31.8069C17.21 32.9526 16.6341 34.1849 16.2056 35.4571C15.7234 36.8693 15.3953 38.3347 15.2547 39.8202C15.2212 40.1799 15.0002 40.4996 14.6788 40.6595C14.3574 40.8193 13.9757 40.8193 13.6542 40.6595C13.0047 40.2998 11.6788 39.7669 10.1319 40.0533C7.27254 40.5929 6.14084 43.6104 6.08727 43.7369C5.14977 46.3148 6.30155 49.5321 8.91316 51.5704C9.38191 51.9434 9.45557 52.6095 9.09396 53.0758C8.87968 53.3622 8.55155 53.5021 8.25021 53.5021L8.23682 53.4954Z" fill="#4E472B"/>
<path d="M28.7344 53.4955C28.5 53.4955 28.2656 53.4222 28.0714 53.2623C24.7098 50.6179 23.2902 46.4813 24.5625 43.0175C24.7232 42.5912 26.2366 38.7278 30.2277 37.9551C32.4375 37.5421 34.2723 38.2948 35.1897 38.7811C35.7121 39.0675 35.9063 39.7136 35.6183 40.2265C35.3304 40.7461 34.6808 40.9393 34.1652 40.6528C33.5156 40.2931 32.1897 39.7602 30.6429 40.0467C27.7835 40.5862 26.6518 43.6037 26.5982 43.7303C25.6607 46.3081 26.8125 49.5254 29.4241 51.5637C29.8929 51.9368 29.9665 52.6029 29.6049 53.0691C29.3705 53.3556 29.0625 53.4955 28.7411 53.4955H28.7344Z" fill="#4E472B"/>
<path d="M40.6004 53.4955C40.279 53.4955 39.9709 53.3556 39.7566 53.0825C39.3816 52.6162 39.4687 51.9368 39.9374 51.5771C42.529 49.5388 43.6941 46.3015 42.7633 43.7436C42.7098 43.617 41.5915 40.6129 38.7187 40.06C37.1718 39.7736 35.8392 40.3131 35.1964 40.6661C34.8749 40.846 34.4932 40.846 34.1718 40.6661C33.8504 40.5063 33.6294 40.1865 33.5959 39.8268C33.4553 38.3414 33.1272 36.876 32.645 35.4638C32.2165 34.1915 31.6406 32.9592 30.9575 31.8135C30.6495 31.3139 30.8169 30.6478 31.3325 30.3481C31.8348 30.0417 32.5044 30.2082 32.8058 30.7211C33.5758 32.0067 34.2053 33.3656 34.6941 34.7777C35.0691 35.8835 35.3571 37.0292 35.558 38.1949C36.5089 37.8885 37.7544 37.6953 39.1205 37.9617C43.1116 38.7144 44.6249 42.5779 44.7857 43.0242C46.0647 46.5146 44.645 50.6245 41.2767 53.269C41.0758 53.3955 40.8482 53.4821 40.6138 53.4821L40.6004 53.4955Z" fill="#4E472B"/>
<path d="M10.2523 37.8818C10.7344 37.8818 11.1496 38.2015 11.2769 38.6478C11.4777 37.5554 11.6184 35.5171 10.4666 33.6054C9.04694 31.2473 6.1139 29.9018 2.96658 30.1149C2.91301 31.5071 3.1273 34.458 5.48444 36.3564C7.21212 37.7486 9.16748 37.9151 10.192 37.8751H10.2456L10.2523 37.8818ZM10.0179 40.0267C8.63176 40.0267 6.26122 39.7203 4.13846 38.0083C0.0201532 34.6645 0.883993 29.189 0.924171 28.9559C0.997832 28.4896 1.35274 28.1499 1.82149 28.0766C6.18756 27.3972 10.326 29.1291 12.3416 32.4929C13.8684 35.0508 13.6742 37.7352 13.3996 39.1074C13.2925 39.7003 12.7166 40.0733 12.1407 39.9667C11.7255 39.8934 11.4242 39.5937 11.3103 39.214C11.2032 39.6803 10.788 40.02 10.2858 40.04C10.1987 40.02 10.105 40.02 10.0179 40.02V40.0267Z" fill="#4E472B"/>
<path d="M11.8192 39.6336C11.3706 39.6336 10.9554 39.3672 10.7947 38.9209C10.2924 37.4888 8.38395 36.1499 7.70091 35.7569C7.17859 35.4704 6.99779 34.811 7.30582 34.2914C7.59377 33.7719 8.25672 33.592 8.77904 33.8984C9.10047 34.0783 11.9799 35.7768 12.8438 38.2082C13.0447 38.761 12.7567 39.3872 12.1808 39.567C12.0536 39.6203 11.9464 39.6403 11.8192 39.6403V39.6336Z" fill="#4E472B"/>
<path d="M9.30122 31.8201H9.21416C8.61818 31.7669 8.16952 31.2473 8.22309 30.6544C8.31014 29.6353 8.81907 26.1649 12.02 23.9667C12.7231 23.4871 13.5133 23.0874 14.3369 22.841C15.3615 22.5212 16.3124 22.428 17.0356 22.428C18.9976 20.4763 21.8168 19.617 24.549 20.1765C29.1896 21.1224 30.6963 25.5587 30.7164 25.5987C30.8972 26.1515 30.5892 26.7644 30.0334 26.9575C29.4776 27.1374 28.8615 26.831 28.6673 26.2781C28.6472 26.2048 27.4619 22.9675 24.1204 22.2881C21.9843 21.8618 19.7543 22.5945 18.2945 24.2398C18.0802 24.4929 17.7521 24.6128 17.4307 24.5995C16.8548 24.5662 15.9776 24.5995 14.9865 24.9059C14.357 25.1057 13.7811 25.3855 13.2454 25.7452C10.7811 27.4438 10.4195 30.3081 10.386 30.8609C10.3325 31.4005 9.86372 31.8268 9.30791 31.8268L9.30122 31.8201Z" fill="#4E472B"/>
<path d="M6.46212 19.0109C7.48667 20.1899 9.19426 21.6754 11.692 22.3881C12.5893 22.6412 13.5269 22.7811 14.4777 22.7811C14.8929 22.6545 15.288 22.5813 15.6496 22.5147C14.8394 21.3889 13.4733 19.9901 11.3371 19.244C9.44873 18.5979 7.70765 18.7445 6.46212 19.0109ZM14.5514 24.9326C13.3795 24.9326 12.2344 24.7728 11.1161 24.4664C7.09158 23.3406 4.8081 20.5829 3.78355 19.0442C3.60274 18.7778 3.56926 18.438 3.65631 18.1316C3.74337 17.8252 3.97774 17.5788 4.28578 17.4522C5.45765 16.9859 8.53131 16.0067 12.0536 17.2191C16.1719 18.6312 18.0068 22.0284 18.4688 23.0475C18.6295 23.3873 18.596 23.7803 18.3818 24.1C18.1675 24.4064 17.8059 24.5796 17.4309 24.5663C16.855 24.533 15.9777 24.5663 14.9867 24.8727C14.8795 24.906 14.7724 24.926 14.6652 24.926H14.5581L14.5514 24.9326Z" fill="#4E472B"/>
<path d="M16.9621 23.6071C16.8349 23.6071 16.7077 23.5871 16.5871 23.5338C16.0313 23.3339 15.7434 22.7078 15.9376 22.1549C17.3773 18.2582 17.7188 13.1424 11.4577 10.3847C9.71658 13.4222 11.98 17.4655 12.0001 17.5055C12.288 18.025 12.1072 18.6712 11.605 18.9709C11.0827 19.2573 10.4331 19.0775 10.1318 18.5779C9.99113 18.3248 6.77015 12.6029 10.2389 8.3864C10.5268 8.0267 11.0291 7.9068 11.4643 8.06667C18.1541 10.5912 20.5246 15.9867 17.9733 22.8943C17.8126 23.3406 17.3974 23.6071 16.9688 23.6071H16.9621Z" fill="#4E472B"/>
<path d="M17.6048 21.3755C17.2833 21.3755 16.9552 21.2356 16.7409 20.9492L12.3213 15.1873C11.9597 14.7211 12.0534 14.0416 12.5222 13.6819C12.9909 13.3222 13.6739 13.4155 14.0356 13.8818L18.4552 19.6436C18.8168 20.1099 18.7231 20.7893 18.2543 21.149C18.0735 21.3089 17.8391 21.3822 17.6048 21.3822V21.3755Z" fill="#4E472B"/>
<path d="M32.3305 40.0267C31.989 40.0267 31.6475 39.8668 31.4332 39.5604C31.0582 38.9875 28.9354 36.1432 25.1586 35.8035C22.1385 35.5371 19.1519 36.9825 17.3707 39.5604C17.0292 40.04 16.3662 40.1666 15.8774 39.8268C15.3952 39.4871 15.268 38.8277 15.6095 38.3414C17.8394 35.1241 21.576 33.3323 25.3528 33.6586C30.1006 34.0716 32.739 37.6287 33.2278 38.3414C33.5693 38.821 33.4287 39.5071 32.9399 39.8268C32.739 39.9534 32.5448 40.0267 32.3305 40.0267Z" fill="#4E472B"/>
<path d="M46.7881 35.8968C46.7345 35.8968 46.6809 35.8968 46.6274 35.8769C46.0314 35.7903 45.6363 35.2307 45.7301 34.6579C46.0381 32.6529 45.1542 30.1483 43.5001 28.4364C42.7635 27.6504 41.2167 26.3781 39.201 26.5779C38.5381 26.6512 37.8684 26.8311 37.2055 27.1308C37.172 27.1508 37.1184 27.1841 37.0448 27.2174C36.3283 27.6637 35.893 27.9301 35.3171 27.6837C34.6676 27.3973 32.3841 26.558 30.1207 27.5438C27.6229 28.6362 26.0559 31.5471 26.3439 34.6445C26.3975 35.2374 25.9689 35.7503 25.3729 35.8102C24.7769 35.8635 24.2613 35.4372 24.201 34.8444C23.8394 30.7878 25.8751 27.0642 29.2702 25.5788C31.8952 24.4331 34.4131 25.0392 35.7256 25.5255C35.7992 25.4722 35.8863 25.4389 35.9265 25.3989C36.1073 25.2923 36.1943 25.2391 36.2881 25.1858C37.1854 24.7728 38.1028 24.5263 39.0202 24.4331C41.1966 24.2199 43.3528 25.1125 45.0939 26.9576C47.1966 29.1758 48.2948 32.3198 47.8796 34.9909C47.7725 35.5305 47.3037 35.9035 46.7814 35.9035L46.7881 35.8968Z" fill="#4E472B"/>
<path d="M35.7455 27.7569C35.1696 27.7569 34.7009 27.3106 34.6674 26.7378C34.6138 25.632 34.7411 23.4272 36.1205 21.2823C36.8772 20.1166 37.9018 19.1175 39.1071 18.3847C39.6094 18.0783 40.279 18.2449 40.5804 18.7444C40.8884 19.244 40.721 19.9101 40.2187 20.2099C39.2812 20.7628 38.4911 21.5354 37.9152 22.428C36.8571 24.0733 36.7634 25.7719 36.8036 26.6312C36.8237 27.224 36.375 27.7236 35.779 27.7569H35.7455Z" fill="#4E472B"/>
<path d="M19.4933 22.9808C18.9175 22.9808 18.4487 22.5345 18.4152 21.9617C18.2009 17.9384 20.3237 14.1282 23.8259 12.2498C28.9353 9.51206 33.8974 12.4296 34.1116 12.5562C34.6139 12.8626 34.7746 13.522 34.4733 14.0216C34.1652 14.5212 33.5023 14.6811 33 14.3813C32.9666 14.3614 28.8817 11.97 24.8572 14.1282C22.0916 15.6136 20.3974 18.6378 20.5782 21.8351C20.6116 22.428 20.1496 22.9275 19.5536 22.9609C19.5335 22.9808 19.5201 22.9808 19.5 22.9808H19.4933Z" fill="#4E472B"/>
<path d="M46.5132 19.3173C46.0847 19.3173 45.6695 19.0508 45.5088 18.6378C44.8592 16.9725 43.694 15.5604 42.1806 14.6478C38.2766 12.2698 34.0713 14.4347 34.0378 14.448C33.6963 14.6278 33.2811 14.6079 32.9597 14.4147C32.6382 14.2148 32.4373 13.8618 32.4574 13.4688C32.5445 10.7511 33.0534 8.08662 33.9507 5.54874C34.4931 4.04332 35.1561 2.57788 35.9664 1.18571C36.2543 0.666139 36.9173 0.486289 37.4396 0.7927C37.9619 1.07913 38.1427 1.73858 37.8347 2.25815C37.0981 3.54374 36.4887 4.88929 35.9798 6.26148C35.3302 8.08662 34.9217 9.96506 34.7208 11.8968C36.6829 11.3039 40.0244 10.8243 43.3123 12.8293C45.2208 13.995 46.7074 15.7802 47.5177 17.8718C47.732 18.4247 47.444 19.0508 46.9083 19.264C46.7677 19.284 46.6405 19.3173 46.5132 19.3173Z" fill="#4E472B"/>
<path d="M23.6317 3.06415C23.7924 4.22985 24.2611 5.83518 25.4464 7.26732C27.8035 10.1316 31.4531 10.3581 32.9263 10.3248C32.8928 10.2382 32.8526 10.1249 32.8393 10.005C32.7522 9.19904 32.2433 6.42802 29.7455 4.5296C27.4955 2.851 24.9643 2.8843 23.6317 3.06415ZM32.6718 12.483C30.6562 12.483 26.5982 12.0167 23.7924 8.63951C21.8504 6.28147 21.4553 3.63035 21.4018 2.25816C21.3817 1.75857 21.7098 1.31228 22.1919 1.18572C23.0022 0.972562 27.2812 0.00670028 31.058 2.86432C34.2589 5.27564 34.8884 8.78605 34.9955 9.8052C35.029 10.1782 34.8683 10.5579 34.5803 10.7711C34.6875 10.9109 34.741 11.0775 34.7812 11.2706C34.8549 11.8635 34.4196 12.3964 33.8303 12.4497C33.6897 12.4297 33.2745 12.483 32.6785 12.483H32.6718Z" fill="#4E472B"/>
<path d="M33.5357 11.5037C33.1072 11.5037 32.7054 11.2506 32.5313 10.8243C32.1563 9.87842 29.7255 8.3397 28.1987 7.60698C27.6563 7.35386 27.442 6.71439 27.6964 6.17484C27.9509 5.63529 28.5938 5.42213 29.1362 5.67525C29.8929 6.03495 33.7031 7.96668 34.5134 10.0183C34.7277 10.5712 34.4598 11.1973 33.9174 11.4105C33.8103 11.4837 33.6831 11.4971 33.5424 11.4971L33.5357 11.5037Z" fill="#4E472B"/>
<path d="M36.0739 13.2556C35.8596 13.2556 35.6453 13.2556 35.4779 13.2356C34.8819 13.2023 34.4333 12.6961 34.4734 12.1099C34.5069 11.5171 35.0158 11.0708 35.6051 11.1107C36.6096 11.164 38.6051 11.0908 40.6408 9.87843C41.9868 9.07243 42.8908 8.0333 43.4466 7.18068C38.2167 5.24895 35.3574 8.30641 35.2301 8.45295C34.835 8.87926 34.152 8.93255 33.7033 8.53954C33.2547 8.14654 33.2212 7.48709 33.6163 7.03413C33.6699 6.98084 34.7681 5.74854 36.7837 4.99583C38.6185 4.3164 41.6051 3.89009 45.4489 5.70857C45.7033 5.83513 45.8975 6.04829 46.0047 6.31473C46.0917 6.58118 46.0783 6.88759 45.9511 7.14071C45.4288 8.23313 44.1699 10.2714 41.7458 11.7369C39.5895 13.0092 37.4466 13.2556 36.0806 13.2556H36.0739Z" fill="#4E472B"/>
<path d="M34.3996 12.4829C34.0916 12.4829 33.7903 12.3564 33.5693 12.1099C33.1943 11.6636 33.2479 10.9842 33.6965 10.5912L36.4822 8.26646C36.9309 7.89344 37.6139 7.94672 38.009 8.39302C38.384 8.83931 38.3304 9.51875 37.8818 9.91175L35.076 12.2365C34.8751 12.3964 34.6474 12.4896 34.3929 12.4896L34.3996 12.4829Z" fill="#4E472B"/>
<path d="M53.8861 53.4954C53.779 53.4954 53.6518 53.4754 53.5245 53.4421C52.9687 53.2423 52.6607 52.6361 52.8616 52.0833L57.1741 39.6336C57.6562 38.2415 57.5357 36.756 56.8125 35.4505C56.096 34.1449 54.904 33.2523 53.4509 32.8926C51.9576 32.5329 50.3973 32.8593 49.1518 33.7519C47.9129 34.6644 47.1362 36.0566 47.029 37.582L46.0044 52.4962C45.971 53.0891 45.4487 53.5354 44.8527 53.4954C44.2567 53.4621 43.808 52.9425 43.8482 52.3497L44.8728 37.4355C45.0134 35.2706 46.1116 33.3056 47.8594 32.0133C49.6205 30.7277 51.8303 30.2947 53.933 30.7943C55.9486 31.2739 57.6696 32.5795 58.6808 34.4047C59.6853 36.2298 59.8661 38.3747 59.183 40.3264L54.8705 52.776C54.7433 53.2023 54.3281 53.4888 53.8795 53.4888L53.8861 53.4954Z" fill="#4E472B"/>
<path d="M58.5268 39.6336C58.3996 39.6336 58.2925 39.6136 58.1652 39.5803L53.1831 37.8484C52.6273 37.6486 52.3193 37.0424 52.5201 36.4896C52.721 35.9367 53.3304 35.6303 53.8862 35.8301L58.8684 37.562C59.4242 37.7618 59.7322 38.368 59.5313 38.9209C59.3907 39.3472 58.9755 39.6336 58.5268 39.6336Z" fill="#4E472B"/>
<path d="M58.1316 49.9184C57.991 49.9184 57.8437 49.8851 57.7031 49.8318C51.4821 47.1874 51.4486 47.1141 51.2276 46.6811C50.9598 46.1416 51.174 45.5021 51.7098 45.249C52.0848 45.0492 52.52 45.1091 52.8415 45.3556C53.3236 45.622 56.0758 46.821 58.5602 47.8801C59.1026 48.1133 59.3705 48.7394 59.1361 49.2923C58.9352 49.6853 58.5401 49.9184 58.1316 49.9184Z" fill="#4E472B"/>
<path d="M63.2547 53.4954C63.0739 53.4954 62.8931 53.4621 62.7324 53.3555C62.21 53.0691 62.0292 52.4097 62.3172 51.8901L67.6408 42.5179C67.9489 41.9784 68.0359 41.3522 67.8752 40.766C67.1587 37.9018 64.5672 35.9034 61.6007 35.9034H57.7368C57.1408 35.9034 56.6587 35.4238 56.6587 34.831C56.6587 34.2381 57.1408 33.7585 57.7368 33.7585H61.6007C65.5582 33.7585 69.0069 36.423 69.9578 40.2531C70.2457 41.3789 70.085 42.5579 69.5091 43.577L64.1855 52.9492C63.9846 53.3089 63.6297 53.5021 63.248 53.5021L63.2547 53.4954Z" fill="#4E472B"/>
<path d="M68.7588 43.7502C68.6316 43.7502 68.5044 43.7302 68.3838 43.6769L66.1204 42.8376C65.5646 42.6245 65.2767 42.0116 65.491 41.4588C65.7052 40.9059 66.3213 40.6195 66.8771 40.8326L69.1405 41.6719C69.6963 41.8851 69.9843 42.4912 69.77 43.0508C69.6093 43.4771 69.1941 43.7502 68.7655 43.7502H68.7588Z" fill="#4E472B"/>
<path d="M61.5472 44.6961C61.4065 44.6961 61.2391 44.6628 61.0985 44.5895L57.6632 42.9975C57.1208 42.7444 56.8931 42.1049 57.1409 41.5653C57.3954 41.0258 58.0382 40.7993 58.5806 41.0458L62.0159 42.6378C62.5583 42.8909 62.786 43.5304 62.5382 44.0699C62.3574 44.4629 61.9623 44.6961 61.5472 44.6961Z" fill="#4E472B"/>
<path d="M65.1764 36.7894C65.0358 36.7894 64.8684 36.7561 64.7278 36.7028C64.1854 36.4497 63.9577 35.8235 64.1854 35.2906L71.0358 20.3564C71.2903 19.8169 71.9197 19.5904 72.4756 19.8169C73.018 20.07 73.2456 20.6961 73.018 21.229L66.1675 36.1632C65.9867 36.5563 65.5916 36.7894 65.1764 36.7894Z" fill="#4E472B"/>
<path d="M65.4508 36.2166H65.3973C64.8013 36.1833 64.3526 35.677 64.3727 35.0908L65.0357 23.4672C65.0692 22.8743 65.5781 22.428 66.1674 22.448C66.7633 22.4813 67.212 22.9876 67.1919 23.5738L66.529 35.1974C66.4955 35.7703 66.0066 36.2166 65.4508 36.2166Z" fill="#4E472B"/>
<path d="M66.7968 37.7552C66.5423 37.7552 66.2946 37.6686 66.0803 37.4888C65.6316 37.0958 65.5982 36.4163 65.9932 35.97L72.8437 28.2831C73.2388 27.8368 73.9218 27.8035 74.3705 28.1965C74.8191 28.5895 74.8526 29.2689 74.4575 29.7152L67.6071 37.4022C67.3928 37.6553 67.1048 37.7619 66.7968 37.7619V37.7552Z" fill="#4E472B"/>
<path d="M62.1765 35.8968C61.6742 35.8968 61.2256 35.5371 61.1184 35.0176L60.1274 29.8285L56.7457 33.5654C56.3506 34.0117 55.6675 34.0517 55.2189 33.6387C54.7702 33.2257 54.7367 32.5663 55.1452 32.12L59.9801 26.7711C60.2479 26.4647 60.6832 26.3448 61.0783 26.4514C61.4734 26.5579 61.7814 26.8777 61.8484 27.2907L63.2345 34.6046C63.3417 35.1974 62.9667 35.7503 62.3707 35.8569C62.297 35.8902 62.23 35.8902 62.1698 35.8902L62.1765 35.8968Z" fill="#4E472B"/>
<path d="M53.7257 32.9126C53.6721 32.9126 53.6185 32.9126 53.5851 32.8927C53.1029 32.8194 52.7212 32.4464 52.6676 31.9601L51.1208 19.4439C51.0471 18.851 51.4623 18.3181 52.0583 18.2449C52.6542 18.1716 53.19 18.5846 53.2636 19.1774L54.3217 27.7436L57.1476 21.1824C57.3819 20.6429 58.0114 20.3764 58.5672 20.6096C59.1096 20.8427 59.3775 21.4688 59.1431 22.0217L54.7569 32.2532C54.556 32.6662 54.1609 32.9126 53.7324 32.9126H53.7257Z" fill="#4E472B"/>
<path d="M50.0423 33.1391C49.6137 33.1391 49.1986 32.8727 49.0379 32.4597L46.145 24.9859C45.9307 24.433 46.2187 23.8069 46.7544 23.5937C47.3102 23.3806 47.9396 23.667 48.1539 24.1999L51.0468 31.6737C51.2611 32.2265 50.9731 32.8527 50.4374 33.0658C50.2968 33.0991 50.1696 33.1391 50.0423 33.1391Z" fill="#4E472B"/>
<path d="M48.0605 18.9042C46.8753 18.9042 45.9043 19.8701 45.9043 21.0491C45.9043 22.2281 46.8753 23.194 48.0605 23.194C49.2458 23.194 50.2168 22.2281 50.2168 21.0491C50.2369 19.8701 49.2659 18.9042 48.0605 18.9042ZM48.0605 25.3655C45.69 25.3655 43.748 23.4338 43.748 21.0758C43.748 18.7177 45.69 16.786 48.0605 16.786C50.4311 16.786 52.373 18.7177 52.373 21.0758C52.373 23.4338 50.4512 25.3655 48.0605 25.3655Z" fill="#4E472B"/>
<path d="M47.1431 11.0375C45.9578 11.0375 44.9868 12.0034 44.9868 13.1824C44.9868 14.3614 45.9578 15.3273 47.1431 15.3273C48.3283 15.3273 49.2993 14.3614 49.2993 13.1824C49.2993 12.0034 48.3283 11.0375 47.1431 11.0375ZM47.1431 17.4788C44.7725 17.4788 42.8306 15.5471 42.8306 13.1891C42.8306 10.831 44.7725 8.89929 47.1431 8.89929C49.5136 8.89929 51.4556 10.831 51.4556 13.1891C51.4556 15.5471 49.5136 17.4788 47.1431 17.4788Z" fill="#4E472B"/>
<path d="M53.9932 4.50956C52.8079 4.50956 51.8369 5.47542 51.8369 6.65444C51.8369 7.83345 52.8079 8.79931 53.9932 8.79931C55.1784 8.79931 56.1494 7.83345 56.1494 6.65444C56.1494 5.47542 55.1784 4.50956 53.9932 4.50956ZM53.9932 10.9509C51.6226 10.9509 49.6807 9.01913 49.6807 6.6611C49.6807 4.30306 51.6226 2.37134 53.9932 2.37134C56.3637 2.37134 58.3057 4.30306 58.3057 6.6611C58.3057 9.01913 56.3838 10.9509 53.9932 10.9509Z" fill="#4E472B"/>
<path d="M53.9932 12.3964C52.8079 12.3964 51.8369 13.3622 51.8369 14.5413C51.8369 15.7203 52.8079 16.6861 53.9932 16.6861C55.1784 16.6861 56.1494 15.7203 56.1494 14.5413C56.1494 13.3622 55.1784 12.3964 53.9932 12.3964ZM53.9932 18.851C51.6226 18.851 49.6807 16.9193 49.6807 14.5612C49.6807 12.2032 51.6226 10.2715 53.9932 10.2715C56.3637 10.2715 58.3057 12.2032 58.3057 14.5612C58.3057 16.9193 56.3838 18.851 53.9932 18.851Z" fill="#4E472B"/>
<path d="M61.2056 18.6379C60.0203 18.6379 59.0493 19.6037 59.0493 20.7827C59.0493 21.9617 60.0203 22.9276 61.2056 22.9276C62.3908 22.9276 63.3618 21.9617 63.3618 20.7827C63.3618 19.6037 62.3908 18.6379 61.2056 18.6379ZM61.2056 25.0792C58.835 25.0792 56.8931 23.1474 56.8931 20.7894C56.8931 18.4314 58.835 16.4996 61.2056 16.4996C63.5761 16.4996 65.5181 18.4314 65.5181 20.7894C65.5181 23.1474 63.5962 25.0792 61.2056 25.0792Z" fill="#4E472B"/>
<path d="M61.2056 11.5038C60.0203 11.5038 59.0493 12.4696 59.0493 13.6486C59.0493 14.8277 60.0203 15.7935 61.2056 15.7935C62.3908 15.7935 63.3618 14.8277 63.3618 13.6486C63.3618 12.4696 62.3908 11.5038 61.2056 11.5038ZM61.2056 17.9384C58.835 17.9384 56.8931 16.0067 56.8931 13.6486C56.8931 11.2906 58.835 9.35889 61.2056 9.35889C63.5761 9.35889 65.5181 11.2906 65.5181 13.6486C65.5181 16.0067 63.5962 17.9384 61.2056 17.9384Z" fill="#4E472B"/>
</g>
</g>
<defs>
<clipPath id="clip0_510_2422">
<rect width="75" height="80" fill="white"/>
</clipPath>
</defs>
</svg>
