<svg width="204" height="199" viewBox="0 0 204 199" fill="none" xmlns="http://www.w3.org/2000/svg">
<path d="M158.487 184.631C195.975 163.539 207.974 124.495 202.418 84.3636C202.8 65.6166 188.302 50.0167 181.108 33.3156C159.934 -12.4713 96.8155 -1.66353 57.4167 10.8844C19.5743 24.3091 -4.43906 92.6972 0.687148 129.498C3.28779 143.46 11.0897 157.129 18.0111 168.787C27.4649 179.289 43.8333 183.122 55.5055 191.381C59.7375 189.627 70.065 195.779 76.5973 195.684C104.454 199.932 133.743 201.285 158.494 184.638L158.487 184.631Z" fill="#EBC194"/>
<path d="M119.837 32.6721C118.88 26.5638 114.082 21.8443 108.075 21.0985C104.309 20.6355 100.519 21.8186 97.6602 24.352C92.031 29.3157 91.4139 37.996 96.2875 43.7442C97.1816 44.8115 97.9876 45.9303 98.7306 47.1134L105.997 58.687C106.11 58.867 106.312 58.9828 106.526 58.9828C106.74 58.9828 106.941 58.8799 107.055 58.6998L114.271 47.1262C115.114 45.8403 116.021 44.5929 117.003 43.4098C119.396 40.4007 120.429 36.5042 119.837 32.6721ZM106.526 39.1662C104.209 39.1662 102.32 37.2372 102.32 34.8711C102.32 32.5049 104.209 30.576 106.526 30.576C108.843 30.576 110.732 32.5049 110.732 34.8711C110.732 37.2372 108.843 39.1662 106.526 39.1662Z" fill="#AC6820"/>
<path d="M128.433 104.677C127.73 103.008 127.028 101.327 126.176 99.2668C126.302 101.65 126.832 103.4 128.433 104.677Z" fill="#C2CE86"/>
<path d="M146.414 105.176C146.333 106.88 146.264 108.607 146.184 110.322C147.473 107.548 147.485 106.339 146.414 105.176Z" fill="#C2CE86"/>
<path d="M130.24 95.629C131.611 98.4033 130.16 100.694 128.974 103.031C131.726 100.614 132.371 98.0465 130.24 95.629Z" fill="#C2CE86"/>
<path d="M143.57 95.8633C144.158 95.633 144.745 95.4028 145.401 95.1495C145.701 96.6 145.966 97.9239 146.231 99.2592C146.357 99.2592 146.484 99.2477 146.622 99.2362C146.622 99.2362 146.622 99.2362 146.634 99.2477C146.634 99.2477 146.634 99.2477 146.634 99.2362C146.657 99.2362 146.668 99.2362 146.691 99.2362C146.691 99.2017 146.691 99.1672 146.68 99.1441C147.025 98.3728 147.854 96.0359 148.177 95.3798C148.787 96.4273 149.823 98.1196 150.607 99.8579C150.63 99.501 150.653 99.1441 150.664 98.7873C150.745 97.1526 150.583 95.5064 150.514 93.3537C150.722 93.5724 150.952 93.7681 151.171 93.9638L151.148 93.7221C150.699 93.0314 150.273 92.6515 150.008 92.686C150.273 94.1941 150.065 96.0359 150.33 97.4979C150.215 97.4749 150.134 97.6131 149.927 97.6591C149.455 96.3468 148.845 95.0229 148.28 93.4803C147.82 94.7236 146.921 96.2201 146.438 97.3828C146.3 96.3007 146.15 95.1726 145.977 93.9293C145.09 94.4588 144.261 94.9538 143.432 95.4488L143.352 95.5179C143.421 95.633 143.478 95.7597 143.547 95.8748L143.57 95.8633Z" fill="#C2CE86"/>
<path d="M150.099 103.933C150.122 103.875 150.133 103.806 150.145 103.749C149.35 102.805 148.475 101.746 148.268 101.608C146.494 100.376 144.133 99.8808 142.97 101.619C140.748 104.935 140.161 106.581 138.007 110.46C137.765 110.886 136.821 113.016 136.372 113.499C136.556 116.607 133.067 118.219 132.422 120.027C131.662 122.145 132.422 121.903 131.708 124.033C129.589 130.18 128.219 137.444 126.169 143.614C126.123 143.764 126.169 143.937 126.169 144.098C126.33 144.19 126.491 144.282 126.653 144.385C127.781 142.521 128.921 140.656 130.038 138.779C132.733 134.209 136.591 130.168 139.93 126.036C143.109 122.099 146.195 118.346 148.003 113.338C149.12 110.253 149.223 107.03 150.099 103.933ZM144.387 102.529C144.721 102.137 146.137 102.621 146.713 102.851C147.795 103.3 148.602 106.017 148.083 107.686C147.611 109.194 147.346 110.771 146.943 112.532C144.629 112.141 142.383 112.406 140.863 110.587C140.506 110.161 140.299 109.182 140.541 108.756C141.577 107.007 143.086 104.094 144.375 102.529H144.387ZM130.51 135.349C130.361 135.015 130.038 134.646 130.096 134.347C130.268 133.518 130.614 132.713 130.879 131.895C130.959 131.918 131.04 131.941 131.121 131.976C131.121 132.828 131.167 133.691 131.075 134.543C131.052 134.831 130.706 135.084 130.499 135.349H130.51ZM134.069 130.767C133.815 130.307 133.562 129.846 133.182 129.167C133.032 130.917 133.47 132.655 131.455 134.128C131.593 131.769 131.708 129.823 131.823 127.889L132.549 127.693C133.228 128.603 133.907 129.512 134.575 130.422C134.403 130.537 134.241 130.663 134.069 130.779V130.767ZM135.474 129.201C134.529 128.442 133.666 127.797 132.894 127.06C132.687 126.865 132.618 126.312 132.721 126.013C133.113 124.827 133.585 123.664 134.046 122.444C135.405 123.733 136.625 124.896 137.973 126.174C137.201 127.118 136.337 128.165 135.474 129.213V129.201ZM141.139 122.479C140.575 123.089 140.103 123.791 139.504 124.366C139.262 124.597 138.836 124.62 138.479 124.723C138.479 124.723 138.456 124.723 138.445 124.735C138.445 124.735 138.445 124.723 138.445 124.712C135.393 123.929 134.08 120.579 135.842 118.081C136.165 117.621 136.475 117.102 136.591 116.561C136.913 115.122 137.915 114.616 139.193 114.489C140.506 114.363 141.393 115.007 141.992 116.147C143.258 118.588 143.016 120.418 141.139 122.479ZM137.823 113.925C138.422 112.682 138.894 111.703 139.216 111.036C141.681 111.98 143.938 112.843 146.598 113.856C145.792 115.468 144.882 117.31 143.961 119.152C143.12 116.032 142.671 112.82 137.823 113.925Z" fill="#C2CE86"/>
<path d="M144.94 124.574C147.036 120.798 148.636 116.757 150.479 112.843C151.734 110.195 152.575 107.467 152.31 104.486C152.126 102.367 152.011 100.238 151.769 98.1311C151.769 98.1311 151.769 98.1426 151.769 98.1541C151.642 94.9999 150.813 88.7029 151.631 85.9516C151.4 85.7904 151.4 85.7904 151.17 85.6293C150.364 86.1934 149.408 86.6308 148.786 87.356C147.266 89.1634 145.919 91.1089 144.456 92.9738C143.431 94.2746 142.245 95.4373 141.312 96.7957C140.909 97.3828 141.117 98.3729 140.783 99.052C140.276 100.077 139.447 100.94 138.917 101.953C135.578 108.285 132.18 114.581 129.002 120.982C127.113 124.781 125.824 128.833 125.582 133.104C125.352 137.087 125.248 141.07 124.361 145.019C124.165 145.871 125.064 146.538 125.835 146.124C125.835 146.124 125.858 146.124 125.858 146.112C134.933 141.335 140.161 133.139 144.905 124.585L144.94 124.574ZM139.931 126.047C136.591 130.18 132.733 134.221 130.038 138.791C128.933 140.667 127.781 142.532 126.653 144.397C126.492 144.305 126.33 144.213 126.169 144.109C126.169 143.948 126.123 143.764 126.169 143.626C128.207 137.455 129.589 130.191 131.708 124.044C132.434 121.914 131.674 122.156 132.422 120.038C133.067 118.219 136.556 116.619 136.372 113.511C136.821 113.027 137.766 110.898 138.007 110.472C140.161 106.592 140.737 104.935 142.971 101.631C144.145 99.8924 146.506 100.387 148.268 101.619C148.475 101.757 149.339 102.816 150.145 103.76C150.133 103.818 150.11 103.887 150.099 103.945C149.224 107.041 149.12 110.265 148.003 113.35C146.195 118.369 143.109 122.11 139.931 126.047ZM143.454 95.4373C144.283 94.9423 145.113 94.4473 145.999 93.9178C146.161 95.161 146.31 96.2777 146.46 97.3713C146.944 96.2086 147.842 94.7006 148.302 93.4688C148.867 95.0114 149.466 96.3353 149.949 97.6476C150.157 97.59 150.237 97.4634 150.352 97.4864C150.087 96.0129 150.306 94.1826 150.03 92.6745C150.295 92.6515 150.709 93.0199 151.17 93.7106C151.262 93.8487 151.354 94.0099 151.458 94.1825C151.366 94.1135 151.285 94.0329 151.193 93.9523C150.974 93.7566 150.744 93.5609 150.537 93.3422C150.606 95.4834 150.767 97.1411 150.686 98.7758C150.663 99.1326 150.652 99.4895 150.629 99.8464C149.857 98.1081 148.809 96.4158 148.199 95.3683C147.876 96.0244 147.047 98.3728 146.702 99.1326C146.702 99.1672 146.702 99.2017 146.713 99.2247C146.69 99.2247 146.679 99.2247 146.656 99.2247C146.656 99.2247 146.656 99.2247 146.656 99.2362C146.656 99.2362 146.656 99.2362 146.644 99.2247C146.518 99.2247 146.391 99.2362 146.253 99.2477C145.988 97.9124 145.711 96.5885 145.424 95.138C144.767 95.3913 144.18 95.6215 143.593 95.8518C143.523 95.7366 143.466 95.61 143.397 95.4949C143.397 95.4949 143.397 95.4949 143.397 95.4834C143.431 95.4604 143.454 95.4488 143.489 95.4258L143.454 95.4373Z" fill="#85A687"/>
<path d="M132.015 96.1586C131.416 95.0189 130.529 94.3627 129.217 94.5009C127.938 94.6275 126.925 95.134 126.614 96.573C126.499 97.1141 126.188 97.6321 125.866 98.0926C124.104 100.591 125.405 103.929 128.468 104.723C128.468 104.723 128.468 104.735 128.468 104.746C128.48 104.746 128.491 104.746 128.503 104.735C128.86 104.631 129.286 104.608 129.528 104.378C130.126 103.802 130.599 103.112 131.163 102.49C133.04 100.429 133.282 98.5991 132.015 96.1586ZM126.176 99.2668C127.04 101.327 127.731 102.997 128.434 104.677C126.833 103.411 126.292 101.661 126.176 99.2668ZM128.975 103.02C130.172 100.683 131.612 98.3919 130.242 95.6175C132.36 98.0235 131.716 100.602 128.975 103.02Z" fill="#85A687"/>
<path d="M140.864 110.587C142.372 112.417 144.629 112.141 146.944 112.532C147.347 110.771 147.612 109.194 148.084 107.686C148.602 106.017 147.785 103.3 146.714 102.851C146.149 102.621 144.721 102.137 144.387 102.529C143.086 104.094 141.589 107.007 140.553 108.756C140.311 109.171 140.518 110.149 140.875 110.587H140.864ZM146.184 110.322C146.265 108.607 146.334 106.88 146.414 105.176C147.485 106.339 147.474 107.548 146.184 110.322Z" fill="#85A687"/>
<path d="M139.227 111.047C138.905 111.727 138.433 112.694 137.834 113.937C142.682 112.832 143.12 116.043 143.972 119.163C144.893 117.321 145.803 115.479 146.609 113.868C143.949 112.855 141.692 111.991 139.227 111.047Z" fill="#85A687"/>
<path d="M122.733 106.013C122.63 106.324 122.699 106.865 122.906 107.06C123.677 107.797 124.553 108.442 125.485 109.201C126.349 108.154 127.213 107.106 127.984 106.162C126.637 104.885 125.428 103.733 124.057 102.433C123.597 103.653 123.113 104.815 122.733 106.001V106.013Z" fill="#85A687"/>
<path d="M121.834 107.889C121.719 109.835 121.604 111.769 121.466 114.128C123.481 112.655 123.043 110.917 123.193 109.167C123.573 109.858 123.827 110.318 124.08 110.767C124.253 110.652 124.414 110.525 124.587 110.41C123.907 109.501 123.228 108.591 122.56 107.682L121.834 107.878V107.889Z" fill="#85A687"/>
<path d="M121.132 111.987C121.052 111.964 120.971 111.941 120.89 111.907C120.614 112.724 120.28 113.518 120.107 114.359C120.05 114.647 120.372 115.015 120.522 115.36C120.718 115.095 121.063 114.842 121.098 114.554C121.178 113.703 121.132 112.851 121.144 111.987H121.132Z" fill="#85A687"/>
<path d="M100.255 117.168C100.888 119.343 101.579 121.393 102.086 123.488C102.616 125.64 102.592 127.782 101.095 129.727C102.12 126.228 101.268 122.993 99.8633 119.873C99.1263 118.238 98.4929 116.166 97.1571 115.28C95.257 114.025 92.758 113.645 90.4894 112.954C89.3263 112.598 88.6815 113.104 88.1978 114.244C87.6335 115.568 86.8965 116.845 86.0328 117.985C82.106 123.177 82.2211 128.484 87.6911 132.651C89.7064 134.182 92.0095 135.356 94.1514 136.669C94.186 136.519 94.2551 136.266 94.3127 136.013C94.9576 136.438 95.6024 136.864 96.2588 137.302C95.6831 136.346 95.4527 135.483 97.0189 135.23C97.4335 135.161 97.8825 134.85 98.1474 134.516C99.0456 133.399 99.7942 132.133 100.75 131.074C103.94 127.574 103.779 120.794 100.243 117.156L100.255 117.168ZM85.9753 121.462C85.2383 126.446 88.9809 129.428 90.4894 133.561C84.0982 130.095 83.0042 124.581 85.9753 121.462ZM87.576 121.231C88.0366 126.308 91.5604 129.808 94.4278 134.033C90.1325 132.87 86.528 125.871 87.576 121.231ZM90.4203 114.313C88.0711 121.254 92.1592 126.573 94.8194 132.26C89.0845 126.999 86.8044 117.928 90.4203 114.313ZM91.2956 116.27C93.7139 120.967 96.9613 125.261 96.1782 130.913C93.3453 126.481 89.8791 122.256 91.2956 116.27ZM96.351 134.274C97.3643 130.74 97.9401 127.229 96.2243 123.787C94.6006 120.541 93.0344 117.26 91.4107 113.933C96.7655 115.729 100.405 129.923 96.351 134.274ZM93.8635 114.624C99.4602 117.386 102.27 126.412 99.0802 131.477C99.5408 125.111 97.7674 119.735 93.8635 114.624Z" fill="#C2CE86"/>
<path d="M104.951 136.594C107.701 133.94 108.494 130.76 107.423 127.063C106.228 122.963 103.89 119.803 99.832 118.296C96.917 117.211 95.475 115.105 94.7128 112.296C92.3643 103.632 91.6536 94.8441 92.5703 85.9012C92.9721 82.0288 93.2605 78.146 93.4974 74.2529C93.5592 73.2822 93.178 72.2908 92.9411 71C87.3481 78.8172 88.6563 87.1404 89.3773 95.412C88.8829 94.3277 88.5842 93.2434 88.3988 92.1488C87.6056 87.5535 86.9567 82.9169 86.0194 78.3525C85.628 76.4628 84.8864 74.542 82.7749 73.4784C83.9285 78.5281 85.0924 83.5778 86.246 88.6171C86.0503 88.6894 85.8649 88.7514 85.6795 88.8237C84.1551 85.3952 82.6409 81.9668 81.1165 78.5384C80.8693 78.6313 80.6221 78.7346 80.3749 78.8275C80.8899 80.6657 81.405 82.5038 81.92 84.3419C79.005 81.8532 76.5948 79.096 73.4223 77.2373C73.2781 77.3715 73.1339 77.5057 73 77.64C74.1639 78.9515 75.3278 80.2526 76.5021 81.5641C81.374 87.0062 85.5765 92.7994 87.9044 99.9041C89.5524 104.954 90.7884 110.034 91.6948 115.26C92.148 117.883 91.7257 120.02 90.191 122.189C89.0374 123.82 87.9867 125.7 87.5541 127.621C86.3902 132.722 89.985 138.061 95.4029 139.775C98.4106 140.725 98.5238 141.025 97.5659 144.153C97.3084 145.011 97.3496 145.95 97.2466 146.859L97.844 146.911C98.1427 145.754 98.4414 144.598 98.8123 143.183C99.5127 144.949 100.069 146.363 100.625 147.778C100.81 147.737 100.996 147.685 101.181 147.644C101.089 145.723 100.996 143.802 100.903 141.892C101.058 141.84 101.222 141.799 101.387 141.747C102.737 144.835 104.076 147.912 105.425 151C106.29 149.296 104.961 147.21 104.148 144.794C105.425 146.343 106.496 147.634 107.567 148.924C107.712 148.842 107.856 148.759 108 148.687C107.856 148.067 107.846 147.386 107.557 146.859C106.599 145.073 105.652 143.276 104.519 141.603C102.86 139.155 102.891 138.639 104.972 136.625L104.951 136.594ZM81.1989 85.1784C83.4032 86.3556 86.9464 92.0146 87.8941 96.3104C85.7001 92.6548 83.2899 88.6481 81.1989 85.1784ZM102.139 137.844C101.902 138.143 101.49 138.422 101.13 138.484C99.729 138.711 99.935 139.486 100.45 140.343C99.8526 139.951 99.2861 139.568 98.7092 139.186C98.6577 139.414 98.5959 139.63 98.565 139.775C96.6492 138.598 94.5995 137.544 92.7866 136.171C87.8838 132.433 87.7911 127.672 91.3034 123.015C92.0759 121.993 92.7454 120.836 93.2399 119.659C93.6725 118.636 94.2596 118.182 95.2896 118.502C97.3084 119.132 99.5436 119.463 101.253 120.588C102.448 121.383 103.004 123.242 103.674 124.709C104.941 127.507 105.693 130.409 104.776 133.548C106.125 131.803 106.136 129.882 105.662 127.951C105.198 126.072 104.591 124.234 104.024 122.282C107.176 125.535 107.331 131.627 104.477 134.767C103.612 135.717 102.953 136.842 102.15 137.854L102.139 137.844Z" fill="#85A687"/>
<path d="M91.3063 116.27C89.8898 122.256 93.3676 126.469 96.189 130.913C96.972 125.261 93.713 120.967 91.3063 116.27Z" fill="#85A687"/>
<path d="M91.4219 113.933C93.0456 117.26 94.6232 120.529 96.2355 123.787C97.9513 127.229 97.387 130.74 96.3621 134.274C100.416 129.911 96.7767 115.729 91.4219 113.933Z" fill="#85A687"/>
<path d="M93.874 114.623C97.7894 119.735 99.5513 125.122 99.0907 131.477C102.269 126.4 99.4592 117.386 93.874 114.623Z" fill="#85A687"/>
<path d="M85.9754 121.462C82.9928 124.593 84.0868 130.095 90.4895 133.56C88.9809 129.428 85.2383 126.446 85.9754 121.462Z" fill="#85A687"/>
<path d="M90.432 114.313C86.8045 117.927 89.0961 126.987 94.831 132.26C92.1824 126.573 88.0827 121.254 90.432 114.313Z" fill="#85A687"/>
<path d="M87.5747 121.231C86.5268 125.871 90.1313 132.87 94.4266 134.032C91.5477 129.796 88.0354 126.297 87.5747 121.231Z" fill="#85A687"/>
<path d="M115.375 71.2356C115.836 70.4758 116.101 69.6124 116.458 68.7835C115.778 69.0253 115.007 69.1289 114.442 69.5318C113.061 70.5103 111.782 71.6154 109.329 73.584C110.251 71.6269 110.608 70.9478 110.907 70.234C111.61 68.5648 112.289 66.8841 112.991 65.2034C111.736 66.3891 110.17 67.3906 109.295 68.8181C107.545 71.6615 106.186 74.7466 104.654 77.7282C105.195 73.9523 106.335 70.3376 107.418 66.6999C107.706 65.7329 107.786 64.6968 107.959 63.6953C107.268 64.4551 106.278 65.0998 105.932 65.9862C104.516 69.6699 103.284 73.4343 101.936 77.3023C101.338 74.7697 100.819 72.3061 100.128 69.9002C99.9326 69.2095 99.2186 68.6569 98.7465 68.0468C98.5507 68.772 98.1016 69.5318 98.2052 70.1995C98.6083 72.7091 99.138 75.2071 99.7253 77.6822C100.451 80.7673 99.9326 82.7704 96.5585 84.2784C94.8772 85.0267 93.3226 87.9507 93.2189 89.9653C92.931 95.5945 93.6335 101.258 93.5414 106.911C93.4608 112.344 93.0462 117.778 92.4704 123.177C92.0098 127.528 91.0425 131.822 90.3515 136.151C89.96 138.58 89.5224 141.009 89.3611 143.461C88.9581 149.332 87.0465 140.03 86.7471 145.913L90.363 147.363C89.0617 132.191 90.1212 134.343 92.4819 145.913C95.9597 134.332 90.363 147.363 93.7602 152.739C95.3493 149.101 95.9942 148.227 96.4548 147.352C99.138 142.954 101.107 141.458 100.727 134.769C100.589 132.271 102.616 129.716 103.422 127.102C104.884 122.359 106.174 117.571 107.522 112.793C108.27 110.134 108.385 107.072 109.848 104.885C114.857 97.4019 114.765 88.8256 109.065 82.6092C108.915 82.4481 108.731 82.1142 108.8 81.9991C110.988 78.3959 113.21 74.8157 115.387 71.2125L115.375 71.2356ZM108.938 90.1955C108.788 92.3022 108.604 94.4664 107.982 96.4579C107.809 97.0105 106.094 97.2753 105.069 97.3213C103.456 97.3904 101.833 97.1371 100.209 97.0565C100.117 97.0565 99.9096 97.3674 99.9211 97.5285C99.9211 97.6897 100.105 97.8969 100.267 97.989C101.199 98.507 102.132 99.4165 103.088 99.4395C107.153 99.5431 105.23 101.431 104.723 103.515C103.71 107.705 103.295 112.045 102.512 116.304C102.362 117.122 101.672 117.835 101.695 117.812C99.5065 118.595 97.9634 119.136 96.1209 119.792C97.5488 120.736 98.5277 121.381 99.0574 121.726C98.5968 124.904 98.5046 127.966 97.641 130.798C97.0882 132.582 94.1287 139.293 92.908 140.847C92.5741 140.847 92.2516 136.45 92.574 134.976C92.6662 134.539 92.9656 133.929 93.0692 133.468C93.0692 133.468 94.0481 133.514 94.2438 133.33C94.8311 132.801 95.453 132.202 95.7524 131.488C95.9251 131.085 95.5221 130.429 95.3839 129.877C94.8772 130.153 94.382 130.429 93.8753 130.706C93.5299 130.326 93.5874 130.383 93.2419 130.003C93.8408 129.151 94.6008 128.357 94.9348 127.413C95.2111 126.642 94.9117 125.663 94.8657 124.777C94.405 124.8 93.7256 124.65 93.5183 124.892C93.2304 125.237 93.7256 123.073 94.2323 121.565C95.3148 118.469 94.1287 119.804 95.476 116.822C95.6948 116.35 97.6871 116.73 98.8501 116.627C99.3453 116.581 99.8175 116.281 100.29 116.097C100.013 115.798 99.7484 115.487 99.4259 115.13C100.071 114.635 100.762 114.117 101.453 113.588C94.8887 116.063 98.0325 109.823 96.6967 108.649C98.6428 108.142 100.727 107.613 102.789 107.026C102.996 106.968 103.111 106.542 103.272 106.301C102.777 106.231 102.27 106.059 101.798 106.105C100.255 106.278 98.712 106.738 97.1919 106.669C96.5585 106.634 95.9827 105.656 95.3839 105.057C95.3839 104.792 95.3954 104.666 95.4069 104.401C95.7524 104.113 96.1554 104.62 96.5239 104.597C97.6179 104.528 98.7119 104.424 99.8059 104.32C98.9423 104.01 97.998 103.837 97.2494 103.365C96.4664 102.87 95.3378 102.122 95.2917 101.42C95.096 97.8969 95.1996 94.3397 95.1996 91.151C97.6295 91.151 100.071 91.2085 102.512 91.0819C102.881 91.0589 103.295 90.184 103.491 89.6314C103.56 89.4357 103.065 88.8256 102.742 88.7565C100.474 88.25 98.1822 87.8356 96.0518 87.4211C98.2858 84.5202 105.552 83.5992 106.98 85.9476C105.771 86.5578 100.313 85.9016 99.0804 86.5232C100.577 86.8686 106.312 88.3997 107.775 88.8832C108.282 89.0558 108.996 89.7926 108.972 90.23L108.938 90.1955Z" fill="#D78228"/>
<path d="M107.751 88.8485C106.3 88.3765 100.554 86.834 99.0571 86.4886C100.289 85.867 105.748 86.5346 106.957 85.913C105.529 83.5646 98.2625 84.4855 96.0284 87.3865C98.1588 87.8009 100.45 88.2154 102.719 88.7219C103.03 88.791 103.537 89.4011 103.468 89.5968C103.272 90.1494 102.857 91.0243 102.489 91.0358C100.047 91.1624 97.6061 91.1048 95.1763 91.1048C95.1763 94.2936 95.0726 97.8393 95.2684 101.373C95.3029 102.064 96.443 102.824 97.2261 103.319C97.9861 103.791 98.9304 103.964 99.7941 104.274C98.7001 104.366 97.6061 104.482 96.5121 104.551C96.1436 104.574 95.7405 104.067 95.3951 104.355C95.3951 104.62 95.3835 104.746 95.372 105.011C95.9708 105.621 96.5582 106.6 97.18 106.623C98.7001 106.692 100.243 106.231 101.786 106.059C102.27 106.001 102.777 106.185 103.26 106.254C103.099 106.508 102.995 106.922 102.777 106.98C100.715 107.567 98.631 108.085 96.6848 108.603C98.0207 109.777 94.8769 116.028 101.441 113.541C100.75 114.059 100.07 114.589 99.4141 115.084C99.7365 115.452 100.013 115.752 100.278 116.051C99.7941 116.235 99.3335 116.534 98.8383 116.58C97.6752 116.696 95.683 116.304 95.4642 116.776C94.1168 119.746 95.3029 118.422 94.2204 121.519C93.7253 123.027 93.2301 125.191 93.5065 124.846C93.7022 124.604 94.3817 124.754 94.8538 124.731C94.8999 125.617 95.1878 126.596 94.9229 127.367C94.589 128.311 93.8289 129.105 93.2416 129.957C93.5871 130.337 93.5295 130.28 93.875 130.659C94.3817 130.383 94.8769 130.107 95.3835 129.831C95.5333 130.372 95.9363 131.039 95.7521 131.442C95.4411 132.144 94.8308 132.743 94.2435 133.284C94.0477 133.468 93.0689 133.422 93.0689 133.422C92.9652 133.894 92.6658 134.493 92.5737 134.93C92.2513 136.404 92.5737 140.801 92.9077 140.801C94.1283 139.247 97.0879 132.547 97.6406 130.752C98.5043 127.931 98.608 124.857 99.0571 121.68C98.5274 121.335 97.5485 120.69 96.1205 119.746C97.9631 119.09 99.4947 118.549 101.694 117.766C101.671 117.801 102.362 117.087 102.512 116.258C103.295 111.999 103.709 107.659 104.723 103.469C105.23 101.385 107.153 99.497 103.088 99.3933C102.132 99.3703 101.199 98.4724 100.266 97.9428C100.105 97.8508 99.9323 97.6551 99.9208 97.4824C99.9208 97.3212 100.105 97.0104 100.209 97.0104C101.832 97.091 103.456 97.3327 105.068 97.2752C106.093 97.2291 107.809 96.9644 107.982 96.4118C108.604 94.4203 108.788 92.256 108.938 90.1494C108.972 89.7119 108.258 88.9752 107.74 88.8025L107.751 88.8485Z" fill="#E0AF62"/>
<path d="M128.192 134.528C127.835 135.564 126.534 137.97 125.521 139.938C125.624 140.41 125.728 140.871 125.831 141.343C131.313 141.02 128.261 137.187 128.192 134.528Z" fill="#BF87A6"/>
<path d="M130.69 138.591C132.176 138.948 133.615 137.521 135.078 136.335C134.318 136.484 133.662 136.6 132.994 136.634C132.775 136.646 132.498 135.667 132.257 135.138C131.37 135.598 130.368 135.92 129.689 136.588C129.516 136.761 130.195 138.476 130.69 138.591Z" fill="#BF87A6"/>
<path d="M147.909 143.253C147.287 144.324 145.018 145.544 144.097 145.164C138.327 142.77 131.982 140.859 127.318 136.991C123.449 133.779 120.743 128.403 119.142 123.453C117.346 117.916 117.76 111.676 117 105.805C117 103.054 117.254 101.212 117.565 98.8638C118.382 96.3197 118.428 92.9007 120.156 91.3927C124.796 87.352 130.969 86.5577 136.07 89.6429C141.414 92.8777 140.619 98.6566 138.708 103.987C137.901 106.243 136.531 108.534 136.52 110.813C136.496 116.949 136.807 123.085 137.199 129.209C138.143 131.396 138.592 131.488 138.984 131.339C139.272 131.212 139.548 131.085 139.825 130.97C139.686 130.372 139.548 129.773 139.352 128.933C141.471 130.798 143.394 133.572 144.477 136.231C144.477 136.208 144.477 136.185 144.488 136.162C145.237 137.497 145.836 138.464 146.331 139.466C146.953 140.744 148.312 142.528 147.886 143.253H147.909ZM137.406 98.1731C137.694 96.8032 136.888 95.2031 136.784 94.708C135.99 98.3458 135.034 102.674 134.09 106.991C133.595 106.899 133.099 106.795 132.616 106.703C133.134 102.974 133.664 99.2552 134.147 95.5254C134.228 94.9153 134.136 94.2821 134.124 93.6605C133.56 94.121 132.731 94.4663 132.489 95.0649C131.959 96.3542 131.51 97.7587 131.418 99.1401C130.842 107.59 130.37 116.039 129.863 124.374C129.414 120.391 128.493 116.016 128.539 111.665C128.597 105.748 129.403 99.8308 129.852 93.9137C129.875 93.6374 129.276 93.0734 129.242 93.0849C128.493 93.5454 127.261 93.9943 127.169 94.6044C126.386 99.6351 125.729 104.689 125.211 109.754C125.061 111.135 125.464 112.574 125.614 113.99C125.073 114.059 124.543 114.128 124.002 114.198C123.161 108.407 122.321 102.617 121.607 97.7587C116.758 103.446 121.964 131.73 129.748 134.412C129.748 133.687 129.737 133.031 129.725 132.375C129.863 132.363 130.013 132.306 130.117 132.352C131.453 133.019 132.765 133.71 134.09 134.389C134.067 132.778 134.481 130.993 133.94 129.577C131.142 122.221 131.51 115.084 134.504 107.878C135.794 104.769 136.727 101.477 137.418 98.1846L137.406 98.1731ZM139.479 136.588C138.8 135.932 137.798 135.598 136.911 135.138C136.669 135.667 136.393 136.646 136.174 136.634C135.518 136.6 134.861 136.484 134.09 136.335C135.552 137.52 136.992 138.948 138.477 138.591C138.972 138.476 139.663 136.761 139.479 136.588ZM140.988 134.527C140.919 137.187 137.867 141.009 143.348 141.342C143.452 140.87 143.556 140.41 143.659 139.938C142.646 137.969 141.345 135.563 140.988 134.527Z" fill="#A35380"/>
<path d="M133.942 129.555C134.483 130.97 134.068 132.755 134.091 134.366C132.767 133.687 131.443 132.997 130.118 132.329C130.015 132.271 129.853 132.329 129.727 132.352C129.727 133.008 129.727 133.676 129.75 134.389C121.965 131.707 116.76 103.423 121.608 97.7359C122.311 102.594 123.163 108.384 124.003 114.175C124.545 114.106 125.074 114.037 125.616 113.968C125.466 112.552 125.074 111.113 125.213 109.731C125.742 104.666 126.387 99.6123 127.17 94.5816C127.262 93.9715 128.506 93.5341 129.243 93.0621C129.266 93.039 129.865 93.6146 129.853 93.8909C129.416 99.808 128.61 105.725 128.541 111.642C128.495 115.994 129.416 120.368 129.865 124.351C130.372 116.005 130.844 107.555 131.42 99.1058C131.512 97.7244 131.972 96.3314 132.491 95.0306C132.732 94.4435 133.561 94.0866 134.126 93.6261C134.137 94.2478 134.241 94.8809 134.149 95.4911C133.665 99.2209 133.135 102.939 132.617 106.669C133.112 106.761 133.608 106.865 134.091 106.957C135.036 102.64 135.991 98.323 136.786 94.6737C136.89 95.1572 137.684 96.7574 137.408 98.1273C136.728 101.42 135.784 104.712 134.494 107.82C131.5 115.027 131.132 122.164 133.93 129.52L133.942 129.555Z" fill="#BF87A6"/>
<path d="M78.8809 90.9322C76.5202 88.2615 71.8332 87.8355 69.1501 90.1264C66.6396 94.2937 66.9966 93.4188 65.776 89.3551C67.607 89.4357 68.4476 88.4687 68.9889 86.7534C70.6126 84.0482 67.0312 82.92 64.9123 83.7834C58.1065 84.854 62.1715 89.6774 62.6206 93.8792C61.5497 95.2607 59.9029 95.3297 59.3041 97.1371C57.8416 97.6206 56.3676 98.3573 55.1009 99.3358C53.7881 102.03 51.2085 105.644 54.2256 108.004C58.6707 115.487 60.3175 115.717 65.9602 126.745C65.7184 131.316 63.6801 133.503 69.1385 136.197C73.3648 134.539 72.6624 138.936 78.973 138.154C83.3951 137.567 83.0266 135.011 85.9746 133.768C102.108 127.379 87.8517 108.016 85.4218 96.6536C84.9727 93.8332 81.5871 91.8302 78.8694 90.9437L78.8809 90.9322ZM69.9447 92.7971C68.2979 94.5009 69.7489 93.0619 70.7392 92.6245C72.1557 92.1295 75.3801 90.8401 74.8619 92.6475C70.4168 93.3267 70.3938 96.8493 68.7701 95.8593C68.7701 95.8593 68.3785 94.7541 67.6415 95.5369C67.5263 94.8347 69.0119 93.0504 69.9331 92.7971H69.9447ZM61.0199 96.999C61.3654 95.2492 63.8874 95.8593 64.1062 97.3558C60.9739 95.8017 63.9564 97.9314 61.9412 97.0105C61.5957 98.0811 63.5304 97.9429 64.014 98.8293C62.6552 98.6566 60.1217 98.7027 61.0315 96.999H61.0199ZM61.1466 101.074C59.3041 101.281 56.9664 104.493 57.5422 102.582C58.0949 100.533 57.5192 100.51 56.0221 101.822C54.9396 98.3343 61.8145 99.3243 59.7763 100.591C59.7302 100.809 60.9969 100.176 61.043 100.199C59.6035 100.959 59.926 101.04 61.1466 101.063V101.074ZM80.7349 132.547C79.0882 132.398 76.7159 132.248 75.4607 130.36C74.7237 129.554 74.597 128 74.0558 126.964C71.9714 123.741 73.8485 126.849 72.4321 125.894C71.5453 124.017 71.2459 121.83 70.3016 119.815C71.695 122.705 71.5453 121.369 70.4053 119.148C72.1672 121.139 73.3533 121.485 74.3898 121.335C67.3076 107.901 61.1812 105.967 63.1504 101.822C63.7031 100.625 65.3153 100.66 66.0062 101.73C66.1905 101.212 66.2481 103.123 67.2384 102.559C69.5416 101.35 70.1174 104.205 71.5338 105.195C70.9465 103.388 68.724 97.7587 72.3745 100.821C73.5606 101.523 72.1096 100.096 73.3764 100.614C75.9329 101.477 78.8003 112.551 81.1955 117.525C82.7041 121.772 83.3835 129.313 80.7349 132.559V132.547ZM87.2759 111.561C88.6808 116.684 91.721 120.529 90.0397 124.293C89.7978 122.682 86.1243 119.125 86.7807 117.283L81.0113 106.381C80.6889 106.542 80.9422 105.955 80.5967 105.495C81.2416 106.082 81.7368 106.439 80.8155 104.931C77.6142 98.956 80.09 102.386 82.1398 106.22C82.0823 105.713 78.5009 98.012 76.9347 98.8178C75.3801 97.9199 74.6316 97.4134 73.6988 97.5745C73.6988 97.5745 72.2593 97.6897 75.4722 96.3888C78.6851 95.088 74.5164 92.7741 77.5335 94.1325C83.5332 97.4364 84.6042 106.162 87.2874 111.584L87.2759 111.561Z" fill="#E0AF62"/>
<path d="M68.7816 95.8478C70.4053 96.8378 70.4399 93.3152 74.8734 92.636C75.3801 90.8286 72.1673 92.1179 70.7508 92.6129C69.7605 93.0504 68.298 94.4894 69.9562 92.7856C69.0235 93.0274 67.5494 94.8232 67.6646 95.5254C68.4016 94.7311 68.7931 95.8478 68.7931 95.8478H68.7816Z" fill="#F5E091"/>
<path d="M64.0032 98.8293C63.5195 97.9428 61.5964 98.081 61.9303 97.0104C63.9456 97.9313 60.9745 95.8017 64.0953 97.3557C63.8765 95.8592 61.3661 95.2491 61.0091 96.9989C60.0993 98.7026 62.6328 98.6566 63.9916 98.8293H64.0032Z" fill="#F5E091"/>
<path d="M61.0316 100.199C61.0316 100.199 59.7303 100.798 59.7649 100.591C61.8032 99.3244 54.9398 98.3344 56.0107 101.822C57.5078 100.51 58.0836 100.533 57.5308 102.582C56.955 104.493 59.2812 101.27 61.1353 101.074C59.9146 101.051 59.5921 100.971 61.0316 100.211V100.199Z" fill="#F5E091"/>
<path d="M73.3761 100.591C72.1094 100.073 73.5604 101.5 72.3743 100.798C68.7123 97.7358 70.9348 103.365 71.5336 105.172C70.1172 104.182 69.5414 101.327 67.2382 102.536C66.2479 103.112 66.1903 101.189 66.006 101.707C65.3151 100.637 63.7029 100.591 63.1501 101.799C61.1925 105.944 67.3073 107.889 74.3895 121.312C73.3531 121.462 72.167 121.116 70.4051 119.125C71.5451 121.347 71.6948 122.682 70.3014 119.792C71.2572 121.807 71.5451 123.994 72.4318 125.871C73.8368 126.815 71.9597 123.718 74.0556 126.941C74.5853 127.966 74.7235 129.531 75.4605 130.337C76.7042 132.225 79.0879 132.375 80.7347 132.524C83.3833 129.278 82.7039 121.738 81.1953 117.49C78.8 112.528 75.9326 101.443 73.3761 100.579V100.591Z" fill="#F5E091"/>
<path d="M77.5224 94.098C74.5053 92.7396 78.674 95.065 75.4611 96.3543C72.2482 97.6552 73.6877 97.5401 73.6877 97.5401C74.632 97.3789 75.369 97.8854 76.9236 98.7833C78.4898 97.9775 82.0712 105.679 82.1287 106.185C80.0904 102.352 77.603 98.9215 80.8044 104.896C81.7372 106.404 81.242 106.047 80.5856 105.46C80.9311 105.921 80.6778 106.508 81.0002 106.347L86.7696 117.248C86.1132 119.09 89.7867 122.659 90.0286 124.259C91.6984 120.495 88.6697 116.65 87.2648 111.527C84.5816 106.116 83.5107 97.3789 77.5109 94.075L77.5224 94.098Z" fill="#F5E091"/>
<path d="M124.156 85.4496C125.04 83.8192 123.308 81.5459 123.308 81.5459C122.413 80.6387 121.678 80.4978 120.973 81.5735C120.165 82.7766 119.345 83.982 118.524 85.1761C117.981 85.9593 117.422 86.7224 116.757 87.6489C116.2 84.8605 115.726 82.4191 115.22 79.9847C115.173 79.7593 114.947 79.4654 114.734 79.4038C113.591 79.054 112.425 78.7675 111.128 78.4143C111.18 83.0129 111.06 87.2359 111.314 91.4514C111.685 97.524 110.255 103.254 108.348 108.896C106.573 114.157 104.47 119.31 104.209 124.95C104.172 125.675 104.192 126.223 104.873 126.611C105.551 126.987 105.383 127.422 105.085 128.025C104.522 129.165 104.078 130.363 103.658 131.567C103.526 131.947 103.624 132.421 103.619 133.186C105.446 131.794 104.694 129.199 106.916 128.29L106.175 131.055C106.657 130.719 106.882 130.555 107.212 130.333C107.084 130.96 106.993 131.425 106.902 131.891C106.976 131.911 107.049 131.919 107.123 131.939C107.305 131.737 107.486 131.534 107.752 131.232C107.736 132.846 106.74 134.335 107.995 135.956C108.653 133.525 109.259 131.236 109.902 128.844C110.473 128.878 111.251 128.94 112.241 129.004C112.697 126.792 113.198 124.619 113.576 122.423C114.812 115.087 116.216 107.763 117.127 100.389C117.575 96.7208 119.006 93.7066 120.993 90.7647C122.145 89.0667 123.17 87.2659 124.145 85.4519L124.156 85.4496ZM112.354 86.6137C112.522 85.05 112.265 83.422 112.668 81.739C113.039 83.9193 113.411 86.0996 113.783 88.2799C113.925 88.2855 114.076 88.2775 114.219 88.2832C114.296 87.1853 114.364 86.101 114.441 85.0031C114.595 85.0064 114.757 84.9961 114.911 84.9994C115.042 86.1363 115.462 88.0949 115.614 89.4506L112.947 93.5335C112.885 91.8769 112.197 88.0103 112.342 86.6161L112.354 86.6137ZM105.2 124.791C105.232 121.386 108.005 113.859 109.157 109.562C108.815 114.078 106.398 120.32 105.2 124.791ZM106.769 125.604C108.908 116.669 111.037 107.748 113.176 98.8126C113.359 98.845 113.945 98.0998 114.129 98.1322C112.003 107.076 110.014 117.238 108.171 126.465C107.983 126.41 106.966 125.646 106.78 125.602L106.769 125.604ZM111.495 127.231C111.312 127.198 110.224 127.002 110.052 126.967C111.821 117.215 113.758 107.369 115.527 97.6176C115.685 97.6434 116.237 97.1875 116.396 97.2133C114.64 106.974 113.25 117.47 111.504 127.217L111.495 127.231ZM118.019 93.9944C116.039 95.2767 114.352 96.3807 112.359 97.6541C117.796 92.9237 113.897 95.6641 112.135 97.0892C113.04 96.066 117.382 92.857 117.686 92.394C117.63 92.1235 117.701 91.3915 117.468 89.9348C117.468 89.9348 121.569 85.0593 122.266 84.2793C121.55 85.9806 120.243 89.0277 120.854 88.5713C121.925 87.7838 121.544 87.8749 118.008 93.9967L118.019 93.9944Z" fill="#85A687"/>
<path d="M115.506 97.6337C113.737 107.385 111.8 117.231 110.031 126.983C110.214 127.015 111.302 127.212 111.474 127.247C113.229 117.486 114.619 106.99 116.366 97.243C116.207 97.2172 115.655 97.6731 115.497 97.6473L115.506 97.6337Z" fill="#C2CE86"/>
<path d="M114.911 84.9995C114.757 84.9962 114.594 85.0066 114.441 85.0033C114.364 86.1012 114.295 87.1854 114.218 88.2833C114.076 88.2777 113.924 88.2856 113.782 88.28C113.41 86.0997 113.039 83.9194 112.667 81.7392C112.262 83.4109 112.533 85.0478 112.353 86.6139C112.197 88.0104 112.896 91.8746 112.958 93.5313L115.625 89.4484C115.472 88.0927 115.05 86.1228 114.922 84.9972L114.911 84.9995Z" fill="#C2CE86"/>
<path d="M113.165 98.815C111.026 107.75 108.896 116.672 106.757 125.607C106.945 125.662 107.963 126.426 108.148 126.47C109.991 117.243 111.98 107.081 114.106 98.137C113.922 98.1046 113.337 98.8498 113.153 98.8174L113.165 98.815Z" fill="#C2CE86"/>
<path d="M120.843 88.5736C120.232 89.03 121.538 85.9829 122.254 84.2816C121.56 85.0729 117.456 89.9371 117.456 89.9371C117.7 91.3914 117.629 92.1235 117.674 92.3963C117.371 92.8593 113.028 96.0683 112.124 97.0915C113.899 95.6753 117.785 92.926 112.347 97.6564C114.327 96.374 116.014 95.2701 118.008 93.9967C121.544 87.8749 121.925 87.7838 120.854 88.5712L120.843 88.5736Z" fill="#C2CE86"/>
<path d="M93.9316 125.088C96.016 120.955 99.655 115.337 100.91 110.986C98.9065 114.957 94.6456 121.761 93.9316 125.088Z" fill="#C2CE86"/>
<path d="M52.8437 106.07L52.7631 122.463C52.8437 158.334 52.0606 141.826 55.3772 145.13C64.6934 154.408 80.1706 145.13 102.028 145.13C127.65 145.602 150.958 149.366 152.167 145.13C154.079 138.453 152.236 153.499 152.167 142.16C152.11 133.56 153.33 140.675 152.697 120.195L152.167 106.07L146.997 109.823L142.736 106.312L139.327 110.284L133.224 107.129L127.627 109.823L124.138 106.945L117.896 110.122L113.474 106.6L106.783 109.432L102.016 106.496L96.9721 109.121L91.8821 106.496L87.437 109.823L83.4641 106.416L79.5603 108.856L75.5758 106.508L69.3458 109.063L63.9218 106.128L58.9931 109.524L52.8207 106.082L52.8437 106.07Z" fill="#4C352B"/>
<path d="M158.267 134.857L160.019 152.934L47.3662 153.756L47.2242 134.857L158.267 134.857Z" fill="#814E18"/>
</svg>
