<svg width="144" height="146" viewBox="0 0 144 146" fill="none" xmlns="http://www.w3.org/2000/svg">
<g clip-path="url(#clip0_322_1493)">
<path d="M126.046 58.8601L123.31 58.0015L120.498 57.1817L117.617 56.4076L114.674 55.6717L111.676 54.9808L108.625 54.3489L105.533 53.7614L102.409 53.2391L99.2446 52.7752L96.0548 52.3692L92.8542 52.0344L89.6353 51.7641L86.4122 51.5578L83.193 51.4362L79.977 51.3853L76.7717 51.4117L73.5844 51.5222L70.4224 51.7236L67.2852 52.0018L64.195 52.3769L61.1442 52.8422L58.1471 53.397L55.211 54.0482L52.3293 54.803L49.5085 55.6542L46.7704 56.6078L44.1154 57.6778L41.5356 58.8436L39.0598 60.1178L36.6746 61.5153L34.3862 63.0145L32.2091 64.629L30.1442 66.3728L28.1766 68.2326L26.3419 70.2136L24.6005 72.3744L23.8142 73.4439L23.0379 74.5766L22.2918 75.7504L21.5758 76.9653L20.9036 78.2065L20.2615 79.4887L19.6497 80.8121L19.0747 82.1692L18.5367 83.56L18.0289 84.9918L17.5655 86.4642L17.1463 87.9769L16.7574 89.5307L16.4127 91.125L16.1124 92.7597L15.8497 94.4423L15.6313 96.1653L15.4592 97.9711C15.3001 99.5994 13.8537 100.784 12.2329 100.632C10.6046 100.473 9.41998 99.0263 9.57227 97.4054L9.75466 95.5142L9.98682 93.6277L10.2707 91.7885L10.6056 89.9823L10.9849 88.2165L11.4084 86.4912L11.8763 84.8064L12.3953 83.1546L12.9586 81.5432L13.5662 79.9723L14.2107 78.435L14.8996 76.9383L15.6328 75.4819L16.4029 74.0593L17.2106 72.6845L18.0552 71.3433L18.9442 70.0427L19.8971 68.7461L21.8192 66.3576L23.9167 64.0885L26.1417 61.9763L28.4789 59.9935L30.9361 58.1609L33.492 56.4725L36.1385 54.9073L38.8903 53.4789L41.7193 52.1885L44.624 51.0079L47.6052 49.9512L50.6487 49.019L53.7466 48.1906L56.9061 47.4725L60.1064 46.873L63.3463 46.3636L66.6263 45.9586L69.925 45.6518L73.2491 45.4359L76.5985 45.3109L79.9519 45.2706L83.3159 45.3077L86.6837 45.4295L90.0481 45.6294L93.4015 45.9006L96.7441 46.243L100.062 46.6574L103.347 47.137L106.599 47.6817L109.812 48.2849L112.978 48.9399L116.097 49.6465L119.154 50.4055L122.157 51.2094L125.091 52.059L127.942 52.9548L129.207 53.3782L126.698 50.6829L124.108 47.9135L121.525 45.1367L118.934 42.3532L116.371 39.5542L113.815 36.762C112.712 35.5525 112.789 33.6873 113.999 32.5843C115.208 31.4813 117.074 31.5587 118.177 32.7682L120.732 35.5604L123.281 38.3459L125.856 41.1018L128.439 43.8645L131.042 46.605L133.659 49.3591L134.487 50.2767L135.246 51.2259L135.898 52.1729L136.458 53.1311L136.928 54.1148L137.291 55.0962L137.557 56.0963L137.716 57.1083L137.737 57.5603C138.039 58.2827 138.077 59.1162 137.78 59.9013C137.679 60.1608 137.541 60.3866 137.381 60.6062L137.277 60.972L136.935 61.8512L136.521 62.6913L136.04 63.4707L135.514 64.2097L134.931 64.9089L134.255 65.6193L132.978 66.7821L131.507 67.89L129.96 68.8881L128.352 69.804L126.692 70.6445L125.021 71.4076L123.362 72.1136L121.735 72.7544L120.161 73.3361L118.671 73.8574L117.291 74.3311L116.057 74.7486L114.991 75.1159L114.148 75.4164L113.508 75.6722C111.902 76.3049 110.09 75.5173 109.457 73.9111C108.824 72.305 109.612 70.4922 111.218 69.8595L111.976 69.5629L112.951 69.2209L114.067 68.8442L115.294 68.4341L116.625 67.9839L118.039 67.4873L119.508 66.9458L121.003 66.3606L122.51 65.7324L123.987 65.0631L125.406 64.354L126.738 63.6064L127.962 62.8284L129.037 62.0359L129.996 61.178L130.313 60.8308L130.596 60.5205L128.652 59.8167L125.992 58.9192L126.046 58.8601Z" fill="#C2CE86"/>
</g>
<defs>
<clipPath id="clip0_322_1493">
<rect width="122.18" height="82.59" fill="white" transform="matrix(-0.674024 0.73871 0.73871 0.674024 82.3525 0)"/>
</clipPath>
</defs>
</svg>
