<svg width="204" height="199" viewBox="0 0 204 199" fill="none" xmlns="http://www.w3.org/2000/svg">
<path d="M158.487 184.631C195.975 163.539 207.974 124.495 202.418 84.3636C202.8 65.6166 188.302 50.0167 181.108 33.3156C159.934 -12.4713 96.8155 -1.66353 57.4167 10.8844C19.5743 24.3091 -4.43906 92.6972 0.687148 129.498C3.28779 143.46 11.0897 157.129 18.0111 168.787C27.4649 179.289 43.8333 183.122 55.5055 191.381C59.7375 189.627 70.065 195.779 76.5973 195.684C104.454 199.932 133.743 201.285 158.494 184.638L158.487 184.631Z" fill="#A35380"/>
<path d="M157.996 59C158.006 79.0556 157.996 117.413 157.986 137.468C157.986 137.593 157.934 137.717 157.872 138H45.0261V135.95C45.0261 116.417 45.0392 78.5881 45 59.0558C45 59.0343 45 59.0214 45 59" fill="#F7E6D4"/>
<path d="M44.054 144H46.3917L150.741 143.774C152.576 143.737 156.305 143.834 159.423 143.789C163.015 143.734 165.567 143.752 165.595 140.375C165.612 138.416 165.598 140.375 165.598 138.416C165.598 135.254 163.392 134.27 161.349 134.259C160.9 134.259 161.946 134.259 161.349 134.259V132.835C161.349 117.795 161.346 81.2922 161.369 66.2522L156.008 69.4783V134.262H155.49C142.082 134.262 128.671 134.262 115.262 134.262C113.125 134.262 112.622 134.642 112.202 136.695C111.953 137.901 111.245 138.51 110.039 138.51C104.417 138.519 98.7935 138.522 93.1724 138.51C91.9635 138.508 91.272 137.873 91.0319 136.669C90.6347 134.676 90.1003 134.264 88.0742 134.264C74.6658 134.264 61.2546 134.264 47.8462 134.264H47.2659L47.2659 67.6609H41.8736C41.9022 82.6895 41.8965 117.769 41.8965 132.798V134.241C41.8793 134.241 41.865 134.241 41.8479 134.241C39.5303 134.236 37.6442 136.106 37.6442 138.425V140.844C37.6442 140.844 37.4442 144.006 44.054 144.006V144Z" fill="#4C352B"/>
<path d="M95.1809 101.497C95.2161 101.444 95.2483 101.385 95.2658 101.353C95.0434 101.03 94.7096 100.746 94.6335 100.402C94.4666 99.651 94.4257 98.8704 94.3378 98.0986C94.2705 97.5058 94.3935 96.7956 94.1095 96.3437C93.5035 95.384 93.565 94.489 93.9133 93.5176C93.9895 93.3092 94.2149 93.004 94.5047 92.6841C93.726 92.9981 92.9297 94.0253 93.0527 94.7677C93.243 95.9269 93.5035 97.0891 93.5181 98.2541C93.5357 99.5366 93.5591 100.69 94.6189 101.655C95.0609 102.057 95.1722 102.826 95.4269 103.41C95.6113 103.299 95.5469 102.013 95.178 101.497H95.1809Z" fill="#BF87A6"/>
<path d="M95.2659 103.848C95.058 104.426 95.5498 105.919 96.5071 106.738C96.6213 106.835 96.9462 106.542 97.116 106.336C97.1687 106.269 97.0897 105.799 96.9784 105.673C96.4222 105.033 95.8338 104.446 95.2659 103.848Z" fill="#BF87A6"/>
<path d="M100.582 108.537C100.711 108.649 100.764 108.704 100.825 108.746C100.992 108.863 101.162 108.972 101.332 109.086C101.244 108.807 101.206 108.37 101.057 108.276C99.9588 107.575 99.145 105.823 97.7164 106.351C97.5056 106.43 97.3504 106.826 97.1689 107.076C97.368 107.24 97.5554 107.457 97.7662 107.56C98.0296 107.686 98.3399 107.645 98.5888 107.806C99.2767 108.255 99.9442 108.772 100.62 109.265C100.82 109.57 101.019 109.872 101.218 110.178C101.282 110.087 101.344 109.993 101.408 109.902C101.185 109.576 100.963 109.253 100.74 108.928C100.699 108.831 100.661 108.734 100.582 108.543V108.537Z" fill="#BF87A6"/>
<path d="M100.504 100.141C100.235 99.5131 100.047 98.8499 99.7574 98.2336C99.3242 97.3121 99.1632 94.5858 99.5642 93.3092L99.9009 91.7539C100.404 90.6123 101.663 90.3746 102.641 89.8728C102.966 89.7055 105.194 89.3797 106.886 90.3511C107.108 90.4597 107.325 90.5976 107.533 90.7678C107.504 90.7267 107.407 90.5771 107.199 90.2631C107.568 90.4157 107.776 90.5008 107.957 90.5741C106.646 89.2653 104.998 89.0687 103.077 89.3563L102.544 89.2682C100.846 89.186 100.261 89.3445 98.6216 89.729C98.0127 89.8728 97.4535 90.084 97.193 90.7443C97.0847 91.0202 96.9441 91.2814 96.8065 91.5455C96.8739 91.8096 96.9822 92.0855 97.1725 92.3291C97.2398 92.3819 97.3042 92.4494 97.3598 92.5227C97.354 92.5227 97.3481 92.5169 97.3393 92.5169C97.354 92.5315 97.3715 92.5462 97.3891 92.5609C97.5735 92.8133 97.6848 93.139 97.597 93.3532C97.3423 93.9754 97.0583 94.5829 96.7978 95.2021C96.224 96.5638 95.8844 97.9871 96.6133 99.3487C97.3013 100.634 98.1912 101.811 99.0051 103.026C99.2627 103.41 99.5584 103.765 99.8394 104.132C99.4852 104.109 99.1573 104.009 99.0022 103.789C98.32 102.809 97.6497 101.817 97.0466 100.787C96.4874 99.8359 95.498 99.07 95.6414 97.9078C95.4628 98.3392 95.4599 98.8293 95.8815 99.3575C96.265 99.8388 96.4787 100.455 96.7831 101.004C96.9793 101.356 97.193 101.694 97.4125 102.031C97.5326 102.213 97.6497 102.41 97.8136 102.55C98.2176 102.897 98.645 103.173 98.6801 103.815C98.7153 104.473 99.6491 104.995 100.085 104.663C100.202 104.798 100.322 104.933 100.442 105.068C100.533 104.76 100.545 104.426 100.387 104.223C99.7194 103.36 98.9699 102.565 98.3142 101.696C97.1549 100.165 96.6133 98.527 97.4125 96.599C97.8692 95.4985 98.1532 94.3217 98.4781 93.1684C98.6889 92.423 98.3523 91.9065 97.7843 91.9857C97.6057 92.0092 97.4155 91.9534 97.2281 91.9329C97.3569 91.7773 97.4682 91.5983 97.6204 91.4692C97.8341 91.2843 98.0741 91.1288 98.3142 90.9762C98.4547 90.8852 98.6099 90.7884 98.768 90.7649C98.8236 90.7561 98.9114 90.9498 99.008 91.0789C98.8704 91.0906 98.806 91.0965 98.6743 91.1082C99.1719 91.39 99.6169 91.6423 99.3739 92.2792C99.2159 92.69 99.0666 93.1067 98.9319 93.5264C98.8851 93.6731 98.8938 93.8404 98.8733 94.0282C98.9524 93.9666 98.9992 93.9314 99.0841 93.8668C99.0753 94.0165 99.0753 94.128 99.0607 94.2336C98.8851 95.4192 98.7035 96.6019 98.5308 97.7875C98.443 98.3891 98.5455 98.8968 99.0636 99.3282C99.4735 99.6686 99.8072 100.129 100.097 100.587C100.399 101.066 100.586 101.614 100.861 102.11C100.955 102.278 101.168 102.383 101.335 102.501C101.347 102.509 101.496 102.392 101.488 102.354C101.447 102.163 101.391 101.972 101.306 101.796C101.043 101.239 100.744 100.699 100.501 100.135L100.504 100.141Z" fill="#BF87A6"/>
<path d="M103.981 91.6423C104.444 91.6541 104.93 91.836 105.357 91.7392C105.919 91.613 106.347 91.6952 106.71 92.106C107.029 92.464 107.313 92.8544 107.579 93.1918C107.825 92.7516 106.988 91.3019 106.294 91.255C105.635 91.2139 104.974 91.208 104.315 91.2168C103.768 91.2227 103.159 92.0268 103.478 92.3232C103.876 92.6871 104.441 92.8749 104.942 93.1185C104.991 93.142 105.12 93.048 105.187 92.9835C105.401 92.7898 105.606 92.5844 105.849 92.3496C105.738 92.3408 105.343 92.2146 105.267 92.3203C104.848 92.9013 104.394 92.7399 103.943 92.4464C103.803 92.3555 103.709 92.1236 103.689 91.9446C103.677 91.8507 103.876 91.6423 103.978 91.6453L103.981 91.6423Z" fill="#BF87A6"/>
<path d="M101.238 98.4566C101.194 98.0693 101.156 97.676 101.168 97.2886C100.93 97.1272 100.887 96.7076 100.928 96.2175C100.398 97.2329 100.474 98.2629 101.036 99.3194C101.168 99.5659 101.115 99.9034 101.223 100.168C101.457 100.743 101.738 101.3 101.999 101.864C102.09 101.829 102.178 101.793 102.268 101.758C102.075 101.068 101.894 100.376 101.683 99.6921C101.554 99.2725 101.285 98.8763 101.238 98.4537V98.4566Z" fill="#BF87A6"/>
<path d="M104.367 98.6973C104.324 98.7706 104.277 98.8469 104.189 98.9907C104.189 98.841 104.18 98.7647 104.189 98.6943C104.318 97.8257 104.031 97.0626 103.609 96.329C103.539 96.2087 103.548 96.194 103.495 96.0649C103.691 96.1265 103.914 96.461 104.025 96.596C104.239 96.8572 104.365 96.7369 104.526 97.0421C104.318 96.5051 104.04 95.9651 103.598 95.6863C103.445 95.5895 102.772 96.0561 102.547 96.4053C102.307 96.7751 102.321 97.3062 102.184 97.9548C102.397 97.3356 102.506 96.8983 102.705 96.5051C102.79 96.3349 103.158 96.1206 103.232 96.1705C103.466 96.329 103.621 96.6048 103.87 96.9159C103.618 96.9159 103.542 96.9042 103.469 96.9189C103.393 96.9335 103.319 96.9746 103.246 97.004C103.293 97.0803 103.337 97.2153 103.39 97.2182C103.808 97.2505 104.18 97.7816 104.078 98.1778H103.741L104.148 99.1903C104.239 99.0494 104.335 98.8939 104.432 98.7413C104.408 98.7266 104.388 98.7149 104.365 98.7002L104.367 98.6973Z" fill="#BF87A6"/>
<path d="M105.475 99.8389C105.636 99.8066 105.791 99.4339 105.841 99.1933C105.987 98.4831 106.078 97.7612 106.18 97.1155C106.174 97.1155 105.946 97.0921 105.89 96.9805C105.568 96.3408 105.378 95.6101 104.965 95.0495C104.643 94.6152 104.011 94.0664 103.61 94.1369C102.951 94.2542 102.366 94.8324 101.751 95.2168L101.883 95.4428C102.003 95.3489 102.17 95.2843 102.237 95.1611C102.65 94.401 103.431 94.4538 103.944 94.6563C104.485 94.8676 104.88 95.5191 105.302 96.0121C106.171 97.0304 106.063 98.4479 105.088 99.3899C104.409 100.047 104.248 100.901 104.286 102.052C104.339 101.723 104.354 101.617 104.374 101.512C104.512 100.793 104.556 100.03 105.478 99.8389H105.475Z" fill="#BF87A6"/>
<path d="M108.49 95.7803C108.833 94.9028 108.622 93.9608 107.96 93.6086C108.683 95.3459 108.601 95.9769 107.55 96.1618C107.67 95.8947 107.773 95.6658 107.875 95.4369C107.799 95.4222 107.726 95.4076 107.65 95.3929C107.521 96.1735 107.395 96.9512 107.263 97.7406C107.316 97.6966 107.369 97.6526 107.419 97.6115C107.419 97.9314 107.246 98.125 107.097 98.3334C107.05 98.4009 107.006 98.5212 107.035 98.5858C107.465 99.5865 106.207 99.9299 106.186 100.766C106.186 100.872 105.87 100.975 105.694 101.069C105.65 101.092 105.583 101.089 105.533 101.077C104.895 100.919 104.863 101.424 104.766 101.811C104.661 102.239 104.605 102.68 104.553 103.117C104.491 103.625 104.462 104.135 104.418 104.643C104.719 104.429 104.863 104.203 104.977 103.965C105.75 102.336 106.552 100.722 107.272 99.07C107.741 98.0018 108.069 96.8719 108.493 95.7803H108.49Z" fill="#BF87A6"/>
<path d="M106.964 105.092C107.222 105.027 107.435 104.49 107.626 104.126C107.76 103.871 107.775 103.495 107.918 103.258C109.183 101.159 109.467 98.6738 109.493 96.0766C109.376 96.7751 109.262 97.4706 109.145 98.169C109.119 98.1632 109.095 98.1602 109.069 98.1544V97.0568C108.969 97.544 108.896 97.8961 108.826 98.2483L108.759 98.2248C108.779 97.7611 108.797 97.2974 108.823 96.7017C108.77 96.8631 108.75 96.8983 108.744 96.9394C108.706 97.1771 108.653 97.4119 108.641 97.6525C108.545 99.5219 107.974 101.071 107.017 102.404C106.563 103.035 106.153 103.742 105.79 104.473C105.445 105.165 105.36 105.937 105.852 106.809C105.802 105.6 106.267 105.262 106.964 105.089V105.092Z" fill="#BF87A6"/>
<path d="M111.619 101.4C111.587 101.4 111.552 101.4 111.519 101.4C111.446 100.948 111.37 100.496 111.297 100.047L111.224 100.056C111.323 100.625 111.423 101.195 111.534 101.834C111.678 101.711 111.721 101.67 111.941 101.482C111.941 101.984 111.944 102.333 111.932 102.683C111.932 102.7 111.801 102.715 111.806 102.712C111.405 103.393 111.022 104.047 110.638 104.702C110.665 104.713 110.691 104.722 110.72 104.734C110.785 104.666 110.846 104.596 110.94 104.496C110.975 105.03 111.11 105.559 110.416 105.826C110.261 105.884 109.991 105.746 109.757 105.696C109.728 105.749 109.675 106.016 109.558 106.034C109.151 106.098 109.175 106.239 109.315 106.477C109.347 106.533 109.28 106.627 109.259 106.706C109.052 106.638 108.844 106.574 108.639 106.506C108.589 106.492 108.542 106.471 108.492 106.454C108.492 106.495 108.469 106.547 108.492 106.574C108.756 106.885 108.46 106.944 108.2 107.073C107.825 107.255 107.48 107.484 107.152 107.718C106.967 107.85 106.783 108.021 106.701 108.206C106.516 108.616 106.396 109.045 106.265 109.467C106.265 109.47 106.484 109.553 106.519 109.526C107.076 109.118 107.643 108.716 108.156 108.273C108.788 107.73 109.28 107.055 109.997 106.609C111.364 105.758 111.783 104.528 112.205 103.316C112.585 102.225 111.979 101.201 111.517 100.153C111.555 100.593 111.59 100.998 111.625 101.403L111.619 101.4Z" fill="#BF87A6"/>
<path d="M113.803 98.9026C113.683 98.1425 113.63 97.3736 113.507 96.6165C113.431 96.144 113.367 95.6363 113.144 95.2284C112.585 94.2013 111.806 93.2798 111.359 92.2116C110.404 89.9402 108.569 88.9893 106.355 88.4992L105.287 88.2116L103.917 88.0209C102.942 87.9681 101.991 88.0297 102.043 88.0473H100.542C99.4086 88.1529 97.6228 88.8573 96.5074 89.139C95.2808 89.4501 94.4611 90.3011 93.7117 91.2784C93.4102 91.6687 92.8949 91.9064 92.4529 92.1705C91.68 92.6283 91.7064 93.3854 91.6068 94.1396C91.5219 94.7735 91.276 95.3839 91.1092 96.009C91.0623 96.1822 91.0301 96.3641 91.0331 96.5431C91.0331 97.5791 91.1238 98.6209 91.0389 99.648C90.9482 100.74 90.9862 101.79 91.481 102.776C91.7005 103.211 92.0108 103.598 92.3007 103.991C92.3416 104.044 92.5173 103.997 92.6315 103.997C92.7808 103.997 92.9271 103.997 93.1496 103.997C93.1525 103.965 93.1584 103.921 93.1613 103.865C93.2521 104.605 93.3341 105.262 93.4131 105.916C93.4394 105.952 93.4599 105.99 93.4658 106.034C93.4658 106.046 93.4687 106.057 93.4716 106.069C94.2621 106.36 94.8066 106.982 95.3921 107.592C95.7346 107.95 96.3318 108.05 96.7651 108.34C97.1164 108.578 97.371 108.957 97.7106 109.218C98.0063 109.444 98.3722 109.576 98.6767 109.793C98.8026 109.881 98.9372 110.095 98.9197 110.23C98.8699 110.568 98.7001 110.888 98.6386 111.225C98.6123 111.372 98.6094 111.501 98.6299 111.613C98.9929 111.677 99.3559 111.724 99.7218 111.756C101.396 111.768 103.065 111.897 104.737 112C105.313 111.965 105.893 111.932 106.476 111.897C106.724 111.833 106.976 111.789 107.231 111.742C107.19 111.586 107.163 111.483 107.178 111.384C107.216 111.09 107.216 110.65 107.395 110.541C108.516 109.864 109.684 109.262 110.835 108.628C110.931 108.575 111.007 108.475 111.086 108.39C111.32 108.144 111.558 107.894 111.792 107.645C111.806 107.604 111.83 107.563 111.868 107.525C112.263 107.099 112.617 106.641 112.951 106.169C112.957 106.128 112.966 106.087 112.972 106.046C112.963 106.06 112.957 106.078 112.948 106.092C112.98 105.881 113.01 105.673 113.039 105.47C113.039 105.453 113.039 105.435 113.039 105.418C113.039 105.373 113.048 105.332 113.062 105.297C113.147 104.707 113.229 104.147 113.314 103.577C113.25 103.589 113.2 103.601 113.086 103.622C113.235 103.44 113.355 103.29 113.554 103.049C113.633 102.85 113.721 102.653 113.826 102.468C113.736 102.204 113.651 101.949 113.557 101.676C113.742 101.318 114.099 100.919 114.128 100.496C114.163 99.9737 113.897 99.4367 113.812 98.8996L113.803 98.9026ZM94.6221 101.655C93.5595 100.69 93.536 99.5365 93.5214 98.254C93.5068 97.089 93.2462 95.9268 93.0559 94.7677C92.933 94.0252 93.7293 92.9981 94.508 92.6841C94.2182 93.0039 93.9927 93.3091 93.9166 93.5175C93.5683 94.4889 93.5068 95.3869 94.1128 96.3436C94.3967 96.7955 94.2738 97.5057 94.3411 98.0985C94.4289 98.8674 94.4699 99.648 94.6368 100.402C94.7129 100.746 95.0466 101.033 95.2691 101.353C95.2516 101.385 95.2164 101.441 95.1842 101.5C95.556 102.01 95.6175 103.299 95.4331 103.41C95.1784 102.823 95.0671 102.057 94.6251 101.655H94.6221ZM97.1164 106.336C96.9466 106.544 96.6216 106.838 96.5074 106.738C95.5502 105.919 95.0613 104.426 95.2662 103.847C95.8341 104.446 96.4225 105.033 96.9788 105.673C97.09 105.799 97.1691 106.269 97.1164 106.336ZM101.221 110.175C101.022 109.869 100.823 109.567 100.623 109.262C99.9472 108.772 99.2827 108.255 98.5918 107.803C98.343 107.642 98.0327 107.683 97.7692 107.557C97.5555 107.454 97.3681 107.24 97.172 107.073C97.3535 106.823 97.5057 106.427 97.7194 106.348C99.148 105.82 99.9619 107.572 101.06 108.273C101.206 108.367 101.244 108.804 101.335 109.083C101.165 108.971 100.995 108.86 100.828 108.742C100.77 108.701 100.714 108.646 100.585 108.534C100.664 108.725 100.705 108.822 100.744 108.919C100.966 109.244 101.188 109.567 101.411 109.893C101.347 109.984 101.285 110.078 101.221 110.169V110.175ZM101.335 102.503C101.165 102.386 100.954 102.28 100.861 102.113C100.585 101.617 100.398 101.068 100.097 100.59C99.8096 100.132 99.473 99.6744 99.0631 99.331C98.542 98.8996 98.4425 98.392 98.5303 97.7903C98.703 96.6047 98.8846 95.4221 99.0602 94.2365C99.0748 94.1308 99.0748 94.0193 99.0836 93.8697C98.9987 93.9342 98.9519 93.9694 98.8728 94.0311C98.8933 93.8432 98.8846 93.676 98.9314 93.5292C99.0661 93.1096 99.2183 92.6958 99.3734 92.282C99.6164 91.6423 99.1714 91.3928 98.6738 91.1111C98.8055 91.0993 98.8699 91.0935 99.0075 91.0817C98.9138 90.9526 98.826 90.7589 98.7675 90.7677C98.6094 90.7941 98.4542 90.888 98.3137 90.979C98.0766 91.1316 97.8365 91.2872 97.6199 91.472C97.4677 91.6012 97.3564 91.7802 97.2276 91.9357C97.412 91.9563 97.6052 92.012 97.7838 91.9885C98.3518 91.9093 98.6855 92.4258 98.4776 93.1712C98.1527 94.3245 97.8687 95.5013 97.412 96.6018C96.6099 98.5299 97.1544 100.167 98.3137 101.699C98.9695 102.568 99.7189 103.366 100.386 104.226C100.544 104.429 100.533 104.763 100.442 105.071C100.322 104.936 100.205 104.801 100.085 104.666C99.6516 104.995 98.7148 104.473 98.6796 103.818C98.6445 103.173 98.2171 102.897 97.8131 102.553C97.6492 102.415 97.5321 102.219 97.412 102.034C97.1925 101.696 96.9788 101.356 96.7826 101.007C96.4782 100.458 96.2645 99.8446 95.881 99.3604C95.4594 98.8322 95.4653 98.3421 95.6409 97.9107C95.4945 99.0728 96.4869 99.8387 97.0461 100.79C97.6492 101.82 98.3196 102.812 99.0017 103.792C99.1568 104.012 99.4847 104.112 99.8389 104.135C99.5608 103.765 99.2622 103.41 99.0046 103.029C98.1907 101.814 97.3008 100.637 96.6128 99.3516C95.8839 97.9899 96.2235 96.5637 96.7973 95.2049C97.0578 94.5857 97.3418 93.9782 97.5965 93.3561C97.6843 93.1448 97.573 92.8161 97.3886 92.5637C97.371 92.5491 97.3564 92.5344 97.3388 92.5197C97.3447 92.5197 97.3535 92.5256 97.3593 92.5256C97.3008 92.4522 97.2393 92.3847 97.172 92.3319C96.9817 92.0883 96.8734 91.8095 96.806 91.5483C96.9436 91.2842 97.0842 91.023 97.1925 90.7472C97.453 90.0839 98.0122 89.8727 98.6211 89.7318C100.26 89.3474 100.846 89.1889 102.544 89.2711L103.077 89.3591C104.997 89.0744 106.645 89.2681 107.957 90.577C107.778 90.5036 107.567 90.4156 107.199 90.2659C107.406 90.5799 107.506 90.7296 107.532 90.7707C107.324 90.6004 107.108 90.4625 106.885 90.3539C105.193 89.3826 102.965 89.7083 102.641 89.8756C101.663 90.3774 100.401 90.6151 99.9004 91.7567L99.5637 93.3121C99.1656 94.5886 99.3237 97.3149 99.7569 98.2364C100.047 98.8527 100.234 99.5159 100.503 100.144C100.746 100.707 101.045 101.247 101.309 101.805C101.39 101.981 101.446 102.172 101.49 102.363C101.499 102.401 101.349 102.518 101.338 102.509L101.335 102.503ZM103.949 92.4434C104.4 92.7369 104.854 92.8983 105.272 92.3172C105.348 92.2116 105.744 92.3378 105.855 92.3466C105.612 92.5813 105.407 92.7868 105.193 92.9805C105.123 93.045 104.997 93.1389 104.947 93.1154C104.447 92.8719 103.882 92.6841 103.484 92.3202C103.162 92.0267 103.771 91.2197 104.321 91.2138C104.98 91.2079 105.641 91.2109 106.3 91.2519C106.997 91.296 107.831 92.7457 107.585 93.1888C107.319 92.8543 107.032 92.464 106.716 92.103C106.353 91.6921 105.928 91.61 105.363 91.7362C104.936 91.833 104.447 91.6511 103.987 91.6393C103.888 91.6393 103.689 91.8447 103.697 91.9387C103.718 92.1177 103.812 92.3495 103.952 92.4405L103.949 92.4434ZM101.999 101.867C101.739 101.303 101.458 100.746 101.224 100.17C101.115 99.9062 101.168 99.5688 101.036 99.3222C100.471 98.2658 100.398 97.2357 100.928 96.2203C100.887 96.7104 100.928 97.1271 101.168 97.2915C101.159 97.6788 101.197 98.0691 101.238 98.4595C101.285 98.882 101.551 99.2782 101.683 99.6979C101.894 100.382 102.076 101.074 102.269 101.764C102.178 101.799 102.09 101.834 101.999 101.87V101.867ZM103.744 98.1748H104.081C104.183 97.7786 103.812 97.2445 103.393 97.2152C103.34 97.2122 103.296 97.0743 103.249 97.0009C103.323 96.9716 103.396 96.9305 103.472 96.9158C103.545 96.9012 103.621 96.9129 103.873 96.9129C103.624 96.6018 103.469 96.326 103.235 96.1675C103.162 96.1176 102.796 96.3318 102.708 96.502C102.509 96.8953 102.4 97.3325 102.187 97.9518C102.324 97.3032 102.313 96.772 102.55 96.4023C102.775 96.056 103.448 95.5864 103.601 95.6833C104.043 95.965 104.321 96.502 104.529 97.0391C104.368 96.7339 104.242 96.8571 104.028 96.593C103.92 96.458 103.697 96.1264 103.498 96.0618C103.551 96.1939 103.542 96.2056 103.612 96.326C104.034 97.0596 104.321 97.8226 104.192 98.6913C104.18 98.7617 104.192 98.838 104.192 98.9877C104.28 98.8439 104.324 98.7676 104.371 98.6942C104.394 98.7089 104.415 98.7206 104.438 98.7353C104.341 98.8879 104.245 99.0434 104.154 99.1843L103.747 98.1719L103.744 98.1748ZM104.286 102.049C104.248 100.898 104.409 100.047 105.088 99.3868C106.063 98.4448 106.171 97.0244 105.302 96.009C104.88 95.516 104.485 94.8645 103.943 94.6532C103.431 94.4536 102.649 94.3979 102.237 95.158C102.169 95.2812 102.002 95.3487 101.882 95.4397L101.751 95.2137C102.365 94.8293 102.951 94.2512 103.61 94.1338C104.011 94.0633 104.643 94.6121 104.965 95.0464C105.378 95.604 105.568 96.3377 105.89 96.9775C105.946 97.089 106.174 97.1095 106.18 97.1124C106.077 97.761 105.987 98.4829 105.84 99.1902C105.79 99.4308 105.635 99.8035 105.474 99.8358C104.552 100.027 104.505 100.79 104.371 101.509C104.35 101.614 104.336 101.72 104.283 102.049H104.286ZM104.417 104.643C104.461 104.135 104.494 103.624 104.552 103.117C104.605 102.679 104.66 102.236 104.766 101.811C104.86 101.423 104.895 100.919 105.533 101.077C105.583 101.089 105.653 101.092 105.694 101.068C105.87 100.974 106.183 100.872 106.186 100.766C106.209 99.9297 107.465 99.5864 107.035 98.5856C107.008 98.5211 107.049 98.4008 107.096 98.3333C107.245 98.1249 107.415 97.9312 107.418 97.6113C107.368 97.6554 107.316 97.6964 107.263 97.7405C107.392 96.951 107.521 96.1704 107.649 95.3927C107.726 95.4074 107.799 95.4221 107.875 95.4368C107.772 95.6657 107.67 95.8946 107.55 96.1616C108.601 95.9767 108.683 95.3428 107.96 93.6085C108.624 93.9606 108.832 94.9027 108.49 95.7801C108.065 96.8689 107.737 97.9987 107.269 99.0699C106.549 100.722 105.747 102.336 104.974 103.965C104.86 104.206 104.716 104.429 104.415 104.643H104.417ZM105.855 106.809C105.363 105.934 105.448 105.165 105.793 104.473C106.156 103.739 106.566 103.035 107.02 102.404C107.977 101.071 108.548 99.5218 108.645 97.6524C108.656 97.4118 108.709 97.177 108.747 96.9393C108.753 96.8982 108.774 96.863 108.826 96.7016C108.803 97.2973 108.782 97.761 108.762 98.2247L108.829 98.2482C108.902 97.896 108.973 97.5438 109.072 97.0567V98.1542C109.099 98.1601 109.122 98.1631 109.148 98.1689C109.265 97.4705 109.38 96.775 109.497 96.0765C109.47 98.6737 109.186 101.162 107.922 103.258C107.778 103.495 107.764 103.871 107.629 104.126C107.439 104.49 107.225 105.027 106.967 105.092C106.271 105.265 105.805 105.602 105.855 106.811V106.809ZM112.205 103.31C111.783 104.522 111.364 105.752 109.997 106.603C109.28 107.049 108.788 107.724 108.156 108.267C107.641 108.71 107.076 109.109 106.519 109.52C106.484 109.547 106.262 109.464 106.265 109.461C106.399 109.039 106.519 108.61 106.701 108.2C106.783 108.018 106.967 107.847 107.152 107.712C107.48 107.478 107.828 107.252 108.2 107.067C108.463 106.938 108.756 106.879 108.493 106.568C108.469 106.541 108.493 106.489 108.493 106.448C108.542 106.465 108.589 106.486 108.639 106.5C108.847 106.568 109.055 106.632 109.26 106.7C109.28 106.624 109.35 106.527 109.315 106.471C109.175 106.233 109.151 106.092 109.558 106.028C109.672 106.01 109.728 105.743 109.757 105.69C109.988 105.74 110.261 105.878 110.416 105.82C111.11 105.553 110.975 105.024 110.94 104.49C110.849 104.59 110.785 104.66 110.72 104.728C110.694 104.716 110.668 104.707 110.638 104.696C111.022 104.041 111.405 103.387 111.806 102.706C111.801 102.706 111.929 102.694 111.932 102.677C111.944 102.327 111.941 101.978 111.941 101.476C111.722 101.667 111.675 101.705 111.534 101.828C111.423 101.189 111.323 100.619 111.224 100.05L111.297 100.041C111.37 100.493 111.446 100.945 111.52 101.394C111.552 101.394 111.587 101.394 111.619 101.394C111.584 100.989 111.549 100.584 111.511 100.144C111.973 101.192 112.579 102.216 112.199 103.307L112.205 103.31Z" fill="#A35380"/>
<path d="M118.954 87.1715C119.566 85.8458 121.819 85.8557 121.819 85.8557C122.814 85.9871 123.248 86.3858 122.911 87.3372C122.53 88.4136 122.158 89.494 121.792 90.5756C121.553 91.2832 121.334 92.0011 121.061 92.8536C123.083 91.8834 124.851 91.0284 126.63 90.1965C126.794 90.1191 127.085 90.1263 127.222 90.2277C127.984 90.7796 128.716 91.3737 129.552 92.0269C126.626 94.1653 124.011 96.2389 121.235 98.0681C117.23 100.708 114.282 104.313 111.627 108.179C109.15 111.784 106.887 115.538 103.445 118.372C103 118.737 102.645 118.99 102.08 118.74C101.523 118.495 101.329 118.798 101.088 119.28C100.641 120.174 100.086 121.02 99.5272 121.85C99.3474 122.116 99.0079 122.272 98.5282 122.642C98.5416 120.834 100.539 120.081 100.063 118.253L98.6696 120.023C98.6537 119.563 98.6462 119.339 98.6383 119.03C98.2985 119.405 98.0499 119.683 97.7983 119.962C97.7525 119.92 97.7076 119.882 97.6647 119.839C97.7075 119.629 97.7503 119.419 97.8119 119.111C96.7994 119.881 96.3317 121.214 94.7163 121.191C95.9417 119.631 97.0999 118.16 98.3029 116.633C98.0088 116.292 97.6039 115.829 97.0943 115.241C98.2745 113.914 99.4075 112.563 100.618 111.292C104.663 107.043 108.624 102.702 112.85 98.6423C114.949 96.6249 116.18 94.3052 117.094 91.6651C117.622 90.1359 118.278 88.6456 118.955 87.1745L118.954 87.1715ZM123.803 95.1433C124.709 94.296 125.862 93.6896 126.729 92.6445C125.179 93.4409 123.626 94.2383 122.075 95.0317C122.004 94.9423 121.935 94.8491 121.865 94.7597C122.521 94.197 123.176 93.6314 123.832 93.0687C123.758 92.9674 123.684 92.8691 123.613 92.7669C122.837 93.2225 121.4 93.8853 120.472 94.4313L119.153 98.0344C120.228 97.2881 122.994 95.8983 123.806 95.1394L123.803 95.1433ZM103.085 117.694C105.221 116.069 108.656 110.764 110.825 108.004C108.134 110.357 105.341 114.822 103.085 117.694ZM101.828 117.094C106.456 111.532 111.082 105.966 115.713 100.402C115.604 100.305 115.801 99.5813 115.696 99.4863C111.056 105.05 105.583 111.106 100.63 116.63C100.75 116.727 101.713 116.999 101.832 117.096L101.828 117.094ZM98.569 114.897C98.6713 114.993 99.3139 115.586 99.4162 115.682C104.734 109.959 110.038 104.089 115.352 98.3645C115.262 98.2778 115.285 97.7199 115.195 97.6331C109.868 103.346 103.896 109.185 98.566 114.898L98.569 114.897ZM116.468 95.0874C116.599 96.9381 116.7 98.5229 116.832 100.374C117.247 94.719 117.357 98.4652 117.296 100.248C117.513 99.1966 117.489 94.945 117.637 94.5348C117.831 94.4412 118.264 94.0469 119.297 93.5136C119.297 93.5136 120.434 88.6301 120.598 87.8212C119.858 89.0724 118.557 91.3354 118.55 90.7374C118.543 89.6937 118.663 89.9711 116.472 95.0895L116.468 95.0874Z" fill="#85A687"/>
<path d="M115.351 98.362C110.034 104.085 104.729 109.954 99.4156 115.679C99.3133 115.583 98.6708 114.991 98.5684 114.895C103.896 109.182 109.867 103.343 115.198 97.6296C115.287 97.7163 115.264 98.2743 115.354 98.361L115.351 98.362Z" fill="#C2CE86"/>
<path d="M123.609 92.7674C123.684 92.8687 123.757 92.967 123.829 93.0693C123.173 93.6319 122.518 94.1976 121.861 94.7602C121.932 94.8496 122.001 94.9429 122.072 95.0322C123.622 94.2358 125.175 93.4385 126.725 92.6451C125.858 93.6901 124.706 94.2965 123.8 95.1438C122.989 95.9028 120.223 97.2926 119.147 98.0389L120.467 94.4357C121.395 93.8897 122.835 93.226 123.607 92.7713L123.609 92.7674Z" fill="#C2CE86"/>
<path d="M115.709 100.398C111.082 105.96 106.455 111.526 101.825 117.09C101.705 116.992 100.742 116.72 100.623 116.623C105.578 111.099 111.052 105.045 115.688 99.4797C115.798 99.5767 115.6 100.301 115.705 100.396L115.709 100.398Z" fill="#C2CE86"/>
<path d="M118.54 90.7275C118.544 91.3295 119.849 89.0655 120.588 87.8113C120.421 88.6242 119.287 93.5038 119.287 93.5038C118.254 94.04 117.822 94.4343 117.627 94.525C117.479 94.9352 117.503 99.1867 117.286 100.238C117.346 98.4553 117.237 94.7092 116.822 100.364C116.69 98.5131 116.589 96.9283 116.457 95.0776C118.652 89.9583 118.529 89.6819 118.536 90.7255L118.54 90.7275Z" fill="#C2CE86"/>
<path d="M103.081 117.692C105.34 114.821 108.133 110.354 110.821 108.002C108.652 110.762 105.213 116.064 103.081 117.692Z" fill="#C2CE86"/>
<path d="M84.86 95.5309C84.7517 94.2053 82.888 91.6703 83.577 89.8214C83.8758 89.0215 84.1897 88.4652 84.71 88.0742L83.8602 86.688C83.7708 86.5416 83.9424 86.3757 84.0842 86.4731C84.5904 86.8213 85.2717 87.2619 85.6208 87.3696C85.9908 87.4833 84.4745 86.0434 83.2595 84.9215C83.1106 84.7834 83.29 84.5456 83.4619 84.6544L85.219 85.7549C85.219 85.7549 83.9438 83.1126 83.1915 81.8744C83.8985 81.6617 86.769 86.284 87.0855 86.5437C87.402 86.8033 84.7784 80.799 85.4786 81.0216C86.1787 81.2443 88.1363 85.728 88.3306 85.2579L89.2333 83.8898C89.321 83.6844 90.1852 83.209 90.1638 83.4314C90.0781 84.3214 89.2329 85.976 89.2219 86.4821C89.2171 86.7233 89.2231 86.9617 89.2362 87.1981C91.6863 87.2848 92.3546 88.4255 92.5991 89.6836C92.8735 91.0963 94.7053 99.2287 95.003 101.146C95.3016 103.067 96.5492 104.498 98.0686 106.424C99.5844 108.352 99.5909 110.58 99.6503 112.054C99.7123 113.523 102.32 115.553 102.886 116.369C103.452 117.185 103.183 119.32 103.063 119.925C102.944 120.53 103.267 122.328 103.267 122.328C101.971 122.052 102.022 120.185 100.552 118.039C99.0821 115.894 96.3692 114.841 95.9278 112.618C95.4893 110.405 95.1597 110.428 92.659 107.46C92.6689 107.712 92.6658 107.945 92.6458 108.144C92.5281 109.376 95.1719 114.779 95.3723 116.203C94.5035 116.157 93.2115 116.419 91.8627 114.423C90.3152 112.132 88.6615 109.402 88.8012 106.597C88.9435 103.788 85.3209 101.182 84.8528 95.5329L84.86 95.5309ZM87.4925 100.964C87.9815 102.141 89.4642 103.83 89.6277 105.52C89.6334 105.642 89.6373 105.757 89.6411 105.873C89.639 105.908 89.6451 105.945 89.643 105.98C89.643 105.98 89.643 105.98 89.6466 105.979C89.6741 106.673 89.7045 107.218 89.7408 107.483C89.7408 107.483 89.4188 109.996 91.4735 110.796C90.6781 108.188 91.1694 107.588 91.0122 107.231C90.9198 107.016 91.3854 106.551 91.3808 106.289C91.0885 105.759 91.5968 104.892 92.0002 103.46C92.0197 103.389 91.8721 101.47 91.7781 100.443C91.7631 100.257 91.7162 99.8515 91.6747 99.495C91.8666 99.6642 92.0094 99.7652 92.0734 99.7016C92.0802 99.7269 92.109 99.9785 92.1443 100.341C92.8507 102.056 92.8813 102.458 93.0823 104.792C94.2829 104.938 93.8276 105.01 94.8361 105.131C94.2207 105.772 93.798 106.21 93.5726 106.448C94.1661 108.016 96.2858 109.476 96.6295 110.974C97.4917 114.71 100.835 114.949 102.724 118.642C102.789 117.548 102.69 117.323 102.356 116.608C102.256 116.395 99.479 113.574 99.3719 113.347C99.3719 113.347 99.1164 111.616 98.9895 111.546C98.6332 111.339 98.241 111.301 98.0039 110.978C97.8695 110.793 98.6768 110.321 98.687 110.028C98.9751 110.11 98.287 108.564 98.576 108.649C98.7066 108.417 97.2935 109.81 97.4241 109.577C97.0217 109.213 96.5895 109.313 96.3122 108.869C96.0844 108.508 96.1229 107.975 96.0435 107.52C96.2833 107.479 96.6088 107.326 96.7408 107.43C96.9214 107.571 96.4257 106.528 96 105.817C95.1664 104.477 95.744 104.833 95.0301 103.825C94.6644 102.978 94.2993 102.163 94.3538 101.92C94.3508 101.851 94.3485 101.77 94.3406 101.683C94.3258 101.455 94.3013 101.249 94.269 101.056C94.1996 100.552 94.0975 99.9411 93.9955 99.3298C93.9942 99.3108 93.994 99.2954 93.9927 99.2764C93.9927 99.2764 93.9927 99.2764 93.9891 99.2773C93.8035 98.1815 93.6143 97.0865 93.5919 96.5855C92.5443 96.5489 92.1918 96.6588 91.0795 96.5969C90.9654 96.5887 90.8615 96.3882 90.7547 96.2775C90.9963 96.1857 91.2315 96.0414 91.4824 96.0129C92.2847 95.9256 91.6456 96.0891 92.4104 95.8764C92.7272 95.7916 92.9117 95.2274 93.1455 94.8474C93.1097 94.7137 93.0923 94.6487 93.0565 94.5151L92.8414 93.3381C92.7981 92.9317 92.4194 92.0656 92.0546 90.4449C90.8243 90.7204 89.592 91.0312 88.3407 91.2427C88.1523 91.2738 87.8379 90.8781 87.6761 90.6196C87.6212 90.5298 87.8 90.1606 87.9543 90.0883C89.0465 89.5712 90.5933 89.9734 91.6287 89.5179C91.2424 88.6809 90.3349 88.2313 89.3338 88.0661C87.6825 87.7925 85.7681 88.2938 85.4881 89.1352C86.1257 89.2972 88.5101 88.4764 89.3913 88.5112C89.4538 88.5138 89.5136 88.521 89.559 88.5321C89.5141 88.5518 89.463 88.5771 89.4057 88.608C89.0579 88.7786 88.4719 89.0827 87.8456 89.4092C86.8708 89.9181 85.8085 90.4891 85.4193 90.7211C85.1794 90.8628 84.9018 91.3242 84.9671 91.539C85.2885 92.5946 85.6239 93.6736 86.1704 94.6186C86.3214 94.88 87.2236 94.8202 87.7464 94.7265C88.5702 94.5755 89.3667 94.2653 90.1793 94.0437C90.2261 94.0312 90.3642 94.1722 90.3773 94.2499C90.3923 94.3349 90.3249 94.4575 90.2527 94.5194C89.8388 94.8896 89.468 95.4496 88.9892 95.5779C86.3215 96.2772 85.7946 96.0817 86.3209 97.2682C86.6137 97.929 87.1925 98.246 87.8714 98.4473C87.4582 98.7051 87.0514 98.9147 86.6907 98.7637C87.38 99.3492 87.1358 100.065 87.5069 100.96L87.4925 100.964Z" fill="#D78228"/>
<path d="M87.854 98.4521C87.1751 98.2508 86.5953 97.9301 86.3035 97.273C85.7798 96.0819 86.3041 96.282 88.9718 95.5827C89.4506 95.4544 89.8259 94.8971 90.2353 94.5242C90.3075 94.4623 90.374 94.3361 90.3599 94.2548C90.3458 94.1734 90.2087 94.036 90.1619 94.0485C89.3503 94.2737 88.5527 94.5803 87.729 94.7313C87.2062 94.825 86.305 94.8884 86.1529 94.6234C85.6065 93.6784 85.2711 92.5994 84.9497 91.5438C84.8844 91.329 85.162 90.8676 85.4018 90.726C85.7911 90.4939 86.8534 89.9229 87.8282 89.414C88.4509 89.0885 89.0368 88.7844 89.3883 88.6128C89.4466 88.5856 89.4977 88.5603 89.5415 88.5369C89.4961 88.5258 89.4363 88.5186 89.3739 88.516C88.489 88.4822 86.1093 89.3056 85.4707 89.14C85.7543 88.2977 87.6651 87.7973 89.3164 88.0709C90.3175 88.2361 91.226 88.6893 91.6113 89.5227C90.5795 89.9772 89.0327 89.575 87.9369 90.0931C87.7862 90.1645 87.6037 90.5346 87.6587 90.6244C87.8205 90.8829 88.1313 91.2796 88.3233 91.2475C89.5746 91.036 90.8069 90.7252 92.0372 90.4497C92.403 92.074 92.7807 92.9365 92.824 93.3429L93.0391 94.5199C93.0749 94.6535 93.0923 94.7185 93.1281 94.8522C92.8933 95.2286 92.7088 95.7928 92.393 95.8813C91.6272 96.0903 92.2673 95.9304 91.465 96.0177C91.2177 96.0452 90.9789 96.1905 90.7373 96.2823C90.8441 96.393 90.948 96.5936 91.062 96.6017C92.1744 96.6636 92.5305 96.5527 93.5745 96.5903C93.5969 97.0913 93.7851 98.1826 93.9717 99.2822C93.9766 99.3002 93.9814 99.3183 93.9826 99.3373C94.0847 99.9485 94.1867 100.56 94.2562 101.064C94.2883 101.299 94.3137 101.509 94.3278 101.691C94.3356 101.778 94.3415 101.857 94.341 101.927C94.2865 102.17 94.6506 102.982 95.0173 103.832C95.7312 104.841 95.1535 104.485 95.9872 105.825C96.4129 106.535 96.9086 107.579 96.728 107.438C96.5969 107.337 96.2714 107.49 96.0307 107.528C96.1101 107.983 96.0715 108.515 96.2994 108.876C96.5766 109.321 97.0088 109.22 97.4113 109.585C97.2806 109.817 98.6938 108.424 98.5632 108.657C98.2751 108.575 98.9632 110.121 98.6742 110.036C98.664 110.329 97.8567 110.8 97.991 110.985C98.2282 111.309 98.6204 111.347 98.9766 111.553C99.0999 111.625 99.3591 113.355 99.3591 113.355C99.4661 113.582 102.244 116.402 102.343 116.615C102.678 117.331 102.776 117.556 102.711 118.649C100.822 114.956 97.4788 114.718 96.6166 110.982C96.2684 109.481 94.1533 108.023 93.5597 106.456C93.7862 106.221 94.2079 105.779 94.8232 105.138C93.8138 105.014 94.2701 104.946 93.0695 104.799C92.8685 102.465 92.8379 102.063 92.1315 100.348C92.0998 99.985 92.0709 99.7334 92.0606 99.7091C91.9966 99.7727 91.8538 99.6716 91.6618 99.5024C91.7024 99.8554 91.7493 100.261 91.7653 100.45C91.8602 101.481 92.0069 103.396 91.9873 103.467C91.5839 104.899 91.0756 105.767 91.3679 106.296C91.3735 106.562 90.9079 107.027 90.9993 107.239C91.1566 107.595 90.6653 108.195 91.4607 110.804C89.4095 110.002 89.728 107.49 89.728 107.49C89.6953 107.224 89.6649 106.679 89.6337 105.987C89.6337 105.987 89.6337 105.987 89.6301 105.988C89.6322 105.952 89.6298 105.914 89.6282 105.88C89.6244 105.765 89.6196 105.646 89.6148 105.527C89.4513 103.837 87.9651 102.149 87.4796 100.971C87.1086 100.076 87.3528 99.3605 86.6635 98.775C87.0232 98.9224 87.43 98.7128 87.8442 98.4586L87.854 98.4521Z" fill="#E0AF62"/>
<path d="M89.3549 122.243C87.6945 122.234 87.1459 121.848 86.6172 120.276C84.5596 114.137 82.4935 108.004 80.4845 101.847C80.2588 101.158 79.9987 100.927 79.2957 100.944C77.5554 100.99 75.8122 100.958 73.9775 100.958V96.6264C76.9067 96.6264 79.8101 96.5577 82.7078 96.6607C83.8881 96.7007 84.5168 97.5985 84.5968 98.7823C84.6397 99.3999 84.6054 100.02 84.6054 100.841C85.2169 100.841 85.737 100.841 86.2571 100.841C97.205 100.841 108.156 100.924 119.101 100.795C122.887 100.752 123.927 102.176 122.636 106.125C120.99 111.157 118.555 115.93 116.455 120.81C116.034 121.788 115.291 122.289 114.2 122.249H89.352L89.3549 122.243ZM86.1857 105.281C86.6115 106.565 86.9601 107.712 87.3859 108.833C87.4774 109.073 87.8317 109.373 88.0689 109.376C90.3865 109.416 92.707 109.402 95.0932 109.402V105.284H86.1857V105.281ZM118.263 105.287H110.153V109.407C111.136 109.407 111.962 109.407 112.785 109.407C115.515 109.407 117.35 108.109 118.289 105.513C118.301 105.479 118.281 105.433 118.263 105.287ZM99.6112 109.325H105.795V105.296H99.6112V109.325ZM99.6255 117.888H105.79V113.808H99.6255V117.888ZM90.3808 117.88H95.096V113.825H89.0234C89.5092 115.275 89.9521 116.599 90.3808 117.88ZM110.199 118.083C111.265 117.934 112.579 118.134 112.997 117.614C113.831 116.579 114.171 115.149 114.737 113.834H110.199V118.083Z" fill="#4C352B"/>
<path d="M147.793 71.0633C147.793 74.26 150.699 76.8506 154.283 76.8506C157.866 76.8506 160.772 74.26 160.772 71.0633" fill="#E0AF62"/>
<path d="M134.815 71.0633C134.815 74.26 137.722 76.8506 141.305 76.8506C144.889 76.8506 147.795 74.26 147.795 71.0633" fill="#4C352B"/>
<path d="M121.839 71.0633C121.839 74.26 124.745 76.8506 128.329 76.8506C131.912 76.8506 134.818 74.26 134.818 71.0633" fill="#E0AF62"/>
<path d="M108.862 71.0633C108.862 74.26 111.769 76.8506 115.352 76.8506C118.936 76.8506 121.842 74.26 121.842 71.0633" fill="#4C352B"/>
<path d="M160.769 71.0633C160.769 74.26 163.675 76.8506 167.258 76.8506C170.842 76.8506 173.748 74.26 173.748 71.0633" fill="#4C352B"/>
<path d="M95.8857 71.0633C95.8857 74.26 98.792 76.8506 102.375 76.8506C105.959 76.8506 108.865 74.26 108.865 71.0633" fill="#E0AF62"/>
<path d="M82.9053 71.0633C82.9053 74.26 85.8115 76.8506 89.395 76.8506C92.9785 76.8506 95.8847 74.26 95.8847 71.0633" fill="#4C352B"/>
<path d="M69.9287 71.0633C69.9287 74.26 72.8349 76.8506 76.4184 76.8506C80.0019 76.8506 82.9082 74.26 82.9082 71.0633" fill="#E0AF62"/>
<path d="M56.9531 71.0633C56.9531 74.26 59.8594 76.8506 63.4428 76.8506C67.0263 76.8506 69.9326 74.26 69.9326 71.0633" fill="#4C352B"/>
<path d="M43.9766 71.0633C43.9766 74.26 46.8828 76.8506 50.4663 76.8506C54.0498 76.8506 56.956 74.26 56.956 71.0633" fill="#E0AF62"/>
<path d="M31 71.0633C31 74.26 33.9062 76.8506 37.4897 76.8506C41.0732 76.8506 43.9794 74.26 43.9794 71.0633" fill="#4C352B"/>
<path d="M98.062 48H106.044L108.736 71.0146H95.9102L98.062 48Z" fill="#E0AF62"/>
<path d="M105.792 48H114.962L122.735 71.0146H108.655L105.792 48Z" fill="#4C352B"/>
<path d="M114.788 48H124.607L134.661 71.0146H121.835L114.788 48Z" fill="#E0AF62"/>
<path d="M124.607 48H134.847L148.244 71.0146H134.581L124.607 48Z" fill="#4C352B"/>
<path d="M134.743 48H144.979L160.468 71.0146H148.06L134.743 48Z" fill="#E0AF62"/>
<path d="M145.097 48H156.588L173.748 71.0146H160.505L145.097 48Z" fill="#4C352B"/>
<path d="M98.9415 48H89.7711L82.001 71.0146H96.0781L98.9415 48Z" fill="#4C352B"/>
<path d="M89.9459 48H80.1297L70.0791 71.0146H82.9016L89.9459 48Z" fill="#E0AF62"/>
<path d="M80.1295 48H69.896L56.502 71.0146H70.1589L80.1295 48Z" fill="#4C352B"/>
<path d="M69.9967 48H59.7604L44.2773 71.0146H56.6827L69.9967 48Z" fill="#E0AF62"/>
<path d="M59.6457 48H48.1548L31 71.0146H44.2398L59.6457 48Z" fill="#4C352B"/>
</svg>
