<svg width="206" height="200" viewBox="0 0 206 200" fill="none" xmlns="http://www.w3.org/2000/svg">
<path d="M159.729 186.078C197.51 164.82 209.604 125.471 204.004 85.0246C204.389 66.1307 189.777 50.4085 182.527 33.5766C161.187 -12.569 97.574 -1.67656 57.8666 10.9696C19.7276 24.4996 -4.47384 93.4235 0.692531 130.513C3.31355 144.584 11.1766 158.36 18.1522 170.109C27.6801 180.693 44.1767 184.557 55.9403 192.88C60.2055 191.113 70.6139 197.313 77.1974 197.217C105.272 201.498 134.791 202.862 159.736 186.085L159.729 186.078Z" fill="#8C98EE"/>
<g clip-path="url(#clip0_333_1633)">
<path d="M90.5916 114.828C86.9373 112.904 84.6945 109.747 83.0368 106.114C81.5325 102.818 80.8673 99.3319 80.928 95.6301C79.6641 96.481 78.3452 96.826 76.8764 96.3337C75.4121 95.8437 74.4848 94.8363 73.949 93.4051C72.2386 94.609 70.4035 95.0145 68.4068 94.4114C66.3221 93.7809 65.1669 92.1339 65.2539 89.9637C65.2608 89.8061 65.2688 89.741 65.0799 89.7045C63.4302 89.3869 62.9024 88.5303 63.3489 86.9118C63.4188 86.6571 63.5081 86.4093 63.6042 86.1077C61.1531 86.2836 59.1267 85.5401 57.9418 83.3048C56.7833 81.1198 57.0649 78.9805 58.473 76.9406C58.0346 76.6973 57.548 76.5328 57.1691 76.1788C55.7437 74.8424 55.6613 72.4906 57.05 71.1075C57.3683 70.7911 57.303 70.6632 57.066 70.3639C55.5628 68.4656 55.6613 65.5462 57.2767 63.3566C58.0094 62.3629 58.9401 61.6365 60.1491 61.3121C60.4582 61.2299 60.5567 61.1728 60.409 60.7981C59.4244 58.3013 59.7083 55.9404 61.3878 53.8274C62.5029 52.4248 63.9889 51.6835 65.8252 51.8046C66.1526 51.8263 66.1721 51.768 66.1538 51.4551C66.0073 49.0634 67.7096 46.9777 70.076 46.6111C70.8671 46.4889 71.8391 46.6945 73.0057 47.2381C73.2713 45.0417 74.4436 43.4884 76.415 42.5449C78.4838 41.5546 80.6109 41.9327 82.2377 43.5409C82.398 43.6985 82.4815 43.7796 82.6819 43.582C83.7867 42.4947 85.6024 42.3051 87.2132 43.5683C87.8211 44.0446 88.2813 44.6408 88.7061 45.3181C89.725 44.0846 90.9729 43.2279 92.5321 42.8624C94.9042 42.3073 97.3771 43.4632 98.3067 45.5717C98.4498 45.8972 98.4464 46.4078 98.6776 46.5391C98.9112 46.6716 99.3497 46.4089 99.7046 46.3701C102.081 46.1142 104.023 48.0491 103.778 50.4248C103.754 50.659 103.637 50.8303 104.055 50.8177C107.216 50.7218 109.626 53.4105 109.314 56.6292C109.226 57.5326 109.009 58.3858 108.535 59.1637C108.412 59.3647 108.401 59.4629 108.644 59.5897C110.018 60.3093 110.514 61.5223 110.472 62.9957C110.46 63.3806 110.52 63.5165 110.94 63.496C111.815 63.4526 112.692 63.4731 113.563 63.5919C113.811 63.7495 113.653 63.8729 113.524 63.986C111.485 65.7541 110.395 68.1287 109.403 70.5398C107.438 75.313 106.361 80.3317 105.408 85.3802C104.866 88.2573 104.427 91.1505 104.049 94.0516C103.986 94.5382 103.779 94.8043 103.303 94.914C99.3817 95.8174 96.5322 99.7408 96.2094 103.702C96.0605 105.523 96.3983 107.212 97.0302 108.879C97.3096 109.615 97.7755 110.245 98.2151 110.889C98.3628 111.104 98.5723 111.294 98.5414 111.594C97.5969 113.105 96.1727 114.017 94.5711 114.665C93.4572 115.116 92.294 115.397 91.0747 115.065C90.8973 115.018 90.6866 115.043 90.5928 114.828H90.5916Z" fill="#1D180E"/>
<path d="M90.5918 114.828C93.7241 115.464 96.0974 114.139 98.126 111.924C98.2268 111.814 98.3516 111.725 98.4649 111.625C98.7179 111.546 98.8484 111.739 98.9961 111.874C99.746 112.554 100.567 113.125 101.474 113.579C102.052 113.87 102.108 114.011 101.875 114.613C101.77 114.886 101.674 115.144 101.794 115.432C101.863 115.79 101.835 116.15 101.841 116.511C101.865 118.194 103.043 119.698 104.692 120.149C106.275 120.583 108.131 119.88 108.981 118.499C109.758 117.239 109.889 115.907 109.362 114.517C109.254 114.235 109.084 113.973 109.071 113.658C109.094 113.333 109.224 113.113 109.595 113.133C109.823 113.192 109.912 113.386 110.02 113.565C112.298 117.342 115.204 120.528 118.923 122.944C119.978 123.628 121.09 124.209 122.247 124.701C122.689 124.888 123.044 125.112 123.182 125.61C123.294 126.017 123.599 126.279 123.979 126.453C125.111 126.968 126.282 127.339 127.53 127.445C127.755 127.465 128 127.449 128.103 127.722C127.716 128.527 127.275 129.304 126.775 130.042C125.176 132.393 122.924 133.219 119.877 132.59C117.009 131.998 114.504 130.614 112.093 129.03C111.308 128.515 111.308 128.504 110.865 129.316C109.765 131.335 109.184 133.542 108.57 135.733C108.069 137.525 107.677 139.342 107.569 141.209C107.555 141.453 107.497 141.701 107.631 141.933C108.343 143.931 109.46 145.727 110.44 147.592C110.475 147.66 110.435 147.574 110.465 147.644C110.755 148.335 111.101 149.056 110.549 149.743C109.995 150.433 109.171 150.503 108.355 150.43C106.025 150.222 103.873 149.394 101.755 148.479C98.5336 147.086 95.4849 145.364 92.4602 143.595C89.2237 141.702 86.0136 139.762 82.626 138.141C82.1623 137.919 81.6735 137.751 81.2259 137.497C81.0404 137.39 80.7759 137.331 80.8229 137.022C83.1538 133.721 85.1996 130.254 86.8814 126.579C88.6044 122.815 90.0079 118.95 90.5941 114.829L90.5918 114.828Z" fill="#633418"/>
<path d="M117.91 63.8134C118.165 64.228 118.577 64.3434 119.021 64.4667C125.603 66.3056 130.956 69.8944 134.749 75.6281C136.416 78.1478 137.446 80.9256 137.677 83.9672C137.75 84.9438 137.629 85.8929 137.378 86.8329C137.222 87.5377 136.739 88.0345 136.234 88.48C134.611 89.9134 132.685 90.4125 130.557 90.1624C129.729 90.0653 129.759 90.047 129.523 90.8329C128.621 93.8402 126.695 95.8596 123.663 96.7768C123.08 96.9527 122.491 97.1457 121.883 97.1891C120.525 97.2873 119.602 98.0549 118.842 99.084C118.457 99.6037 118.126 100.161 117.774 100.702C117.178 101.618 116.516 102.473 115.47 102.931C114.98 103.146 114.486 103.207 113.976 103.006C113.762 102.837 113.736 102.582 113.684 102.344C113.06 99.4872 111.549 97.2553 109.003 95.7659C108.583 95.5204 108.441 95.1789 108.469 94.7243C108.563 93.2646 108.788 91.8186 108.969 90.3691C109.494 86.1613 110.291 81.9981 111.282 77.8805C112.203 74.0576 113.254 70.2644 115.05 66.7282C115.378 66.0806 115.781 65.4855 116.192 64.8905C116.613 64.2828 117.148 63.8728 117.911 63.8145L117.91 63.8134Z" fill="#1D180E"/>
<path d="M80.8206 137.02C80.8458 137.181 80.9843 137.217 81.1034 137.269C85.4916 139.193 89.5409 141.734 93.6795 144.113C97.4083 146.257 101.175 148.327 105.304 149.636C106.341 149.965 107.405 150.157 108.483 150.28C108.559 150.289 108.636 150.288 108.711 150.288C110.482 150.294 111.107 149.311 110.322 147.732C109.595 146.269 108.709 144.889 108.036 143.398C107.826 142.935 107.59 142.47 107.629 141.934C109.186 142.939 110.565 144.166 111.909 145.429C115.108 148.435 117.487 152.053 119.633 155.838C119.971 156.433 120.285 157.042 120.622 157.637C120.778 157.911 120.717 158.009 120.407 157.995C120.14 157.984 119.874 157.995 119.607 157.995C102.226 157.997 84.8447 157.999 67.4649 157.999C66.486 157.999 66.4895 157.995 66.7768 157.05C68.9852 149.783 73.1193 143.748 78.6305 138.594C78.9225 138.321 79.2213 138.056 79.5144 137.785C79.8933 137.433 80.2951 137.122 80.8195 137.02H80.8206Z" fill="#F7E6D4"/>
<path d="M114.021 102.953C115.902 103.136 116.795 101.827 117.686 100.527C118.242 99.7156 118.73 98.8658 119.425 98.1428C120.119 97.4187 120.962 97.1685 121.901 97.0155C123.967 96.6785 125.864 95.959 127.337 94.3919C128.412 93.2474 129.133 91.9065 129.451 90.3668C129.527 89.9991 129.576 89.8277 130.059 89.9123C132.46 90.3337 134.629 89.8437 136.399 88.0768C136.77 87.7056 137.054 87.2487 137.378 86.8306C137.733 87.4474 137.83 88.1487 138.026 88.8169C139.323 93.2303 139.306 97.6528 138.088 102.078C137.728 103.384 137.239 104.653 136.479 105.771C135.291 107.519 135.245 109.377 135.689 111.336C135.963 112.541 136.407 113.696 136.72 114.888C136.883 115.513 137.03 116.14 137.02 116.792C136.99 118.542 135.869 119.67 134.114 119.704C133.886 119.708 133.645 119.731 133.432 119.671C132.855 119.507 132.66 119.744 132.644 120.292C132.629 120.804 132.534 121.311 132.566 121.826C132.663 123.387 131.995 124.065 130.38 124.009C130.663 124.656 130.818 125.311 130.47 125.963C130.208 126.454 129.781 126.759 129.239 126.9C129.112 126.647 129.247 126.415 129.306 126.183C129.491 125.448 129.267 124.83 128.66 124.435C127.474 123.665 126.104 123.375 124.734 123.128C124.432 123.073 124.123 123.211 123.87 123.379C123.49 123.634 123.136 123.596 122.738 123.43C120.732 122.594 118.936 121.424 117.274 120.042C114.747 117.939 112.707 115.424 111.042 112.598C110.955 112.451 110.859 112.308 110.843 112.13C110.845 111.856 111.029 111.683 111.201 111.507C112.836 109.835 113.629 107.798 113.856 105.503C113.921 104.842 113.999 104.188 113.871 103.526C113.832 103.325 113.834 103.107 114.019 102.948L114.021 102.953Z" fill="#643417"/>
<path d="M114.021 102.953C114.196 104.431 114.112 105.889 113.721 107.332C113.268 109.01 112.506 110.508 111.239 111.727C111.105 111.856 110.938 111.97 110.941 112.191C110.677 112.732 110.145 112.948 109.67 113.231C109.323 113.199 109.201 113.385 109.212 113.699C108.678 113.8 108.173 113.971 107.723 114.288C106.376 114.591 105.023 114.824 103.639 114.557C103.336 114.519 103.032 114.473 102.747 114.369C102.347 114.224 102.143 114.383 102.006 114.747C101.92 114.972 101.891 115.234 101.669 115.391C101.358 115.02 101.707 114.722 101.792 114.401C101.853 114.172 101.951 113.978 101.646 113.843C100.444 113.309 99.4186 112.519 98.4661 111.627C98.2978 111.112 97.8971 110.74 97.6052 110.308C96.695 108.965 96.2337 107.472 96.0757 105.897C95.6796 101.946 97.0145 98.6819 100.154 96.2068C101.068 95.4861 102.114 94.979 103.268 94.7448C103.648 94.6683 103.805 94.5255 103.864 94.0915C104.159 91.9431 104.483 89.798 104.833 87.6553C105.318 84.6685 105.9 81.7034 106.622 78.7691C107.565 74.9382 108.671 71.1553 110.555 67.65C111.248 66.3593 112.03 65.1383 113.083 64.0989C113.244 63.9402 113.622 63.9585 113.563 63.593C113.788 63.5918 113.946 63.4365 114.13 63.3451C115.378 62.7352 116.945 62.9282 117.91 63.8157C117.816 63.979 117.829 64.1629 117.48 64.1047C117.092 64.0407 116.788 64.413 116.54 64.726C115.246 66.3582 114.454 68.2485 113.75 70.1788C112.344 74.0325 111.385 78.005 110.565 82.0186C110.054 84.52 109.61 87.0317 109.247 89.5548C108.998 91.292 108.754 93.0338 108.636 94.7894C108.607 95.2131 108.771 95.4279 109.123 95.6369C111.825 97.2359 113.375 99.6242 113.919 102.69C113.935 102.781 113.986 102.867 114.021 102.955V102.953Z" fill="#2F2B22"/>
<path d="M109.669 113.23C109.969 112.732 110.545 112.57 110.941 112.189C111.858 113.625 112.785 115.053 113.873 116.373C115.908 118.845 118.279 120.911 121.092 122.462C121.391 122.627 121.685 122.808 122 122.938C122.664 123.211 123.291 123.727 124.068 123.115C124.489 122.784 125.026 122.951 125.498 123.082C126.282 123.302 127.053 123.565 127.83 123.813C129.175 124.242 130.011 125.255 129.24 126.904C128.927 127.268 128.521 127.506 128.102 127.723C127.311 127.547 126.495 127.524 125.713 127.274C125.133 127.089 124.563 126.887 124.004 126.653C123.441 126.419 123.046 126.035 122.941 125.417C122.893 125.135 122.674 125.063 122.469 124.978C119.185 123.624 116.372 121.588 113.952 119.016C112.3 117.261 110.793 115.384 109.671 113.232L109.669 113.23Z" fill="#24201A"/>
<path d="M101.668 115.39C101.694 115.264 101.709 115.136 101.747 115.015C102.061 114.026 102.072 114.009 103.051 114.29C103.237 114.342 103.413 114.357 103.597 114.374C103.781 114.582 103.61 114.767 103.551 114.953C103.22 116.009 103.524 117.186 104.282 117.754C105.005 118.297 106.102 118.359 106.868 117.904C107.713 117.401 108.206 116.367 108.079 115.435C108.017 114.982 107.752 114.585 107.745 114.121C108.204 113.88 108.616 113.475 109.209 113.699C109.665 114.695 109.958 115.705 109.81 116.835C109.529 118.985 107.722 120.508 105.45 120.434C103.43 120.367 101.739 118.663 101.646 116.587C101.628 116.189 101.659 115.79 101.667 115.39H101.668Z" fill="#DD932F"/>
<path d="M108.186 111.626C107.747 111.804 107.32 112.021 106.868 112.153C104.845 112.739 102.893 112.546 101.15 111.344C99.3694 110.117 98.378 108.37 97.9841 106.231C97.5354 103.794 98.0952 101.613 99.4587 99.6151C100.297 98.3872 101.415 97.4678 102.87 97.0166C103.048 96.9618 103.246 96.9424 103.383 96.7916C104.295 96.425 105.253 96.4421 106.177 96.6157C108.853 97.1183 110.532 98.851 111.494 101.28C112.597 104.063 112.226 106.756 110.686 109.294C110.077 110.298 109.281 111.129 108.185 111.627L108.186 111.626Z" fill="#383128"/>
<path d="M107.745 114.121C108.591 115.418 108.374 117.033 107.238 117.888C106.337 118.565 105.031 118.565 104.16 117.888C103.279 117.204 102.966 115.807 103.45 114.734C103.504 114.616 103.618 114.523 103.597 114.374C104.604 114.55 105.614 114.556 106.611 114.332C106.988 114.248 107.363 114.168 107.745 114.121Z" fill="#613316"/>
<path d="M108.185 111.626C108.848 111.038 109.588 110.532 110.128 109.812C111.106 108.51 111.655 107.047 111.862 105.435C112.112 103.499 111.708 101.7 110.703 100.062C109.023 97.3273 106.551 96.2605 103.385 96.7916C103.45 96.7265 103.507 96.6169 103.583 96.602C104.983 96.3313 106.377 96.1508 107.724 96.8442C109.446 97.7305 110.738 98.972 111.55 100.792C112.075 101.97 112.392 103.175 112.376 104.4C112.358 105.755 112.134 107.107 111.446 108.38C111.001 109.201 110.556 109.975 109.916 110.647C109.436 111.151 108.916 111.567 108.187 111.626H108.185Z" fill="#271B0F"/>
</g>
<defs>
<clipPath id="clip0_333_1633">
<rect width="83" height="116" fill="white" transform="translate(56 42)"/>
</clipPath>
</defs>
</svg>
