<svg width="371" height="442" viewBox="0 0 371 442" fill="none" xmlns="http://www.w3.org/2000/svg">
<g clip-path="url(#clip0_976_1539)">
<path d="M17.3532 275.854C17.052 275.103 16.2884 274.942 15.6929 274.591C12.6173 272.774 9.61182 270.824 6.43118 269.21C3.11042 267.519 2.31877 264.952 2.97031 261.549C3.804 257.193 4.54662 252.829 5.35229 248.465C7.04069 239.289 5.80766 230.387 2.99833 221.603C1.33795 216.426 -0.154286 211.199 0.0208594 205.664C0.294086 197.113 4.37848 190.223 9.63985 183.938C15.826 176.536 22.8878 169.9 28.7657 162.204C34.2583 155.006 39.1694 147.478 42.4201 138.976C48.431 123.226 46.7006 107.925 39.5547 92.9965C36.7664 87.1667 33.3615 81.7087 29.2771 76.7067C27.6028 74.6512 26.657 72.3571 25.9424 69.8386C22.0121 55.913 16.6246 42.6678 7.64319 31.1415C6.23502 29.3385 4.78481 27.5636 3.06138 26.0413C0.700424 23.9577 0.567313 22.8352 2.32577 20.1553C8.12659 11.3089 16.3654 5.907 26.4188 3.06576C37.0956 0.0421056 47.9757 -0.0561105 58.9328 0.736633C70.8286 1.59953 82.7315 2.52557 94.5784 0.0912135C97.1915 -0.448974 98.7538 1.43116 98.1513 4.11807C97.1145 8.78333 96.0636 13.4486 95.0197 18.1138C92.1053 28.8404 91.9232 39.4478 95.6432 50.1042C99.3493 60.7045 106.103 69.4738 112.03 78.7552C112.296 79.562 112.744 80.2565 113.333 80.8668C113.347 81.4702 113.606 81.9262 114.16 82.1928C114.636 83.6239 115.316 84.9498 116.282 86.1144C116.437 86.374 116.584 86.6335 116.738 86.8931C118.917 90.7726 121.095 94.6522 123.449 98.8334C123.898 97.5566 124.171 96.7638 124.031 95.8869C124.907 90.4289 123.491 85.5111 120.136 81.2457C115.21 74.9809 110.096 68.8775 106.495 61.6937C106.579 60.6344 105.893 59.8206 105.57 58.8945C102.075 48.9607 101.927 38.7813 103.266 28.4897C103.735 24.8908 104.239 21.2989 104.73 17.707C105.122 15.6725 105.669 13.652 105.872 11.5965C106.103 9.26038 107.371 8.25016 109.508 7.79415C116.822 6.22971 124.108 6.48227 131.408 7.94148C140.452 9.74444 148.537 13.7292 156.188 18.7172C164.139 23.9016 171.747 29.6051 179.888 34.5159C193.991 43.0186 209.313 47.8242 225.559 49.9499C231.864 50.7777 238.205 51.2337 244.552 51.4652C248.86 51.6195 252.728 50.2164 255.845 47.1577C267.041 36.1575 280.716 28.8264 294.174 21.1796C298.223 18.8785 302.609 17.3422 307.24 16.6055C311.149 15.9812 314.659 16.5775 317.896 19.1591C327.094 26.4973 337.659 28.637 349.142 26.9603C351.615 26.6025 354.088 26.2377 356.568 25.9431C358.165 25.7536 359.769 25.7887 360.827 27.283C361.955 28.8685 361.794 30.5943 360.82 32.1307C358.494 35.8068 356.049 39.4127 353.653 43.0467C353.506 43.194 353.331 43.3273 353.219 43.4957C345.092 55.3447 336.973 67.2008 328.839 79.0499C328.376 79.7163 328.159 80.4389 327.949 81.2036C323.998 95.6343 322.197 110.395 321.252 125.267C319.997 145.023 321.181 164.757 322.148 184.485C323.143 204.865 323.598 225.251 322.989 245.652C322.884 249.195 322.94 252.647 325.077 255.74C327.676 259.501 330.142 263.352 333 266.93C335.368 270.473 337.75 274.016 340.111 277.565C341.477 279.621 342.752 281.726 343.453 284.118C345.555 291.161 343.257 296.886 338.157 301.748C336.447 303.375 334.654 304.912 332.65 306.167C329.385 308.216 326.065 310.18 322.835 312.271C318.898 314.824 315.304 317.729 313.587 322.352C311.773 327.235 308.494 330.749 303.695 332.77C299.555 334.517 295.372 336.165 291.218 337.884C285.795 340.115 283.105 344.184 283.147 350.056C283.154 351.284 283.077 352.469 282.509 353.599C274.635 369.243 268.126 385.498 261.156 401.549C257.94 408.95 254.444 416.246 249.169 422.497C242.317 430.614 234.744 432.249 225.356 427.408C222.392 425.879 219.59 424.026 216.711 422.322C216.452 421.789 215.996 421.515 215.45 421.375C202.244 411.539 189.15 401.542 175.58 392.197C170.346 388.592 165.169 384.915 159.718 381.639C157.687 380.419 157.147 378.609 158.64 376.771C162.227 372.351 161.225 368.107 158.373 363.974C156.65 361.477 154.926 358.881 152.075 357.429C152.208 356.805 151.732 356.538 151.361 356.222C149.175 354.384 147.038 352.476 144.775 350.743C131.317 340.41 116.689 331.886 102.089 323.341C75.9779 308.054 49.3908 293.603 23.021 278.779C21.1714 277.741 19.448 276.422 17.3462 275.861L17.3532 275.854ZM42.1118 86.1284H42.0207C43.0786 88.3242 44.1855 90.492 45.1804 92.7089C52.0881 108.192 53.5313 123.956 47.5623 140.091C42.8124 152.929 34.7767 163.656 25.9634 173.884C21.2975 179.3 15.9731 184.127 11.6645 189.859C7.28589 195.688 4.49758 202.058 5.3663 209.565C5.88473 214.062 7.2999 218.348 8.63801 222.649C11.1881 230.836 12.0569 239.156 10.6487 247.652C9.87804 252.303 8.93926 256.926 8.15461 261.577C8.00048 262.475 7.43301 263.64 8.60999 264.292C11.9798 266.158 15.0974 268.466 18.6633 269.975C19.3079 270.403 19.9384 270.873 20.611 271.259C48.5011 287.191 76.7976 302.4 104.513 318.634C120.717 328.126 137.041 337.449 151.564 349.509C157.638 354.553 163.425 359.891 165.771 367.861C166.339 371.025 166.171 374.098 164.623 376.981C164.216 377.739 164.16 378.188 164.98 378.7C168.511 380.931 172 383.218 175.51 385.491C176.063 385.926 176.588 386.396 177.163 386.803C186.824 393.558 196.352 400.483 205.838 407.491C212.787 412.626 219.485 418.134 227.058 422.364C234.583 426.573 239.557 425.661 245.252 419.193C246.009 418.337 246.696 417.418 247.361 416.485C250.731 411.742 253.323 406.565 255.663 401.261C262.788 385.119 269.184 368.64 277.206 352.897C277.766 351.789 278.012 350.659 278.061 349.41C278.327 342.36 281.592 337.19 287.869 333.948C290.475 332.601 293.193 331.528 295.94 330.504C298.413 329.578 300.858 328.589 303.17 327.284C305.502 325.972 307.296 324.148 308.242 321.664C310.75 315.112 315.521 310.685 321.378 307.192C325.42 304.778 329.504 302.393 333.147 299.376C335.831 297.16 338.129 294.648 338.878 291.077C339.768 286.84 337.883 283.353 335.663 280.07C331.011 273.202 326.261 266.404 321.448 259.648C318.849 256 317.679 252.029 317.805 247.567C318.561 220.649 317.496 193.766 316.067 166.89C314.799 142.953 315.472 119.122 319.451 95.4168C321.167 85.1954 323.879 75.6614 330.457 67.2569C336.342 59.7364 341.33 51.5003 346.711 43.5869C349.513 39.6442 352.322 35.6945 355.272 31.5484C352.203 31.8781 349.464 32.1868 346.718 32.4744C335.459 33.639 325.049 31.1625 316.039 24.3015C312.424 21.5514 309.005 21.2918 305.068 22.4634C303.296 22.9896 301.46 23.4807 299.835 24.3295C286.11 31.5063 272.533 38.9427 261.093 49.6061C256.294 54.0749 250.955 57.0214 244.23 56.6847C238.954 56.4181 233.686 56.1445 228.424 55.6183C207.89 53.5768 188.919 47.1086 171.649 35.7156C164.265 30.8398 157.252 25.4029 149.602 20.92C138.211 14.2483 126.147 10.5793 112.786 12.5015C111.448 12.6909 110.881 13.1259 110.629 14.5149C109.557 20.3518 108.618 26.2097 107.987 32.1096C106.306 47.9154 109.872 62.0795 121.053 73.8374C124.143 77.7099 127.169 81.6245 128.641 86.4792C129.124 88.8574 129.453 91.2497 129.425 93.684C129.383 97.3601 128.325 100.847 127.59 104.404C125.327 107.673 123.26 107.715 120.997 104.432C119.498 102.257 118.069 100.026 116.759 97.7319C112.997 91.1585 109.284 84.557 105.318 78.1028C101.465 71.838 97.0934 65.9029 93.8848 59.2383C89.4921 50.1252 87.1032 40.6053 87.6776 30.4329C87.9018 26.4271 88.8056 22.5195 89.352 18.5628C90.3468 14.4237 91.3347 10.2916 92.3225 6.15956C92.0633 6.06836 91.9232 5.96313 91.8041 5.98417C80.1184 7.74505 68.4537 6.59452 56.782 5.84386C46.5465 5.18441 36.374 5.47906 26.4748 8.59391C19.2238 10.8739 13.0026 14.7043 8.32275 20.8569C7.40499 22.0565 7.19482 22.8703 8.43484 24.0208C10.4245 25.8659 12.0569 28.0547 13.6262 30.2786C22.0962 42.275 27.5257 55.6604 31.456 69.7193C31.6451 70.4068 31.7292 71.2136 32.1495 71.7257C35.8556 76.2647 38.9242 81.2457 42.1328 86.1284H42.1118Z" fill="#1E4A35"/>
<path d="M216.718 422.315C219.597 424.019 222.392 425.872 225.363 427.401C234.744 432.242 242.317 430.607 249.176 422.49C254.451 416.239 257.954 408.943 261.163 401.542C268.133 385.491 274.642 369.236 282.516 353.592C283.084 352.462 283.161 351.277 283.154 350.049C283.112 344.177 285.809 340.108 291.225 337.877C295.379 336.165 299.562 334.51 303.702 332.763C308.494 330.742 311.78 327.228 313.594 322.345C315.311 317.722 318.905 314.817 322.842 312.264C326.079 310.173 329.392 308.202 332.657 306.16C334.661 304.905 336.454 303.368 338.164 301.741C343.264 296.872 345.562 291.154 343.46 284.111C345.338 284.476 345.807 286.286 346.711 287.534C349.548 291.456 352.526 295.336 353.415 300.309C354.256 305.031 352.701 308.988 349.681 312.502C346.318 316.424 341.877 318.893 337.617 321.636C332.265 325.074 326.695 328.547 324.166 334.699C321.756 340.564 317.356 343.602 311.766 345.566C308.34 346.766 304.879 347.909 301.572 349.389C296.066 351.845 293.495 356.356 293.431 362.319C293.417 363.715 293.165 364.978 292.514 366.219C287.287 376.237 283.252 386.796 278.712 397.122C274.257 407.253 270.326 417.628 265.135 427.429C263.327 430.846 261.226 434.073 258.543 436.879C252.623 443.066 245.203 443.361 238.1 439.271C231.213 435.3 225.244 430.074 219.135 425.051C218.196 424.279 216.732 423.928 216.725 422.315H216.718Z" fill="#F3F5E7"/>
<path d="M333 266.916C330.142 263.345 327.676 259.487 325.076 255.726C322.94 252.633 322.884 249.181 322.989 245.638C323.598 225.237 323.15 204.851 322.148 184.471C321.181 164.743 320.004 145.009 321.251 125.253C322.19 110.374 323.998 95.6133 327.949 81.1896C328.159 80.4249 328.376 79.7093 328.839 79.0359C336.972 67.1938 345.092 55.3377 353.219 43.4817C353.338 43.3133 353.506 43.18 353.653 43.0327C358.669 42.5556 363.7 42.1558 368.702 41.5665C370.257 41.3841 370.81 41.9383 370.979 43.2993C371.105 44.3376 370.705 45.2355 370.299 46.1686C368.092 51.2758 364.961 55.7797 361.205 59.8136C355.384 66.0643 350.97 73.3253 346.164 80.3127C345.036 81.9543 344.041 83.7222 342.745 85.2235C337.456 91.3409 336.083 98.9527 334.597 106.487C333.54 111.854 332.965 117.305 332.32 122.742C330.716 136.24 330.366 149.786 330.73 163.34C330.982 172.664 331.802 181.966 332.32 191.283C332.51 194.699 332.608 198.123 332.72 201.539C333.42 222.193 333.245 242.86 333.189 263.521C333.189 264.636 333.953 265.843 333.014 266.916H333Z" fill="#F3F5E7"/>
<path d="M17.3534 275.854C19.4551 276.415 21.1785 277.734 23.0281 278.772C49.405 293.596 75.985 308.047 102.096 323.334C116.689 331.879 131.317 340.403 144.782 350.736C147.045 352.476 149.182 354.384 151.368 356.215C151.739 356.531 152.215 356.798 152.082 357.422C149.609 356.903 147.935 355.009 145.938 353.711C135.885 347.194 125.6 341.055 115.253 335.029C100.33 326.344 85.2257 318.002 69.974 309.907C56.621 302.814 43.2118 295.806 30.209 288.089C26.3558 285.802 22.6848 283.192 18.8946 280.786C16.94 279.544 16.4286 277.944 17.3604 275.847L17.3534 275.854Z" fill="#F3F5E7"/>
<path d="M104.744 17.7069C104.253 21.2988 103.742 24.8977 103.279 28.4896C101.941 38.7813 102.088 48.9606 105.584 58.8945C105.907 59.8205 106.593 60.6343 106.509 61.6937C106.698 64.6331 107.686 67.3551 108.625 70.1051C109.62 73.0446 111.462 75.6473 112.037 78.7552C106.11 69.4738 99.3492 60.7045 95.6501 50.1042C91.93 39.4477 92.1122 28.8404 95.0266 18.1138C98.2843 18.4295 101.5 17.6859 104.744 17.6999V17.7069Z" fill="#F3F5E7"/>
<path d="M215.457 421.375C216.01 421.515 216.458 421.789 216.718 422.322C215.954 422.469 215.366 422.378 215.457 421.375Z" fill="#CECFD4"/>
<path d="M165.757 367.854C163.41 359.877 157.623 354.546 151.549 349.502C137.026 337.449 120.71 328.126 104.498 318.627C76.7762 302.393 48.4868 287.177 20.5966 271.252C19.9241 270.866 19.3005 270.396 18.649 269.968C19.2795 265.176 20.5195 260.497 20.8909 255.642C21.2902 250.353 21.3672 245.112 20.5406 239.872C19.819 235.255 17.9624 230.99 16.5472 226.584C14.8448 221.288 14.6557 215.984 16.6033 210.659C18.4528 205.594 21.5634 201.378 25.1013 197.428C30.1876 191.753 35.5821 186.351 40.36 180.395C46.9455 172.187 52.8654 163.565 56.7957 153.722C60.768 143.788 62.1411 133.468 60.4527 122.896C58.5121 110.767 53.5169 99.8716 46.2309 90.036C45.103 88.5136 44.3253 86.4441 42.0134 86.1424C42.0134 86.1424 42.1045 86.1354 42.1045 86.1284C41.9293 84.7253 41.8453 83.2942 41.565 81.9121C39.3232 70.926 35.3018 60.5782 30.0895 50.7075C27.1891 45.2074 23.9524 39.9107 18.7891 36.1224C17.3179 35.042 17.2829 33.4285 18.5229 31.7799C23.0066 25.8097 28.7093 21.4602 35.7432 18.9416C48.2486 14.4658 61.0342 15.1954 73.8548 17.0475C78.9831 17.7911 84.1253 18.4085 89.3167 18.5698C88.7702 22.5265 87.8665 26.4341 87.6423 30.4399C87.0678 40.6123 89.4568 50.1322 93.8494 59.2453C97.0581 65.9099 101.43 71.845 105.283 78.1098C109.255 84.5639 112.961 91.1585 116.723 97.7389C118.034 100.033 119.463 102.264 120.962 104.439C123.225 107.722 125.292 107.673 127.561 104.411C128.57 104.663 128.717 105.617 129.075 106.354C130.637 109.56 132.129 112.794 133.685 116.007C134.077 116.821 134.476 117.88 135.618 117.677C136.634 117.494 136.998 116.491 137.25 115.593C137.706 113.952 138.098 112.289 138.497 110.633C140.788 101.015 135.576 92.6177 128.612 86.4932C127.134 81.6455 124.115 77.7309 121.025 73.8514C121.074 73.2691 120.976 72.7359 120.752 72.1817C118.846 67.5165 117.984 62.5776 117.676 57.6107C117.011 46.9472 118.195 36.396 120.268 25.936C120.401 25.2485 120.401 24.2944 121.494 24.1751C123.89 23.9086 126.279 23.4175 128.682 23.3614C136.599 23.193 144.235 24.7223 151.598 27.6337C159.921 30.924 166.913 36.396 174.108 41.5033C182.676 47.5786 191.412 53.3172 201.221 57.2389C212.318 61.6866 223.835 64.4227 235.682 65.8468C241.679 66.5694 247.669 67.2358 253.701 67.6568C259.544 68.0566 264.665 66.8289 268.932 62.6267C270.865 60.7255 272.771 58.7612 274.922 57.1406C285.353 49.2974 295.932 41.6646 307.87 36.1856C311.793 34.3826 315.871 33.2321 320.144 32.7901C322.701 32.5235 324.992 32.8953 326.884 35.0911C329.294 37.8833 332.517 39.6091 335.914 41.0262C339.375 42.4714 343.081 42.773 346.675 43.6009C341.295 51.5213 336.307 59.7504 330.422 67.2709C323.85 75.6684 321.132 85.2094 319.416 95.4308C315.436 119.136 314.764 142.974 316.032 166.904C317.454 193.78 318.526 220.663 317.769 247.581C317.643 252.043 318.813 256.014 321.412 259.662C326.225 266.418 330.975 273.216 335.627 280.084C337.848 283.36 339.733 286.847 338.843 291.091C338.093 294.662 335.795 297.174 333.112 299.39C329.462 302.407 325.385 304.785 321.342 307.206C315.485 310.699 310.714 315.119 308.206 321.678C307.254 324.162 305.46 325.986 303.134 327.298C300.822 328.603 298.377 329.592 295.904 330.518C293.158 331.542 290.44 332.615 287.833 333.962C281.556 337.204 278.292 342.381 278.025 349.424C277.976 350.673 277.738 351.81 277.171 352.911C269.149 368.654 262.753 385.133 255.628 401.275C253.288 406.579 250.696 411.756 247.326 416.499C246.667 417.432 245.974 418.351 245.217 419.207C239.521 425.668 234.554 426.58 227.023 422.378C219.45 418.148 212.752 412.64 205.802 407.505C196.324 400.504 186.789 393.572 177.128 386.817C176.553 386.417 176.021 385.947 175.474 385.505C175.775 381.303 174.094 377.837 171.691 374.533C169.926 372.098 167.375 370.401 165.736 367.875L165.757 367.854Z" fill="#F3F5E7"/>
<path d="M116.745 86.8931C117.782 86.858 118.146 87.6508 118.595 88.3733C120.003 90.6323 121.439 92.8843 122.854 95.1432C123.134 95.5922 123.492 95.8869 124.038 95.9009C124.178 96.7708 123.905 97.5706 123.457 98.8474C121.103 94.6662 118.924 90.7867 116.745 86.9071V86.8931Z" fill="#CECFD4"/>
<path d="M114.167 82.1858C116.038 82.8663 116.164 84.4939 116.29 86.1144C115.316 84.9499 114.643 83.6169 114.167 82.1858Z" fill="#CECFD4"/>
<path d="M113.34 80.8668C114.286 80.8879 114.307 81.4912 114.167 82.1927C113.613 81.9262 113.354 81.4772 113.34 80.8668Z" fill="#CECFD4"/>
<path fill-rule="evenodd" clip-rule="evenodd" d="M98.3898 272.072C98.3898 264.32 92.1126 258.034 84.3712 258.034C76.6298 258.034 70.3525 264.32 70.3525 272.072C70.3525 277.39 73.302 282.013 77.6596 284.398C80.0626 286.756 82.3185 289.87 83.0191 294.031C83.1311 294.697 83.6916 295.216 84.3712 295.216C85.0507 295.216 85.6112 294.697 85.7233 294.031C86.4239 289.87 88.6868 286.756 91.0827 284.398C95.4334 282.013 98.3898 277.39 98.3898 272.072Z" fill="#D78228"/>
<path d="M86.1578 265.015C85.8425 265.352 85.7795 265.646 85.4502 265.808C85.3731 265.843 85.3381 265.667 85.3171 265.59C85.17 265.001 85.205 264.538 85.0439 264.376C85.0088 264.341 84.8477 264.348 84.8057 264.383C84.1401 264.931 84.7776 265.997 83.8108 264.776C83.7548 264.699 83.4746 264.678 83.4816 264.762C83.5376 265.366 84.5114 266.572 85.3171 266.811C85.3731 266.825 85.4922 266.811 85.6183 266.684C85.8635 266.446 86.5571 265.52 86.354 265.043C86.3259 264.98 86.2138 264.966 86.1648 265.022L86.1578 265.015Z" fill="white"/>
<path d="M86.3465 279.979C86.2134 279.986 86.0943 279.887 86.0593 279.761C85.9612 279.382 85.688 278.4 85.3657 277.867C84.9664 277.194 84.9664 277.158 84.9664 277.158C84.9664 277.158 83.362 275.25 82.8086 273.524C82.2621 271.792 81.4915 269.203 82.8086 267.709C83.5372 266.741 84.1607 266.776 84.49 266.818C84.8192 266.853 85.0715 267.561 85.772 267.098C87.0121 267.786 85.2046 268.263 84.2938 267.786C83.8454 267.554 85.4428 268.978 86.3465 268.024C86.4936 268.214 86.5076 268.579 86.2624 269.343C85.8981 270.452 85.1695 272.346 85.2046 273.686C85.2396 275.026 85.8561 275.629 86.1854 276.688C86.4866 277.65 86.984 279.944 86.3465 279.979Z" fill="white"/>
<path fill-rule="evenodd" clip-rule="evenodd" d="M194.369 287.506C194.369 279.754 188.092 273.468 180.351 273.468C172.609 273.468 166.332 279.754 166.332 287.506C166.332 292.824 169.281 297.447 173.639 299.832C176.042 302.19 178.298 305.304 178.999 309.465C179.111 310.131 179.671 310.65 180.351 310.65C181.03 310.65 181.591 310.131 181.703 309.465C182.403 305.304 184.666 302.19 187.062 299.832C191.413 297.447 194.369 292.824 194.369 287.506Z" fill="#D78228"/>
<path d="M182.137 280.449C181.822 280.786 181.759 281.08 181.43 281.242C181.353 281.277 181.318 281.101 181.297 281.024C181.149 280.435 181.185 279.972 181.023 279.81C180.988 279.775 180.827 279.782 180.785 279.817C180.12 280.365 180.757 281.431 179.79 280.21C179.734 280.133 179.454 280.112 179.461 280.196C179.517 280.8 180.491 282.006 181.297 282.245C181.353 282.259 181.472 282.245 181.598 282.118C181.843 281.88 182.537 280.954 182.333 280.477C182.305 280.414 182.193 280.4 182.144 280.456L182.137 280.449Z" fill="white"/>
<path d="M182.326 295.413C182.193 295.42 182.074 295.321 182.039 295.195C181.941 294.816 181.667 293.834 181.345 293.301C180.946 292.627 180.946 292.592 180.946 292.592C180.946 292.592 179.342 290.684 178.788 288.958C178.242 287.226 177.471 284.637 178.788 283.143C179.517 282.175 180.14 282.21 180.469 282.252C180.799 282.287 181.051 282.995 181.752 282.532C182.992 283.22 181.184 283.697 180.273 283.22C179.825 282.988 181.422 284.412 182.326 283.458C182.473 283.648 182.487 284.013 182.242 284.777C181.878 285.886 181.149 287.78 181.184 289.12C181.219 290.46 181.836 291.063 182.165 292.122C182.466 293.083 182.964 295.378 182.326 295.413Z" fill="white"/>
</g>
<defs>
<clipPath id="clip0_976_1539">
<rect width="371" height="442" fill="white"/>
</clipPath>
</defs>
</svg>
