<svg width="206" height="200" viewBox="0 0 206 200" fill="none" xmlns="http://www.w3.org/2000/svg">
<path d="M159.729 186.078C197.51 164.82 209.604 125.471 204.004 85.0246C204.389 66.1307 189.777 50.4085 182.527 33.5766C161.187 -12.569 97.574 -1.67656 57.8666 10.9696C19.7276 24.4996 -4.47384 93.4235 0.692531 130.513C3.31355 144.584 11.1766 158.36 18.1522 170.109C27.6801 180.693 44.1767 184.557 55.9403 192.88C60.2055 191.113 70.6139 197.313 77.1974 197.217C105.272 201.498 134.791 202.862 159.736 186.085L159.729 186.078Z" fill="#85A687"/>
<g clip-path="url(#clip0_333_1641)">
<path d="M157.623 72.3516C157.633 87.0884 157.623 115.273 157.614 130.01C157.614 130.101 157.563 130.193 157.503 130.401H47.834V128.894C47.834 114.542 47.8466 86.7449 47.8086 72.3926C47.8086 72.3769 47.8086 72.3674 47.8086 72.3516" fill="#EBC194"/>
<path d="M173.994 140.848C173.994 137.362 171.546 136.278 169.278 136.266C169.063 136.266 169.155 136.266 169.278 136.266V134.696C169.278 118.119 169.275 77.9867 169.301 61.4093H36.8176L164.464 66.6126V136.269H162.781C147.901 136.269 133.018 136.269 118.139 136.269C115.766 136.269 115.208 136.688 114.742 138.951C114.466 140.281 113.68 140.952 112.341 140.952C106.104 140.962 99.8657 140.965 93.6246 140.952C92.2832 140.949 91.5157 140.249 91.2493 138.923C90.8085 136.726 90.2155 136.272 87.9671 136.272C73.0875 136.272 58.2047 136.272 43.3251 136.272H41.5714V66.5149L164.195 66.6095L36.6971 61.4062C36.7288 77.9709 36.7225 118.087 36.7225 134.649V136.241C36.7035 136.241 36.6876 136.241 36.6686 136.241C34.0967 136.234 32.0037 138.295 32.0037 140.851V143.517C32.0037 143.517 31.7817 147.003 39.1168 147.003H41.7109L157.51 146.754C159.546 146.713 163.684 146.82 167.144 146.77C171.13 146.71 173.962 146.729 173.994 143.007C174.013 140.848 173.997 143.007 173.997 140.848H173.994Z" fill="#FCF6DE"/>
<path d="M92.7519 61.2549C91.7403 60.7065 90.5574 60.4607 89.568 59.8808C88.3629 59.1749 86.5933 59.0331 85.347 59.7831C85.2709 59.8273 85.1345 59.8493 85.0648 59.8146C84.6652 59.6066 84.2656 59.1717 83.885 59.1906C83.013 59.2379 82.1472 59.4743 81.2973 59.7012C81.0943 59.7548 80.9453 60.0699 80.8153 60.2905C80.7487 60.404 80.7772 60.5742 80.7613 60.7191C80.6504 60.5962 80.5425 60.4639 80.4379 60.3441C79.8068 59.6129 78.478 59.7453 77.3237 59.5184C75.4082 59.1371 74.46 59.2348 73.312 59.7075C72.5192 60.0353 71.5298 60.8547 71.1175 61.6394C71.0636 61.7371 71.0604 61.8789 70.9843 61.9451C70.1281 62.7078 69.0054 63.3066 68.441 64.2426C65.942 68.3838 65.1872 72.733 67.6259 77.1893C67.9621 77.8039 68.7676 78.1726 69.3828 78.617C69.5287 78.721 69.8997 78.6012 69.9695 78.7084C71.3236 80.7758 73.3437 81.4061 75.6778 81.3431C76.0615 81.3336 76.5372 81.05 76.8068 81.1918C78.4305 82.0585 80.1493 81.8726 81.8554 81.7118C82.385 81.6614 82.8956 81.362 83.403 81.1477C83.6155 81.0595 83.7994 80.7695 83.9834 80.779C85.0743 80.8357 86.1969 81.1698 87.2434 81.0059C89.5236 80.6561 91.5944 79.8146 92.2858 77.2807C92.438 76.7229 92.6187 76.4392 93.2276 76.6756C93.291 76.7008 93.4179 76.6157 93.494 76.5558C96.0944 74.4979 96.8904 71.6362 97.16 68.4248C96.827 65.4055 95.6219 62.8086 92.7424 61.2549H92.7519ZM81.5795 60.3284C81.6176 60.2401 81.7508 60.2023 81.8428 60.1393C81.9315 60.3284 82.0172 60.5332 82.0965 60.7097C82.2011 60.9366 82.236 61.1572 82.2011 61.8852C82.3089 61.8821 82.6165 62.5187 82.68 62.4557C82.8702 62.2666 83.5679 61.5606 84.1927 60.9019C84.2212 60.8704 84.2973 60.9019 84.3512 60.9019C84.3227 61.0469 84.3354 61.2329 84.2593 61.3274C83.7836 61.9262 83.292 62.5029 82.8068 63.0923C83.5901 62.421 84.3639 61.7277 85.1694 61.0942C85.4231 60.8956 85.772 60.8641 86.0796 60.7538C85.8132 60.9524 85.5278 61.1226 85.2868 61.3526C84.5415 62.0586 83.8248 62.8055 83.0732 63.4988C82.9305 63.6281 82.6229 63.7005 82.4802 63.6155C81.4654 63.0167 81.0785 61.5512 81.5859 60.3252L81.5795 60.3284ZM78.8776 64.8477C78.9474 64.2237 79.0267 63.5997 79.1059 62.9757C79.1123 62.9284 79.1281 62.8843 79.1408 62.837C79.1916 62.8496 79.2645 62.8465 79.2867 62.878C79.5753 63.2908 79.8575 63.71 80.292 64.3466C79.7434 64.646 79.3374 64.8666 78.9315 65.0904C78.9125 65.0116 78.8713 64.9265 78.8808 64.8509L78.8776 64.8477ZM73.7084 62.9253C74.4252 62.7109 75.145 62.5092 75.8617 62.2981C75.9949 62.2603 76.1186 62.1909 76.2455 62.1374C76.0584 62.0397 75.8808 61.9136 75.6841 61.86C75.5668 61.8285 74.4125 61.9766 74.2761 61.9829L75.0879 61.0469C74.8818 60.9839 74.6757 60.9177 74.4695 60.861C74.3554 60.8326 74.238 60.8263 74.1207 60.8074C74.2317 60.6939 74.3268 60.5553 74.4569 60.4733C75.478 59.8399 76.0774 60.4828 76.6768 61.1887C76.867 61.4125 77.1493 61.5606 77.3903 61.7403C77.2698 61.5701 77.1334 61.4062 77.0351 61.2234C76.867 60.9145 76.7212 60.5962 76.5784 60.2779C76.5721 60.259 76.7338 60.1298 76.7529 60.1456C77.1588 60.426 77.571 60.7034 77.9516 61.0217C78.0721 61.1225 78.1165 61.3274 78.1768 61.4881C78.2307 61.6363 78.2624 61.7938 78.3068 61.9451C78.1926 61.9167 78.0816 61.8726 77.9675 61.86C77.8565 61.8474 77.7391 61.8663 77.625 61.8726C77.6916 61.9577 77.7613 62.0397 77.8216 62.1279C77.8945 62.2319 77.9611 62.3422 78.0309 62.4494C77.9104 62.4084 77.7804 62.3832 77.6694 62.3233C77.089 62.0176 76.515 61.6993 75.9347 61.3936C75.8808 61.3652 75.8046 61.3747 75.7412 61.3652C75.7888 61.4188 75.8269 61.4881 75.8871 61.5228C76.534 61.9262 77.1842 62.3265 77.8311 62.7299C77.8913 62.7677 77.9326 62.8402 77.9801 62.8937C77.9326 62.9158 77.885 62.9568 77.8343 62.9599C76.4548 63.0072 75.0753 63.0482 73.6926 63.0923C73.6355 63.0923 73.5816 63.108 73.5245 63.1143C73.5848 63.0482 73.6323 62.9442 73.7084 62.9221V62.9253ZM74.3712 70.6183L75.3258 80.2968C73.7021 80.4859 71.7962 78.9353 71.5964 78.8597C71.701 79.0172 71.793 79.1843 71.9103 79.3355C72.0657 79.5372 72.2401 79.7295 72.4051 79.9249C72.1482 79.7579 71.8818 79.6034 71.6344 79.4206C69.386 77.7661 69.0245 75.3835 69.126 72.8527C69.1767 71.6457 69.1767 70.3945 69.5033 69.2473C69.8902 67.8732 71.793 63.502 73.1313 64.167C73.3215 64.2615 75.1672 64.7374 76.6768 64.0598C76.7307 64.1481 76.7846 64.2332 76.8385 64.3214C77.0478 64.3781 77.2571 64.4317 77.4632 64.4884C74.6598 65.4938 74.3744 70.6183 74.3744 70.6183H74.3712ZM80.292 73.4641C79.8956 74.2394 79.7275 74.8666 79.4167 75.6356C79.3723 75.7459 79.2423 75.8247 79.1503 75.9161C79.1567 75.7869 79.1377 75.6513 79.1789 75.5316C79.2867 75.1975 79.3248 73.918 79.4484 73.5871C79.2265 73.877 78.9949 74.1606 78.7793 74.4537C77.7518 75.8814 78.0182 78.8281 79.3279 80.8231C79.4136 80.9555 79.4484 81.1256 79.5055 81.2769C79.3882 81.1792 79.2835 81.0185 79.1503 80.9933C78.9157 80.946 78.6556 80.9428 78.421 80.987C77.3395 81.1824 77.0034 80.4796 76.7751 79.6539C76.6863 79.3292 76.6514 78.992 76.5943 78.658C76.5626 78.658 76.5309 78.658 76.4992 78.658C76.4199 76.8206 76.1503 74.9706 76.3089 73.1553C76.4738 71.2643 76.959 69.3828 77.5013 67.5549C77.7169 66.8332 78.459 66.2596 78.9854 65.6419C79.014 65.6073 79.2613 65.7869 79.4167 65.8247C80.0859 65.9917 80.0066 65.5064 80.6757 65.6829C80.6757 65.6829 82.014 67.7692 82.014 71.1856C80.9643 71.756 81.0563 71.9829 80.2952 73.4641H80.292ZM88.8544 76.351C88.2075 76.247 87.5574 76.143 86.9104 76.0358C86.8248 76.6725 86.7614 77.3122 86.6441 77.9425C86.5584 78.3995 86.4443 78.8597 86.2667 79.2883C86.1715 79.5183 85.9115 79.8461 85.7339 79.8398C85.4326 79.8303 85.1409 79.594 84.8459 79.449C84.7762 79.4143 84.6937 79.3292 84.6462 79.3481C84.5415 79.386 84.4527 79.4774 84.3576 79.5435C84.3481 79.3954 84.3354 79.2473 84.3259 79.0992C84.1736 76.7891 84.0944 74.4727 83.8438 72.172C83.6726 70.6057 83.3586 69.0425 82.921 67.5297C82.6927 66.7481 82.0203 66.0989 81.6334 65.3488C81.5256 65.1377 81.7286 64.7721 81.7857 64.479C82.0362 64.542 82.2867 64.6271 82.5404 64.6586C82.699 64.6775 82.8639 64.6177 83.0288 64.5924H83.0256C83.3174 64.8194 83.7455 64.9864 83.8724 65.2826C84.4591 66.6599 85.7402 66.953 86.9485 67.391C87.0849 67.4415 85.0362 67.5927 85.1599 67.6778L85.9242 72.0113C86.2413 73.8045 87.4718 75.1534 88.8544 76.351ZM92.7678 75.7711C92.7044 75.768 92.5997 75.5726 92.6029 75.4685C92.6853 72.6636 92.0891 70.0289 90.5384 67.6652C89.9961 66.8395 89.4316 65.9476 88.6578 65.3803C87.3956 64.4506 86.0447 63.4925 84.2783 63.8802C84.1895 63.8991 84.0753 63.8172 83.9738 63.7793C84.0848 63.6186 84.1641 63.4169 84.3132 63.3034C85.1377 62.67 85.9749 62.0523 86.8121 61.4409C86.9897 61.3116 87.1927 61.2202 87.383 61.1099C87.3037 61.4188 87.31 61.797 87.1261 62.0176C86.9073 62.2792 86.514 62.3926 86.2191 62.6038C86.1081 62.6826 86.0637 62.8496 85.9908 62.9788C86.0574 63.0135 87.0246 63.3318 87.0722 63.3129C87.0722 63.3129 91.8513 65.0021 93.1388 67.952C93.5289 69.9785 94.0109 71.9892 94.2963 74.0283C94.4295 74.9801 94.0363 75.853 92.771 75.7711H92.7678Z" fill="#D78329"/>
<path d="M82.4736 63.6186C82.6164 63.7037 82.9271 63.6312 83.0667 63.502C83.8183 62.8086 84.5381 62.0649 85.2802 61.3558C85.5212 61.1257 85.8066 60.9555 86.073 60.757C85.7654 60.8641 85.4166 60.8956 85.1629 61.0973C84.3574 61.7308 83.5868 62.4242 82.8003 63.0954C83.2855 62.5061 83.777 61.9262 84.2527 61.3306C84.3288 61.236 84.3162 61.0501 84.3447 60.9051C84.2908 60.9051 84.2147 60.8736 84.1861 60.9051C83.5614 61.5606 82.8669 62.2697 82.6734 62.4588C82.61 62.5219 82.3056 61.8852 82.1946 61.8884C82.2326 61.1604 82.1946 60.9398 82.0899 60.7128C82.0106 60.5364 81.925 60.3315 81.8362 60.1424C81.7474 60.2054 81.6111 60.2433 81.573 60.3315C81.0656 61.5575 81.4525 63.023 82.4673 63.6218L82.4736 63.6186Z" fill="#DCA752"/>
<path d="M80.2918 64.3435C79.8573 63.7069 79.5782 63.2877 79.2865 62.8748C79.2643 62.8433 79.1913 62.8465 79.1406 62.8339C79.1279 62.8811 79.1121 62.9253 79.1057 62.9725C79.0264 63.5965 78.9471 64.2206 78.8774 64.8446C78.8679 64.9234 78.9091 65.0053 78.9281 65.0841C79.334 64.8603 79.7431 64.6397 80.2886 64.3403L80.2918 64.3435Z" fill="#DCA752"/>
<path d="M77.8342 62.9599C77.8817 62.9599 77.9325 62.9158 77.9801 62.8937C77.9293 62.837 77.8913 62.7677 77.831 62.7299C77.1841 62.3233 76.5339 61.9262 75.887 61.5228C75.8299 61.485 75.7887 61.4188 75.7411 61.3652C75.8077 61.3747 75.8807 61.3652 75.9346 61.3936C76.5149 61.7024 77.0889 62.0176 77.6693 62.3233C77.7803 62.3832 77.9103 62.4084 78.0308 62.4494C77.961 62.3422 77.8944 62.2351 77.8215 62.1279C77.7612 62.0397 77.6915 61.9577 77.6249 61.8726C77.739 61.8663 77.8564 61.8506 77.9674 61.86C78.0815 61.8726 78.1925 61.9168 78.3067 61.9451C78.2655 61.7907 78.2338 61.6363 78.1767 61.4881C78.1164 61.3243 78.072 61.1226 77.9515 61.0217C77.571 60.7065 77.1619 60.4261 76.7528 60.1456C76.7337 60.133 76.572 60.2622 76.5783 60.2779C76.7211 60.5994 76.8669 60.9177 77.035 61.2234C77.1333 61.4062 77.2697 61.5669 77.3902 61.7403C77.1492 61.5575 76.8669 61.4125 76.6767 61.1887C76.0773 60.4828 75.4779 59.8399 74.4568 60.4733C74.3267 60.5553 74.2316 60.6939 74.1206 60.8074C74.238 60.8232 74.3585 60.8295 74.4695 60.861C74.6788 60.9145 74.8817 60.9839 75.0878 61.0469L74.276 61.9829C74.4124 61.9766 75.5667 61.8285 75.684 61.86C75.8807 61.9136 76.0583 62.0428 76.2454 62.1374C76.1185 62.1909 75.9948 62.2603 75.8616 62.2981C75.1449 62.5093 74.4251 62.7078 73.7083 62.9253C73.6354 62.9473 73.5847 63.0513 73.5244 63.1175C73.5815 63.1081 73.6354 63.0954 73.6925 63.0954C75.072 63.0513 76.4515 63.0104 77.8342 62.9631V62.9599Z" fill="#DCA752"/>
<path d="M77.4635 64.4853C77.2542 64.4286 77.0449 64.375 76.8388 64.3183C76.7849 64.23 76.731 64.1449 76.6771 64.0567C75.1707 64.7343 73.3219 64.2584 73.1316 64.1638C71.7933 63.4988 69.8905 67.8701 69.5036 69.2442C69.1802 70.3914 69.177 71.6425 69.1263 72.8496C69.0216 75.3803 69.3863 77.7629 71.6347 79.4175C71.8821 79.6003 72.1485 79.7547 72.4054 79.9217C72.2405 79.7263 72.0692 79.5372 71.9106 79.3324C71.7965 79.1811 71.7013 79.0172 71.5967 78.8565C71.7996 78.9321 73.7024 80.4827 75.3261 80.2936L74.3715 70.6151C74.3715 70.6151 74.657 65.4906 77.4604 64.4853H77.4635Z" fill="#DCA752"/>
<path d="M79.4167 65.8247C79.2613 65.7869 79.0139 65.6072 78.9854 65.6419C78.459 66.2628 77.7169 66.8332 77.5012 67.5549C76.9589 69.3828 76.4737 71.2643 76.3088 73.1553C76.1503 74.9706 76.4198 76.8237 76.4991 78.6579C76.5308 78.6579 76.5625 78.6579 76.5943 78.6579C76.6545 78.9889 76.6862 79.3292 76.775 79.6538C77.0002 80.4796 77.3395 81.1792 78.4209 80.987C78.6588 80.9428 78.9156 80.946 79.1503 80.9933C79.2835 81.0185 79.3881 81.1792 79.5055 81.2769C79.4484 81.1256 79.4167 80.9554 79.3279 80.8231C78.0182 78.825 77.7518 75.8783 78.7793 74.4537C78.9917 74.1575 79.2232 73.8738 79.4484 73.5871C79.3247 73.918 79.2898 75.1944 79.1788 75.5316C79.1408 75.6513 79.1598 75.7869 79.1503 75.9161C79.2423 75.8247 79.3723 75.7459 79.4167 75.6356C79.7275 74.8666 79.8924 74.2394 80.292 73.4641C81.0531 71.9829 80.9611 71.756 82.0108 71.1855C82.0108 67.7692 80.6725 65.6829 80.6725 65.6829C80.0034 65.5064 80.0858 65.9917 79.4135 65.8247H79.4167Z" fill="#DCA752"/>
<path d="M85.9247 72.0081L85.1604 67.6747C85.0367 67.5896 87.0853 67.4383 86.949 67.3879C85.7439 66.9467 84.4595 66.6567 83.8728 65.2795C83.746 64.9832 83.3179 64.8194 83.0261 64.5924H83.0293C82.8675 64.6145 82.6995 64.6775 82.5409 64.6555C82.284 64.624 82.0367 64.5389 81.7861 64.4758C81.7259 64.7721 81.5261 65.1377 81.6339 65.3457C82.0208 66.0989 82.6931 66.745 82.9215 67.5266C83.3591 69.0393 83.6762 70.6057 83.8443 72.1688C84.0948 74.4695 84.1741 76.7859 84.3263 79.096C84.3358 79.2441 84.3454 79.3923 84.358 79.5404C84.4532 79.4711 84.542 79.3828 84.6466 79.345C84.6942 79.3261 84.7767 79.4112 84.8464 79.4458C85.1413 79.5877 85.4363 79.8272 85.7344 79.8366C85.912 79.8429 86.172 79.5152 86.2671 79.2851C86.4447 78.8565 86.5589 78.3964 86.6445 77.9394C86.7619 77.3091 86.8253 76.6693 86.9109 76.0327C87.5579 76.1367 88.2048 76.2438 88.8549 76.3478C87.4754 75.1502 86.2418 73.8014 85.9247 72.0081Z" fill="#DCA752"/>
<path d="M93.1357 67.9489C91.8481 64.999 87.069 63.3098 87.069 63.3098C87.0246 63.3287 86.0542 63.0104 85.9876 62.9757C86.0606 62.8496 86.105 62.6794 86.216 62.6006C86.5109 62.3895 86.9041 62.2792 87.1229 62.0145C87.3069 61.7938 87.3005 61.4157 87.3798 61.1068C87.1895 61.2171 86.9866 61.3085 86.809 61.4377C85.9686 62.0523 85.1314 62.6668 84.31 63.3003C84.161 63.4138 84.0817 63.6155 83.9707 63.7762C84.0722 63.8109 84.1863 63.8959 84.2751 63.877C86.0415 63.4894 87.3893 64.4506 88.6547 65.3772C89.4285 65.9445 89.9961 66.8395 90.5352 67.6621C92.0892 70.0258 92.6854 72.6605 92.5997 75.4654C92.5997 75.5694 92.7012 75.7648 92.7646 75.768C94.03 75.8499 94.4232 74.9769 94.29 74.0251C94.0046 71.9861 93.5257 69.9722 93.1325 67.9489H93.1357Z" fill="#DCA752"/>
<path d="M96.2979 77.3374C96.6721 78.6075 97.0717 79.8051 97.373 81.0248C97.6838 82.2823 97.6743 83.5303 96.7895 84.6649C97.392 82.6258 96.8941 80.7348 96.0633 78.9164C95.6288 77.9646 95.2609 76.7512 94.4776 76.2375C93.3613 75.5032 91.8962 75.2857 90.5674 74.8792C89.8856 74.6712 89.5051 74.9674 89.2197 75.6324C88.8898 76.4014 88.4554 77.1483 87.948 77.8165C85.6456 80.842 85.7091 83.94 88.9247 86.3699C90.1108 87.2649 91.4586 87.9488 92.7144 88.7146C92.7366 88.6232 92.7715 88.4814 92.8095 88.3364C93.1869 88.5854 93.5643 88.8312 93.9544 89.0865C93.615 88.5287 93.4787 88.0276 94.3983 87.8763C94.6394 87.8385 94.9057 87.6526 95.0643 87.4572C95.5939 86.8048 96.0284 86.0673 96.5929 85.4496C98.4671 83.4105 98.3688 79.4521 96.2979 77.3343V77.3374ZM87.9194 79.8398C87.485 82.7455 89.6795 84.4884 90.5643 86.8993C86.8127 84.8792 86.1721 81.6645 87.9194 79.8398ZM88.8613 79.7074C89.134 82.6667 91.1954 84.709 92.8825 87.1767C90.3613 86.4959 88.2461 82.4146 88.8613 79.7074ZM90.5326 75.6734C89.1499 79.7232 91.5537 82.8275 93.1108 86.1398C89.7461 83.0702 88.4046 77.7818 90.5326 75.6734ZM91.0463 76.8143C92.4639 79.553 94.373 82.0585 93.9131 85.355C92.2546 82.7676 90.2186 80.3062 91.0463 76.8143ZM94.0146 87.3185C94.6108 85.2542 94.9438 83.2088 93.9385 81.1981C92.9903 79.3009 92.0675 77.391 91.1129 75.4496C94.2525 76.4991 96.3931 84.7752 94.0146 87.3185ZM92.5558 75.853C95.8381 77.4666 97.4872 82.7266 95.6193 85.6891C95.8888 81.9766 94.8518 78.8376 92.5558 75.853Z" fill="#C3CE87"/>
<path d="M96.9064 86.6472C98.7077 84.9233 99.231 82.8495 98.5269 80.4512C97.7436 77.7818 96.2119 75.7301 93.548 74.75C91.6358 74.0472 90.6876 72.6731 90.1897 70.8452C88.6484 65.2101 88.1791 59.4963 88.7848 53.6848C89.048 51.1667 89.2415 48.6391 89.3905 46.1116C89.4286 45.4812 89.178 44.8352 89.0226 44C85.3503 49.0835 86.2129 54.4948 86.6822 59.8777C86.3588 59.1717 86.1622 58.4689 86.0385 57.7535C85.5184 54.7627 85.0934 51.7529 84.475 48.7809C84.2182 47.5518 83.733 46.3007 82.3503 45.6105C83.1082 48.8944 83.8662 52.1752 84.6241 55.4592C84.5004 55.5033 84.3736 55.5505 84.2499 55.5947C83.2509 53.3633 82.2552 51.132 81.2562 48.9007C81.0945 48.9637 80.9327 49.0268 80.771 49.0898C81.1103 50.2843 81.4497 51.4787 81.7858 52.6732C79.8735 51.0532 78.2879 49.26 76.2107 48.0498L75.9316 48.3114C76.6959 49.1623 77.4602 50.0132 78.2276 50.861C81.4243 54.4002 84.1801 58.1664 85.7055 62.7866C86.7869 66.0674 87.5987 69.3765 88.1918 72.7708C88.4899 74.4789 88.214 75.8656 87.2087 77.2775C86.4539 78.3365 85.7658 79.5593 85.4772 80.8105C84.7129 84.1322 87.0691 87.599 90.6273 88.7146C92.5998 89.3324 92.676 89.5277 92.048 91.5605C91.8768 92.1152 91.9022 92.7298 91.8387 93.3191L92.2288 93.3538C92.4254 92.6037 92.622 91.8505 92.8662 90.927C93.3229 92.0774 93.6876 92.9976 94.0555 93.9179C94.176 93.8864 94.2996 93.858 94.4202 93.8265C94.3599 92.5785 94.2996 91.3305 94.2394 90.0824C94.344 90.0509 94.4487 90.0194 94.5533 89.9879C95.4381 91.9923 96.3197 93.9998 97.2045 96.0042C97.769 94.8917 96.9001 93.5397 96.3673 91.9671C97.2077 92.9724 97.9085 93.8139 98.6126 94.6554C98.7077 94.6018 98.8028 94.5514 98.898 94.4978C98.806 94.0975 98.7933 93.6532 98.6062 93.3065C97.9815 92.1467 97.3536 90.9775 96.6115 89.8902C95.5269 88.3018 95.5428 87.9614 96.9128 86.6504L96.9064 86.6472Z" fill="#86A687"/>
<path d="M91.0454 76.8143C90.2146 80.3031 92.2505 82.7676 93.9123 85.3551C94.3721 82.0585 92.463 79.553 91.0454 76.8143Z" fill="#86A687"/>
<path d="M91.1152 75.4496C92.0666 77.391 92.9895 79.3009 93.9408 81.1981C94.9461 83.2088 94.6131 85.2574 94.0169 87.3185C96.3986 84.7752 94.258 76.5023 91.1152 75.4496Z" fill="#86A687"/>
<path d="M92.5557 75.853C94.8517 78.8376 95.8887 81.9766 95.6191 85.6891C97.487 82.7298 95.8379 77.4667 92.5557 75.853Z" fill="#86A687"/>
<path d="M87.9225 79.8429C86.1752 81.6677 86.8189 84.8823 90.5674 86.9025C89.6826 84.4915 87.4881 82.7487 87.9225 79.8429Z" fill="#86A687"/>
<path d="M90.532 75.6734C88.4041 77.7818 89.7455 83.0702 93.1103 86.1398C91.5532 82.8243 89.1493 79.7232 90.532 75.6734Z" fill="#86A687"/>
<path d="M88.8613 79.7074C88.2461 82.4146 90.3645 86.4959 92.8825 87.1767C91.1954 84.7058 89.1341 82.6668 88.8613 79.7074Z" fill="#86A687"/>
<path d="M117.783 64.6744C117.624 63.6848 117.554 62.6826 117.393 61.693C117.291 61.0784 117.209 60.4166 116.917 59.884C116.181 58.5446 115.157 57.3438 114.57 55.954C113.314 52.9915 110.904 51.7529 107.993 51.1131L106.588 50.7412L104.787 50.4954C103.506 50.4261 102.253 50.5049 102.323 50.5301H100.347C98.8567 50.6688 96.5067 51.5859 95.0416 51.9514C93.4274 52.358 92.3524 53.4674 91.3629 54.7406C90.9665 55.2512 90.291 55.56 89.7075 55.9035C88.6927 56.5023 88.7276 57.4888 88.5944 58.4689C88.4834 59.2946 88.1568 60.092 87.9411 60.9051C87.8809 61.132 87.8397 61.3684 87.8397 61.6016C87.8428 62.9505 87.9602 64.3088 87.8492 65.6482C87.7318 67.0727 87.7794 68.4405 88.4327 69.7264C88.7213 70.2905 89.1272 70.7979 89.5109 71.3085C89.5648 71.3778 89.7963 71.3148 89.9454 71.3148C90.1388 71.3148 90.3354 71.3148 90.6272 71.3148C90.6304 71.2738 90.6367 71.2139 90.6431 71.1446C90.7636 72.109 90.8682 72.963 90.976 73.8171C91.0109 73.8612 91.0363 73.9148 91.0458 73.9715C91.0458 73.9873 91.049 74.0031 91.0522 74.0157C92.0923 74.3939 92.809 75.207 93.5765 76.0012C94.03 76.4676 94.8133 76.5968 95.3809 76.9782C95.8439 77.287 96.1769 77.7818 96.6241 78.1222C97.011 78.4184 97.493 78.5886 97.8958 78.8691C98.0607 78.9857 98.2414 79.2631 98.2129 79.4395C98.1463 79.8808 97.9243 80.2968 97.8418 80.738C97.807 80.9302 97.8038 81.0973 97.8292 81.2422C98.3048 81.3273 98.7837 81.3872 99.2626 81.4282C101.463 81.4408 103.661 81.611 105.859 81.7433C106.617 81.6992 107.381 81.6551 108.145 81.6078C108.472 81.5227 108.805 81.466 109.138 81.4061C109.087 81.2044 109.052 81.0689 109.068 80.9397C109.119 80.5584 109.119 79.9848 109.354 79.8429C110.828 78.9574 112.366 78.1726 113.876 77.3469C114.003 77.2776 114.101 77.1452 114.206 77.038C114.516 76.7166 114.824 76.392 115.132 76.0674C115.151 76.0138 115.182 75.9602 115.23 75.9129C115.75 75.3582 116.216 74.7626 116.654 74.1449C116.663 74.0913 116.673 74.0377 116.682 73.9842C116.673 74.0062 116.663 74.0251 116.651 74.0472C116.692 73.7698 116.73 73.502 116.771 73.2372C116.771 73.2152 116.771 73.1931 116.771 73.171C116.771 73.1143 116.784 73.0607 116.8 73.0135C116.914 72.2445 117.019 71.5165 117.13 70.7727C117.044 70.7885 116.98 70.8011 116.828 70.8294C117.025 70.5899 117.183 70.3977 117.443 70.0825C117.548 69.8241 117.665 69.5688 117.799 69.323C117.681 68.9794 117.567 68.6454 117.443 68.2892C117.688 67.8228 118.157 67.3028 118.192 66.7544C118.236 66.0737 117.887 65.374 117.776 64.6712L117.783 64.6744ZM92.5585 68.2609C91.1631 67.0002 91.1314 65.4969 91.1092 63.8266C91.0902 62.3075 90.7445 60.7916 90.4972 59.282C90.3386 58.3145 91.3851 56.9782 92.4063 56.5685C92.0257 56.9845 91.7276 57.3848 91.6293 57.6558C91.1727 58.9227 91.0902 60.092 91.8862 61.3432C92.2604 61.9325 92.0987 62.8591 92.1875 63.6312C92.3016 64.6334 92.3555 65.6545 92.5775 66.6347C92.679 67.0822 93.1166 67.4541 93.4084 67.8764C93.383 67.9174 93.3386 67.993 93.2942 68.0655H93.2911C93.7794 68.7336 93.8619 70.4103 93.6177 70.5552C93.2816 69.7926 93.1357 68.7903 92.5553 68.2672L92.5585 68.2609ZM95.8376 74.3655C95.6156 74.6365 95.1843 75.0179 95.0353 74.8918C93.7794 73.8234 93.1325 71.8757 93.4052 71.1225C94.1537 71.901 94.9243 72.6668 95.6568 73.502C95.8027 73.6658 95.9074 74.2804 95.8376 74.3655ZM101.232 79.3702C100.969 78.9731 100.709 78.576 100.445 78.1821C99.5575 77.5423 98.6822 76.8679 97.7752 76.2817C97.4486 76.0705 97.0395 76.1241 96.6938 75.9602C96.4116 75.8278 96.1674 75.5442 95.9074 75.3299C96.1452 75.0053 96.3482 74.4884 96.6272 74.3876C98.5046 73.6974 99.5765 75.9823 101.023 76.8994C101.216 77.0223 101.267 77.5927 101.384 77.9551C101.162 77.807 100.937 77.6652 100.718 77.5139C100.639 77.4603 100.566 77.3879 100.398 77.2429C100.503 77.4919 100.553 77.6179 100.607 77.744C100.899 78.1663 101.194 78.5918 101.486 79.0141C101.403 79.1338 101.321 79.2536 101.235 79.3734L101.232 79.3702ZM101.384 69.3702C101.162 69.2158 100.883 69.0803 100.759 68.8597C100.395 68.2136 100.151 67.4982 99.7541 66.8742C99.3736 66.2785 98.9359 65.6797 98.3968 65.2322C97.7118 64.6681 97.5786 64.0062 97.6928 63.2247C97.918 61.6804 98.159 60.1361 98.3905 58.5918C98.4127 58.4532 98.4095 58.3113 98.4222 58.1128C98.3112 58.1947 98.2509 58.242 98.1463 58.3208C98.1717 58.075 98.1621 57.8607 98.2224 57.6653C98.4 57.1169 98.5966 56.578 98.8059 56.039C99.1262 55.207 98.5395 54.8793 97.8862 54.5105C98.0607 54.4948 98.1463 54.4885 98.327 54.4727C98.2034 54.3025 98.086 54.0504 98.0131 54.063C97.8038 54.0977 97.6008 54.2206 97.4137 54.3403C97.0998 54.5389 96.7858 54.7437 96.5004 54.9833C96.3006 55.1535 96.1547 55.3835 95.9835 55.5884C96.2277 55.6136 96.4782 55.6892 96.716 55.6577C97.4613 55.5569 97.9053 56.2281 97.6262 57.202C97.1981 58.7053 96.8239 60.237 96.2245 61.6741C95.1716 64.189 95.8852 66.3227 97.4105 68.3208C98.2731 69.4522 99.2594 70.4922 100.135 71.6173C100.341 71.882 100.325 72.3201 100.208 72.7204C100.052 72.5439 99.8937 72.3674 99.7383 72.1941C99.1674 72.6227 97.937 71.9419 97.8926 71.0878C97.845 70.2464 97.2837 69.8871 96.7541 69.4364C96.5416 69.2536 96.3831 68.9984 96.2277 68.7588C95.9391 68.3208 95.6568 67.8764 95.4 67.4194C95.0004 66.704 94.7181 65.9035 94.2139 65.2763C93.6621 64.5893 93.6653 63.9495 93.9 63.3885C93.7097 64.9044 95.0131 65.9003 95.7456 67.1421C96.5416 68.4846 97.4201 69.7799 98.3175 71.0563C98.5205 71.3431 98.9518 71.4723 99.418 71.5039C99.0501 71.0248 98.66 70.5584 98.3207 70.0604C97.2488 68.4752 96.0786 66.9404 95.1748 65.2637C94.2171 63.4894 94.6611 61.63 95.4158 59.8556C95.7583 59.0488 96.1325 58.2546 96.4655 57.4447C96.5797 57.1673 96.4338 56.7419 96.1896 56.4109C96.1674 56.392 96.1452 56.3731 96.1262 56.3542C96.1357 56.3542 96.1452 56.3605 96.1516 56.3637C96.0754 56.2691 95.993 56.1809 95.9042 56.1115C95.6568 55.7932 95.511 55.4308 95.4222 55.0873C95.6061 54.7437 95.79 54.4034 95.9296 54.0441C96.2721 53.1806 97.0078 52.9064 97.807 52.7204C99.9603 52.2193 100.731 52.0145 102.963 52.1185L103.664 52.2319C106.189 51.86 108.358 52.1122 110.083 53.8203C109.848 53.7226 109.572 53.6123 109.087 53.4138C109.36 53.8235 109.49 54.0189 109.528 54.0725C109.255 53.8487 108.97 53.6691 108.678 53.5272C106.455 52.2603 103.522 52.6858 103.097 52.9032C101.812 53.5588 100.154 53.8676 99.4909 55.3552L99.0469 57.3816C98.5205 59.0457 98.733 62.5975 99.3038 63.8014C99.6844 64.605 99.9285 65.4717 100.284 66.288C100.604 67.0223 100.997 67.7283 101.34 68.4531C101.448 68.6832 101.524 68.9322 101.578 69.178C101.587 69.2284 101.394 69.3828 101.375 69.3702H101.384ZM104.822 56.2565C105.415 56.6378 106.011 56.849 106.56 56.0926C106.661 55.954 107.181 56.121 107.324 56.1304C107.004 56.4361 106.734 56.704 106.452 56.9593C106.36 57.0412 106.192 57.1642 106.128 57.1326C105.469 56.8143 104.73 56.5717 104.203 56.0958C103.782 55.7113 104.584 54.6618 105.304 54.6555C106.173 54.646 107.042 54.6524 107.907 54.7059C108.824 54.7627 109.921 56.6536 109.598 57.2303C109.246 56.7923 108.872 56.2849 108.453 55.8153C107.974 55.2827 107.416 55.1724 106.677 55.3394C106.113 55.4655 105.475 55.2291 104.866 55.2133C104.733 55.2133 104.473 55.4812 104.486 55.6041C104.511 55.8373 104.635 56.1399 104.819 56.2597L104.822 56.2565ZM102.259 68.5414C101.917 67.8071 101.546 67.079 101.241 66.329C101.102 65.9854 101.169 65.5442 100.994 65.2228C100.252 63.8455 100.154 62.5029 100.851 61.1761C100.797 61.8159 100.855 62.358 101.169 62.5723C101.156 63.0765 101.207 63.5871 101.264 64.0945C101.327 64.646 101.676 65.1629 101.847 65.7081C102.126 66.6 102.361 67.5014 102.618 68.3996C102.5 68.4468 102.383 68.4909 102.263 68.5382L102.259 68.5414ZM104.555 63.7289H104.996C105.133 63.212 104.641 62.5187 104.092 62.4777C104.023 62.4714 103.966 62.2949 103.905 62.1972C104.004 62.1594 104.099 62.1058 104.197 62.0869C104.292 62.068 104.394 62.0838 104.724 62.0838C104.394 61.6772 104.191 61.3211 103.883 61.1131C103.788 61.0469 103.303 61.3306 103.192 61.548C102.932 62.0586 102.789 62.6322 102.507 63.439C102.688 62.5943 102.672 61.8978 102.986 61.4188C103.281 60.965 104.169 60.3536 104.368 60.4828C104.949 60.8484 105.313 61.5512 105.589 62.2508C105.377 61.8537 105.212 62.0113 104.93 61.6709C104.784 61.4976 104.492 61.0595 104.235 60.9807C104.305 61.1509 104.292 61.1698 104.384 61.3274C104.936 62.2823 105.313 63.2782 105.145 64.4096C105.133 64.5042 105.145 64.6019 105.145 64.7973C105.259 64.6082 105.32 64.5105 105.38 64.4128C105.408 64.4317 105.437 64.4475 105.466 64.4664C105.339 64.6681 105.209 64.8666 105.091 65.0526L104.555 63.7352V63.7289ZM105.266 68.7777C105.215 67.2776 105.428 66.1682 106.322 65.3078C107.603 64.0787 107.746 62.2288 106.604 60.9019C106.049 60.259 105.529 59.4081 104.819 59.1339C104.143 58.8723 103.116 58.803 102.577 59.7926C102.488 59.9533 102.269 60.0384 102.114 60.1613L101.939 59.8682C102.748 59.3671 103.518 58.6139 104.384 58.4626C104.911 58.3681 105.741 59.0835 106.166 59.6508C106.709 60.3788 106.962 61.3337 107.384 62.1657C107.457 62.3107 107.755 62.3359 107.765 62.3422C107.632 63.1868 107.511 64.126 107.318 65.0526C107.251 65.3646 107.048 65.8499 106.836 65.894C105.621 66.143 105.564 67.1358 105.383 68.0749C105.358 68.2105 105.339 68.3491 105.269 68.7777H105.266ZM105.44 72.1594C105.497 71.4944 105.539 70.8294 105.618 70.1707C105.688 69.6003 105.761 69.0236 105.9 68.4657C106.024 67.9615 106.068 67.3028 106.905 67.5108C106.972 67.5266 107.061 67.5329 107.118 67.5014C107.346 67.3784 107.758 67.2461 107.762 67.1042C107.79 66.0138 109.442 65.5663 108.878 64.2615C108.843 64.1764 108.897 64.0189 108.96 63.9338C109.157 63.6627 109.382 63.4106 109.385 62.9914C109.319 63.0482 109.252 63.1017 109.182 63.1616C109.354 62.1311 109.522 61.1162 109.69 60.1014C109.788 60.1203 109.886 60.1393 109.988 60.1613C109.855 60.4607 109.718 60.757 109.56 61.1068C110.939 60.8673 111.05 60.0416 110.099 57.7787C110.971 58.2389 111.247 59.4648 110.796 60.6088C110.238 62.0302 109.807 63.502 109.192 64.895C108.244 67.0475 107.188 69.1528 106.173 71.2769C106.024 71.589 105.833 71.882 105.437 72.1625L105.44 72.1594ZM107.33 74.9832C106.683 73.8455 106.798 72.8401 107.251 71.9356C107.73 70.9807 108.269 70.0604 108.865 69.2379C110.124 67.5014 110.873 65.4812 111.003 63.045C111.018 62.733 111.088 62.4242 111.136 62.1153C111.145 62.0617 111.168 62.0144 111.24 61.8064C111.209 62.5817 111.183 63.1868 111.158 63.7919L111.244 63.8235C111.339 63.3633 111.434 62.9032 111.564 62.2697V63.7005C111.596 63.7068 111.631 63.7131 111.662 63.7195C111.814 62.8118 111.967 61.901 112.119 60.9933C112.087 64.3813 111.713 67.6211 110.048 70.3567C109.861 70.6655 109.839 71.1572 109.664 71.4913C109.414 71.9671 109.132 72.6668 108.795 72.7487C107.879 72.9725 107.267 73.4137 107.333 74.9895L107.33 74.9832ZM115.68 70.4229C115.125 72.005 114.573 73.606 112.775 74.7153C111.833 75.2952 111.183 76.1777 110.353 76.8868C109.677 77.4635 108.932 77.9867 108.199 78.5193C108.152 78.5539 107.863 78.4468 107.863 78.4405C108.037 77.889 108.196 77.3311 108.437 76.7954C108.545 76.5558 108.786 76.3352 109.03 76.1619C109.461 75.8562 109.918 75.5599 110.41 75.3204C110.755 75.1534 111.142 75.0746 110.796 74.6712C110.765 74.6365 110.796 74.5672 110.796 74.5136C110.86 74.5388 110.923 74.564 110.987 74.583C111.259 74.6712 111.532 74.7563 111.805 74.8414C111.833 74.7405 111.922 74.6176 111.878 74.5451C111.694 74.2363 111.662 74.0535 112.198 73.9684C112.35 73.9432 112.42 73.5965 112.458 73.5272C112.763 73.5934 113.118 73.773 113.324 73.6942C114.237 73.3475 114.06 72.6573 114.012 71.9608C113.892 72.0901 113.809 72.1814 113.724 72.2697C113.689 72.2571 113.654 72.2413 113.616 72.2287C114.12 71.3746 114.627 70.5237 115.151 69.635C115.141 69.635 115.316 69.6192 115.316 69.5972C115.331 69.1433 115.328 68.6863 115.328 68.0308C115.04 68.2766 114.979 68.3302 114.792 68.4909C114.646 67.6558 114.516 66.9152 114.386 66.1714L114.485 66.1588C114.583 66.7481 114.681 67.3343 114.78 67.9237C114.824 67.9237 114.868 67.9237 114.913 67.9237C114.868 67.3942 114.821 66.8679 114.77 66.2911C115.379 67.6558 116.175 68.992 115.677 70.4134L115.68 70.4229Z" fill="#9A4173"/>
<path d="M93.2939 68.0592H93.2971C93.3415 67.9898 93.3859 67.9142 93.4112 67.8732C93.1163 67.4541 92.6787 67.079 92.5804 66.6315C92.3584 65.6514 92.3045 64.6334 92.1903 63.628C92.1015 62.8559 92.2633 61.9293 91.889 61.34C91.0931 60.0888 91.1755 58.9227 91.6322 57.6526C91.7305 57.3785 92.0286 56.9814 92.4091 56.5654C91.3848 56.9751 90.3383 58.3113 90.5 59.2789C90.7506 60.7885 91.0931 62.3075 91.1121 63.8234C91.1343 65.4938 91.1628 67.0002 92.5614 68.2577C93.1417 68.7809 93.2907 69.7831 93.6237 70.5458C93.8679 70.4008 93.7823 68.7242 93.2971 68.0529L93.2939 68.0592Z" fill="#B68CBB"/>
<path d="M93.4055 71.1225C93.1327 71.8757 93.7797 73.8234 95.0355 74.8918C95.1845 75.0179 95.6127 74.6365 95.8378 74.3655C95.9076 74.2804 95.8029 73.6658 95.6571 73.502C94.9245 72.6668 94.1539 71.901 93.4055 71.1225Z" fill="#B68CBB"/>
<path d="M100.398 77.2366C100.566 77.3816 100.639 77.454 100.718 77.5076C100.94 77.6589 101.162 77.8039 101.384 77.9488C101.267 77.5864 101.216 77.016 101.022 76.8931C99.5764 75.9791 98.5077 73.6942 96.6271 74.3813C96.348 74.4821 96.1451 74.999 95.9072 75.3236C96.1673 75.5379 96.4146 75.8215 96.6937 75.9539C97.0394 76.1178 97.4485 76.0642 97.7751 76.2754C98.6821 76.8615 99.5574 77.536 100.445 78.1758C100.709 78.5729 100.969 78.97 101.232 79.3639C101.314 79.2441 101.397 79.1244 101.482 79.0046C101.191 78.5823 100.896 78.1568 100.604 77.7345C100.553 77.6085 100.499 77.4824 100.395 77.2334L100.398 77.2366Z" fill="#B68CBB"/>
<path d="M100.293 66.288C99.9381 65.4717 99.694 64.605 99.3134 63.8014C98.7426 62.6006 98.5333 59.0456 99.0565 57.3816L99.5005 55.3551C100.16 53.8644 101.819 53.5556 103.106 52.9032C103.531 52.6858 106.465 52.2603 108.688 53.5272C108.979 53.6691 109.265 53.8487 109.538 54.0725C109.5 54.0189 109.37 53.8235 109.097 53.4138C109.582 53.6123 109.858 53.7258 110.093 53.8203C108.367 52.1122 106.198 51.86 103.674 52.2319L102.973 52.1185C100.74 52.0113 99.9699 52.2193 97.8166 52.7204C97.0174 52.9064 96.2817 53.1806 95.9392 54.0441C95.7965 54.4034 95.6125 54.7437 95.4318 55.0873C95.5206 55.4308 95.6633 55.7932 95.9138 56.1115C96.0026 56.1809 96.0851 56.266 96.1612 56.3637C96.1517 56.3637 96.1453 56.3574 96.1358 56.3542C96.158 56.3731 96.177 56.392 96.1992 56.4109C96.4434 56.7418 96.5893 57.1673 96.4751 57.4446C96.1421 58.2546 95.7679 59.0488 95.4254 59.8556C94.6707 61.6299 94.2235 63.4862 95.1844 65.2637C96.0882 66.9404 97.2584 68.4752 98.3303 70.0604C98.6665 70.5615 99.0597 71.0248 99.4276 71.5039C98.9614 71.4723 98.5301 71.3431 98.3271 71.0563C97.4297 69.7799 96.5481 68.4846 95.7552 67.1421C95.0227 65.9035 93.7193 64.9044 93.9096 63.3885C93.6749 63.9527 93.6717 64.5893 94.2235 65.2763C94.7278 65.9035 95.01 66.7071 95.4096 67.4194C95.6664 67.8764 95.9487 68.3208 96.2373 68.7588C96.3927 68.9983 96.5481 69.2536 96.7637 69.4364C97.2965 69.8871 97.8578 70.2464 97.9022 71.0878C97.9498 71.9419 99.177 72.6258 99.7479 72.194C99.9033 72.3705 100.059 72.5439 100.217 72.7204C100.335 72.3201 100.35 71.882 100.144 71.6173C99.269 70.4922 98.2827 69.4553 97.4202 68.3208C95.8979 66.3227 95.1812 64.189 96.2341 61.6741C96.8366 60.2401 97.2077 58.7053 97.6358 57.202C97.9117 56.2313 97.4709 55.5568 96.7257 55.6577C96.491 55.6892 96.2373 55.6136 95.9931 55.5884C96.1643 55.3835 96.3102 55.1534 96.51 54.9833C96.7922 54.7437 97.1094 54.542 97.4233 54.3403C97.6104 54.2206 97.8134 54.0977 98.0227 54.063C98.0956 54.0504 98.213 54.3025 98.3367 54.4727C98.1559 54.4885 98.0703 54.4948 97.8958 54.5105C98.5523 54.8793 99.1358 55.207 98.8155 56.039C98.6094 56.5748 98.4096 57.1169 98.232 57.6653C98.1686 57.8575 98.1813 58.075 98.1559 58.3208C98.2605 58.242 98.3208 58.1947 98.4318 58.1128C98.4191 58.3082 98.4223 58.4532 98.4001 58.5918C98.1686 60.1361 97.9276 61.6804 97.7024 63.2246C97.5882 64.0094 97.7214 64.6681 98.4064 65.2322C98.9455 65.6766 99.3863 66.2754 99.7637 66.8742C100.16 67.4982 100.404 68.2136 100.769 68.8597C100.893 69.0803 101.172 69.2158 101.394 69.3702C101.41 69.3828 101.606 69.2284 101.597 69.178C101.543 68.929 101.467 68.68 101.359 68.4531C101.013 67.7283 100.62 67.0223 100.303 66.288H100.293Z" fill="#B68CBB"/>
<path d="M104.869 55.2102C105.475 55.2259 106.116 55.4623 106.68 55.3362C107.419 55.1692 107.98 55.2795 108.456 55.8121C108.875 56.2817 109.249 56.7891 109.601 57.2272C109.924 56.6536 108.824 54.7627 107.911 54.7028C107.045 54.6492 106.176 54.6429 105.307 54.6523C104.587 54.6586 103.785 55.7113 104.207 56.0926C104.73 56.5685 105.472 56.8112 106.132 57.1295C106.198 57.161 106.363 57.0381 106.455 56.9562C106.737 56.704 107.007 56.433 107.327 56.1273C107.181 56.1147 106.661 55.9508 106.563 56.0895C106.011 56.8458 105.418 56.6347 104.825 56.2534C104.641 56.1336 104.517 55.831 104.492 55.5978C104.479 55.4749 104.739 55.2039 104.873 55.207L104.869 55.2102Z" fill="#B68CBB"/>
<path d="M101.26 64.0945C101.203 63.5871 101.152 63.0765 101.165 62.5723C100.851 62.3611 100.794 61.8159 100.848 61.1761C100.153 62.4998 100.249 63.8455 100.991 65.2227C101.162 65.5411 101.095 65.9823 101.238 66.329C101.546 67.079 101.914 67.8039 102.256 68.5414C102.373 68.4941 102.491 68.45 102.611 68.4027C102.358 67.5045 102.12 66.6 101.841 65.7112C101.669 65.1629 101.317 64.6492 101.257 64.0976L101.26 64.0945Z" fill="#B68CBB"/>
<path d="M105.377 64.4065C105.317 64.5042 105.257 64.6019 105.142 64.791C105.142 64.5956 105.13 64.4979 105.142 64.4033C105.31 63.2719 104.933 62.276 104.381 61.3211C104.289 61.1635 104.302 61.1446 104.232 60.9744C104.492 61.0564 104.784 61.4913 104.927 61.6646C105.209 62.005 105.374 61.8474 105.586 62.2445C105.31 61.5449 104.946 60.8421 104.365 60.4765C104.166 60.3504 103.278 60.9587 102.983 61.4125C102.669 61.8947 102.685 62.588 102.504 63.4327C102.786 62.6258 102.929 62.0523 103.189 61.5417C103.3 61.3211 103.785 61.0406 103.88 61.1068C104.188 61.3148 104.391 61.6741 104.721 62.0775C104.391 62.0775 104.289 62.0617 104.194 62.0806C104.093 62.0995 103.998 62.1531 103.902 62.1909C103.966 62.2886 104.02 62.4651 104.09 62.4714C104.638 62.5124 105.13 63.2057 104.993 63.7226H104.553L105.088 65.04C105.206 64.854 105.336 64.6555 105.463 64.4538C105.434 64.4349 105.406 64.4191 105.377 64.4002V64.4065Z" fill="#B68CBB"/>
<path d="M106.829 65.894C107.042 65.8499 107.244 65.3646 107.311 65.0526C107.505 64.1292 107.625 63.1868 107.758 62.3422C107.749 62.3391 107.451 62.3138 107.378 62.1657C106.956 61.3337 106.702 60.3788 106.16 59.6508C105.738 59.0835 104.907 58.3681 104.378 58.4626C103.509 58.617 102.741 59.3703 101.933 59.8682L102.107 60.1613C102.266 60.0416 102.484 59.9565 102.57 59.7926C103.112 58.7998 104.14 58.8723 104.812 59.1339C105.522 59.4081 106.043 60.259 106.598 60.9019C107.739 62.2288 107.597 64.0787 106.315 65.3078C105.421 66.1651 105.209 67.2776 105.259 68.7777C105.329 68.3491 105.348 68.2105 105.373 68.0749C105.554 67.1389 105.611 66.143 106.826 65.894H106.829Z" fill="#B68CBB"/>
<path d="M110.797 60.6057C111.247 59.4617 110.971 58.2357 110.099 57.7756C111.05 60.0384 110.939 60.8641 109.56 61.1036C109.718 60.757 109.852 60.4576 109.988 60.1582C109.89 60.1393 109.791 60.1204 109.69 60.0983C109.522 61.1131 109.354 62.1311 109.183 63.1585C109.252 63.1017 109.319 63.045 109.385 62.9883C109.382 63.4075 109.16 63.6596 108.961 63.9306C108.897 64.0157 108.843 64.1733 108.878 64.2584C109.443 65.5631 107.79 66.0107 107.762 67.1011C107.759 67.2398 107.346 67.3753 107.118 67.4982C107.061 67.5297 106.972 67.5234 106.906 67.5077C106.068 67.2997 106.024 67.9583 105.9 68.4626C105.764 69.0204 105.688 69.594 105.618 70.1676C105.539 70.8294 105.498 71.4944 105.44 72.1562C105.837 71.8758 106.027 71.5827 106.176 71.2706C107.194 69.1496 108.247 67.0412 109.195 64.8887C109.81 63.4957 110.245 62.0239 110.8 60.6025L110.797 60.6057Z" fill="#B68CBB"/>
<path d="M108.789 72.7424C109.129 72.6605 109.408 71.9577 109.658 71.4849C109.833 71.1509 109.855 70.6624 110.042 70.3504C111.704 67.6148 112.078 64.375 112.113 60.987C111.961 61.8947 111.808 62.8055 111.656 63.7131C111.624 63.7068 111.59 63.7005 111.558 63.6942V62.2634C111.428 62.9 111.333 63.357 111.238 63.8172L111.152 63.7856C111.177 63.1805 111.203 62.5754 111.234 61.8001C111.165 62.0081 111.139 62.0554 111.13 62.109C111.082 62.4178 111.012 62.7267 110.997 63.0387C110.87 65.4749 110.118 67.495 108.859 69.2316C108.263 70.0541 107.724 70.9744 107.245 71.9293C106.791 72.8338 106.68 73.836 107.324 74.9769C107.258 73.4011 107.87 72.9599 108.786 72.7361L108.789 72.7424Z" fill="#B68CBB"/>
<path d="M114.913 67.93C114.869 67.93 114.824 67.93 114.78 67.93C114.682 67.3406 114.583 66.7544 114.485 66.1651L114.387 66.1777C114.517 66.9183 114.647 67.6589 114.793 68.4973C114.98 68.3365 115.04 68.2861 115.328 68.0371C115.328 68.6927 115.332 69.1465 115.316 69.6035C115.316 69.6255 115.145 69.6444 115.151 69.6413C114.624 70.53 114.12 71.381 113.616 72.235C113.651 72.2476 113.686 72.2634 113.724 72.276C113.806 72.1878 113.889 72.0964 114.012 71.9671C114.06 72.6636 114.238 73.3538 113.324 73.7005C113.121 73.7793 112.766 73.5965 112.458 73.5335C112.42 73.6028 112.351 73.9495 112.198 73.9747C111.666 74.0598 111.694 74.2426 111.878 74.5514C111.923 74.6239 111.834 74.7468 111.805 74.8477C111.532 74.7626 111.26 74.6775 110.987 74.5893C110.924 74.5672 110.86 74.542 110.797 74.5199C110.797 74.5735 110.765 74.6397 110.797 74.6775C111.142 75.0841 110.755 75.1597 110.41 75.3267C109.918 75.5663 109.462 75.8625 109.03 76.1682C108.786 76.3415 108.545 76.5622 108.437 76.8017C108.196 77.3374 108.038 77.8953 107.863 78.4468C107.863 78.45 108.152 78.5571 108.199 78.5256C108.929 77.993 109.677 77.4698 110.353 76.8931C111.184 76.184 111.834 75.3047 112.776 74.7216C114.574 73.6123 115.125 72.0113 115.68 70.4292C116.182 69.0078 115.382 67.6715 114.773 66.3069C114.824 66.8805 114.869 67.41 114.916 67.9394L114.913 67.93Z" fill="#B68CBB"/>
<path d="M122.851 75.2731C121.706 74.605 120.561 73.9369 119.156 73.1175C120.276 74.4537 121.36 75.2353 122.851 75.2731Z" fill="#C3CE87"/>
<path d="M118.956 60.4513C119.66 61.4787 120.37 62.5124 121.081 63.5461C120.618 61.3684 120.091 60.6656 118.956 60.4513Z" fill="#C3CE87"/>
<path d="M119.937 69.2253C121.953 70.2401 122.115 72.2035 122.442 74.0819C122.99 71.4786 122.236 69.7043 119.937 69.2253Z" fill="#C3CE87"/>
<path d="M113.2 56.2786C113.445 55.8878 113.686 55.5001 113.958 55.0652C114.764 55.7775 115.509 56.433 116.251 57.0885C116.324 57.0286 116.394 56.9688 116.467 56.9089C116.47 56.9089 116.476 56.9089 116.48 56.9089C116.48 56.9057 116.48 56.9026 116.48 56.8994C116.489 56.89 116.502 56.8805 116.511 56.8711C116.495 56.8553 116.476 56.8364 116.461 56.8206C116.324 56.2218 115.782 54.5011 115.68 53.9748C116.495 54.3214 117.846 54.8446 119.067 55.519C118.925 55.3016 118.782 55.0841 118.636 54.873C117.961 53.8865 117.146 52.9978 116.159 51.7813C116.375 51.8191 116.597 51.8348 116.809 51.8474L116.692 51.7151C116.124 51.5102 115.712 51.4787 115.569 51.6079C116.391 52.3674 117.073 53.5272 117.872 54.2679C117.792 54.3057 117.805 54.416 117.704 54.5389C116.851 53.9842 115.912 53.4768 114.907 52.8244C115.186 53.7447 115.316 55.0148 115.544 55.8972C114.986 55.3299 114.402 54.7406 113.765 54.0914C113.48 54.7816 113.213 55.4339 112.944 56.0863L112.928 56.162C113.017 56.2029 113.108 56.2439 113.197 56.2849L113.2 56.2786Z" fill="#C3CE87"/>
<path d="M120.568 58.1254C120.552 58.0813 120.533 58.0403 120.514 57.9962C119.632 57.7913 118.659 57.5613 118.478 57.5676C116.902 57.6243 115.303 58.3649 115.383 59.8903C115.535 62.7866 115.922 63.9999 116.366 67.1956C116.413 67.5455 116.8 69.2 116.746 69.6759C118.221 71.403 116.886 73.8612 117.301 75.2007C117.79 76.7607 118.135 76.288 118.64 77.8417C120.105 82.3421 122.486 87.1641 124.002 91.6456C124.037 91.7528 124.142 91.8379 124.215 91.9324C124.351 91.9166 124.487 91.9009 124.624 91.8851C124.462 90.3062 124.313 88.7241 124.135 87.1483C123.704 83.3128 124.189 79.282 124.326 75.4181C124.453 71.7402 124.614 68.2104 123.469 64.5073C122.765 62.2287 121.408 60.3063 120.561 58.1254H120.568ZM116.613 59.802C116.632 59.4301 117.679 59.0866 118.113 58.9763C118.938 58.7652 120.609 59.988 121.037 61.1856C121.427 62.2697 121.963 63.3034 122.499 64.501C120.974 65.2858 119.778 66.4204 118.088 66.0201C117.691 65.9256 117.14 65.4465 117.102 65.0967C116.94 63.628 116.537 61.277 116.613 59.802ZM122.914 84.939C122.68 84.8098 122.328 84.7342 122.236 84.5388C121.973 83.9747 121.817 83.3633 121.621 82.7708C121.678 82.7518 121.735 82.7329 121.795 82.7109C122.169 83.212 122.572 83.691 122.899 84.2205C123.006 84.397 122.918 84.6964 122.918 84.939H122.914ZM122.987 80.7222C122.639 80.5678 122.29 80.4134 121.76 80.177C122.439 81.258 123.463 82.0806 122.93 83.8139C121.976 82.38 121.192 81.2013 120.406 80.0194L120.739 79.5908C121.535 79.824 122.331 80.0572 123.127 80.2905C123.079 80.4323 123.035 80.5741 122.987 80.7191V80.7222ZM123.121 79.1937C122.236 79.159 121.446 79.1653 120.669 79.0739C120.457 79.0487 120.184 78.7619 120.105 78.535C119.807 77.6746 119.578 76.7922 119.315 75.8814C120.682 76.039 121.9 76.1808 123.247 76.3352C123.209 77.2208 123.165 78.2073 123.121 79.1906V79.1937ZM123.482 72.8149C123.425 73.4169 123.45 74.0283 123.355 74.6208C123.317 74.8571 123.076 75.0588 122.914 75.2763C122.914 75.2763 122.914 75.2763 122.911 75.2763C122.905 75.2826 122.899 75.2921 122.895 75.2984C122.889 75.2952 122.883 75.2921 122.88 75.2889C120.745 76.1619 118.513 74.7878 118.449 72.5691C118.437 72.1625 118.389 71.7213 118.224 71.3589C117.78 70.385 118.145 69.6507 118.839 69.0141C119.547 68.368 120.355 68.3523 121.205 68.7588C123.019 69.6255 123.676 70.7947 123.482 72.8118V72.8149ZM117.783 69.2883C117.587 68.3081 117.431 67.5329 117.327 67.0002C119.182 66.4708 120.882 65.9886 122.883 65.4181C123.121 66.7071 123.393 68.1789 123.666 69.6507C121.801 68.2073 120.133 66.5338 117.783 69.2883Z" fill="#C3CE87"/>
<path d="M126.612 72.3737C126.18 69.2662 125.34 66.2155 124.703 63.1333C124.271 61.0469 123.567 59.0898 122.105 57.473C121.065 56.3227 120.066 55.1314 118.998 54.0157C119.001 54.0189 119.007 54.022 119.01 54.0252C117.551 52.2414 114.298 48.9417 113.571 46.9877C113.365 46.994 113.369 46.994 113.159 47.0003C112.937 47.681 112.566 48.3523 112.528 49.0457C112.427 50.7601 112.503 52.4809 112.462 54.1985C112.433 55.3993 112.249 56.6 112.3 57.7945C112.322 58.3145 112.877 58.7967 112.975 59.3356C113.128 60.1519 113.023 61.0122 113.156 61.8348C113.981 66.9719 114.764 72.1153 115.718 77.2271C116.283 80.2558 117.31 83.1805 119.042 85.7679C120.656 88.182 122.346 90.5426 123.567 93.2309C123.831 93.8108 124.649 93.8045 124.915 93.2277C124.915 93.2214 124.921 93.2151 124.925 93.2088C128.131 86.4707 127.592 79.4238 126.609 72.38L126.612 72.3737ZM124.332 75.415C124.198 79.2788 123.713 83.3065 124.141 87.1452C124.319 88.7241 124.468 90.303 124.63 91.882C124.493 91.8977 124.357 91.9135 124.221 91.9293C124.148 91.8347 124.046 91.7496 124.008 91.6425C122.492 87.1578 120.107 82.3358 118.646 77.8385C118.141 76.2848 117.796 76.7575 117.307 75.1975C116.889 73.8612 118.224 71.403 116.752 69.6728C116.803 69.1969 116.419 67.5423 116.372 67.1925C115.928 63.9968 115.541 62.7834 115.389 59.8871C115.309 58.3618 116.908 57.6211 118.484 57.5644C118.665 57.5581 119.638 57.7882 120.52 57.993C120.539 58.0371 120.558 58.0781 120.574 58.1222C121.42 60.3031 122.778 62.2256 123.482 64.5042C124.627 68.2073 124.465 71.7339 124.338 75.415H124.332ZM112.947 56.08C113.213 55.4308 113.483 54.7784 113.768 54.0851C114.409 54.7343 114.989 55.3236 115.547 55.8909C115.319 55.0085 115.186 53.7352 114.91 52.8181C115.915 53.4705 116.854 53.9811 117.707 54.5326C117.808 54.4097 117.796 54.2994 117.875 54.2616C117.076 53.5209 116.391 52.3611 115.573 51.6016C115.712 51.4724 116.124 51.5039 116.695 51.7088C116.813 51.7497 116.936 51.8002 117.066 51.8569C116.984 51.8506 116.898 51.8474 116.813 51.8411C116.6 51.8285 116.378 51.8128 116.162 51.775C117.149 52.9915 117.964 53.8802 118.639 54.8667C118.785 55.081 118.928 55.2953 119.07 55.5127C117.85 54.8383 116.499 54.3151 115.684 53.9685C115.785 54.4948 116.327 56.2155 116.464 56.8143C116.48 56.8301 116.499 56.849 116.514 56.8648C116.505 56.8742 116.492 56.8837 116.483 56.8931C116.483 56.8963 116.483 56.8994 116.483 56.9026C116.48 56.9026 116.473 56.9026 116.47 56.9026C116.397 56.9625 116.327 57.0223 116.254 57.0822C115.512 56.4267 114.77 55.7712 113.962 55.0589C113.689 55.4938 113.448 55.8846 113.204 56.2723C113.115 56.2313 113.023 56.1903 112.934 56.1494C112.931 56.1494 112.925 56.1462 112.921 56.143C112.931 56.121 112.94 56.0958 112.95 56.0737L112.947 56.08Z" fill="#86A687"/>
<path d="M121.204 68.7588C120.355 68.3523 119.546 68.368 118.839 69.0141C118.144 69.6476 117.779 70.385 118.223 71.3589C118.388 71.7213 118.436 72.1625 118.449 72.5691C118.512 74.791 120.748 76.1651 122.879 75.2889C122.885 75.2921 122.892 75.2952 122.895 75.2984C122.901 75.2889 122.907 75.2826 122.911 75.2763C122.911 75.2763 122.911 75.2763 122.914 75.2763C123.076 75.0588 123.317 74.8571 123.355 74.6208C123.45 74.0283 123.424 73.4169 123.481 72.8149C123.675 70.7979 123.015 69.6287 121.204 68.762V68.7588ZM119.156 73.1143C120.561 73.9337 121.709 74.605 122.85 75.27C121.36 75.229 120.275 74.4474 119.156 73.1143ZM122.441 74.0787C122.118 72.2004 121.956 70.2369 119.936 69.2221C122.235 69.7012 122.987 71.4755 122.441 74.0787Z" fill="#86A687"/>
<path d="M118.091 66.017C119.778 66.4204 120.977 65.2826 122.502 64.4979C121.966 63.3003 121.43 62.2666 121.04 61.1824C120.612 59.9848 118.941 58.762 118.116 58.9732C117.682 59.0835 116.635 59.427 116.616 59.7989C116.543 61.2738 116.946 63.6249 117.105 65.0935C117.143 65.4434 117.698 65.9224 118.091 66.017ZM121.081 63.543C120.371 62.5092 119.661 61.4755 118.957 60.4481C120.095 60.6624 120.621 61.3652 121.081 63.543Z" fill="#86A687"/>
<path d="M117.329 67.0002C117.437 67.5329 117.589 68.305 117.786 69.2883C120.136 66.5307 121.804 68.2073 123.668 69.6507C123.396 68.1789 123.123 66.7071 122.885 65.4182C120.884 65.9886 119.184 66.4708 117.329 67.0002Z" fill="#86A687"/>
<path d="M120.107 78.535C120.183 78.7588 120.459 79.0487 120.672 79.074C121.448 79.1653 122.238 79.159 123.123 79.1937C123.167 78.2073 123.209 77.224 123.25 76.3384C121.902 76.1808 120.684 76.0421 119.317 75.8846C119.581 76.7954 119.812 77.6778 120.107 78.5382V78.535Z" fill="#86A687"/>
<path d="M120.405 80.0226C121.192 81.2013 121.975 82.3831 122.93 83.8171C123.466 82.0837 122.438 81.2612 121.759 80.1802C122.286 80.4134 122.635 80.5678 122.987 80.7254C123.034 80.5836 123.079 80.4417 123.126 80.2968C122.33 80.0636 121.534 79.8303 120.738 79.5971L120.405 80.0257V80.0226Z" fill="#86A687"/>
<path d="M121.795 82.7077C121.737 82.7266 121.68 82.7456 121.62 82.7676C121.817 83.3601 121.975 83.9715 122.235 84.5356C122.327 84.731 122.679 84.8067 122.914 84.9359C122.914 84.6932 123.006 84.3938 122.895 84.2173C122.568 83.6879 122.166 83.2088 121.791 82.7077H121.795Z" fill="#86A687"/>
<path d="M116.337 100.921C116.794 101.702 118.449 102.588 119.128 102.307C123.346 100.568 127.985 99.1747 131.394 96.3635C134.223 94.0314 136.205 90.1171 137.375 86.5211C138.688 82.4934 138.384 77.9583 138.942 73.6879C138.942 71.6866 138.761 70.3472 138.527 68.6391C137.93 66.7891 137.895 64.2993 136.633 63.2089C133.24 60.2685 128.727 59.6917 124.992 61.9325C121.078 64.2804 121.662 68.4846 123.06 72.3642C123.653 74.0094 124.652 75.6734 124.662 77.3311C124.681 81.7906 124.452 86.2533 124.161 90.7096C123.466 92.3011 123.14 92.3673 122.857 92.2602C122.651 92.1688 122.445 92.0805 122.239 91.9891C122.34 91.5542 122.439 91.1225 122.581 90.5079C121.027 91.8599 119.629 93.8769 118.833 95.8152C118.83 95.7994 118.827 95.7805 118.82 95.7647C118.268 96.7386 117.834 97.4382 117.469 98.1725C117.013 99.0991 116.023 100.401 116.328 100.924L116.337 100.921ZM129.013 97.7628C129.013 97.7628 129.016 97.7628 129.019 97.7628C129.019 97.7754 129.016 97.7723 129.013 97.7628ZM124.015 68.138C123.806 67.1389 124.392 65.976 124.468 65.623C125.052 68.2703 125.746 71.4093 126.441 74.5514C126.802 74.4821 127.161 74.4128 127.522 74.3434C127.145 71.6362 126.758 68.929 126.403 66.2155C126.346 65.7711 126.412 65.311 126.425 64.8603C126.837 65.1944 127.446 65.4497 127.624 65.8814C128.011 66.8206 128.34 67.8386 128.41 68.8408C128.835 74.9801 129.181 81.1256 129.549 87.1924C129.875 84.293 130.548 81.1193 130.516 77.952C130.472 73.6469 129.882 69.3482 129.561 65.0431C129.546 64.8446 129.986 64.4286 130.005 64.4412C130.548 64.7815 131.455 65.103 131.524 65.5474C132.102 69.2032 132.574 72.8779 132.961 76.559C133.066 77.5644 132.777 78.6075 132.669 79.6349C133.062 79.6854 133.456 79.7326 133.849 79.7831C134.464 75.5757 135.083 71.3652 135.599 67.8323C139.145 71.9703 135.339 92.5312 129.644 94.4789C129.647 93.9526 129.653 93.4735 129.657 92.9945C129.558 92.9819 129.444 92.9409 129.368 92.9787C128.394 93.4672 127.43 93.9652 126.46 94.4631C126.479 93.2907 126.174 91.9923 126.568 90.9617C128.613 85.6135 128.344 80.426 126.155 75.1818C125.214 72.9252 124.525 70.53 124.028 68.1348L124.015 68.138ZM122.499 96.0704C123 95.5914 123.733 95.3487 124.38 95.0178C124.56 95.3992 124.76 96.1146 124.922 96.1051C125.404 96.0767 125.886 95.998 126.441 95.8876C125.375 96.7449 124.319 97.7849 123.235 97.5265C122.87 97.4414 122.372 96.1965 122.502 96.0704H122.499ZM121.399 94.5734C121.446 96.5085 123.682 99.2882 119.67 99.5277C119.594 99.1874 119.518 98.8501 119.442 98.5066C120.187 97.0695 121.138 95.3235 121.399 94.5734Z" fill="#9A4173"/>
<path d="M121.398 94.5734C121.141 95.3267 120.187 97.0726 119.441 98.5066C119.518 98.847 119.594 99.1874 119.67 99.5277C123.678 99.2882 121.446 96.5085 121.398 94.5734Z" fill="#B68CBB"/>
<path d="M123.231 97.5265C124.316 97.7849 125.372 96.7449 126.438 95.8876C125.883 95.9979 125.401 96.0767 124.919 96.1051C124.76 96.1146 124.56 95.3991 124.376 95.0178C123.729 95.3487 122.997 95.5914 122.496 96.0704C122.366 96.1965 122.864 97.4414 123.228 97.5265H123.231Z" fill="#B68CBB"/>
<path d="M129.02 97.7628C129.02 97.7628 129.016 97.7628 129.013 97.7628C129.013 97.7741 129.016 97.7779 129.02 97.7628Z" fill="#B68CBB"/>
<path d="M126.555 90.9617C126.161 91.9923 126.463 93.2876 126.447 94.4631C127.414 93.9652 128.381 93.4672 129.355 92.9787C129.431 92.9409 129.545 92.9819 129.643 92.9945C129.64 93.4735 129.634 93.9557 129.631 94.4789C135.326 92.5312 139.132 71.9671 135.586 67.8323C135.069 71.3652 134.454 75.5757 133.836 79.7831C133.443 79.7326 133.049 79.6854 132.656 79.6349C132.764 78.6075 133.056 77.5612 132.948 76.559C132.561 72.878 132.088 69.2032 131.511 65.5474C131.441 65.103 130.534 64.7815 129.992 64.4412C129.973 64.4286 129.532 64.8446 129.548 65.0431C129.872 69.3482 130.458 73.6469 130.503 77.952C130.534 81.1193 129.862 84.2961 129.536 87.1924C129.168 81.1256 128.822 74.9801 128.397 68.8408C128.327 67.8354 127.997 66.8206 127.611 65.8814C127.433 65.4497 126.824 65.1975 126.412 64.8603C126.402 65.311 126.333 65.7711 126.39 66.2155C126.748 68.9259 127.132 71.6331 127.509 74.3434C127.148 74.4128 126.789 74.4821 126.428 74.5514C125.733 71.4125 125.042 68.2735 124.455 65.623C124.382 65.976 123.796 67.1389 124.002 68.138C124.5 70.5332 125.185 72.9284 126.13 75.1849C128.321 80.426 128.587 85.6166 126.542 90.9649L126.555 90.9617Z" fill="#B68CBB"/>
<path d="M66.3384 73.8171L66.2781 82.588C66.0879 98.535 66.1576 105.626 66.2781 114.993C66.3447 120.136 69.6175 119.194 98.698 119.855H105.434C131.086 119.855 138.881 120.593 138.881 115.232C138.881 108.995 138.999 99.9437 138.945 93.8738C138.903 89.2725 138.945 84.6176 138.945 81.9734L138.938 73.8171L135.161 75.8247L132.05 73.9432L129.561 76.0705L125.102 74.3844L121.014 75.8247L118.465 74.2804L113.898 75.9791L110.666 74.0976L105.776 75.6135L102.291 74.044L98.6061 75.4496L94.8893 74.044L91.6356 75.8215L88.7307 73.9968L85.8798 75.3015L82.9717 74.044L78.4178 75.4118L74.4537 73.8392L70.8543 75.6576L66.3384 73.8171Z" fill="#4C352B"/>
<path d="M108.136 91.0941L109.528 104.851L114.187 101.195L124.474 111.655L129.995 106.326L119.07 97.164L123.294 91.6046L108.136 91.0941Z" fill="#FCF6DE"/>
<path d="M73.2871 83.9684V86.6882L101.933 86.1398V84.4537L73.2871 83.9684Z" fill="#DFAF62"/>
<path d="M101.933 92.3011V89.8902L73.2871 90.3755V91.8725L101.933 92.3011Z" fill="#DFAF62"/>
<path d="M73.2871 95.8435V98.2576L101.933 97.7723V96.2753L73.2871 95.8435Z" fill="#DFAF62"/>
</g>
<defs>
<clipPath id="clip0_333_1641">
<rect width="142" height="103" fill="white" transform="translate(32 44)"/>
</clipPath>
</defs>
</svg>
