<svg width="204" height="199" viewBox="0 0 204 199" fill="none" xmlns="http://www.w3.org/2000/svg">
<path d="M158.487 184.631C195.975 163.539 207.974 124.495 202.418 84.3636C202.8 65.6166 188.302 50.0167 181.108 33.3156C159.934 -12.4713 96.8155 -1.66353 57.4167 10.8844C19.5743 24.3091 -4.43906 92.6972 0.687148 129.498C3.28779 143.46 11.0897 157.129 18.0111 168.787C27.4649 179.289 43.8333 183.122 55.5055 191.381C59.7375 189.627 70.065 195.779 76.5973 195.684C104.454 199.932 133.743 201.285 158.494 184.638L158.487 184.631Z" fill="#EBC194"/>
<g clip-path="url(#clip0_638_7696)">
<path d="M76.4327 64.221C76.4327 64.221 76.4327 64.3226 76.5194 64.3661C78.6588 65.614 80.2778 67.3697 81.5499 69.4737C82.4317 70.9537 83.0821 72.5499 83.7905 74.117C84.5277 75.7566 85.1926 77.4398 85.7853 79.1375C86.4936 81.1544 87.2597 83.1423 87.7946 85.2172C87.8524 85.4349 87.9247 85.5074 88.1849 85.4349C88.8065 85.2607 89.3847 85.0141 89.9629 84.7384C91.7264 83.8823 93.4611 82.9827 95.1524 81.996C95.6149 81.7348 96.0341 81.4301 96.4823 81.1399C96.6268 81.0528 96.7569 80.9222 96.9448 81.0238C97.2339 81.7928 97.4941 82.5764 97.4363 83.4034C97.4797 83.6211 97.4074 83.8097 97.3351 84.0129C96.9882 84.869 96.4678 85.609 95.8607 86.291C95.7306 86.4361 95.6583 86.6537 95.4126 86.6973C95.1813 86.7698 94.95 86.8859 94.7042 86.9004C94.2128 86.9439 93.967 87.2922 93.6635 87.5824C93.6056 87.6404 93.5623 87.713 93.6201 87.7855C93.6635 87.8436 93.7357 87.8436 93.7936 87.8C94.1549 87.6114 94.5741 87.5824 94.9066 87.3647C96.6991 86.6537 98.5349 86.0733 100.342 85.4204C100.501 85.3768 100.573 85.551 100.703 85.5655C101.31 86.2619 101.715 87.0745 102.048 87.9451C102.25 88.4675 102.438 88.9899 102.64 89.5122C102.64 89.7444 102.727 89.9475 102.452 90.1652C99.5468 92.4723 96.4823 94.5618 93.2298 96.3465C92.0156 97.014 90.7724 97.6089 89.4425 98.0297C87.9102 98.523 86.4792 98.3634 85.077 97.5654C83.6748 96.7673 82.3449 95.8822 81.2752 94.6488C80.2923 93.5025 79.4972 92.2256 78.76 90.9197C78.4998 90.4554 78.2396 89.9911 77.9505 89.5412C78.3263 90.4699 78.7889 91.355 79.2804 92.2256C80.3935 94.17 81.8101 95.8386 83.6748 97.101C83.8483 97.2171 83.9061 97.3332 83.9206 97.5508C83.9784 99.4226 84.0507 101.294 84.1229 103.166C84.1374 103.645 84.0796 104.124 84.1229 104.617C84.1663 105.038 83.8194 105.386 83.3713 105.502C83.2412 105.531 83.0822 105.473 82.981 105.618C82.5184 105.473 82.0558 105.589 81.5933 105.618C80.3645 105.662 79.1214 105.677 77.8927 105.691C74.1921 105.72 70.506 105.778 66.8054 105.56C66.0248 105.517 65.2443 105.56 64.4781 105.459C63.9577 105.401 63.4373 105.401 62.9314 105.357C62.3821 105.299 61.8328 105.125 61.269 105.328C61.2546 105.125 61.0811 105.183 60.9655 105.169C60.0114 104.995 59.8669 104.82 59.8669 103.834C59.838 99.8434 59.6645 95.8532 59.491 91.8629C59.332 88.0322 59.0863 84.216 59.014 80.3853C58.9706 78.0927 59.0574 75.8001 59.4621 73.5366C60.0114 70.4459 60.9799 67.5148 62.8591 64.932C63.9144 63.4955 65.2009 62.3492 66.791 61.5221C67.4993 61.1449 68.2365 60.8547 69.0749 61.0723C69.523 61.4641 70.0434 61.7108 70.5783 61.9284C72.0672 62.5669 73.5705 63.1763 75.0883 63.7712C75.5365 63.9453 75.9557 64.2065 76.4471 64.2355L76.4327 64.221ZM71.7203 104.124C71.7203 103.718 71.5179 103.5 71.2288 103.515C70.8963 103.529 70.7951 103.776 70.7951 104.051C70.7951 104.342 71.0842 104.646 71.3155 104.617C71.6191 104.588 71.6913 104.342 71.7203 104.124Z" fill="#35291A"/>
<path d="M61.2546 105.314C61.8039 105.111 62.3676 105.285 62.9169 105.343C63.4373 105.401 63.9432 105.386 64.4636 105.444C65.2298 105.546 66.0248 105.502 66.791 105.546C70.4771 105.764 74.1776 105.72 77.8782 105.677C79.1069 105.677 80.3501 105.647 81.5788 105.604C82.0413 105.589 82.5039 105.473 82.9665 105.604C83.0388 106.286 83.0966 106.982 83.1689 107.664C83.2556 108.477 83.3423 109.304 83.458 110.117C83.6892 111.626 83.8338 113.164 84.0073 114.687C84.0795 115.326 84.1085 115.964 84.1952 116.588C84.2964 117.343 84.3686 118.112 84.4698 118.866C84.5566 119.476 84.5999 120.1 84.6578 120.724C84.7156 121.362 84.7878 122.015 84.8457 122.653C84.889 123.089 84.9324 123.539 84.9613 123.988C85.0047 124.511 85.0336 125.033 85.1203 125.541C85.2504 126.382 85.2649 127.239 85.3516 128.08C85.395 128.457 85.3516 128.835 85.4673 129.197C85.4673 130.228 85.5973 131.258 85.6985 132.274C85.7419 132.694 85.7274 133.101 85.7853 133.521C85.9587 134.871 86.0744 136.235 86.2045 137.599C86.3779 139.456 86.5659 141.313 86.7249 143.171C86.8261 144.404 86.8839 145.652 86.9995 146.885C87.0573 147.596 87.0284 148.322 87.1585 149.033C87.0573 149.091 86.9417 149.105 86.8261 149.134C86.0599 149.25 85.2938 149.396 84.5277 149.497C83.4146 149.657 82.3015 149.787 81.174 149.918C80.5235 150.005 79.8586 150.078 79.2081 150.15C78.3552 150.252 77.5024 150.44 76.6206 150.368C76.6206 150.208 76.6495 150.049 76.6206 149.903C76.4038 148.699 76.1725 147.495 75.9556 146.29C75.6376 144.549 75.3196 142.808 74.9871 141.067C74.9004 140.617 74.8281 140.153 74.6402 139.659C74.1343 142.387 73.6283 145.028 73.1368 147.683C72.9923 148.496 72.7176 149.294 72.6743 150.136C72.5153 150.136 72.3563 150.165 72.2117 150.15C71.2866 150.049 70.3614 149.918 69.4363 149.86C67.745 149.729 66.0537 149.526 64.3769 149.294C63.8565 149.221 63.3072 149.221 62.8013 148.96C62.9025 147.799 62.9892 146.653 63.1048 145.492C63.2494 143.969 63.4229 142.445 63.5674 140.907C63.7264 139.18 63.9143 137.454 64.0011 135.727C64.0878 133.783 64.0589 131.838 64.0444 129.894C63.9577 127.34 63.8854 124.801 63.7987 122.247C63.7409 120.607 63.6686 118.982 63.5963 117.343C63.5963 117.212 63.5674 117.096 63.4951 116.98C61.7171 114.31 60.9365 111.35 61.0522 108.143C61.0811 107.186 61.0811 106.228 61.2546 105.299V105.314ZM62.2375 111.219C62.1219 111.51 62.2375 111.713 62.2664 111.901C62.5844 114.063 63.3939 116.008 64.7238 117.749C64.9696 118.068 65.2731 118.402 65.1141 118.881C65.0997 118.939 65.143 119.026 65.1864 119.098C65.7213 120.013 66.126 120.985 66.5741 121.942C67.5571 124.09 68.4822 126.252 69.364 128.443C70.0579 130.184 70.7373 131.94 71.46 133.667C71.5468 133.884 71.6335 133.986 71.8359 133.783C71.9804 133.638 72.1683 133.667 72.3418 133.71C72.443 133.739 72.5297 133.855 72.6309 133.783C72.7466 133.696 72.6598 133.565 72.6165 133.463C72.284 132.549 71.9804 131.606 71.619 130.707C70.3181 127.413 68.9303 124.162 67.3113 121.014C66.8199 120.071 66.2416 119.185 65.6345 118.329C64.3769 116.574 63.2205 114.76 62.6567 112.641C62.5411 112.192 62.3965 111.742 62.252 111.219H62.2375Z" fill="#553822"/>
<path d="M69.4654 48.5791C67.644 48.0858 65.8082 47.636 64.0157 47.0846C63.2207 46.8379 62.4256 46.5622 61.645 46.301C61.5149 46.2575 61.3848 46.1995 61.2547 46.1414C61.0668 46.0544 60.8789 45.9528 60.8934 45.7206C60.8934 45.474 61.1246 45.3869 61.327 45.3289C62.0787 45.1112 62.8593 45.0532 63.6399 44.9951C65.7214 44.8065 67.803 44.85 69.899 44.9371C70.1881 44.9371 70.2749 44.8645 70.3616 44.6179C70.9832 42.8476 71.6626 41.1064 72.5877 39.4813C73.5562 37.7691 74.9729 36.8985 76.9822 37C80.6249 37.1887 84.0653 38.1318 87.3322 39.7715C88.1417 40.1778 88.4308 40.8017 88.5898 41.6578C89.009 43.8779 88.9512 46.1269 88.9512 48.3615C88.9512 48.5936 89.0235 48.6952 89.2403 48.7823C91.452 49.7835 93.6781 50.7412 95.7741 51.989C96.0777 52.1631 96.3668 52.3663 96.6414 52.5839C96.9594 52.8451 96.8872 53.1208 96.5113 53.2659C96.2511 53.3675 95.9765 53.3675 95.7018 53.3675C93.8371 53.3965 92.0157 53.1208 90.1799 52.8596C89.2547 52.729 88.3296 52.5694 87.4045 52.4243C87.1876 52.3082 86.9419 52.2792 86.6961 52.2647C86.6528 52.2647 86.6094 52.2647 86.566 52.2502C85.0193 51.9455 83.4726 51.6263 81.9259 51.307C78.8614 50.6831 75.8113 50.0302 72.7757 49.3192C71.677 49.058 70.5784 48.8258 69.4798 48.5791H69.4654Z" fill="#C48037"/>
<path d="M86.5378 52.2502C86.5378 52.2502 86.6246 52.2502 86.6679 52.2647C86.6824 52.4098 86.7113 52.5549 86.7113 52.7145C86.7258 53.0047 86.7691 53.3529 87.2028 53.3674C87.1016 53.8898 86.8414 54.3541 86.5378 54.7749C86.0897 55.3989 86.0464 56.0518 86.2487 56.7628C86.3933 57.2416 86.3788 57.735 86.3644 58.2138C86.3499 58.6491 85.8006 59.0119 85.2369 58.9103C84.9622 58.8668 84.861 58.9393 84.7887 59.186C84.702 59.4327 84.5575 59.6503 84.4707 59.897C84.3695 60.1872 84.066 60.1437 83.907 60.2888C83.7913 60.3758 84.0371 60.7096 83.8347 60.9272C83.2998 61.4641 82.8084 62.0445 82.1723 62.4798C81.2616 63.0892 80.3076 63.1763 79.2957 62.799C78.6163 62.5524 77.9947 62.2041 77.4021 61.7978C77.1563 61.6382 77.0407 61.6818 76.9829 61.9284C76.8383 62.5233 76.7371 63.1328 76.5781 63.7277C76.5347 63.9018 76.607 64.1195 76.4191 64.2355C75.9276 64.2065 75.5084 63.9453 75.0603 63.7712C73.5425 63.1763 72.0536 62.5669 70.5502 61.9284C70.0154 61.6963 69.4805 61.4641 69.0469 61.0723C69.6829 59.4617 70.1455 57.8075 70.5647 56.1244C70.7815 56.1389 70.9983 56.1534 71.2296 56.1824C72.3427 56.3275 73.3546 56.1534 74.1641 55.2973C74.8579 54.5573 75.2771 53.6722 75.6674 52.758C75.812 52.4243 76.0144 52.1486 76.289 51.9164C76.607 51.6552 76.9395 51.5972 77.3442 51.7713C77.8357 51.989 77.9369 52.4243 78.0526 52.8596C78.1682 53.3094 78.544 53.469 78.9488 53.2368C79.0933 53.1498 79.2234 53.0482 79.3246 52.9031C79.6426 52.4533 79.9317 51.9454 80.4955 51.7423C80.6545 51.6843 80.8135 51.5972 80.9581 51.7713C81.146 52.018 81.4206 52.1196 81.6808 52.2066C82.6927 52.5404 83.6901 52.8886 84.7598 53.0047C85.4971 53.0772 86.1765 53.0917 86.5234 52.2647L86.5378 52.2502Z" fill="#553822"/>
<path d="M102.569 75.7276C103.624 74.059 104.665 72.3903 105.72 70.7216C106.211 69.9526 106.674 69.8075 107.498 70.1993C109.825 71.2875 112.138 72.3903 114.451 73.4785C115.015 73.7397 115.159 74.3201 114.798 74.9005C114.364 75.597 113.902 76.279 113.453 76.961C112.601 78.2379 111.777 79.5438 110.866 80.7917C110.794 80.8787 110.707 80.9658 110.707 81.0964C110.418 81.4591 110.071 81.8074 109.912 82.2572C109.391 82.2282 109.059 82.4893 108.842 82.9392C108.712 83.2003 108.553 83.4325 108.394 83.6792C107.931 84.4337 107.483 85.2027 106.833 85.8122C106.298 86.32 105.604 86.2475 105.199 85.6381C104.896 85.1882 104.636 84.7094 104.274 84.3031C104.751 84.3466 105.156 84.6078 105.59 84.7965C105.908 84.9416 106.096 84.869 106.312 84.5933C107.469 83.0988 108.437 81.4736 109.536 79.9356C109.955 79.3552 110.331 78.7457 110.736 78.1508C111.459 77.1351 112.152 76.1049 112.832 75.0747C113.005 74.8135 112.976 74.6974 112.687 74.5668C110.808 73.6817 108.943 72.7821 107.079 71.8824C106.862 71.7809 106.789 71.8679 106.688 72.0275C104.795 75.0021 102.901 77.9767 101.166 81.0528C100.935 81.4591 100.632 81.8219 100.487 82.2862C99.9232 82.0105 99.3594 82.0831 98.7957 82.2717C98.7668 82.1266 98.8246 81.996 98.8969 81.8654C99.7497 80.2693 100.762 78.7748 101.672 77.2077C101.961 76.6998 102.352 76.25 102.554 75.6986L102.569 75.7276Z" fill="#35291A"/>
<path d="M86.5374 52.2502C86.1905 53.0772 85.5111 53.0627 84.7739 52.9902C83.7042 52.8741 82.7068 52.5259 81.6949 52.1921C81.4203 52.1051 81.1601 52.0035 80.9721 51.7568C80.842 51.5827 80.6686 51.6553 80.5096 51.7278C79.9458 51.9455 79.6567 52.4388 79.3387 52.8886C79.2375 53.0337 79.1074 53.1353 78.9628 53.2223C78.5581 53.4545 78.1823 53.3094 78.0666 52.8451C77.951 52.3953 77.8498 51.96 77.3583 51.7568C76.9536 51.5827 76.6211 51.6407 76.3031 51.9019C76.0284 52.1341 75.826 52.3953 75.6815 52.7435C75.2912 53.6577 74.872 54.5573 74.1781 55.2828C73.3686 56.1389 72.3423 56.313 71.2437 56.1679C71.0269 56.1389 70.81 56.1244 70.5788 56.1099C70.2318 55.9212 70.0005 55.631 69.8415 55.2828C68.7863 53.0918 68.7429 50.8572 69.4657 48.5791C70.5643 48.8258 71.6629 49.0579 72.7615 49.3191C75.7971 50.0301 78.8472 50.6831 81.9117 51.307C83.4585 51.6262 85.0052 51.9309 86.5519 52.2502H86.5374Z" fill="#35291A"/>
<path d="M98.8244 82.2861C99.3881 82.0975 99.9519 82.0395 100.516 82.3007C100.66 82.4458 100.732 82.3442 100.805 82.2136C101.123 81.6767 101.47 81.1544 101.889 80.69C102.366 80.1532 102.785 79.5728 103.378 79.152C103.537 79.0359 103.71 78.9198 103.913 79.0359C104.115 79.152 104.115 79.3406 104.129 79.5437C104.187 80.1677 103.768 80.5885 103.45 81.0238C103.031 81.6042 102.554 82.141 102.38 82.8666C102.323 83.1132 102.351 83.2583 102.597 83.3599C103.19 83.6211 103.754 83.9403 104.289 84.3176C104.635 84.7384 104.91 85.2027 105.214 85.6525C105.618 86.2619 106.312 86.3345 106.847 85.8266C107.498 85.2027 107.946 84.4337 108.408 83.6936C108.567 83.447 108.726 83.2148 108.856 82.9536C109.088 82.5038 109.406 82.2426 109.926 82.2716C110.143 82.4167 110.23 82.6489 110.345 82.8666C110.345 82.9101 110.316 82.9391 110.331 82.9826C110.562 84.0564 110.128 84.9415 109.536 85.7831C109.088 86.4215 108.683 87.089 108.148 87.6694C107.122 88.7432 105.821 89.2075 104.39 89.3671C103.811 89.4251 103.233 89.4832 102.641 89.5267C102.438 89.0043 102.25 88.482 102.048 87.9596C101.73 87.1035 101.311 86.2764 100.704 85.58C100.964 85.58 101.108 85.4784 101.065 85.2027C101.036 84.985 101.137 84.8254 101.282 84.6803C101.788 84.187 101.831 83.505 101.961 82.852C101.542 83.2003 100.978 83.3164 100.602 83.7227C100.53 83.7952 100.458 83.9403 100.313 83.8823C99.8652 83.6501 99.4026 83.8242 98.9545 83.7807C98.8099 83.3164 98.463 82.8956 98.5931 82.3587C98.6798 82.3587 98.781 82.3732 98.8244 82.2716V82.2861ZM102.135 84.5933C102.626 84.5207 102.93 84.274 103.277 84.1435C102.857 84.0999 102.467 84.0999 102.135 84.5933Z" fill="#C48037"/>
<path d="M98.8241 82.2862C98.7808 82.3877 98.694 82.3877 98.5928 82.3732C98.4772 82.083 98.376 82.3297 98.2893 82.3877C97.9423 82.6925 97.7544 83.1278 97.4075 83.418C97.4653 82.5764 97.2051 81.8073 96.916 81.0383C96.916 80.8932 96.9594 80.7771 97.0172 80.6465C97.1328 80.6465 97.1907 80.7481 97.2485 80.8352C97.5087 81.2414 97.74 81.2995 98.1592 81.0673C98.3182 80.9803 98.4627 80.8642 98.5928 80.7336C99.0988 80.1677 99.5035 79.5292 99.9372 78.9198C100.371 78.3104 100.79 77.6719 100.978 76.9319C101.021 76.7433 101.021 76.6272 100.79 76.6127C101.195 76.2645 101.643 75.9888 102.105 75.7566C102.264 75.6695 102.409 75.626 102.568 75.7276C102.366 76.279 101.975 76.7288 101.686 77.2366C100.79 78.8037 99.7637 80.2983 98.9109 81.8944C98.8386 82.025 98.7808 82.1411 98.8097 82.3007L98.8241 82.2862Z" fill="#C48037"/>
<path d="M100.776 76.6127C101.007 76.6127 101.007 76.7432 100.964 76.9319C100.776 77.6719 100.371 78.3103 99.9229 78.9198C99.4892 79.5292 99.0845 80.1676 98.5786 80.7335C98.4629 80.8641 98.3039 80.9802 98.1449 81.0673C97.7402 81.2994 97.4944 81.2269 97.2342 80.8351C97.1764 80.748 97.1186 80.661 97.0029 80.6465C97.1475 80.0516 97.4221 79.5147 97.8269 79.0649C98.7087 78.1362 99.7061 77.3237 100.761 76.5981L100.776 76.6127Z" fill="#C48037"/>
<path d="M110.345 82.8811C110.229 82.6634 110.143 82.4313 109.926 82.2862C110.085 81.8219 110.417 81.4881 110.721 81.1254C111.256 81.8654 111.097 82.6054 110.345 82.8956V82.8811Z" fill="#C48037"/>
<path d="M87.2028 53.3819C86.7836 53.3529 86.7258 53.0192 86.7113 52.729C86.7113 52.5839 86.6824 52.4388 86.668 52.2792C86.9137 52.2792 87.145 52.3227 87.3763 52.4388C87.3185 52.758 87.2606 53.0772 87.2028 53.3819Z" fill="#35291A"/>
<path d="M76.6357 150.397C77.5031 150.469 78.3559 150.266 79.2232 150.179C79.8737 150.107 80.5387 150.034 81.1892 149.947C82.3022 149.816 83.4297 149.671 84.5428 149.526C85.3089 149.425 86.0751 149.279 86.8412 149.163C86.9568 149.149 87.0725 149.134 87.1737 149.062C87.4917 149.033 87.5495 149.192 87.5784 149.483C87.7953 152.486 88.041 155.49 88.2723 158.493C88.3301 159.35 88.3735 160.206 88.4313 161.062C88.4747 161.744 88.5614 162.44 88.5614 163.122C88.5614 164.109 88.9806 164.762 89.8479 165.212C91.0333 165.807 92.2909 166.256 93.5485 166.677C94.1701 166.88 94.7772 167.098 95.2976 167.533C95.7457 167.911 96.0203 168.375 96.0059 168.984C96.0059 169.623 95.7457 169.855 95.0952 169.898C92.3921 170.044 89.6744 169.956 86.9713 169.971C84.8175 169.985 82.6636 169.971 80.5242 169.971C79.946 169.971 79.7581 169.768 79.7292 169.202C79.6569 167.475 79.4401 165.792 79.0353 164.109C78.5727 162.165 78.1969 160.191 77.7777 158.232C77.7632 158.16 77.7632 158.073 77.691 158.015C77.6621 157.434 77.5175 156.883 77.4019 156.317C77.0838 154.648 76.8526 152.98 76.4623 151.325C76.39 151.035 76.1442 150.6 76.6502 150.368L76.6357 150.397Z" fill="#35291A"/>
<path d="M62.816 148.989C63.3075 149.236 63.8568 149.25 64.3916 149.323C66.0684 149.555 67.7597 149.758 69.451 149.889C70.3761 149.961 71.3013 150.092 72.2264 150.179C72.3854 150.194 72.5444 150.179 72.689 150.179C73.1082 150.208 73.1949 150.324 73.1082 150.76C72.848 151.964 72.6456 153.183 72.3854 154.387C72.1397 155.504 72.0529 156.665 71.8939 157.811C71.6337 159.422 71.4025 161.047 71.1712 162.672C71.1133 163.079 71.1278 163.47 71.0411 163.877C70.8676 164.733 71.3157 165.328 71.9951 165.778C72.7323 166.271 73.5708 166.532 74.3658 166.88C75.103 167.185 75.8258 167.519 76.2739 168.244C76.4907 168.578 76.563 168.955 76.4907 169.333C76.4329 169.666 76.2305 169.884 75.8692 169.956C75.6379 170 75.4066 170.014 75.1753 170.014C70.9833 170.014 66.8057 170.014 62.6136 170.014C62.0065 170.014 61.7607 169.739 61.7607 169.144C61.7607 166.88 61.992 164.631 62.0354 162.368C62.0643 160.844 62.0354 159.335 62.0932 157.811C62.1655 155.853 62.2522 153.894 62.3245 151.935C62.3534 151.093 62.3823 150.237 62.4112 149.396C62.4112 149.149 62.4401 148.888 62.8015 148.989H62.816Z" fill="#35291A"/>
<path d="M100.342 85.4494C100.342 85.1302 100.154 84.9996 99.8648 84.869C99.4311 84.6659 99.0119 84.3756 98.9541 83.8097C99.4022 83.8533 99.8792 83.6647 100.313 83.9113C100.443 83.9839 100.53 83.8388 100.602 83.7517C100.978 83.3454 101.527 83.2293 101.961 82.8811C101.831 83.5486 101.787 84.216 101.281 84.7094C101.137 84.8545 101.036 85.0141 101.065 85.2317C101.093 85.5074 100.963 85.609 100.703 85.609C100.573 85.5945 100.486 85.4204 100.342 85.4639V85.4494Z" fill="#C48037"/>
<path d="M95.3981 86.7118C95.3547 87.031 94.9789 87.1036 94.9066 87.3938C94.5597 87.6114 94.1405 87.6404 93.7935 87.8291C93.7357 87.8581 93.6634 87.8726 93.6201 87.8146C93.5623 87.742 93.6056 87.655 93.6634 87.6114C93.967 87.3212 94.2272 86.9585 94.7042 86.9294C94.9355 86.9149 95.1668 86.7989 95.4125 86.7263L95.3981 86.7118Z" fill="#35291A"/>
<path d="M62.2377 111.219C62.3822 111.756 62.5123 112.192 62.6424 112.641C63.2207 114.76 64.3771 116.574 65.6202 118.329C66.2274 119.185 66.8056 120.071 67.2971 121.014C68.9161 124.162 70.3038 127.413 71.6048 130.707C71.9661 131.621 72.2697 132.549 72.6022 133.463C72.6455 133.565 72.7323 133.696 72.6166 133.783C72.5299 133.855 72.4287 133.739 72.3275 133.71C72.1396 133.667 71.9661 133.638 71.8216 133.783C71.6192 133.986 71.5469 133.884 71.4457 133.667C70.723 131.925 70.0436 130.184 69.3497 128.443C68.4679 126.252 67.5428 124.09 66.5598 121.942C66.1262 120.985 65.7214 120.013 65.1721 119.098C65.1288 119.04 65.0854 118.939 65.0999 118.881C65.2589 118.402 64.9408 118.068 64.7096 117.749C63.3797 116.008 62.5846 114.063 62.2521 111.901C62.2232 111.698 62.1076 111.51 62.2232 111.219H62.2377Z" fill="#35291A"/>
<path d="M104.288 84.3176C103.754 83.9403 103.19 83.6356 102.597 83.3599C102.366 83.2583 102.323 83.1278 102.38 82.8666C102.568 82.1411 103.031 81.6042 103.45 81.0238C103.783 80.574 104.187 80.1677 104.129 79.5437C104.115 79.3406 104.115 79.152 103.913 79.0359C103.696 78.9198 103.537 79.0359 103.378 79.152C102.785 79.5583 102.351 80.1532 101.889 80.69C101.47 81.1544 101.123 81.6767 100.805 82.2136C100.732 82.3442 100.66 82.4458 100.516 82.3007C100.66 81.8363 100.964 81.4736 101.195 81.0673C102.93 77.9912 104.823 75.0166 106.717 72.042C106.818 71.8824 106.89 71.7953 107.107 71.8969C108.972 72.811 110.837 73.6962 112.716 74.5813C113.005 74.7119 113.034 74.8279 112.86 75.0891C112.167 76.1193 111.473 77.1496 110.764 78.1653C110.345 78.7457 109.984 79.3696 109.565 79.95C108.452 81.4736 107.498 83.1132 106.341 84.6078C106.124 84.8835 105.936 84.956 105.618 84.8109C105.199 84.6223 104.794 84.3756 104.303 84.3176H104.288Z" fill="#E4FFD7"/>
<path d="M102.135 84.5933C102.467 84.1 102.858 84.1 103.277 84.1435C102.93 84.2741 102.641 84.5208 102.135 84.5933Z" fill="#C48037"/>
</g>
<g clip-path="url(#clip1_638_7696)">
<path d="M143.168 83.7377C147.156 83.6176 150.396 84.5999 153.389 86.4845C155.086 87.5542 156.507 88.9512 157.288 90.7922C158.236 93.0333 158.161 95.4672 157.509 97.7666C155.898 103.457 152.01 106.44 146.347 107.586C138.728 109.129 131.944 103.009 130.963 96.2968C130.816 95.2999 131.038 94.1975 131.292 93.197C132.681 87.7906 137.328 83.2574 143.028 83.734C143.221 83.7486 143.418 83.734 143.164 83.734L143.168 83.7377ZM133.598 93.3535C133.315 96.0857 133.537 97.0499 134.604 98.9599C136.473 102.303 141.274 105.447 146.44 104.032C150.414 102.944 153.435 100.564 154.642 96.4241C155.358 93.9647 154.746 91.4616 152.15 89.7844C148.803 87.6196 145.122 87.6779 141.428 87.616C140.88 87.6051 140.314 87.9325 139.781 88.1545C137.157 89.2496 135.452 91.4616 133.601 93.3535H133.598Z" fill="#4C352B"/>
<path d="M129.208 106.255C129.545 111.188 125.32 117.435 119.875 118.792C114.673 120.087 109.339 117.453 106.965 113.109C105.895 111.148 104.928 109.154 105.003 106.819C105.096 103.882 106.249 101.525 108.515 99.6658C109.707 98.6908 110.645 97.3701 111.895 96.4933C115.715 93.8192 121.579 93.6009 125.242 96.9481C127.873 99.3529 129.305 102.333 129.205 106.255H129.208ZM121.354 99.4366C117.297 98.0686 113.739 98.7162 110.595 101.532C110.398 101.707 110.205 101.885 109.994 102.042C107.592 103.842 107.083 105.64 107.871 108.568C108.433 110.668 109.732 112.152 111.25 113.524C113.828 115.856 116.789 116.351 119.886 114.968C121.203 114.379 122.36 113.287 123.398 112.229C125.682 109.9 126.745 107.095 125.764 103.813C125.131 101.696 124.139 99.7713 121.976 98.8181C121.873 98.7708 121.726 98.8327 121.568 98.8436C121.511 99.0037 121.45 99.1747 121.354 99.4366Z" fill="#4C352B"/>
<path d="M127.386 121.44C127.74 118.581 128.868 115.354 132.126 113.404C134.163 112.185 136.068 110.755 138.542 110.297C141.717 109.707 144.603 110.158 147.256 111.923C150.467 114.059 152.311 117.173 152.676 121.022C152.909 123.481 152.042 125.81 150.893 127.975C149.182 131.198 146.54 133.254 143.11 134.352C138.62 135.793 134.611 134.811 131.299 131.591C129.219 129.572 127.318 125.784 127.382 121.437L127.386 121.44ZM142.963 113.938C142.247 114.048 141.545 114.371 141.001 114.193C138.577 113.396 136.358 114.328 134.267 115.165C131.199 116.391 129.62 120.153 130.379 123.685C131.51 128.939 135.438 132.002 140.038 131.54C144.341 131.107 147.488 128.691 149.135 124.547C150.349 121.491 149.78 118.814 147.374 116.46C146.056 115.172 144.563 114.415 142.963 113.938Z" fill="#4C352B"/>
<path d="M141.016 88.8094C141.384 89.4207 141.674 89.8973 141.961 90.3702C142.845 90.272 143.719 90.1738 144.614 90.0755C145.455 91.9565 143.661 91.931 143.017 92.6186C142.949 93.4918 143.454 93.6628 144.102 93.7065C146.013 93.8338 147.581 94.6087 148.788 96.3733C148.838 98.3233 148.541 100.124 146.239 100.976C145.702 101.176 145.373 101.958 144.789 102.664C144.481 102.202 144.077 101.601 143.597 100.888C142.261 100.273 140.905 99.4403 139.802 97.8613C140.597 97.7412 141.191 97.6539 142.168 97.5047C141.624 96.839 141.345 96.2023 140.876 95.9803C139.709 95.4273 139.089 94.536 138.742 93.3681C139.494 91.8692 140.221 90.4175 141.023 88.8167L141.016 88.8094Z" fill="#4C352B"/>
<path d="M117.147 114.877C116.002 113.32 113.574 112.56 113.363 109.827H115.185C115.142 109.394 115.107 109.027 115.06 108.576C113.503 108.205 111.58 108.354 111.315 106.153C111.086 104.25 112.754 103.697 113.95 102.485C113.99 102.18 114.065 101.601 114.133 101.059C115.225 100.564 115.189 101.885 115.851 102.034C118.089 101.478 118.608 101.67 118.977 103.377C118.221 103.621 117.444 103.868 116.531 104.159C116.442 104.494 116.335 104.908 116.202 105.414C116.578 105.571 116.861 105.705 117.158 105.803C117.77 106.007 118.4 106.16 118.998 106.396C120.373 106.942 121.254 107.855 121.354 109.467C121.472 111.29 120.96 112.698 119.274 113.56C118.583 113.913 117.949 114.375 117.144 114.881L117.147 114.877Z" fill="#4C352B"/>
<path d="M138.081 125.086C138.013 124.438 137.959 123.914 137.898 123.321C136.147 122.474 134.332 121.608 134.988 118.715C135.245 118.453 135.7 117.988 136.151 117.526C136.727 116.951 135.815 115.627 137.436 115.361C137.762 115.903 138.117 116.5 138.424 117.013C139.566 117.337 140.655 117.642 141.847 117.98C141.267 119.403 140.168 119.407 139.087 119.61C139.549 120.618 140.3 120.793 141.167 120.836C142.531 120.902 143.576 121.59 143.959 122.903C144.335 124.191 144.267 125.526 143.229 126.588C142.219 127.622 141.206 128.655 140.078 129.808C139.735 129.328 139.33 128.764 138.861 128.116C137.648 127.411 136.133 126.934 135.12 125.344C136.237 125.25 137.161 125.17 138.077 125.09L138.081 125.086Z" fill="#4C352B"/>
</g>
<defs>
<clipPath id="clip0_638_7696">
<rect width="56" height="133" fill="white" transform="translate(59 37)"/>
</clipPath>
<clipPath id="clip1_638_7696">
<rect width="53" height="72" fill="white" transform="translate(105 63)"/>
</clipPath>
</defs>
</svg>
