<svg width="204" height="199" viewBox="0 0 204 199" fill="none" xmlns="http://www.w3.org/2000/svg">
<path d="M158.487 184.631C195.974 163.539 207.974 124.495 202.418 84.3636C202.8 65.6166 188.302 50.0167 181.108 33.3156C159.934 -12.4713 96.8155 -1.66353 57.4167 10.8844C19.5743 24.3091 -4.43906 92.6972 0.687148 129.498C3.28779 143.46 11.0897 157.129 18.0111 168.787C27.4649 179.289 43.8333 183.122 55.5055 191.381C59.7375 189.627 70.065 195.779 76.5973 195.684C104.454 199.932 133.743 201.285 158.494 184.638L158.487 184.631Z" fill="#E0AF62"/>
<rect x="71.0332" y="44.2459" width="54.2951" height="100.328" rx="2" fill="#EBC194"/>
<path d="M71.2858 154.803C68.5978 154.803 66.3098 153.859 64.4218 151.971C62.5338 150.083 61.5898 147.797 61.5898 145.113V44.4933C61.5898 41.7333 62.5158 39.4293 64.3678 37.5813C66.2198 35.7333 68.5258 34.8073 71.2858 34.8033H124.362C127.042 34.8033 129.328 35.7473 131.22 37.6353C133.108 39.5233 134.052 41.8113 134.052 44.4993V63.7833C135.544 63.9433 136.84 64.5633 137.94 65.6433C139.04 66.7193 139.59 68.0153 139.59 69.5313V80.1453C139.59 81.6613 139.04 82.9573 137.94 84.0333C136.84 85.1093 135.544 85.7293 134.052 85.8933V145.107C134.052 147.787 133.108 150.073 131.22 151.965C129.332 153.853 127.046 154.797 124.362 154.797L71.2858 154.803ZM71.2858 148.803H124.362C125.438 148.803 126.322 148.457 127.014 147.765C127.706 147.073 128.052 146.189 128.052 145.113V44.4933C128.052 43.4173 127.706 42.5333 127.014 41.8413C126.322 41.1493 125.438 40.8033 124.362 40.8033H71.2858C70.2058 40.8033 69.3198 41.1493 68.6278 41.8413C67.9358 42.5333 67.5898 43.4193 67.5898 44.4993V145.113C67.5898 146.189 67.9358 147.073 68.6278 147.765C69.3198 148.457 70.2058 148.803 71.2858 148.803ZM101.118 136.863C101.998 135.983 102.438 134.885 102.438 133.569C102.438 132.257 101.998 131.161 101.118 130.281C100.238 129.401 99.1378 128.961 97.8178 128.961C96.4978 128.961 95.4018 129.401 94.5298 130.281C93.6578 131.161 93.2178 132.259 93.2098 133.575C93.2018 134.891 93.6418 135.989 94.5298 136.869C95.4178 137.749 96.5158 138.189 97.8238 138.189C99.1318 138.189 100.23 137.743 101.118 136.863Z" fill="#4C352B"/>
<g clip-path="url(#clip0_638_7743)">
<path d="M123.922 137.97C121.5 136.677 120.014 134.554 118.916 132.111C117.919 129.895 117.478 127.551 117.518 125.062C116.681 125.634 115.807 125.866 114.833 125.535C113.863 125.205 113.249 124.528 112.894 123.565C111.76 124.375 110.544 124.648 109.221 124.242C107.84 123.818 107.074 122.711 107.132 121.251C107.136 121.145 107.142 121.102 107.016 121.077C105.923 120.864 105.574 120.288 105.869 119.199C105.916 119.028 105.975 118.861 106.039 118.659C104.414 118.777 103.072 118.277 102.286 116.774C101.519 115.305 101.705 113.866 102.638 112.494C102.348 112.331 102.025 112.22 101.774 111.982C100.83 111.084 100.775 109.502 101.695 108.572C101.906 108.359 101.863 108.273 101.706 108.072C100.71 106.796 100.775 104.833 101.846 103.36C102.331 102.692 102.948 102.204 103.749 101.986C103.954 101.93 104.019 101.892 103.921 101.64C103.269 99.9612 103.457 98.3737 104.57 96.9529C105.309 96.0097 106.294 95.5113 107.51 95.5927C107.727 95.6073 107.74 95.5681 107.728 95.3577C107.631 93.7495 108.759 92.3471 110.327 92.1005C110.851 92.0183 111.495 92.1566 112.268 92.5222C112.444 91.0453 113.221 90.0008 114.528 89.3664C115.899 88.7005 117.308 88.9547 118.386 90.0361C118.492 90.1421 118.548 90.1966 118.68 90.0637C119.413 89.3326 120.616 89.2051 121.683 90.0545C122.086 90.3748 122.391 90.7757 122.672 91.2311C123.348 90.4017 124.174 89.8257 125.208 89.5799C126.78 89.2066 128.418 89.9839 129.034 91.4016C129.129 91.6205 129.127 91.9638 129.28 92.0521C129.435 92.1412 129.725 91.9646 129.961 91.9385C131.535 91.7664 132.822 93.0675 132.66 94.6649C132.644 94.8224 132.566 94.9376 132.843 94.9291C134.938 94.8646 136.535 96.6725 136.328 98.8368C136.27 99.4443 136.126 100.018 135.812 100.541C135.731 100.676 135.723 100.742 135.884 100.828C136.795 101.311 137.124 102.127 137.095 103.118C137.088 103.377 137.127 103.468 137.406 103.454C137.985 103.425 138.566 103.439 139.144 103.519C139.308 103.625 139.204 103.708 139.118 103.784C137.767 104.973 137.045 106.569 136.387 108.191C135.085 111.4 134.371 114.775 133.74 118.169C133.38 120.104 133.09 122.049 132.84 124C132.798 124.327 132.661 124.506 132.345 124.58C129.747 125.188 127.858 127.826 127.644 130.489C127.546 131.713 127.77 132.849 128.188 133.971C128.373 134.465 128.682 134.889 128.974 135.322C129.071 135.467 129.21 135.594 129.19 135.796C128.564 136.812 127.62 137.425 126.559 137.861C125.821 138.164 125.05 138.353 124.242 138.13C124.124 138.098 123.985 138.115 123.923 137.97H123.922Z" fill="#1D180E"/>
<path d="M123.922 137.97C125.998 138.398 127.571 137.507 128.915 136.018C128.982 135.944 129.064 135.884 129.139 135.817C129.307 135.764 129.394 135.894 129.491 135.984C129.988 136.441 130.532 136.825 131.133 137.131C131.516 137.326 131.553 137.421 131.399 137.826C131.33 138.01 131.266 138.183 131.346 138.377C131.391 138.617 131.373 138.86 131.377 139.102C131.393 140.234 132.173 141.245 133.266 141.549C134.315 141.84 135.545 141.367 136.108 140.439C136.623 139.592 136.71 138.696 136.36 137.761C136.289 137.572 136.177 137.396 136.167 137.184C136.183 136.965 136.269 136.818 136.515 136.831C136.666 136.871 136.725 137.001 136.796 137.121C138.306 139.661 140.231 141.804 142.696 143.428C143.395 143.888 144.132 144.278 144.898 144.609C145.191 144.735 145.427 144.886 145.518 145.22C145.593 145.494 145.794 145.671 146.046 145.787C146.797 146.134 147.573 146.383 148.4 146.455C148.548 146.468 148.711 146.457 148.779 146.641C148.522 147.182 148.23 147.704 147.899 148.2C146.84 149.782 145.348 150.337 143.328 149.914C141.428 149.516 139.768 148.585 138.17 147.52C137.65 147.174 137.65 147.167 137.356 147.713C136.627 149.07 136.243 150.554 135.836 152.027C135.504 153.232 135.244 154.454 135.172 155.709C135.163 155.874 135.124 156.04 135.213 156.196C135.685 157.54 136.425 158.748 137.075 160.002C137.098 160.047 137.072 159.989 137.091 160.036C137.283 160.501 137.512 160.986 137.147 161.448C136.78 161.912 136.234 161.959 135.693 161.91C134.149 161.77 132.723 161.213 131.32 160.598C129.185 159.662 127.165 158.503 125.16 157.314C123.016 156.041 120.889 154.736 118.644 153.646C118.337 153.497 118.013 153.385 117.716 153.213C117.593 153.142 117.418 153.102 117.449 152.894C118.994 150.674 120.349 148.343 121.464 145.872C122.605 143.341 123.535 140.742 123.924 137.971L123.922 137.97Z" fill="#633418"/>
<path d="M142.025 103.668C142.194 103.946 142.467 104.024 142.761 104.107C147.123 105.343 150.67 107.757 153.183 111.612C154.288 113.306 154.971 115.174 155.123 117.219C155.172 117.876 155.091 118.514 154.925 119.146C154.822 119.62 154.502 119.954 154.167 120.254C153.092 121.218 151.816 121.553 150.405 121.385C149.857 121.32 149.876 121.307 149.72 121.836C149.122 123.858 147.846 125.216 145.837 125.833C145.451 125.951 145.061 126.081 144.658 126.11C143.757 126.176 143.146 126.692 142.642 127.384C142.387 127.733 142.168 128.108 141.934 128.472C141.54 129.088 141.101 129.663 140.408 129.971C140.083 130.115 139.756 130.157 139.418 130.021C139.276 129.908 139.259 129.736 139.225 129.576C138.811 127.655 137.81 126.154 136.122 125.153C135.844 124.988 135.75 124.758 135.769 124.453C135.831 123.471 135.98 122.499 136.1 121.524C136.448 118.695 136.976 115.895 137.633 113.127C138.243 110.556 138.939 108.005 140.13 105.628C140.347 105.192 140.614 104.792 140.887 104.392C141.165 103.983 141.52 103.708 142.025 103.668L142.025 103.668Z" fill="#1D180E"/>
<path d="M117.447 152.893C117.464 153.001 117.556 153.025 117.635 153.06C120.543 154.354 123.226 156.063 125.968 157.662C128.439 159.104 130.935 160.496 133.671 161.376C134.359 161.597 135.064 161.726 135.778 161.809C135.828 161.815 135.879 161.814 135.929 161.814C137.103 161.818 137.517 161.158 136.997 160.095C136.515 159.112 135.928 158.184 135.482 157.182C135.343 156.87 135.186 156.557 135.212 156.197C136.244 156.873 137.157 157.698 138.048 158.547C140.168 160.569 141.744 163.001 143.166 165.546C143.39 165.946 143.598 166.356 143.822 166.756C143.925 166.94 143.885 167.006 143.679 166.997C143.503 166.989 143.326 166.997 143.149 166.997C131.631 166.998 120.114 166.999 108.597 166.999C107.949 166.999 107.951 166.997 108.141 166.361C109.605 161.475 112.344 157.417 115.996 153.951C116.19 153.768 116.388 153.59 116.582 153.407C116.833 153.17 117.099 152.961 117.447 152.893H117.447Z" fill="#F7E6D4"/>
<path d="M139.448 129.985C140.694 130.109 141.286 129.229 141.876 128.354C142.245 127.809 142.568 127.237 143.028 126.751C143.489 126.264 144.047 126.096 144.669 125.993C146.039 125.767 147.296 125.283 148.271 124.229C148.984 123.459 149.462 122.558 149.673 121.523C149.723 121.275 149.755 121.16 150.075 121.217C151.666 121.5 153.104 121.171 154.277 119.983C154.523 119.733 154.711 119.426 154.925 119.145C155.161 119.559 155.225 120.031 155.355 120.48C156.214 123.448 156.203 126.422 155.396 129.397C155.157 130.276 154.834 131.129 154.33 131.881C153.542 133.056 153.512 134.305 153.806 135.623C153.988 136.433 154.282 137.209 154.489 138.011C154.598 138.431 154.695 138.853 154.688 139.291C154.668 140.468 153.925 141.226 152.762 141.249C152.612 141.252 152.451 141.267 152.31 141.227C151.928 141.117 151.799 141.276 151.788 141.645C151.779 141.989 151.716 142.33 151.737 142.676C151.801 143.726 151.358 144.181 150.288 144.144C150.476 144.579 150.578 145.019 150.348 145.458C150.174 145.788 149.891 145.993 149.532 146.088C149.448 145.918 149.538 145.762 149.576 145.606C149.699 145.111 149.55 144.696 149.148 144.43C148.362 143.913 147.454 143.717 146.547 143.552C146.347 143.515 146.142 143.608 145.974 143.721C145.722 143.892 145.488 143.866 145.224 143.754C143.895 143.192 142.705 142.406 141.604 141.476C139.929 140.062 138.577 138.371 137.474 136.471C137.416 136.372 137.352 136.276 137.342 136.156C137.343 135.972 137.465 135.856 137.579 135.738C138.663 134.613 139.188 133.243 139.339 131.7C139.382 131.256 139.433 130.816 139.348 130.371C139.323 130.236 139.324 130.089 139.446 129.982L139.448 129.985Z" fill="#643417"/>
<path d="M139.447 129.985C139.563 130.979 139.507 131.96 139.249 132.93C138.948 134.058 138.444 135.066 137.604 135.885C137.515 135.972 137.404 136.049 137.407 136.197C137.231 136.561 136.879 136.706 136.564 136.897C136.334 136.875 136.253 137 136.26 137.212C135.907 137.279 135.572 137.394 135.274 137.607C134.381 137.811 133.484 137.968 132.567 137.788C132.367 137.763 132.165 137.732 131.976 137.662C131.712 137.564 131.576 137.672 131.485 137.916C131.429 138.067 131.41 138.244 131.262 138.349C131.056 138.099 131.287 137.899 131.344 137.683C131.384 137.53 131.449 137.399 131.247 137.308C130.451 136.949 129.771 136.418 129.14 135.818C129.028 135.472 128.763 135.222 128.569 134.931C127.966 134.028 127.66 133.024 127.556 131.965C127.293 129.309 128.178 127.114 130.258 125.449C130.864 124.965 131.557 124.624 132.321 124.466C132.573 124.415 132.677 124.319 132.717 124.027C132.912 122.582 133.127 121.14 133.358 119.699C133.68 117.691 134.066 115.697 134.544 113.724C135.169 111.148 135.902 108.604 137.15 106.247C137.61 105.38 138.128 104.559 138.826 103.86C138.932 103.753 139.183 103.765 139.144 103.519C139.293 103.519 139.397 103.414 139.519 103.353C140.346 102.943 141.385 103.072 142.024 103.669C141.962 103.779 141.97 103.903 141.739 103.863C141.482 103.82 141.281 104.071 141.116 104.281C140.259 105.379 139.734 106.65 139.267 107.948C138.336 110.539 137.7 113.21 137.157 115.909C136.819 117.591 136.524 119.28 136.284 120.976C136.118 122.145 135.957 123.316 135.879 124.496C135.86 124.781 135.968 124.926 136.202 125.066C137.992 126.141 139.019 127.747 139.38 129.809C139.39 129.87 139.424 129.928 139.447 129.987V129.985Z" fill="#2F2B22"/>
<path d="M136.563 136.896C136.762 136.561 137.144 136.452 137.406 136.196C138.014 137.162 138.628 138.122 139.349 139.01C140.698 140.672 142.269 142.061 144.133 143.104C144.331 143.214 144.526 143.337 144.735 143.424C145.175 143.608 145.59 143.954 146.105 143.543C146.384 143.32 146.74 143.433 147.052 143.521C147.572 143.668 148.083 143.846 148.598 144.012C149.489 144.3 150.043 144.982 149.532 146.091C149.325 146.336 149.056 146.495 148.778 146.641C148.254 146.523 147.713 146.508 147.195 146.34C146.811 146.215 146.433 146.079 146.062 145.922C145.69 145.764 145.428 145.506 145.358 145.091C145.326 144.901 145.182 144.853 145.046 144.796C142.869 143.885 141.005 142.516 139.402 140.787C138.307 139.606 137.308 138.344 136.565 136.897L136.563 136.896Z" fill="#24201A"/>
<path d="M131.261 138.348C131.279 138.264 131.289 138.178 131.314 138.096C131.522 137.431 131.529 137.42 132.178 137.609C132.301 137.644 132.418 137.654 132.54 137.666C132.662 137.805 132.548 137.93 132.509 138.055C132.29 138.765 132.491 139.556 132.993 139.938C133.473 140.303 134.2 140.345 134.707 140.039C135.267 139.701 135.594 139.006 135.51 138.379C135.469 138.074 135.293 137.807 135.288 137.495C135.592 137.333 135.865 137.061 136.258 137.212C136.56 137.881 136.755 138.56 136.657 139.32C136.47 140.766 135.273 141.79 133.767 141.74C132.429 141.695 131.308 140.549 131.247 139.153C131.235 138.886 131.255 138.617 131.261 138.348H131.261Z" fill="#DD932F"/>
<path d="M135.581 135.818C135.29 135.937 135.007 136.083 134.707 136.172C133.367 136.566 132.074 136.436 130.918 135.628C129.738 134.803 129.081 133.628 128.821 132.19C128.523 130.551 128.894 129.084 129.798 127.741C130.353 126.916 131.094 126.297 132.058 125.994C132.176 125.957 132.307 125.944 132.398 125.843C133.002 125.596 133.637 125.608 134.249 125.724C136.023 126.062 137.135 127.227 137.773 128.861C138.504 130.732 138.258 132.543 137.238 134.249C136.834 134.924 136.307 135.484 135.58 135.818L135.581 135.818Z" fill="#383128"/>
<path d="M135.289 137.495C135.85 138.367 135.706 139.453 134.953 140.028C134.356 140.483 133.49 140.483 132.913 140.028C132.33 139.568 132.122 138.629 132.443 137.907C132.478 137.828 132.554 137.765 132.54 137.665C133.207 137.784 133.876 137.788 134.537 137.637C134.787 137.58 135.036 137.526 135.289 137.495Z" fill="#613316"/>
<path d="M135.58 135.818C136.02 135.422 136.51 135.082 136.868 134.598C137.516 133.723 137.88 132.739 138.017 131.654C138.182 130.352 137.915 129.143 137.249 128.041C136.136 126.203 134.498 125.486 132.399 125.843C132.443 125.799 132.481 125.725 132.531 125.715C133.458 125.533 134.382 125.412 135.275 125.878C136.416 126.474 137.272 127.309 137.81 128.532C138.158 129.325 138.368 130.135 138.358 130.958C138.346 131.87 138.197 132.779 137.741 133.635C137.447 134.187 137.151 134.707 136.727 135.159C136.41 135.498 136.064 135.778 135.582 135.818H135.58Z" fill="#271B0F"/>
</g>
<defs>
<clipPath id="clip0_638_7743">
<rect width="55" height="78" fill="white" transform="translate(101 89)"/>
</clipPath>
</defs>
</svg>
