<svg width="204" height="199" viewBox="0 0 204 199" fill="none" xmlns="http://www.w3.org/2000/svg">
<path d="M158.487 184.631C195.974 163.539 207.974 124.495 202.418 84.3636C202.8 65.6166 188.302 50.0167 181.108 33.3156C159.934 -12.4713 96.8155 -1.66353 57.4167 10.8844C19.5743 24.3091 -4.43906 92.6972 0.687148 129.498C3.28779 143.46 11.0897 157.129 18.0111 168.787C27.4649 179.289 43.8333 183.122 55.5055 191.381C59.7375 189.627 70.065 195.779 76.5973 195.684C104.454 199.932 133.743 201.285 158.494 184.638L158.487 184.631Z" fill="#9BA56B"/>
<g clip-path="url(#clip0_638_7657)">
<path d="M93.5439 69.9803L110.54 59.7048L110.519 124.522H93.8026L93.5439 69.9803Z" fill="#B98B59"/>
<path d="M110.154 59.5933H162.292V124.522L110.519 124.36L110.154 59.5933Z" fill="#E5BF90"/>
<path d="M117.634 117.442C117.665 117.396 117.695 117.341 117.71 117.31C117.507 117.016 117.208 116.763 117.137 116.453C116.985 115.774 116.95 115.069 116.868 114.374C116.808 113.836 116.919 113.197 116.66 112.786C116.113 111.919 116.169 111.113 116.483 110.235C116.554 110.047 116.757 109.769 117.016 109.484C116.311 109.769 115.59 110.697 115.702 111.366C115.874 112.416 116.108 113.466 116.123 114.516C116.138 115.672 116.158 116.717 117.117 117.589C117.518 117.954 117.619 118.649 117.847 119.177C118.015 119.075 117.954 117.914 117.624 117.447L117.634 117.442Z" fill="#B68CBB"/>
<path d="M117.71 119.567C117.523 120.09 117.969 121.439 118.831 122.179C118.933 122.265 119.227 122.002 119.379 121.814C119.425 121.753 119.354 121.327 119.252 121.216C118.75 120.637 118.218 120.105 117.705 119.567H117.71Z" fill="#B68CBB"/>
<path d="M122.514 123.802C122.63 123.904 122.676 123.954 122.732 123.99C122.884 124.096 123.036 124.193 123.188 124.299C123.107 124.046 123.076 123.65 122.94 123.569C121.945 122.935 121.21 121.353 119.922 121.829C119.729 121.9 119.592 122.26 119.425 122.484C119.602 122.631 119.775 122.828 119.962 122.92C120.201 123.031 120.48 122.996 120.708 123.143C121.332 123.549 121.93 124.015 122.544 124.462C122.721 124.735 122.904 125.009 123.082 125.288C123.137 125.207 123.193 125.121 123.254 125.04C123.051 124.746 122.853 124.451 122.65 124.157C122.615 124.071 122.579 123.98 122.508 123.812L122.514 123.802Z" fill="#B68CBB"/>
<path d="M122.442 116.22C122.199 115.652 122.032 115.053 121.768 114.495C121.377 113.664 121.23 111.199 121.595 110.047L121.9 108.643C122.356 107.613 123.492 107.395 124.375 106.944C124.669 106.791 126.682 106.497 128.209 107.375C128.412 107.471 128.605 107.598 128.792 107.75C128.767 107.714 128.681 107.577 128.493 107.293C128.828 107.43 129.015 107.506 129.178 107.572C127.991 106.391 126.505 106.213 124.77 106.472L124.288 106.391C122.757 106.315 122.224 106.462 120.743 106.807C120.196 106.938 119.688 107.126 119.45 107.725C119.354 107.973 119.227 108.211 119.1 108.45C119.161 108.688 119.257 108.937 119.43 109.16C119.491 109.206 119.546 109.266 119.597 109.337C119.592 109.337 119.587 109.332 119.577 109.332C119.592 109.348 119.607 109.358 119.622 109.373C119.79 109.601 119.891 109.895 119.81 110.088C119.582 110.651 119.323 111.199 119.09 111.757C118.573 112.989 118.263 114.272 118.923 115.505C119.546 116.666 120.348 117.731 121.083 118.827C121.316 119.172 121.585 119.496 121.839 119.826C121.519 119.806 121.22 119.714 121.083 119.516C120.464 118.629 119.861 117.736 119.318 116.803C118.811 115.946 117.918 115.251 118.05 114.201C117.888 114.592 117.888 115.033 118.268 115.51C118.613 115.946 118.806 116.504 119.085 116.996C119.262 117.315 119.455 117.62 119.653 117.924C119.759 118.086 119.866 118.264 120.013 118.396C120.378 118.71 120.764 118.959 120.794 119.537C120.824 120.13 121.671 120.602 122.062 120.303C122.168 120.424 122.275 120.546 122.387 120.668C122.468 120.389 122.478 120.09 122.336 119.902C121.732 119.121 121.058 118.406 120.464 117.62C119.414 116.235 118.928 114.754 119.648 113.014C120.059 112.02 120.317 110.955 120.611 109.916C120.804 109.241 120.5 108.774 119.983 108.845C119.82 108.866 119.648 108.815 119.48 108.8C119.597 108.658 119.699 108.495 119.835 108.379C120.028 108.211 120.246 108.069 120.464 107.933C120.591 107.851 120.733 107.765 120.875 107.74C120.926 107.73 121.007 107.907 121.093 108.024C120.966 108.034 120.911 108.039 120.794 108.049C121.245 108.303 121.646 108.531 121.428 109.109C121.286 109.479 121.149 109.855 121.027 110.235C120.987 110.367 120.992 110.519 120.977 110.687C121.048 110.631 121.088 110.6 121.169 110.539C121.159 110.676 121.159 110.778 121.149 110.869C120.992 111.939 120.824 113.009 120.672 114.08C120.591 114.622 120.688 115.084 121.154 115.469C121.524 115.779 121.824 116.194 122.087 116.605C122.361 117.036 122.529 117.533 122.777 117.98C122.863 118.132 123.056 118.228 123.203 118.335C123.213 118.345 123.35 118.238 123.34 118.203C123.305 118.03 123.254 117.858 123.178 117.701C122.939 117.199 122.671 116.707 122.452 116.2L122.442 116.22Z" fill="#B68CBB"/>
<path d="M123.106 114.693C123.066 114.343 123.03 113.988 123.04 113.638C122.827 113.491 122.787 113.111 122.822 112.67C122.346 113.588 122.412 114.516 122.919 115.474C123.035 115.697 122.99 116.002 123.086 116.24C123.299 116.757 123.553 117.265 123.786 117.772C123.867 117.741 123.948 117.706 124.029 117.675C123.857 117.052 123.69 116.428 123.502 115.809C123.385 115.429 123.142 115.074 123.101 114.688L123.106 114.693Z" fill="#B68CBB"/>
<path d="M126.931 115.946C127.078 115.916 127.215 115.581 127.261 115.363C127.393 114.719 127.474 114.069 127.565 113.486C127.56 113.486 127.352 113.466 127.301 113.364C127.012 112.786 126.84 112.127 126.465 111.62C126.175 111.229 125.602 110.732 125.242 110.793C124.649 110.9 124.116 111.422 123.563 111.767L123.68 111.97C123.787 111.883 123.939 111.828 124 111.716C124.375 111.031 125.08 111.077 125.541 111.26C126.028 111.452 126.388 112.041 126.769 112.487C127.555 113.405 127.459 114.688 126.576 115.54C125.962 116.134 125.815 116.905 125.851 117.944C125.897 117.645 125.912 117.554 125.932 117.457C126.059 116.808 126.094 116.118 126.931 115.946Z" fill="#B68CBB"/>
<path d="M129.659 112.279C129.969 111.488 129.776 110.636 129.183 110.316C129.837 111.889 129.761 112.457 128.812 112.624C128.919 112.381 129.015 112.178 129.107 111.97C129.036 111.954 128.97 111.944 128.904 111.929C128.787 112.634 128.676 113.339 128.554 114.049C128.599 114.009 128.65 113.968 128.696 113.932C128.696 114.222 128.539 114.394 128.407 114.587C128.366 114.648 128.326 114.754 128.351 114.815C128.741 115.718 127.6 116.027 127.585 116.783C127.585 116.879 127.301 116.97 127.139 117.057C127.098 117.077 127.037 117.077 126.992 117.067C126.414 116.925 126.388 117.381 126.297 117.731C126.201 118.117 126.15 118.517 126.104 118.913C126.048 119.369 126.023 119.831 125.982 120.293C126.256 120.1 126.383 119.897 126.49 119.679C127.19 118.208 127.915 116.747 128.564 115.256C128.985 114.293 129.284 113.268 129.665 112.284L129.659 112.279Z" fill="#B68CBB"/>
<path d="M128.28 120.693C128.514 120.632 128.706 120.15 128.879 119.821C129.001 119.593 129.016 119.253 129.143 119.035C130.284 117.138 130.542 114.891 130.568 112.548C130.461 113.177 130.36 113.806 130.253 114.44C130.228 114.435 130.208 114.429 130.182 114.424V113.43C130.091 113.872 130.025 114.191 129.964 114.506L129.903 114.485C129.924 114.064 129.939 113.648 129.959 113.111C129.913 113.258 129.893 113.288 129.888 113.324C129.853 113.537 129.807 113.75 129.797 113.968C129.711 115.657 129.193 117.057 128.331 118.259C127.92 118.827 127.55 119.466 127.22 120.13C126.906 120.754 126.83 121.454 127.276 122.24C127.23 121.15 127.651 120.84 128.28 120.688V120.693Z" fill="#B68CBB"/>
<path d="M132.484 117.356H132.393C132.327 116.945 132.256 116.539 132.19 116.134L132.124 116.144C132.215 116.656 132.301 117.173 132.403 117.752C132.535 117.64 132.57 117.604 132.768 117.432C132.768 117.883 132.768 118.203 132.758 118.517C132.758 118.533 132.641 118.548 132.646 118.543C132.286 119.156 131.936 119.75 131.591 120.338C131.617 120.348 131.637 120.358 131.667 120.369C131.723 120.308 131.779 120.242 131.865 120.156C131.896 120.637 132.017 121.114 131.394 121.358C131.252 121.408 131.008 121.287 130.8 121.241C130.775 121.287 130.724 121.53 130.623 121.545C130.257 121.601 130.278 121.733 130.405 121.946C130.435 121.997 130.374 122.083 130.354 122.154C130.166 122.093 129.979 122.032 129.791 121.971C129.745 121.956 129.705 121.941 129.659 121.926C129.659 121.961 129.639 122.012 129.659 122.032C129.897 122.311 129.629 122.367 129.395 122.483C129.055 122.646 128.746 122.854 128.447 123.067C128.279 123.188 128.112 123.341 128.041 123.508C127.874 123.878 127.767 124.269 127.646 124.649C127.646 124.649 127.843 124.725 127.874 124.7C128.376 124.33 128.888 123.97 129.355 123.569C129.928 123.077 130.369 122.468 131.018 122.068C132.256 121.297 132.631 120.186 133.011 119.09C133.356 118.107 132.809 117.178 132.388 116.23C132.423 116.626 132.454 116.996 132.484 117.361H132.479L132.484 117.356Z" fill="#B68CBB"/>
<path d="M129.634 112.984C129.994 112.705 130.136 112.157 130.43 111.772C130.872 111.189 131.308 110.6 131.83 110.093C132.403 109.535 133.19 109.165 133.666 108.546C134.635 107.283 137.029 107.015 138.195 108.13C138.353 108.277 138.728 108.303 138.961 108.237C140.107 107.922 141.238 107.562 142.375 107.212C142.917 107.684 143.521 108.1 143.982 108.643C144.459 109.206 144.89 109.85 145.169 110.529C145.352 110.971 145.2 111.544 145.255 112.051C145.397 113.309 145.402 114.495 144.195 115.155C144.779 116.641 144.317 117.929 143.44 119.151C142.684 120.201 140.67 120.617 139.854 120.079C139.463 120.531 139.179 121.099 138.728 121.317C137.861 121.743 136.887 122.22 135.974 122.194C135.188 122.169 134.427 121.474 133.955 121.236C132.905 120.571 131.881 120.267 131.475 119.593C130.775 118.426 130.476 117.026 129.974 115.733C129.842 115.388 129.594 115.084 129.401 114.759C129.355 114.785 129.31 114.81 129.259 114.835C129.411 115.18 129.563 115.525 129.827 116.113C128.762 114.932 128.326 113.993 129.629 112.984H129.634ZM137.217 108.069C135.558 107.314 134.153 107.821 133.438 109.51C133.382 109.647 133.438 109.976 133.524 110.007C133.793 110.108 134.123 110.205 134.386 110.139C135.122 109.946 135.842 109.687 136.557 109.424C136.993 109.261 137.414 109.048 137.795 108.881C137.293 108.734 136.567 108.521 135.588 108.242C136.293 108.166 136.78 108.115 137.217 108.069ZM137.13 110.823C137.242 110.798 137.338 110.717 137.44 110.661C137.384 110.565 137.353 110.428 137.272 110.377C135.817 109.449 134.696 109.819 134.016 111.427C133.935 111.62 133.712 111.752 133.641 111.944C133.545 112.193 133.524 112.477 133.468 112.751C133.788 112.751 134.153 112.852 134.427 112.736C135.264 112.386 136.075 111.98 136.892 111.584H135.457C135.441 111.463 135.421 111.341 135.406 111.219C135.979 111.092 136.557 110.965 137.13 110.829V110.823ZM141.355 107.862C140.696 108.105 139.869 108.404 139.053 108.714C138.976 108.739 138.88 108.901 138.89 108.911C138.971 109.008 139.108 109.17 139.179 109.145C141.254 108.561 142.653 109.535 143.987 110.945C143.135 109.946 142.288 108.947 141.36 107.856L141.355 107.862ZM141.883 116.631C141.928 116.093 141.979 115.51 142.035 114.921C142.101 114.911 142.167 114.901 142.238 114.891C142.309 115.961 142.38 117.031 142.451 118.101C142.517 118.117 142.588 118.127 142.653 118.142C142.801 117.31 142.704 117.102 142.866 116.271C142.892 116.144 142.927 115.905 143.009 115.789C143.1 116.509 143.485 116.828 143.693 117.168C143.754 117.153 143.815 117.133 143.881 117.118C143.698 116.514 143.511 115.91 143.328 115.307C143.216 113.664 141.954 113.775 140.97 113.725C141.249 114.617 141.568 115.616 141.883 116.626V116.631ZM141.741 112.304C141.34 111.848 140.848 111.285 140.107 110.448C140.894 111.057 141.426 111.468 142.258 112.112C141.959 111.457 141.817 111.138 141.583 110.626C141.943 110.96 142.177 111.168 142.4 111.386C142.501 111.488 142.588 111.61 142.679 111.721C142.74 111.655 142.801 111.584 142.866 111.513C142.745 111.407 142.618 111.315 142.511 111.194C142.182 110.823 141.913 110.377 141.528 110.083C140.599 109.383 139.377 109.505 139.073 110.448C138.687 111.645 139.032 113.009 140.407 113.009C140.153 112.507 139.808 111.828 139.463 111.153C140.239 111.549 141.015 111.944 141.735 112.309L141.741 112.304ZM137.511 116.752C137.577 116.742 137.643 116.732 137.714 116.722C137.531 115.692 137.348 114.668 137.166 113.638C137.201 113.623 137.232 113.608 137.262 113.588C137.546 114.343 137.825 115.104 138.119 115.89C138.028 115.327 137.937 114.774 137.805 113.978C138.241 114.779 138.55 115.368 138.89 115.941C138.951 116.042 139.124 116.078 139.25 116.139C139.281 115.992 139.367 115.834 139.342 115.703C139.205 115.058 139.042 114.424 138.976 114.151C139.301 114.384 139.889 114.81 140.483 115.241C140.564 115.14 140.65 115.038 140.736 114.937C139.656 114.014 138.586 113.065 137.465 112.188C137.293 112.056 136.856 112.264 136.542 112.315C136.598 112.614 136.654 112.913 136.714 113.222C136.654 113.197 136.512 113.146 136.375 113.101C137.166 115.621 137.384 116.311 137.521 116.742L137.511 116.752ZM135.259 117.107V115.134C135.659 116.291 135.999 117.254 136.253 117.97C136.096 116.428 135.923 114.698 135.73 112.771C135.31 113.304 134.645 113.801 134.468 114.44C134.194 115.424 134.25 116.499 134.381 117.554C134.432 116.524 134.478 115.49 134.528 114.46C134.574 114.47 134.62 114.475 134.665 114.485C134.787 115.368 134.904 116.245 135.025 117.128C135.102 117.123 135.183 117.118 135.259 117.107ZM133.22 119.887C133.235 119.755 133.245 119.623 133.261 119.491C133.722 119.461 134.189 119.435 134.802 119.395C133.722 119.025 132.743 118.69 131.769 118.355C131.709 118.436 131.648 118.512 131.587 118.593C132.135 119.025 132.677 119.456 133.225 119.892L133.22 119.887ZM131.409 117.29C131.769 117.128 132.14 116.97 132.495 116.793C132.535 116.773 132.5 116.615 132.5 116.21C132.774 116.91 132.941 117.331 133.19 117.965C133.108 117.092 133.047 116.443 132.987 115.799C133.047 115.789 133.108 115.784 133.174 115.779C133.21 115.9 133.245 116.022 133.286 116.164C133.463 115.347 133.697 114.561 133.768 113.76C133.788 113.552 133.23 113.05 133.093 113.101C132.515 113.319 131.993 113.694 131.45 114.014C129.614 115.084 131.394 116.2 131.409 117.295V117.29ZM130.39 114.572C130.588 114.145 130.826 113.73 130.973 113.283C131.075 112.989 131.049 112.649 131.283 112.35V112.913C131.658 112.715 132.008 112.528 132.358 112.345C132.439 112.457 132.515 112.573 132.596 112.685C132.941 112.086 133.286 111.483 133.656 110.839C133.418 110.986 133.245 111.092 133.073 111.199C133.083 110.991 133.134 110.768 133.088 110.57C133.058 110.448 132.89 110.271 132.779 110.266C131.267 110.22 131.039 111.513 130.517 112.492C130.41 112.7 130.314 112.908 130.223 113.126C130.086 113.466 129.913 113.801 129.867 114.151C129.852 114.267 130.202 114.424 130.385 114.566L130.39 114.572Z" fill="#EBC194"/>
<path d="M136.537 112.33C136.851 112.279 137.288 112.071 137.46 112.203C138.581 113.075 139.646 114.024 140.731 114.952C140.65 115.053 140.564 115.155 140.478 115.256C139.884 114.83 139.296 114.399 138.971 114.166C139.037 114.435 139.2 115.074 139.337 115.718C139.362 115.85 139.281 116.007 139.245 116.154C139.123 116.088 138.946 116.052 138.885 115.956C138.545 115.383 138.236 114.79 137.8 113.993C137.932 114.79 138.023 115.342 138.114 115.905C137.82 115.119 137.541 114.358 137.257 113.603C137.222 113.618 137.191 113.633 137.161 113.654C137.343 114.683 137.526 115.708 137.708 116.737C137.643 116.747 137.577 116.757 137.506 116.768C137.369 116.336 137.151 115.642 136.359 113.126C136.496 113.177 136.638 113.227 136.699 113.248C136.643 112.938 136.583 112.639 136.527 112.34L136.537 112.33Z" fill="#F7E6D4"/>
<path d="M134.529 114.46C134.478 115.489 134.427 116.524 134.382 117.554C134.25 116.499 134.194 115.424 134.468 114.44C134.645 113.806 135.305 113.304 135.731 112.771C135.924 114.698 136.096 116.428 136.253 117.97C136 117.249 135.665 116.286 135.259 115.134V117.107C135.183 117.112 135.102 117.118 135.026 117.128C134.904 116.245 134.787 115.368 134.666 114.485C134.62 114.475 134.574 114.47 134.529 114.46Z" fill="#F7E6D4"/>
<path d="M134.803 119.395C134.189 119.435 133.722 119.461 133.261 119.491C133.246 119.623 133.235 119.755 133.22 119.887C132.672 119.456 132.13 119.025 131.582 118.588C131.643 118.507 131.704 118.431 131.765 118.35C132.738 118.685 133.717 119.019 134.798 119.39L134.803 119.395Z" fill="#F7E6D4"/>
<path d="M131.449 114.014C131.992 113.699 132.515 113.319 133.093 113.101C133.23 113.05 133.788 113.552 133.767 113.76C133.691 114.561 133.463 115.347 133.285 116.164C133.245 116.022 133.209 115.9 133.174 115.779C133.113 115.789 133.052 115.794 132.986 115.799C133.047 116.448 133.108 117.092 133.189 117.965C132.941 117.331 132.773 116.905 132.499 116.21C132.499 116.61 132.53 116.773 132.494 116.793C132.139 116.97 131.774 117.128 131.409 117.29C131.389 116.194 129.613 115.084 131.449 114.009V114.014Z" fill="#F7E6D4"/>
<path d="M134.457 115.099C134.351 114.414 134.3 113.719 134.189 113.035C134.118 112.609 134.062 112.147 133.859 111.782C133.352 110.854 132.652 110.022 132.246 109.058C131.384 107.004 129.725 106.147 127.727 105.706L126.764 105.447L125.526 105.275C124.643 105.229 123.786 105.285 123.832 105.3H122.473C121.448 105.397 119.835 106.031 118.826 106.284C117.715 106.563 116.975 107.334 116.3 108.217C116.027 108.572 115.56 108.785 115.164 109.023C114.464 109.439 114.49 110.118 114.398 110.803C114.322 111.376 114.099 111.929 113.947 112.492C113.907 112.649 113.876 112.812 113.876 112.974C113.876 113.912 113.957 114.85 113.881 115.779C113.8 116.763 113.836 117.716 114.282 118.604C114.48 118.994 114.759 119.344 115.022 119.699C115.058 119.745 115.22 119.704 115.322 119.704H115.788C115.788 119.674 115.798 119.633 115.798 119.582C115.879 120.252 115.956 120.845 116.027 121.434C116.052 121.464 116.067 121.5 116.072 121.54C116.072 121.55 116.072 121.56 116.077 121.571C116.792 121.834 117.284 122.397 117.812 122.945C118.121 123.27 118.659 123.361 119.054 123.62C119.374 123.833 119.602 124.177 119.906 124.411C120.175 124.614 120.505 124.735 120.779 124.928C120.89 125.009 121.012 125.202 120.997 125.324C120.951 125.628 120.799 125.917 120.743 126.221C120.718 126.353 120.718 126.47 120.733 126.571C121.063 126.632 121.387 126.673 121.722 126.703C123.234 126.713 124.745 126.83 126.251 126.921C126.774 126.891 127.296 126.86 127.824 126.83C128.047 126.769 128.275 126.734 128.508 126.688C128.473 126.546 128.447 126.455 128.463 126.363C128.498 126.1 128.498 125.699 128.66 125.603C129.675 124.989 130.73 124.446 131.769 123.873C131.856 123.828 131.927 123.736 131.998 123.66C132.211 123.437 132.424 123.214 132.637 122.986C132.652 122.95 132.672 122.91 132.708 122.879C133.063 122.494 133.387 122.083 133.687 121.652C133.692 121.616 133.702 121.576 133.707 121.54C133.697 121.555 133.692 121.571 133.687 121.581C133.717 121.388 133.742 121.2 133.768 121.018V120.972C133.768 120.932 133.778 120.896 133.788 120.866C133.864 120.333 133.94 119.826 134.016 119.314C133.96 119.324 133.915 119.334 133.808 119.354C133.945 119.192 134.052 119.055 134.229 118.837C134.3 118.654 134.381 118.477 134.473 118.309C134.391 118.071 134.315 117.838 134.229 117.594C134.397 117.27 134.716 116.91 134.747 116.529C134.777 116.058 134.539 115.571 134.462 115.089H134.452L134.457 115.099ZM117.127 117.584C116.169 116.712 116.148 115.672 116.133 114.511C116.118 113.456 115.885 112.406 115.712 111.361C115.6 110.692 116.321 109.763 117.026 109.479C116.762 109.769 116.559 110.042 116.493 110.23C116.179 111.107 116.123 111.919 116.671 112.781C116.929 113.192 116.818 113.831 116.879 114.369C116.96 115.063 116.995 115.768 117.147 116.448C117.218 116.757 117.518 117.016 117.721 117.305C117.705 117.336 117.675 117.386 117.644 117.437C117.979 117.899 118.035 119.06 117.868 119.161C117.639 118.629 117.538 117.939 117.137 117.574L117.127 117.584ZM119.379 121.814C119.227 122.002 118.933 122.265 118.831 122.179C117.964 121.439 117.523 120.09 117.71 119.567C118.223 120.11 118.755 120.637 119.257 121.216C119.359 121.327 119.43 121.753 119.384 121.814H119.379ZM123.092 125.283C122.914 125.009 122.731 124.735 122.554 124.456C121.945 124.015 121.342 123.549 120.718 123.138C120.495 122.991 120.211 123.031 119.972 122.915C119.78 122.823 119.612 122.631 119.435 122.478C119.597 122.255 119.734 121.895 119.932 121.824C121.225 121.347 121.961 122.93 122.95 123.564C123.081 123.65 123.117 124.046 123.198 124.294C123.046 124.193 122.894 124.091 122.742 123.985C122.691 123.949 122.64 123.899 122.523 123.797C122.594 123.97 122.63 124.056 122.665 124.142C122.868 124.436 123.066 124.73 123.269 125.024C123.213 125.106 123.157 125.192 123.097 125.273L123.092 125.283ZM123.193 118.35C123.041 118.244 122.848 118.147 122.767 117.995C122.518 117.549 122.351 117.052 122.077 116.621C121.819 116.205 121.514 115.794 121.144 115.484C120.672 115.094 120.581 114.637 120.662 114.095C120.819 113.025 120.982 111.954 121.139 110.884C121.154 110.788 121.154 110.687 121.159 110.555C121.083 110.616 121.043 110.646 120.966 110.702C120.987 110.534 120.977 110.382 121.017 110.25C121.139 109.87 121.276 109.5 121.418 109.124C121.636 108.546 121.235 108.323 120.784 108.064C120.901 108.054 120.961 108.049 121.083 108.039C120.997 107.922 120.921 107.745 120.865 107.755C120.723 107.78 120.581 107.862 120.454 107.948C120.241 108.085 120.023 108.227 119.825 108.394C119.688 108.511 119.587 108.673 119.47 108.815C119.638 108.835 119.81 108.886 119.972 108.861C120.485 108.79 120.789 109.256 120.601 109.931C120.307 110.971 120.054 112.036 119.638 113.03C118.912 114.774 119.404 116.25 120.454 117.635C121.048 118.421 121.722 119.141 122.326 119.917C122.468 120.1 122.458 120.404 122.376 120.683C122.27 120.561 122.163 120.44 122.052 120.318C121.661 120.617 120.814 120.14 120.784 119.552C120.753 118.969 120.368 118.72 120.003 118.411C119.856 118.284 119.749 118.107 119.643 117.939C119.445 117.635 119.252 117.326 119.075 117.011C118.801 116.514 118.608 115.961 118.258 115.525C117.878 115.048 117.883 114.607 118.04 114.216C117.908 115.266 118.806 115.956 119.308 116.818C119.851 117.752 120.459 118.644 121.073 119.532C121.215 119.73 121.509 119.821 121.829 119.841C121.575 119.506 121.306 119.187 121.073 118.842C120.338 117.746 119.531 116.681 118.912 115.52C118.253 114.288 118.562 112.999 119.08 111.772C119.313 111.214 119.572 110.661 119.8 110.103C119.881 109.911 119.78 109.616 119.612 109.388C119.597 109.373 119.582 109.363 119.567 109.348C119.572 109.348 119.582 109.353 119.587 109.353C119.536 109.287 119.48 109.226 119.42 109.175C119.247 108.957 119.151 108.703 119.09 108.465C119.217 108.227 119.343 107.988 119.44 107.74C119.673 107.141 120.18 106.949 120.733 106.822C122.214 106.477 122.742 106.33 124.278 106.406L124.76 106.487C126.495 106.228 127.986 106.406 129.168 107.588C129.005 107.522 128.818 107.441 128.483 107.309C128.671 107.593 128.762 107.73 128.782 107.765C128.594 107.613 128.397 107.486 128.199 107.39C126.672 106.512 124.659 106.807 124.365 106.959C123.482 107.41 122.341 107.628 121.89 108.658L121.585 110.063C121.225 111.214 121.367 113.679 121.758 114.511C122.021 115.069 122.189 115.667 122.432 116.235C122.65 116.742 122.919 117.234 123.157 117.736C123.234 117.894 123.284 118.066 123.32 118.238C123.33 118.274 123.193 118.38 123.183 118.37L123.193 118.35ZM125.556 109.261C125.962 109.525 126.373 109.672 126.753 109.15C126.824 109.053 127.179 109.17 127.281 109.175C127.063 109.388 126.875 109.571 126.682 109.748C126.616 109.809 126.505 109.89 126.459 109.87C126.008 109.652 125.496 109.479 125.135 109.15C124.846 108.886 125.394 108.156 125.891 108.151C126.485 108.146 127.083 108.151 127.682 108.186C128.31 108.227 129.066 109.535 128.843 109.936C128.605 109.632 128.341 109.282 128.057 108.957C127.727 108.587 127.347 108.511 126.835 108.627C126.449 108.714 126.008 108.551 125.592 108.541C125.501 108.541 125.323 108.729 125.328 108.81C125.348 108.972 125.43 109.18 125.556 109.261ZM123.791 117.777C123.558 117.27 123.305 116.763 123.092 116.245C122.995 116.007 123.041 115.703 122.924 115.479C122.412 114.526 122.346 113.593 122.828 112.675C122.792 113.116 122.828 113.496 123.046 113.643C123.036 113.993 123.071 114.348 123.112 114.698C123.152 115.079 123.396 115.439 123.512 115.819C123.705 116.438 123.868 117.062 124.04 117.686C123.959 117.716 123.878 117.752 123.797 117.782L123.791 117.777ZM125.369 114.44H125.673C125.764 114.08 125.43 113.598 125.049 113.572C125.004 113.572 124.963 113.446 124.917 113.38C124.983 113.354 125.049 113.314 125.12 113.304C125.186 113.288 125.257 113.304 125.48 113.304C125.257 113.025 125.115 112.771 124.902 112.629C124.836 112.583 124.507 112.776 124.425 112.933C124.248 113.288 124.146 113.684 123.954 114.242C124.081 113.654 124.065 113.177 124.283 112.842C124.486 112.528 125.095 112.107 125.232 112.193C125.632 112.446 125.881 112.933 126.069 113.42C125.922 113.146 125.81 113.258 125.617 113.02C125.521 112.898 125.318 112.599 125.141 112.538C125.186 112.659 125.181 112.67 125.242 112.776C125.622 113.441 125.881 114.13 125.764 114.911C125.754 114.977 125.764 115.043 125.764 115.18C125.846 115.048 125.881 114.982 125.927 114.916C125.947 114.932 125.967 114.942 125.988 114.952C125.901 115.089 125.815 115.231 125.729 115.358L125.364 114.445L125.369 114.44ZM125.861 117.939C125.825 116.899 125.972 116.129 126.586 115.535C127.468 114.683 127.565 113.4 126.779 112.482C126.398 112.036 126.038 111.447 125.551 111.255C125.09 111.072 124.38 111.026 124.01 111.711C123.949 111.823 123.797 111.883 123.69 111.965L123.573 111.762C124.131 111.417 124.659 110.894 125.252 110.788C125.612 110.722 126.185 111.219 126.474 111.615C126.85 112.117 127.017 112.781 127.311 113.359C127.362 113.461 127.57 113.481 127.575 113.481C127.484 114.069 127.403 114.719 127.271 115.358C127.225 115.576 127.083 115.91 126.941 115.941C126.109 116.113 126.064 116.803 125.942 117.452C125.922 117.549 125.911 117.645 125.861 117.939ZM125.977 120.287C126.018 119.831 126.048 119.369 126.099 118.908C126.145 118.512 126.195 118.112 126.292 117.726C126.378 117.376 126.408 116.92 126.987 117.062C127.032 117.072 127.093 117.077 127.134 117.052C127.291 116.965 127.575 116.874 127.58 116.778C127.6 116.022 128.736 115.713 128.346 114.81C128.321 114.749 128.361 114.643 128.402 114.582C128.539 114.394 128.691 114.216 128.691 113.927C128.645 113.968 128.599 114.003 128.549 114.044C128.665 113.329 128.782 112.624 128.899 111.924C128.97 111.939 129.036 111.949 129.102 111.965C129.01 112.173 128.914 112.381 128.807 112.619C129.756 112.452 129.832 111.878 129.178 110.311C129.776 110.631 129.964 111.483 129.654 112.274C129.269 113.258 128.975 114.277 128.554 115.246C127.905 116.737 127.179 118.198 126.479 119.669C126.378 119.887 126.246 120.09 125.972 120.282L125.977 120.287ZM127.276 122.24C126.829 121.449 126.911 120.754 127.22 120.13C127.55 119.466 127.92 118.832 128.331 118.259C129.198 117.057 129.71 115.657 129.796 113.968C129.807 113.75 129.852 113.537 129.888 113.324C129.893 113.288 129.913 113.253 129.959 113.111C129.938 113.648 129.918 114.069 129.903 114.485L129.964 114.506C130.03 114.186 130.096 113.872 130.182 113.43V114.424C130.182 114.424 130.228 114.435 130.253 114.44C130.359 113.811 130.461 113.182 130.567 112.548C130.542 114.896 130.288 117.143 129.142 119.035C129.01 119.248 129 119.588 128.878 119.821C128.706 120.15 128.513 120.637 128.28 120.693C127.651 120.85 127.23 121.155 127.276 122.245V122.24ZM133.012 119.08C132.632 120.176 132.251 121.287 131.019 122.057C130.37 122.458 129.928 123.072 129.355 123.559C128.889 123.959 128.381 124.32 127.874 124.69C127.844 124.715 127.641 124.639 127.646 124.639C127.768 124.259 127.874 123.868 128.042 123.498C128.118 123.336 128.28 123.178 128.447 123.057C128.742 122.844 129.056 122.641 129.396 122.473C129.634 122.357 129.898 122.306 129.659 122.022C129.639 121.997 129.659 121.951 129.659 121.915C129.705 121.931 129.746 121.951 129.791 121.961C129.979 122.022 130.167 122.083 130.354 122.144C130.375 122.073 130.435 121.986 130.405 121.936C130.278 121.723 130.258 121.596 130.623 121.535C130.725 121.52 130.775 121.276 130.801 121.231C131.009 121.276 131.257 121.398 131.394 121.347C132.023 121.104 131.901 120.627 131.866 120.145C131.785 120.237 131.724 120.298 131.668 120.358C131.643 120.348 131.622 120.338 131.592 120.328C131.937 119.735 132.287 119.146 132.647 118.533C132.642 118.533 132.758 118.522 132.758 118.507C132.769 118.193 132.769 117.878 132.769 117.422C132.571 117.594 132.53 117.63 132.403 117.741C132.302 117.163 132.211 116.651 132.124 116.134L132.19 116.123C132.256 116.534 132.327 116.94 132.393 117.346H132.484C132.454 116.981 132.419 116.615 132.388 116.215C132.804 117.163 133.352 118.086 133.012 119.075H133.017L133.012 119.08Z" fill="#A35380"/>
<path d="M115.134 121.307C114.987 122.128 115.702 123.964 114.987 124.974C114.678 125.41 114.393 125.694 114.018 125.846L114.307 126.825C114.338 126.926 114.206 127.002 114.135 126.916C113.886 126.622 113.541 126.247 113.349 126.125C113.141 125.998 113.825 127.114 114.383 127.991C114.449 128.098 114.302 128.215 114.216 128.118L113.328 127.165C113.328 127.165 113.673 128.97 113.927 129.843C113.465 129.858 112.476 126.592 112.324 126.384C112.172 126.176 112.791 130.238 112.4 129.99C112.015 129.741 111.553 126.708 111.361 126.962L110.59 127.642C110.503 127.753 109.905 127.9 109.951 127.768C110.148 127.241 110.929 126.379 111.016 126.074C111.056 125.927 111.092 125.785 111.122 125.638C109.651 125.187 109.433 124.391 109.489 123.589C109.55 122.691 109.763 117.468 109.895 116.26C110.027 115.048 109.504 113.978 108.896 112.568C108.292 111.153 108.647 109.804 108.85 108.901C109.053 108.004 107.8 106.35 107.592 105.762C107.384 105.173 107.891 103.926 108.064 103.581C108.236 103.236 108.333 102.095 108.333 102.095C109.073 102.47 108.738 103.596 109.281 105.133C109.824 106.67 111.295 107.75 111.203 109.165C111.112 110.575 111.315 110.616 112.344 112.817C112.38 112.665 112.421 112.523 112.461 112.406C112.73 111.681 112.01 107.978 112.116 107.086C112.634 107.253 113.46 107.304 113.952 108.734C114.515 110.372 115.078 112.294 114.535 113.968C113.993 115.647 115.763 117.812 115.129 121.307H115.134ZM114.419 117.589C114.312 116.798 113.689 115.535 113.866 114.485C113.881 114.409 113.896 114.338 113.917 114.267C113.922 114.247 113.927 114.222 113.932 114.201C114.028 113.775 114.099 113.441 114.12 113.273C114.12 113.273 114.723 111.802 113.607 110.986C113.668 112.695 113.273 112.979 113.308 113.217C113.328 113.364 112.973 113.567 112.933 113.73C113.024 114.1 112.578 114.541 112.101 115.342C112.076 115.383 111.858 116.57 111.746 117.204C111.726 117.32 111.685 117.574 111.655 117.792C111.563 117.66 111.497 117.574 111.447 117.604C111.447 117.589 111.472 117.432 111.508 117.204C111.361 116.052 111.406 115.804 111.66 114.359C110.955 114.074 111.244 114.105 110.651 113.867C111.127 113.577 111.452 113.38 111.629 113.273C111.523 112.228 110.478 111.001 110.514 110.037C110.6 107.633 108.612 106.949 108.069 104.408C107.851 105.057 107.876 105.209 107.962 105.701C107.988 105.848 109.21 108.004 109.241 108.161C109.241 108.161 109.114 109.251 109.18 109.312C109.362 109.495 109.596 109.581 109.682 109.814C109.733 109.946 109.17 110.103 109.114 110.276C108.951 110.179 109.114 111.229 108.957 111.128C108.84 111.249 109.92 110.636 109.804 110.752C109.986 111.036 110.265 111.047 110.361 111.361C110.443 111.615 110.331 111.934 110.306 112.223C110.153 112.208 109.93 112.249 109.869 112.162C109.783 112.046 109.915 112.761 110.057 113.258C110.346 114.206 110.057 113.897 110.321 114.622C110.407 115.195 110.493 115.748 110.422 115.885C110.412 115.926 110.402 115.976 110.392 116.032C110.361 116.174 110.346 116.301 110.331 116.423C110.29 116.737 110.255 117.128 110.214 117.513C110.214 117.523 110.214 117.533 110.209 117.544C110.143 118.238 110.082 118.933 110.011 119.238C110.64 119.43 110.874 119.42 111.533 119.638C111.599 119.664 111.629 119.801 111.68 119.887C111.518 119.902 111.355 119.953 111.198 119.927C110.696 119.851 111.112 119.856 110.615 119.861C110.407 119.861 110.204 120.171 110.001 120.364V120.582L109.94 121.327C109.9 121.581 109.991 122.164 109.946 123.209C110.737 123.239 111.533 123.254 112.324 123.331C112.441 123.341 112.568 123.635 112.623 123.817C112.644 123.878 112.476 124.076 112.37 124.096C111.624 124.233 110.752 123.736 110.052 123.848C110.148 124.416 110.625 124.837 111.208 125.101C112.162 125.532 113.404 125.542 113.709 125.075C113.349 124.872 111.771 124.984 111.244 124.822C111.208 124.811 111.173 124.796 111.148 124.781C111.178 124.781 111.213 124.771 111.254 124.761C111.492 124.715 111.898 124.624 112.329 124.527C113.004 124.375 113.739 124.203 114.013 124.127C114.18 124.081 114.424 123.848 114.419 123.706C114.393 123.016 114.368 122.306 114.191 121.647C114.14 121.464 113.587 121.353 113.252 121.327C112.73 121.287 112.197 121.342 111.67 121.347C111.639 121.347 111.579 121.241 111.584 121.19C111.584 121.134 111.65 121.074 111.7 121.048C112.01 120.891 112.324 120.612 112.639 120.612C114.368 120.622 114.652 120.825 114.53 120.024C114.459 119.577 114.16 119.288 113.785 119.06C114.079 118.969 114.358 118.908 114.551 119.06C114.226 118.593 114.49 118.198 114.414 117.599H114.424L114.419 117.589Z" fill="#D78228"/>
<path d="M113.795 119.055C114.175 119.288 114.474 119.577 114.54 120.019C114.662 120.825 114.378 120.617 112.649 120.607C112.339 120.607 112.02 120.886 111.71 121.043C111.654 121.068 111.594 121.134 111.594 121.185C111.594 121.236 111.649 121.342 111.68 121.342C112.207 121.342 112.74 121.281 113.262 121.322C113.592 121.352 114.15 121.459 114.2 121.642C114.378 122.301 114.408 123.011 114.429 123.701C114.429 123.843 114.19 124.076 114.023 124.122C113.749 124.198 113.014 124.37 112.339 124.522C111.908 124.619 111.507 124.71 111.264 124.756C111.223 124.761 111.188 124.771 111.157 124.776C111.183 124.791 111.218 124.806 111.254 124.817C111.786 124.979 113.359 124.867 113.719 125.07C113.409 125.532 112.172 125.527 111.218 125.095C110.64 124.832 110.163 124.411 110.062 123.843C110.762 123.736 111.634 124.228 112.38 124.091C112.481 124.071 112.654 123.878 112.633 123.812C112.578 123.63 112.456 123.341 112.334 123.325C111.543 123.249 110.747 123.239 109.955 123.204C109.996 122.159 109.91 121.576 109.95 121.322L110.011 120.576V120.358C110.214 120.171 110.417 119.856 110.625 119.856C111.122 119.856 110.711 119.846 111.208 119.922C111.36 119.948 111.533 119.897 111.69 119.882C111.644 119.795 111.614 119.658 111.543 119.633C110.878 119.415 110.645 119.425 110.021 119.232C110.087 118.923 110.153 118.233 110.219 117.538C110.219 117.528 110.219 117.513 110.219 117.503C110.255 117.118 110.295 116.732 110.336 116.413C110.356 116.265 110.371 116.134 110.397 116.022C110.407 115.966 110.417 115.921 110.427 115.875C110.498 115.738 110.412 115.185 110.326 114.612C110.057 113.887 110.351 114.196 110.062 113.248C109.92 112.751 109.788 112.036 109.874 112.152C109.935 112.233 110.158 112.193 110.31 112.213C110.336 111.924 110.447 111.61 110.366 111.351C110.27 111.036 109.991 111.026 109.808 110.742C109.925 110.621 108.845 111.234 108.961 111.118C109.124 111.214 108.961 110.164 109.119 110.266C109.174 110.088 109.737 109.936 109.687 109.804C109.595 109.571 109.362 109.484 109.184 109.302C109.124 109.241 109.245 108.151 109.245 108.151C109.215 107.998 107.993 105.838 107.967 105.691C107.881 105.204 107.856 105.052 108.074 104.397C108.616 106.938 110.605 107.628 110.518 110.027C110.488 110.991 111.528 112.218 111.634 113.263C111.457 113.369 111.132 113.567 110.655 113.856C111.249 114.095 110.96 114.064 111.665 114.348C111.406 115.794 111.36 116.042 111.512 117.194C111.472 117.417 111.452 117.574 111.452 117.594C111.502 117.564 111.568 117.65 111.66 117.782C111.69 117.564 111.731 117.31 111.751 117.194C111.862 116.555 112.08 115.373 112.106 115.332C112.583 114.531 113.029 114.09 112.938 113.719C112.978 113.557 113.333 113.349 113.313 113.207C113.277 112.964 113.668 112.68 113.612 110.976C114.723 111.792 114.124 113.263 114.124 113.263C114.099 113.43 114.033 113.765 113.937 114.191C113.937 114.191 113.927 114.237 113.922 114.257C113.906 114.328 113.891 114.399 113.871 114.475C113.693 115.525 114.322 116.788 114.424 117.579C114.505 118.183 114.241 118.573 114.561 119.04C114.368 118.893 114.089 118.954 113.795 119.04H113.79L113.795 119.055Z" fill="#E0AF62"/>
<path d="M127.697 116.818C127.727 116.615 127.798 116.428 127.823 116.23C127.844 116.058 127.915 115.89 127.976 115.718C128.118 115.312 128.249 114.906 128.407 114.506C128.538 114.166 128.701 113.836 128.909 113.537C129.056 113.324 129.213 113.116 129.385 112.923C129.619 112.67 129.888 112.452 130.172 112.259C130.395 112.107 130.618 111.954 130.841 111.802C130.958 111.726 131.069 111.65 131.186 111.569C131.201 111.594 131.206 111.61 131.211 111.62C131.242 111.579 131.257 111.528 131.292 111.498C131.48 111.366 131.673 111.239 131.866 111.113C132.104 110.95 132.352 110.808 132.621 110.712C132.779 110.656 132.936 110.58 133.098 110.565C133.27 110.555 133.443 110.468 133.615 110.555C133.768 110.555 133.91 110.6 134.057 110.651C134.133 110.681 134.209 110.671 134.29 110.636C134.442 110.565 134.599 110.514 134.757 110.448C134.949 110.367 135.152 110.331 135.35 110.281C135.558 110.225 135.776 110.255 135.989 110.215H135.999C136.065 110.23 136.136 110.245 136.207 110.25C136.308 110.281 136.42 110.296 136.537 110.301C136.618 110.316 136.704 110.326 136.8 110.326C136.912 110.357 137.039 110.377 137.171 110.377H137.211C137.536 110.443 137.855 110.529 138.17 110.626C138.54 110.732 138.895 110.879 139.245 111.006C139.301 111.042 139.357 111.072 139.417 111.097C139.549 111.219 139.717 111.315 139.915 111.366C139.98 111.402 140.046 111.437 140.107 111.483C140.371 111.681 140.63 111.889 140.822 112.162C140.878 112.238 140.929 112.32 140.98 112.401C141.056 112.517 141.111 112.649 141.167 112.771C141.324 113.111 141.614 113.359 141.852 113.633C141.933 113.725 142.024 113.811 142.1 113.907C142.207 114.039 142.278 114.191 142.364 114.333C142.455 114.48 142.501 114.648 142.567 114.805C142.714 115.19 142.755 115.601 142.8 116.007C142.821 116.194 142.811 116.382 142.831 116.57C142.861 116.879 142.846 117.189 142.866 117.498C142.892 117.914 142.866 118.33 142.876 118.746C142.876 118.964 142.846 119.177 142.805 119.385C142.734 119.73 142.577 120.039 142.364 120.318C142.222 120.5 142.07 120.678 141.928 120.866C141.745 121.114 141.573 121.373 141.39 121.621C141.264 121.799 141.132 121.981 140.99 122.144C140.711 122.473 140.361 122.712 139.975 122.904C139.747 123.021 139.504 123.107 139.27 123.214C139.002 123.33 138.738 123.447 138.469 123.559C138.408 123.584 138.347 123.609 138.286 123.635C138.221 123.66 138.15 123.686 138.084 123.716C138.018 123.741 137.962 123.767 137.901 123.792C137.835 123.822 137.769 123.848 137.703 123.878C137.622 123.817 137.607 123.934 137.551 123.939C137.536 123.939 137.521 123.949 137.5 123.954C137.399 123.985 137.297 124.02 137.201 124.046C137.039 124.086 136.877 124.132 136.714 124.157C136.511 124.188 136.314 124.198 136.111 124.223C135.964 124.243 135.811 124.223 135.664 124.228C135.512 124.233 135.36 124.248 135.208 124.259C135.127 124.264 135.056 124.198 134.97 124.243C134.686 124.198 134.401 124.254 134.117 124.193C134.001 124.167 133.884 124.152 133.773 124.132C133.57 124.096 133.372 124.03 133.184 123.949C133.032 123.883 132.875 123.822 132.728 123.736C132.662 123.701 132.596 123.665 132.53 123.635C132.459 123.599 132.398 123.549 132.327 123.513C132.104 123.381 131.881 123.254 131.663 123.117C131.475 123.006 131.292 122.884 131.1 122.778C130.851 122.636 130.608 122.478 130.39 122.296C130.273 122.205 130.161 122.108 130.055 122.007C129.959 121.921 129.867 121.834 129.776 121.743C129.695 121.662 129.629 121.571 129.553 121.484C129.411 121.322 129.264 121.16 129.137 120.987C128.975 120.769 128.823 120.546 128.675 120.323C128.442 119.973 128.224 119.613 128.062 119.222C127.869 118.761 127.727 118.284 127.681 117.787C127.651 117.473 127.651 117.148 127.697 116.828H127.702L127.697 116.818ZM129.822 113.248C129.548 113.476 129.289 113.714 129.147 114.054C129.112 114.14 129.071 114.227 129.096 114.348C129.188 114.328 129.249 114.308 129.299 114.227C129.401 114.064 129.533 113.917 129.644 113.765C129.735 113.638 129.822 113.501 129.898 113.364C129.918 113.334 129.913 113.288 129.923 113.238C129.877 113.238 129.837 113.238 129.822 113.248ZM134.792 113.633C134.777 113.435 134.767 113.233 134.757 113.035C134.746 112.883 134.731 112.73 134.696 112.583C134.675 112.492 134.675 112.396 134.66 112.299C134.604 112.02 134.528 111.747 134.391 111.493C134.31 111.341 134.178 111.229 134.052 111.123C134.001 111.082 133.945 111.047 133.874 111.031C133.712 110.991 133.549 110.955 133.382 110.94C133.164 110.92 132.961 110.986 132.758 111.057C132.54 111.138 132.327 111.239 132.134 111.371C131.921 111.513 131.719 111.66 131.536 111.838C131.414 111.96 131.303 112.102 131.196 112.238C131.09 112.38 130.988 112.533 130.892 112.685C130.836 112.776 130.795 112.872 130.755 112.969C130.735 113.014 130.745 113.065 130.79 113.111C130.851 113.162 130.882 113.172 130.937 113.111C131.003 113.04 131.059 112.964 131.12 112.888C131.272 112.7 131.424 112.512 131.612 112.35C131.881 112.122 132.18 111.975 132.515 111.878C132.631 111.843 132.758 111.838 132.88 111.828C132.966 111.823 133.052 111.828 133.139 111.828C133.169 111.782 133.189 111.726 133.23 111.691C133.265 111.66 133.321 111.645 133.372 111.62C133.407 111.64 133.458 111.64 133.489 111.691C133.499 111.711 133.575 111.691 133.615 111.691C133.631 111.711 133.646 111.741 133.666 111.752C133.818 111.802 133.879 111.944 133.955 112.061C134.011 112.152 134.082 112.244 134.107 112.355C134.117 112.396 134.199 112.386 134.173 112.452C134.173 112.543 134.194 112.619 134.285 112.665C134.295 112.665 134.305 112.69 134.31 112.7C134.346 112.812 134.376 112.923 134.417 113.035C134.508 113.283 134.609 113.522 134.711 113.78C134.757 113.76 134.792 113.745 134.833 113.725C134.817 113.679 134.797 113.648 134.797 113.618L134.792 113.633ZM135.193 110.702C135.117 110.732 135.046 110.773 134.99 110.844C134.899 110.965 134.929 111.087 134.99 111.204C135.086 111.386 135.193 111.569 135.294 111.747C135.325 111.802 135.36 111.853 135.396 111.919C135.451 111.772 135.502 111.635 135.558 111.493C135.619 111.346 135.68 111.204 135.74 111.062C135.801 110.925 135.862 110.783 135.928 110.636C135.669 110.616 135.421 110.61 135.183 110.702H135.193ZM136.74 110.727C136.729 110.697 136.719 110.666 136.709 110.636C136.653 110.727 136.608 110.818 136.552 110.915C136.435 111.102 136.359 111.305 136.278 111.508C136.197 111.716 136.161 111.939 136.131 112.162C136.101 112.355 136.116 112.548 136.106 112.736C136.172 112.756 136.197 112.715 136.202 112.68C136.212 112.583 136.278 112.517 136.344 112.452C136.43 112.36 136.522 112.274 136.613 112.178C136.75 112.031 136.917 111.929 137.09 111.833C137.348 111.681 137.627 111.589 137.901 111.478C137.931 111.468 137.967 111.457 137.997 111.457H138.565C138.565 111.457 138.591 111.457 138.601 111.457C138.748 111.518 138.849 111.457 138.931 111.326C138.261 110.92 137.51 110.778 136.735 110.722L136.74 110.727ZM140.888 113.304C140.66 113.268 140.442 113.197 140.209 113.187C140.122 113.187 140.031 113.162 139.945 113.156C139.636 113.136 139.341 113.187 139.057 113.309C138.819 113.41 138.576 113.512 138.337 113.618C138.266 113.648 138.185 113.674 138.134 113.725C138.084 113.77 138.068 113.851 138.033 113.912C138.002 113.968 137.972 114.019 137.942 114.074C137.916 114.13 137.896 114.186 137.866 114.257C137.916 114.257 137.952 114.262 137.992 114.262C138.215 114.262 138.439 114.262 138.667 114.262C139.113 114.272 139.559 114.272 140.006 114.303C140.193 114.318 140.381 114.328 140.569 114.333C140.594 114.333 140.62 114.323 140.685 114.313C140.579 114.257 140.503 114.242 140.422 114.232C140.33 114.222 140.234 114.201 140.138 114.201C140.046 114.196 139.95 114.216 139.864 114.196C139.671 114.156 139.468 114.181 139.275 114.13C139.164 114.1 139.047 114.069 138.946 114.024C138.89 113.998 138.86 113.927 138.829 113.892C138.875 113.664 139.047 113.588 139.215 113.522C139.367 113.461 139.539 113.435 139.696 113.4C139.844 113.369 139.991 113.4 140.128 113.339C140.33 113.354 140.538 113.304 140.741 113.369C140.797 113.385 140.863 113.39 140.929 113.359C140.919 113.339 140.914 113.314 140.904 113.314L140.888 113.304ZM138.124 115.682C138.347 115.85 138.515 116.073 138.707 116.276C138.9 116.484 139.093 116.686 139.265 116.91C139.458 117.158 139.62 117.427 139.762 117.711C139.92 118.025 140.031 118.36 140.143 118.695C140.188 118.827 140.199 118.969 140.224 119.106C140.285 119.446 140.3 119.785 140.295 120.125C140.295 120.176 140.322 120.228 140.376 120.282C140.412 120.227 140.452 120.191 140.462 120.14C140.513 119.917 140.594 119.704 140.635 119.476C140.66 119.349 140.66 119.217 140.675 119.085C140.68 119.009 140.716 118.923 140.696 118.857C140.67 118.781 140.675 118.71 140.675 118.639C140.675 118.269 140.599 117.914 140.483 117.564C140.356 117.189 140.173 116.839 139.93 116.529C139.742 116.291 139.534 116.058 139.296 115.87C139.235 115.819 139.194 115.763 139.154 115.708C139.093 115.626 139.103 115.555 139.189 115.505C139.26 115.464 139.341 115.434 139.423 115.413C139.696 115.347 139.94 115.444 140.168 115.581C140.239 115.621 140.3 115.687 140.366 115.743C140.417 115.784 140.467 115.824 140.554 115.89C140.488 115.687 140.381 115.55 140.244 115.459C140.046 115.322 139.844 115.185 139.631 115.089C139.362 114.962 139.073 114.871 138.778 114.8C138.748 114.795 138.713 114.8 138.677 114.8C138.444 114.8 138.215 114.8 137.987 114.8C137.876 114.8 137.789 114.845 137.703 114.896C137.561 114.982 137.526 115.114 137.541 115.266C137.759 115.388 137.942 115.545 138.134 115.692H138.129L138.124 115.682ZM133.301 123.219C133.331 123.28 133.326 123.361 133.341 123.432C133.362 123.528 133.392 123.615 133.514 123.635C133.539 123.635 133.565 123.655 133.605 123.675C133.636 123.594 133.666 123.528 133.686 123.457C133.717 123.351 133.773 123.265 133.844 123.178C134.021 122.97 134.148 122.742 134.178 122.458C134.188 122.372 134.229 122.286 134.249 122.199C134.315 121.936 134.407 121.677 134.483 121.418C134.574 121.094 134.675 120.769 134.797 120.45C134.828 120.379 134.863 120.308 134.899 120.237C135.071 119.892 135.274 119.562 135.563 119.304C135.634 119.243 135.71 119.177 135.786 119.121C135.984 118.994 136.182 118.862 136.39 118.756C136.613 118.644 136.846 118.563 137.105 118.599C137.226 118.614 137.328 118.67 137.414 118.751C137.495 118.827 137.566 118.918 137.637 119.004C137.698 119.075 137.734 119.101 137.825 119.111C137.84 118.989 137.84 118.862 137.795 118.746C137.683 118.406 137.607 118.061 137.485 117.726C137.363 117.386 137.191 117.072 136.948 116.798C136.902 116.747 136.866 116.686 136.821 116.641C136.638 116.453 136.43 116.296 136.182 116.205C135.999 116.139 135.811 116.113 135.614 116.159C135.421 116.2 135.259 116.296 135.112 116.418C134.97 116.539 134.817 116.641 134.696 116.778C134.498 116.991 134.341 117.229 134.234 117.498C134.117 117.782 134.062 118.086 133.996 118.385C133.996 118.396 133.996 118.411 133.996 118.421C134.011 118.477 133.915 118.482 133.945 118.548C133.96 118.583 133.935 118.639 133.925 118.69C133.915 118.741 133.904 118.786 133.889 118.837C133.833 119.055 133.788 119.268 133.732 119.486C133.676 119.704 133.595 119.922 133.555 120.145C133.519 120.343 133.458 120.541 133.473 120.749C133.494 120.997 133.463 121.241 133.433 121.484C133.402 121.697 133.387 121.91 133.341 122.118C133.311 122.265 133.331 122.428 133.296 122.575C133.26 122.717 133.27 122.859 133.265 123.001C133.265 123.072 133.265 123.148 133.296 123.219H133.301ZM129.051 118.411C129.056 118.487 129.051 118.563 129.051 118.634C129.051 118.781 129.101 118.923 129.107 119.065C129.107 119.207 129.208 119.349 129.122 119.496C129.152 119.603 129.172 119.714 129.213 119.816C129.264 119.948 129.335 120.069 129.431 120.176C129.477 120.232 129.507 120.303 129.548 120.358C129.598 120.419 129.614 120.414 129.705 120.343C129.649 120.161 129.588 119.973 129.538 119.785C129.507 119.669 129.507 119.552 129.502 119.43C129.497 119.278 129.502 119.121 129.502 118.964C129.502 118.695 129.573 118.436 129.68 118.198C129.822 117.883 129.999 117.579 130.156 117.27C130.217 117.153 130.283 117.047 130.339 116.93C130.41 116.778 130.542 116.676 130.669 116.58C130.917 116.392 131.161 116.2 131.414 116.027C131.663 115.86 131.911 115.682 132.205 115.586C132.352 115.535 132.505 115.51 132.657 115.469C132.844 115.424 133.032 115.358 133.225 115.337C133.407 115.312 133.595 115.327 133.778 115.337C133.869 115.337 133.955 115.378 134.046 115.398C134.046 115.383 134.057 115.368 134.057 115.363C133.975 115.276 133.904 115.18 133.849 115.074C133.798 114.977 133.732 114.901 133.62 114.876C133.615 114.876 133.61 114.861 133.605 114.85C133.646 114.85 133.691 114.861 133.742 114.871C133.742 114.81 133.697 114.779 133.651 114.749C133.377 114.597 133.088 114.48 132.784 114.404C132.667 114.374 132.54 114.379 132.413 114.364C132.342 114.358 132.271 114.364 132.195 114.338C132.124 114.313 132.028 114.318 131.957 114.348C131.876 114.379 131.84 114.348 131.8 114.308C131.774 114.328 131.754 114.364 131.729 114.364C131.424 114.394 131.135 114.47 130.866 114.612C130.801 114.643 130.74 114.683 130.679 114.724C130.577 114.795 130.476 114.871 130.38 114.947C130.248 115.053 130.101 115.15 129.994 115.276C129.847 115.444 129.67 115.586 129.578 115.794C129.507 115.956 129.441 116.123 129.391 116.296C129.345 116.448 129.325 116.61 129.279 116.768C129.223 116.965 129.203 117.163 129.172 117.361C129.147 117.533 129.152 117.701 129.142 117.873C129.132 117.995 129.107 118.117 129.071 118.238C129.061 118.279 129.015 118.314 128.99 118.34C129 118.355 129.03 118.38 129.036 118.406L129.051 118.411Z" fill="#D78228"/>
<path d="M133.6 123.675C133.631 123.594 133.661 123.528 133.682 123.457C133.712 123.351 133.768 123.265 133.839 123.178C134.016 122.97 134.143 122.742 134.173 122.458C134.184 122.372 134.224 122.286 134.244 122.2C134.31 121.936 134.402 121.677 134.478 121.418C134.569 121.094 134.671 120.769 134.792 120.45C134.823 120.379 134.858 120.308 134.894 120.237C135.066 119.892 135.269 119.562 135.558 119.304C135.629 119.243 135.705 119.177 135.781 119.121C135.979 118.994 136.177 118.862 136.385 118.756C136.608 118.644 136.841 118.563 137.1 118.599C137.222 118.614 137.323 118.67 137.409 118.751C137.49 118.827 137.561 118.918 137.632 119.004C137.693 119.075 137.729 119.101 137.82 119.111C137.835 118.989 137.835 118.862 137.79 118.746C137.678 118.406 137.602 118.061 137.48 117.726C137.359 117.386 137.186 117.072 136.943 116.798C136.897 116.747 136.862 116.686 136.816 116.641C136.633 116.453 136.425 116.296 136.177 116.205C135.994 116.139 135.807 116.113 135.614 116.159C135.421 116.2 135.259 116.296 135.112 116.418C134.97 116.539 134.818 116.641 134.696 116.778C134.498 116.991 134.341 117.229 134.234 117.498C134.118 117.782 134.062 118.086 133.996 118.386C133.996 118.396 133.996 118.411 133.996 118.421C134.011 118.477 133.915 118.482 133.945 118.548C133.96 118.583 133.935 118.639 133.925 118.69C133.915 118.741 133.905 118.786 133.889 118.837C133.834 119.055 133.788 119.268 133.732 119.486C133.676 119.704 133.595 119.922 133.555 120.145C133.519 120.343 133.458 120.541 133.474 120.749C133.494 120.997 133.463 121.241 133.433 121.484C133.403 121.697 133.387 121.91 133.342 122.118C133.311 122.265 133.332 122.428 133.296 122.575C133.261 122.717 133.271 122.859 133.266 123.001C133.266 123.072 133.266 123.148 133.296 123.219C133.326 123.28 133.321 123.361 133.337 123.432C133.357 123.528 133.387 123.615 133.509 123.635C133.534 123.635 133.56 123.655 133.6 123.675Z" fill="#E0AF62"/>
<path d="M140.371 120.282C140.406 120.227 140.447 120.191 140.457 120.14C140.508 119.917 140.589 119.704 140.629 119.476C140.655 119.349 140.655 119.217 140.67 119.085C140.675 119.009 140.71 118.923 140.69 118.857C140.665 118.781 140.67 118.71 140.67 118.639C140.67 118.269 140.594 117.914 140.477 117.564C140.35 117.189 140.168 116.839 139.924 116.529C139.737 116.291 139.529 116.058 139.29 115.87C139.229 115.819 139.189 115.763 139.148 115.708C139.087 115.626 139.098 115.555 139.184 115.505C139.255 115.464 139.336 115.434 139.417 115.413C139.691 115.347 139.934 115.444 140.163 115.581C140.234 115.621 140.295 115.687 140.36 115.743C140.411 115.784 140.462 115.824 140.548 115.89C140.482 115.687 140.376 115.55 140.239 115.459C140.041 115.322 139.838 115.185 139.625 115.089C139.356 114.962 139.067 114.871 138.773 114.8C138.743 114.795 138.707 114.8 138.672 114.8C138.438 114.8 138.21 114.8 137.982 114.8C137.87 114.8 137.784 114.845 137.698 114.896C137.556 114.982 137.52 115.114 137.535 115.266C137.754 115.388 137.936 115.545 138.129 115.692C138.352 115.86 138.519 116.083 138.712 116.286C138.905 116.494 139.098 116.697 139.27 116.92C139.463 117.168 139.625 117.437 139.767 117.721C139.924 118.036 140.036 118.37 140.147 118.705C140.193 118.837 140.203 118.979 140.229 119.116C140.289 119.456 140.305 119.795 140.3 120.135C140.3 120.186 140.327 120.238 140.381 120.292H140.376L140.371 120.282Z" fill="#E0AF62"/>
<path d="M129.051 118.411C129.056 118.487 129.051 118.563 129.051 118.634C129.051 118.781 129.102 118.923 129.107 119.065C129.107 119.207 129.208 119.349 129.122 119.496C129.152 119.603 129.173 119.714 129.213 119.816C129.264 119.948 129.335 120.069 129.431 120.176C129.477 120.232 129.507 120.303 129.548 120.358C129.599 120.419 129.614 120.414 129.705 120.343C129.649 120.156 129.589 119.973 129.538 119.785C129.507 119.669 129.507 119.552 129.502 119.43C129.497 119.278 129.502 119.121 129.502 118.964C129.502 118.695 129.573 118.436 129.68 118.198C129.822 117.883 129.999 117.579 130.157 117.27C130.217 117.153 130.283 117.047 130.339 116.93C130.41 116.778 130.542 116.676 130.669 116.58C130.917 116.392 131.161 116.2 131.414 116.027C131.663 115.86 131.911 115.682 132.206 115.586C132.353 115.535 132.505 115.51 132.657 115.469C132.845 115.424 133.032 115.358 133.225 115.337C133.408 115.312 133.595 115.327 133.778 115.337C133.869 115.337 133.955 115.378 134.047 115.398C134.047 115.383 134.057 115.368 134.057 115.363C133.976 115.277 133.905 115.18 133.849 115.074C133.798 114.977 133.732 114.901 133.621 114.876C133.616 114.876 133.61 114.861 133.605 114.85C133.646 114.85 133.692 114.861 133.742 114.871C133.742 114.81 133.697 114.779 133.651 114.749C133.377 114.597 133.088 114.48 132.784 114.404C132.667 114.374 132.54 114.379 132.414 114.364C132.343 114.359 132.271 114.364 132.195 114.338C132.124 114.313 132.028 114.318 131.957 114.348C131.876 114.379 131.84 114.348 131.8 114.308C131.774 114.328 131.754 114.364 131.729 114.364C131.425 114.394 131.135 114.47 130.867 114.612C130.801 114.643 130.74 114.683 130.679 114.724C130.578 114.795 130.476 114.871 130.385 114.947C130.253 115.053 130.106 115.15 129.999 115.277C129.852 115.444 129.675 115.586 129.583 115.794C129.512 115.956 129.447 116.124 129.396 116.296C129.35 116.448 129.33 116.61 129.284 116.768C129.228 116.965 129.208 117.163 129.178 117.361C129.152 117.533 129.157 117.701 129.147 117.873C129.137 117.995 129.112 118.117 129.076 118.238C129.066 118.279 129.02 118.315 128.995 118.34C129.005 118.355 129.036 118.38 129.041 118.406L129.051 118.411Z" fill="#E0AF62"/>
<path d="M97.1949 106.573C96.3885 105.843 96.8957 104.24 96.8957 104.24C97.2101 103.561 97.5905 103.343 98.1941 103.794C98.8737 104.306 99.5635 104.813 100.253 105.31C100.705 105.64 101.166 105.955 101.714 106.34C101.476 104.682 101.257 103.231 101.06 101.78C101.039 101.649 101.11 101.441 101.212 101.365C101.775 100.944 102.363 100.558 103.012 100.107C103.885 102.668 104.777 104.991 105.462 107.38C106.451 110.823 108.363 113.725 110.524 116.478C112.537 119.045 114.708 121.495 115.961 124.578C116.123 124.979 116.224 125.288 115.92 125.633C115.621 125.973 115.793 126.181 116.082 126.46C116.62 126.977 117.097 127.56 117.563 128.144C117.71 128.331 117.746 128.605 117.903 129.031C116.62 128.62 116.529 127.028 115.119 126.962L116.067 128.352C115.737 128.26 115.575 128.215 115.352 128.154C115.545 128.478 115.687 128.717 115.829 128.96C115.788 128.986 115.753 129.006 115.712 129.026C115.57 128.95 115.433 128.874 115.225 128.757C115.55 129.65 116.392 130.279 116.016 131.425C115.18 130.203 114.388 129.051 113.567 127.855C113.257 127.986 112.836 128.174 112.304 128.407C111.624 127.271 110.909 126.161 110.275 125.014C108.15 121.185 105.939 117.396 103.991 113.481C103.022 111.539 101.643 110.144 99.9641 108.901C98.9903 108.186 98.0774 107.385 97.1797 106.573H97.1949ZM103.956 104.9C103.555 104.068 103.377 103.109 102.83 102.257C103.053 103.54 103.276 104.824 103.494 106.107C103.413 106.137 103.332 106.168 103.256 106.198C103.002 105.605 102.743 105.011 102.49 104.418C102.399 104.448 102.312 104.479 102.226 104.509C102.378 105.163 102.53 106.335 102.713 107.116L104.985 108.861C104.691 107.927 104.321 105.65 103.961 104.9H103.956ZM115.403 124.685C114.723 122.803 111.705 119.172 110.224 117.011C111.3 119.451 113.861 122.438 115.403 124.685ZM114.698 125.445C111.766 120.906 108.83 116.372 105.898 111.833C105.807 111.889 105.335 111.584 105.244 111.64C108.175 116.184 111.269 121.434 114.099 126.196C114.196 126.135 114.601 125.506 114.698 125.445ZM112.405 127.276C112.497 127.226 113.059 126.901 113.151 126.845C110.26 121.784 107.257 116.692 104.366 111.63C104.285 111.676 103.895 111.533 103.809 111.579C106.689 116.646 109.519 122.205 112.4 127.276H112.405ZM102.282 110.113C103.631 110.433 104.782 110.712 106.131 111.031C102.196 109.474 104.889 110.23 106.147 110.671C105.447 110.281 102.414 109.353 102.15 109.155C102.125 108.998 101.942 108.597 101.795 107.745C101.795 107.745 98.5694 105.848 98.0318 105.549C98.757 106.355 100.081 107.785 99.6547 107.659C98.9092 107.43 99.1323 107.41 102.292 110.108L102.282 110.113Z" fill="#85A687"/>
<path d="M104.366 111.635C107.257 116.697 110.26 121.789 113.151 126.85C113.059 126.901 112.496 127.226 112.405 127.281C109.524 122.215 106.694 116.656 103.813 111.584C103.895 111.539 104.285 111.681 104.371 111.635H104.366Z" fill="#C2CE86"/>
<path d="M105.894 111.838C108.825 116.377 111.762 120.911 114.693 125.451C114.597 125.511 114.191 126.14 114.095 126.201C111.265 121.439 108.171 116.189 105.239 111.645C105.331 111.589 105.802 111.894 105.894 111.838Z" fill="#C2CE86"/>
<path d="M115.403 124.685C113.861 122.433 111.3 119.451 110.225 117.011C111.706 119.172 114.718 122.803 115.403 124.685Z" fill="#C2CE86"/>
<path d="M137.318 129.021C136.937 129.762 135.654 129.706 135.654 129.706C135.091 129.609 134.853 129.371 135.066 128.833C135.309 128.23 135.548 127.621 135.781 127.013C135.933 126.617 136.075 126.211 136.253 125.729C135.076 126.237 134.046 126.683 133.012 127.114C132.915 127.155 132.753 127.144 132.677 127.084C132.256 126.749 131.85 126.394 131.389 126.003C133.108 124.852 134.65 123.731 136.278 122.752C138.626 121.342 140.391 119.354 141.999 117.214C143.495 115.216 144.875 113.126 146.908 111.594C147.172 111.397 147.38 111.26 147.694 111.417C148.004 111.569 148.126 111.402 148.273 111.133C148.547 110.636 148.886 110.164 149.226 109.703C149.333 109.555 149.53 109.474 149.814 109.277C149.764 110.306 148.607 110.692 148.836 111.741L149.672 110.763C149.672 111.026 149.672 111.153 149.667 111.331C149.87 111.123 150.017 110.971 150.17 110.818C150.195 110.844 150.22 110.864 150.241 110.889C150.21 111.006 150.18 111.128 150.139 111.3C150.732 110.884 151.032 110.134 151.955 110.184C151.219 111.047 150.525 111.858 149.799 112.7C149.957 112.903 150.18 113.177 150.454 113.522C149.749 114.252 149.069 114.992 148.349 115.692C145.94 118.02 143.581 120.404 141.071 122.62C139.828 123.721 139.067 125.014 138.484 126.5C138.144 127.363 137.739 128.194 137.318 129.016V129.021ZM134.741 124.36C134.204 124.822 133.534 125.141 133.012 125.714C133.914 125.298 134.817 124.877 135.725 124.462C135.766 124.512 135.801 124.568 135.837 124.624C135.451 124.928 135.061 125.237 134.675 125.542C134.716 125.603 134.756 125.658 134.792 125.719C135.243 125.476 136.08 125.136 136.623 124.842L137.46 122.818C136.826 123.219 135.218 123.944 134.736 124.36H134.741ZM147.091 111.985C145.833 112.862 143.749 115.804 142.445 117.331C144.038 116.052 145.737 113.572 147.091 111.985ZM147.796 112.36C145.027 115.424 142.252 118.492 139.483 121.555C139.544 121.611 139.412 122.022 139.473 122.078C142.252 119.014 145.519 115.687 148.47 112.654C148.405 112.599 147.862 112.416 147.796 112.36ZM149.601 113.689C149.546 113.633 149.191 113.278 149.135 113.222C145.965 116.362 142.8 119.582 139.635 122.722C139.686 122.773 139.661 123.092 139.706 123.143C142.881 120.008 146.427 116.818 149.601 113.689ZM138.925 124.568C138.895 123.508 138.875 122.605 138.844 121.545C138.474 124.761 138.499 122.62 138.575 121.606C138.428 122.199 138.342 124.629 138.246 124.857C138.134 124.908 137.875 125.121 137.272 125.4C137.272 125.4 136.506 128.159 136.395 128.615C136.846 127.92 137.642 126.658 137.632 127.002C137.612 127.596 137.551 127.439 138.92 124.568H138.925Z" fill="#85A687"/>
<path d="M134.797 125.719C134.756 125.658 134.716 125.603 134.68 125.542C135.066 125.237 135.456 124.928 135.842 124.624C135.801 124.573 135.766 124.517 135.73 124.462C134.827 124.877 133.924 125.298 133.017 125.714C133.534 125.136 134.208 124.822 134.746 124.36C135.228 123.944 136.836 123.219 137.47 122.818L136.633 124.842C136.09 125.131 135.253 125.476 134.802 125.719H134.797Z" fill="#C2CE86"/>
<path d="M137.637 127.002C137.647 126.658 136.851 127.92 136.399 128.615C136.516 128.154 137.277 125.4 137.277 125.4C137.88 125.116 138.134 124.903 138.251 124.857C138.347 124.629 138.433 122.199 138.58 121.606C138.504 122.62 138.479 124.761 138.849 121.545C138.88 122.605 138.9 123.508 138.93 124.568C137.556 127.439 137.622 127.596 137.642 127.002H137.637Z" fill="#C2CE86"/>
<path d="M65.887 124.243C69.2496 124.152 72.6122 124.325 75.9748 124.091C79.1142 124.34 82.2638 124.218 85.4083 124.299C86.306 124.274 87.1784 123.995 88.0812 123.985C94.5578 124.538 101.045 124.203 107.526 124.314C108.652 124.335 109.636 123.716 110.742 123.751C113.151 124.467 115.601 124.406 118.066 124.142C124.618 124.152 131.171 124.543 137.714 123.787C139.621 123.564 141.578 123.599 143.496 123.949C147.999 124.451 152.523 124.228 157.037 124.309C158.285 124.335 159.563 124.147 160.75 124.73C166.131 124.933 171.517 124.553 176.893 124.933C180.849 126.069 183.294 129.117 182.974 132.526C182.614 136.426 180.18 138.87 175.813 139.291C173.865 139.479 174.692 140.706 174.484 141.619C174.271 142.532 175.24 143.947 173.399 144.206C171.664 144.444 170.853 143.821 171.137 141.995C171.416 140.214 171.056 139.352 168.819 139.357C129.716 139.423 90.6171 139.388 51.5135 139.378C50.839 139.378 50.1492 139.494 49.4899 139.398C47.5981 139.124 46.8982 139.849 47.1112 141.761C47.2076 142.634 47.6336 143.927 46.0411 144.14C44.4992 144.343 43.3074 144.12 43.6472 142.086C43.9515 140.26 43.6472 139.256 41.2939 139.195C37.9516 139.114 35.3244 136.187 35.0403 132.952C34.6904 128.93 36.8003 126.171 41.1569 124.933C47.6184 124.913 54.0799 124.862 60.5413 124.903L65.8921 124.248L65.887 124.243Z" fill="#453120"/>
<path d="M63.0267 136.329C60.8915 136.309 59.3141 134.666 59.3243 132.47C59.3344 130.395 60.9016 128.707 62.839 128.681C65.025 128.651 66.7747 130.461 66.7443 132.723C66.7139 134.717 65.03 136.35 63.0317 136.329H63.0267Z" fill="#937556"/>
<path d="M129.329 132.516C129.411 130.37 131.272 128.58 133.28 128.707C135.355 128.838 136.957 130.705 136.861 132.86C136.775 134.747 135.096 136.365 133.24 136.35C131.094 136.33 129.253 134.524 129.329 132.51V132.516Z" fill="#917457"/>
<path d="M116.016 136.365C113.851 136.35 112.116 134.625 112.208 132.587C112.289 130.771 114.196 128.737 115.859 128.691C117.929 128.641 119.739 130.603 119.673 132.825C119.607 135.041 118.223 136.38 116.016 136.365Z" fill="#8D7255"/>
<path d="M173.47 136.314C171.289 136.264 169.732 134.605 169.782 132.389C169.828 130.456 171.684 128.641 173.525 128.722C175.351 128.803 177.436 131.014 177.37 132.805C177.299 134.701 175.453 136.365 173.47 136.314Z" fill="#907457"/>
<path d="M80.2399 136.355C78.1148 136.329 76.5374 134.646 76.5628 132.429C76.5882 130.39 78.2771 128.671 80.2043 128.732C81.9541 128.788 84.0183 130.801 84.0589 132.495C84.1096 134.559 82.3041 136.385 80.2399 136.36V136.355Z" fill="#907356"/>
<path d="M153.335 136.34C150.977 136.38 149.526 135.001 149.465 132.658C149.41 130.634 150.992 128.828 152.914 128.722C154.745 128.62 156.855 130.629 156.946 132.561C157.032 134.478 155.288 136.304 153.34 136.34H153.335Z" fill="#917355"/>
<path d="M97.4991 128.701C99.5279 128.904 101.09 130.837 100.938 132.952C100.781 135.133 99.2033 136.487 97.0224 136.319C94.8314 136.152 93.5431 134.468 93.7612 132.049C93.9337 130.137 95.7341 128.524 97.5042 128.701H97.4991Z" fill="#907356"/>
<path d="M46.4264 128.701C48.2471 128.762 50.144 130.984 50.0121 132.911C49.8752 134.914 48.1203 136.416 46.0308 136.314C44.1238 136.223 42.4856 134.326 42.6124 132.358C42.7392 130.37 44.5447 128.641 46.4264 128.701Z" fill="#8F7356"/>
<path d="M42.6738 72.927V67.0691L67.2771 54.7345L89.3242 66.2525L111.671 53.0963L163.656 53.0811V60.6887L111.762 60.5924L93.265 69.9752L93.3715 72.9625L42.6738 72.927Z" fill="#25452E"/>
<path d="M45.6101 72.4503H93.3711V124.822H44.7529L45.6101 72.4503Z" fill="#E5BF90"/>
<path d="M56.4131 85.0536H82.7611V89.8516L56.4131 89.3495V85.0536Z" fill="#1C3B26"/>
<path d="M56.4131 91.5506H82.7611V96.3536L56.4131 95.8464V91.5506Z" fill="#1C3B26"/>
<path d="M63.2646 124.796V107.562L77.6229 107.344V124.822L63.2646 124.796Z" fill="#1C3B26"/>
<path d="M120.12 67.8654H124.365V83.9937L119.166 84.0292L120.12 67.8654Z" fill="#1C3B26"/>
<path d="M129.285 67.8654H133.53V83.9937L128.331 84.0292L129.285 67.8654Z" fill="#1C3B26"/>
<path d="M139.377 67.8654H143.622V83.9937L138.424 84.0292L139.377 67.8654Z" fill="#1C3B26"/>
<path d="M149.333 67.8654H153.583V83.9937L148.385 84.0292L149.333 67.8654Z" fill="#1C3B26"/>
</g>
<defs>
<clipPath id="clip0_638_7657">
<rect width="148" height="91.1706" fill="white" transform="translate(35 53.0811)"/>
</clipPath>
</defs>
</svg>
