<svg width="204" height="199" viewBox="0 0 204 199" fill="none" xmlns="http://www.w3.org/2000/svg">
<path d="M158.487 184.631C195.975 163.539 207.974 124.495 202.418 84.3636C202.8 65.6166 188.302 50.0167 181.108 33.3156C159.934 -12.4713 96.8155 -1.66353 57.4167 10.8844C19.5743 24.3091 -4.43906 92.6972 0.687148 129.498C3.28779 143.46 11.0897 157.129 18.0111 168.787C27.4649 179.289 43.8333 183.122 55.5055 191.381C59.7375 189.627 70.065 195.779 76.5973 195.684C104.454 199.932 133.743 201.285 158.494 184.638L158.487 184.631Z" fill="#A35380"/>
<path d="M108.204 116.55C108.367 114.358 108.448 112.266 108.698 110.192C108.955 108.055 109.701 106.12 111.73 104.869C109.606 107.689 109.269 110.918 109.487 114.229C109.603 115.964 109.462 118.06 110.371 119.315C111.669 121.106 113.807 122.298 115.621 123.702C116.551 124.421 117.314 124.183 118.144 123.314C119.104 122.31 120.215 121.401 121.391 120.659C126.722 117.292 128.436 112.438 124.888 106.793C123.58 104.711 121.896 102.867 120.404 100.942C120.317 101.068 120.177 101.273 120.036 101.477C119.598 100.873 119.159 100.267 118.707 99.6434C118.908 100.709 118.822 101.567 117.312 101.266C116.916 101.187 116.398 101.319 116.04 101.53C114.838 102.237 113.738 103.13 112.5 103.761C108.408 105.843 106.243 112.056 108.204 116.55ZM122.622 117.527C124.994 113.262 122.617 109.277 122.662 105.014C127.278 110.334 126.391 115.705 122.622 117.527ZM121.09 117.188C122.4 112.426 120.405 108.054 119.242 103.234C122.741 105.758 123.626 113.334 121.09 117.188ZM116.145 122.49C120.651 116.995 118.75 110.774 118.282 104.715C121.687 111.446 120.667 120.448 116.145 122.49ZM116.017 120.419C115.429 115.337 113.942 110.333 116.584 105.475C117.636 110.463 119.342 115.474 116.017 120.419ZM117.574 102.36C115.445 105.221 113.73 108.213 114.111 111.922C114.468 115.424 114.778 118.929 115.113 122.5C110.872 119.04 112.406 104.93 117.574 102.36ZM113.121 121.034C108.989 116.619 109.52 107.482 114.14 103.962C111.55 109.577 111.318 115.062 113.121 121.034Z" fill="#C3CE87"/>
<path d="M123.633 102.166C121.598 100.568 121.103 99.9836 121.918 98.5808L115.428 98.7825C115.537 100.274 114.865 100.799 112.713 101.724C108.916 103.357 106.897 106.275 106.581 110.418C106.23 115.023 107.398 119.106 110.943 122.174C112.838 123.814 113.687 125.722 113.876 127.881L118.202 127.746C118.799 125.244 120.022 123.424 122.226 121.934C124.013 120.725 125.795 119.224 126.969 117.449C130.093 112.728 128.48 105.97 123.631 102.166L123.633 102.166ZM121.391 120.659C120.215 121.401 119.104 122.31 118.144 123.314C117.315 124.183 116.551 124.421 115.621 123.702C113.806 122.298 111.668 121.106 110.371 119.315C109.461 118.058 109.603 115.964 109.487 114.229C109.267 110.916 109.606 107.689 111.73 104.869C109.702 106.121 108.955 108.057 108.698 110.192C108.448 112.266 108.367 114.358 108.204 116.55C106.243 112.056 108.408 105.843 112.499 103.761C113.736 103.13 114.838 102.237 116.039 101.53C116.397 101.319 116.917 101.187 117.312 101.266C118.82 101.569 118.906 100.709 118.707 99.6434C119.159 100.267 119.597 100.871 120.036 101.477C120.176 101.273 120.316 101.068 120.404 100.942C121.895 102.867 123.58 104.711 124.888 106.793C128.435 112.44 126.72 117.292 121.391 120.659Z" fill="#86A687"/>
<path d="M116.017 120.419C119.343 115.474 117.636 110.463 116.584 105.475C113.944 110.333 115.431 115.337 116.017 120.419Z" fill="#86A687"/>
<path d="M115.113 122.5C114.776 118.93 114.469 115.424 114.111 111.922C113.732 108.213 115.445 105.221 117.574 102.36C112.406 104.93 110.872 119.04 115.113 122.5Z" fill="#86A687"/>
<path d="M113.121 121.034C111.318 115.062 111.549 109.577 114.14 103.962C109.522 107.48 108.989 116.619 113.121 121.034Z" fill="#86A687"/>
<path d="M122.622 117.527C126.39 115.705 127.279 110.334 122.663 105.014C122.618 109.277 124.994 113.262 122.622 117.527Z" fill="#86A687"/>
<path d="M116.145 122.49C120.669 120.448 121.687 111.446 118.282 104.715C118.75 110.773 120.651 116.993 116.145 122.49Z" fill="#86A687"/>
<path d="M121.09 117.188C123.626 113.334 122.741 105.758 119.242 103.234C120.406 108.054 122.4 112.426 121.09 117.188Z" fill="#86A687"/>
<path d="M99.6632 105.112C100.385 107.189 101.142 109.142 101.738 111.141C102.353 113.204 102.436 115.277 101.073 117.23C101.901 113.799 100.927 110.703 99.4084 107.751C98.6134 106.205 97.9091 104.226 96.5745 103.435C94.6713 102.307 92.2357 102.062 90.0131 101.496C88.873 101.204 88.2676 101.727 87.8519 102.854C87.37 104.157 86.7132 105.433 85.9287 106.581C82.377 111.789 82.7335 116.922 88.234 120.695C90.2609 122.084 92.5417 123.108 94.6758 124.281C94.7053 124.13 94.753 123.886 94.8008 123.644C95.444 124.024 96.0873 124.406 96.7488 124.798C96.1416 123.9 95.8784 123.079 97.3818 122.755C97.7763 122.672 98.2006 122.345 98.4456 122.008C99.2666 120.882 99.9208 119.626 100.807 118.556C103.732 115.02 103.25 108.458 99.6617 105.114L99.6632 105.112ZM86.0446 109.943C85.5641 114.798 89.3295 117.51 90.9846 121.44C84.6328 118.393 83.3115 113.111 86.0446 109.943ZM87.5862 109.646C88.2785 114.536 91.8464 117.754 94.832 121.716C90.6177 120.79 86.7918 114.19 87.5862 109.646ZM90.015 102.816C88.0664 109.649 92.2838 114.602 95.1229 119.976C89.3213 115.152 86.676 106.487 90.015 102.816ZM90.9562 104.667C93.5154 109.097 96.87 113.098 96.3805 118.605C93.4311 114.446 89.8723 110.526 90.9562 104.667ZM96.7094 121.856C97.5258 118.384 97.9092 114.96 96.0847 111.706C94.3635 108.635 92.6856 105.54 90.9573 102.398C96.2241 103.888 100.429 117.443 96.7094 121.854L96.7094 121.856ZM93.3683 102.951C98.9159 105.361 102.062 113.958 99.2234 119.021C99.3681 112.84 97.3975 107.715 93.3683 102.951Z" fill="#C3CE87"/>
<path d="M91.2279 124.44C93.7301 125.097 94.4176 125.437 94.2268 127.048L100.102 124.284C99.4096 122.958 99.8176 122.21 101.423 120.507C104.257 117.502 104.95 114.021 103.592 110.095C102.083 105.73 99.3872 102.447 94.9138 101.039C92.5227 100.287 90.9848 98.8731 89.9525 96.9682L86.0358 98.8106C86.4823 101.344 86.0839 103.5 84.6549 105.743C83.4958 107.561 82.459 109.648 82.0863 111.742C81.096 117.314 85.2656 122.875 91.2263 124.44L91.2279 124.44ZM85.9307 106.58C86.7151 105.43 87.372 104.156 87.8539 102.852C88.2696 101.726 88.875 101.204 90.015 101.494C92.2377 102.061 94.6733 102.305 96.5765 103.434C97.9111 104.225 98.6154 106.203 99.4104 107.75C100.929 110.701 101.903 113.799 101.075 117.228C102.438 115.275 102.354 113.201 101.74 111.14C101.144 109.138 100.387 107.186 99.6652 105.11C103.253 108.456 103.736 115.017 100.811 118.552C99.926 119.622 99.2718 120.878 98.4492 122.005C98.2042 122.341 97.7798 122.668 97.3854 122.752C95.8803 123.074 96.1435 123.897 96.7524 124.795C96.0893 124.403 95.446 124.021 94.8044 123.641C94.7566 123.884 94.7088 124.127 94.6793 124.277C92.5452 123.104 90.2645 122.081 88.2376 120.691C82.7355 116.92 82.3806 111.785 85.9323 106.578L85.9307 106.58Z" fill="#86A687"/>
<path d="M90.9566 104.665C89.8726 110.523 93.4315 114.444 96.3809 118.604C96.872 113.096 93.5175 109.097 90.9566 104.665Z" fill="#86A687"/>
<path d="M90.957 102.398C92.6853 105.54 94.3633 108.635 96.0844 111.706C97.9073 114.959 97.5256 118.384 96.7092 121.856C100.43 117.445 96.2238 103.889 90.9571 102.4L90.957 102.398Z" fill="#86A687"/>
<path d="M93.3682 102.951C97.3974 107.715 99.368 112.84 99.2233 119.021C102.062 113.958 98.9158 105.361 93.3682 102.951Z" fill="#86A687"/>
<path d="M86.0448 109.943C83.3118 113.111 84.633 118.391 90.9848 121.44C89.3297 117.51 85.566 114.798 86.0448 109.943Z" fill="#86A687"/>
<path d="M90.0147 102.815C86.6756 106.485 89.3209 115.151 95.1226 119.975C92.2835 114.602 88.0661 109.649 90.0147 102.815Z" fill="#86A687"/>
<path d="M87.5861 109.644C86.7916 114.187 90.6176 120.788 94.8319 121.714C91.848 117.754 88.2784 114.534 87.5861 109.644Z" fill="#86A687"/>
<path d="M74.2902 105.112C75.0122 107.189 75.7694 109.142 76.3653 111.141C76.9795 113.204 77.0635 115.277 75.7003 117.23C76.5277 113.799 75.5543 110.703 74.0354 107.751C73.2404 106.205 72.5361 104.226 71.2015 103.435C69.2982 102.307 66.8627 102.062 64.64 101.496C63.4999 101.204 62.8946 101.727 62.4788 102.854C61.997 104.157 61.3401 105.433 60.5557 106.581C57.004 111.789 57.3605 116.922 62.8609 120.695C64.8878 122.084 67.1686 123.108 69.3027 124.281C69.3322 124.13 69.38 123.886 69.4278 123.644C70.071 124.024 70.7143 124.406 71.3758 124.798C70.7685 123.9 70.5054 123.079 72.0088 122.755C72.4032 122.672 72.8275 122.345 73.0726 122.008C73.8935 120.882 74.5477 119.626 75.4339 118.556C78.359 115.02 77.8767 108.458 74.2886 105.114L74.2902 105.112ZM60.6715 109.943C60.1911 114.798 63.9564 117.51 65.6115 121.44C59.2597 118.393 57.9385 113.111 60.6715 109.943ZM62.2132 109.646C62.9055 114.536 66.4733 117.754 69.459 121.716C65.2447 120.79 61.4187 114.19 62.2132 109.646ZM64.642 102.816C62.6933 109.649 66.9107 114.602 69.7499 119.976C63.9482 115.152 61.3029 106.487 64.642 102.816ZM65.5832 104.667C68.1424 109.097 71.497 113.098 71.0075 118.605C68.058 114.446 64.4993 110.526 65.5832 104.667ZM71.3364 121.856C72.1528 118.384 72.5362 114.96 70.7116 111.706C68.9905 108.635 67.3125 105.54 65.5842 102.398C70.851 103.888 75.056 117.443 71.3363 121.854L71.3364 121.856ZM67.9952 102.951C73.5429 105.361 76.6889 113.958 73.8503 119.021C73.995 112.84 72.0245 107.715 67.9952 102.951Z" fill="#C3CE87"/>
<path d="M65.8549 124.44C68.357 125.097 69.0445 125.437 68.8538 127.048L74.7288 124.284C74.0366 122.958 74.4446 122.21 76.0499 120.507C78.884 117.502 79.5765 114.021 78.2193 110.095C76.7101 105.73 74.0141 102.447 69.5408 101.039C67.1496 100.287 65.6118 98.8731 64.5794 96.9682L60.6627 98.8106C61.1093 101.344 60.7109 103.5 59.2818 105.743C58.1228 107.561 57.0859 109.648 56.7133 111.742C55.723 117.314 59.8925 122.875 65.8533 124.44L65.8549 124.44ZM60.5577 106.58C61.3421 105.43 61.999 104.156 62.4808 102.852C62.8966 101.726 63.502 101.204 64.642 101.494C66.8646 102.061 69.3002 102.305 71.2035 103.434C72.5381 104.225 73.2424 106.203 74.0374 107.75C75.5563 110.701 76.5297 113.799 75.7023 117.228C77.0654 115.275 76.9814 113.201 76.3673 111.14C75.7713 109.138 75.0142 107.186 74.2922 105.11C77.8803 108.456 78.3625 115.017 75.4375 118.552C74.5529 119.622 73.8987 120.878 73.0762 122.005C72.8311 122.341 72.4068 122.668 72.0123 122.752C70.5073 123.074 70.7705 123.897 71.3793 124.795C70.7162 124.403 70.0729 124.021 69.4313 123.641C69.3836 123.884 69.3358 124.127 69.3063 124.277C67.1722 123.104 64.8914 122.081 62.8645 120.691C57.3624 116.92 57.0075 111.785 60.5592 106.578L60.5577 106.58Z" fill="#86A687"/>
<path d="M65.5836 104.665C64.4996 110.523 68.0584 114.444 71.0079 118.604C71.499 113.096 68.1444 109.097 65.5836 104.665Z" fill="#86A687"/>
<path d="M65.584 102.398C67.3122 105.54 68.9902 108.635 70.7114 111.706C72.5342 114.959 72.1525 118.384 71.3361 121.856C75.0574 117.445 70.8508 103.889 65.584 102.4L65.584 102.398Z" fill="#86A687"/>
<path d="M67.9951 102.951C72.0244 107.715 73.9949 112.84 73.8502 119.021C76.6887 113.958 73.5428 105.361 67.9951 102.951Z" fill="#86A687"/>
<path d="M60.6718 109.943C57.9387 113.111 59.2599 118.391 65.6118 121.44C63.9566 117.51 60.1929 114.798 60.6718 109.943Z" fill="#86A687"/>
<path d="M64.6427 102.815C61.3036 106.485 63.9489 115.151 69.7505 119.975C66.9114 114.602 62.694 109.649 64.6427 102.815Z" fill="#86A687"/>
<path d="M62.2131 109.644C61.4186 114.187 65.2446 120.788 69.4589 121.714C66.4749 117.754 62.9054 114.534 62.2131 109.644Z" fill="#86A687"/>
<path d="M150.884 102.395C151.077 104.507 151.331 106.509 151.423 108.52C151.518 110.592 151.115 112.551 149.383 114.062C150.956 111.045 150.765 107.92 150.03 104.806C149.646 103.175 149.448 101.16 148.383 100.11C146.866 98.6121 144.643 97.8176 142.696 96.7706C141.698 96.234 141.009 96.5823 140.359 97.5393C139.606 98.6475 138.694 99.6874 137.694 100.58C133.159 104.626 132.298 109.513 136.568 114.321C138.142 116.092 140.036 117.579 141.76 119.173C141.823 119.04 141.924 118.823 142.026 118.606C142.538 119.112 143.052 119.616 143.581 120.138C143.221 119.157 143.166 118.326 144.649 118.374C145.038 118.387 145.51 118.18 145.818 117.922C146.849 117.059 147.752 116.035 148.829 115.239C152.39 112.611 153.463 106.36 150.886 102.397L150.884 102.395ZM137.019 103.75C135.44 108.182 138.332 111.594 138.966 115.655C133.731 111.327 133.725 106.079 137.019 103.75ZM138.53 103.83C138.039 108.565 140.629 112.405 142.501 116.805C138.774 114.96 136.73 107.895 138.53 103.83ZM142.391 98.0047C138.978 103.944 141.772 109.56 143.178 115.246C138.872 109.385 138.414 100.662 142.391 98.0047ZM142.841 99.9537C144.205 104.694 146.413 109.215 144.673 114.254C142.883 109.678 140.465 105.183 142.841 99.9537ZM144.225 117.373C145.797 114.315 146.951 111.199 146.002 107.732C145.106 104.46 144.257 101.175 143.37 97.8327C147.951 100.45 148.732 114.11 144.225 117.373ZM145.497 98.91C150.126 102.455 151.071 111.227 147.237 115.306C148.809 109.557 148.159 104.305 145.497 98.91Z" fill="#C3CE87"/>
<path d="M138.838 76.2684C139.513 81.7575 139.756 87.2063 139.629 92.7203C139.566 95.4952 138.707 97.5906 136.696 99.5007C135.188 100.933 133.733 102.644 132.898 104.517C130.675 109.501 133.282 115.672 138.495 118.522C140.879 119.824 141.334 120.276 140.519 122.076C141.578 122.038 142.637 121.979 143.694 121.902C143.699 121.863 143.706 121.824 143.711 121.785C143.885 121.768 144.058 121.749 144.232 121.733C144.241 121.775 144.251 121.818 144.26 121.86C145.249 121.782 146.236 121.693 147.222 121.596C146.306 119.292 146.597 118.724 148.949 117.213C152.299 115.059 153.757 111.963 153.401 107.975C153.004 103.539 151.246 99.8436 147.389 97.4866C144.618 95.7935 143.564 93.3429 143.35 90.3196C142.687 80.9936 143.727 71.8668 146.474 62.9227C147.665 59.0459 148.749 55.135 149.768 51.2098C150.022 50.231 149.832 49.1375 149.85 47.7773C142.538 54.6369 142.207 63.405 141.273 72.0032C140.987 70.7924 140.897 69.6291 140.923 68.4687C141.035 63.609 141.304 58.7476 141.26 53.8894C141.242 51.8782 140.867 49.7659 138.921 48.2504L139.424 64.4234C139.215 64.456 139.004 64.4885 138.795 64.521C137.928 60.7082 137.059 56.897 136.192 53.0842C135.92 53.1333 135.647 53.1808 135.375 53.2299C135.534 55.2108 135.694 57.1932 135.853 59.174C133.37 56.0392 131.448 52.7357 128.575 50.1968L128.057 50.5203C128.99 52.0916 129.919 53.663 130.853 55.2311C134.751 61.7747 137.892 68.5434 138.843 76.2699L138.838 76.2684ZM142.696 96.7705C144.644 97.8175 146.865 98.612 148.383 100.11C149.448 101.16 149.645 103.175 150.03 104.806C150.764 107.92 150.954 111.044 149.383 114.062C151.113 112.551 151.516 110.592 151.422 108.52C151.331 106.509 151.076 104.507 150.884 102.395C153.463 106.358 152.388 112.611 148.827 115.237C147.75 116.032 146.847 117.057 145.816 117.92C145.508 118.177 145.036 118.385 144.647 118.373C143.164 118.325 143.219 119.156 143.579 120.136C143.05 119.615 142.538 119.11 142.024 118.604C141.923 118.82 141.821 119.036 141.759 119.172C140.034 117.578 138.14 116.092 136.566 114.319C132.296 109.513 133.158 104.625 137.692 100.579C138.692 99.6858 139.604 98.6459 140.357 97.5377C141.007 96.5807 141.696 96.2324 142.694 96.769L142.696 96.7705ZM139.58 72.6121C138.062 68.4324 136.4 63.8571 134.955 59.8785C136.979 61.5249 139.467 68.0179 139.58 72.6121Z" fill="#86A687"/>
<path d="M142.84 99.9553C140.462 105.185 142.88 109.68 144.673 114.256C146.413 109.217 144.205 104.696 142.84 99.9553Z" fill="#86A687"/>
<path d="M143.37 97.8344C144.257 101.175 145.106 104.461 146.002 107.733C146.951 111.201 145.796 114.317 144.225 117.374C148.732 114.112 147.951 100.452 143.37 97.8344Z" fill="#86A687"/>
<path d="M145.496 98.9116C148.158 104.305 148.808 109.557 147.236 115.308C151.07 111.23 150.125 102.456 145.496 98.9116Z" fill="#86A687"/>
<path d="M137.019 103.752C133.725 106.081 133.732 111.329 138.966 115.656C138.332 111.595 135.44 108.182 137.019 103.752Z" fill="#86A687"/>
<path d="M142.391 98.0063C138.414 100.665 138.872 109.386 143.178 115.247C141.772 109.56 138.978 103.946 142.391 98.0063Z" fill="#86A687"/>
<path d="M138.529 103.832C136.729 107.898 138.773 114.961 142.5 116.807C140.628 112.407 138.039 108.566 138.529 103.832Z" fill="#86A687"/>
<path d="M62.6246 107.39C63.1343 111.539 63.396 115.665 63.4372 119.814C64.6275 119.735 65.8186 119.68 67.0093 119.661C66.5846 110.975 67.6528 102.462 70.2198 94.1086C71.405 90.2515 72.4834 86.3603 73.4978 82.4548C73.7507 81.4809 73.5607 80.3939 73.5788 79.0402C66.3036 85.8645 65.9744 94.5887 65.0442 103.145C64.7578 101.94 64.6682 100.783 64.6957 99.6278C64.8074 94.7925 65.0752 89.9555 65.0324 85.1217C65.0141 83.1203 64.6412 81.0176 62.705 79.5116L63.2053 95.6034C62.9963 95.6359 62.7891 95.6684 62.5801 95.6993C61.7169 91.9058 60.8536 88.1124 59.9904 84.3205C59.7201 84.368 59.4483 84.4171 59.178 84.4645C59.3369 86.4356 59.4942 88.4067 59.6531 90.3794C57.1819 87.2605 55.2701 83.9729 52.4105 81.4466L51.8948 81.7684C52.8222 83.3318 53.7463 84.8952 54.6769 86.4569C58.5554 92.9669 61.6809 99.702 62.6262 107.39L62.6246 107.39ZM63.3642 103.753C61.8533 99.5942 60.2 95.0414 58.7621 91.0837C60.7755 92.7206 63.2498 99.1816 63.3642 103.753Z" fill="#86A687"/>
<path d="M89.2994 97C89.8091 101.149 90.0708 105.275 90.112 109.424C91.3023 109.345 92.4935 109.29 93.6841 109.271C93.2594 100.585 94.3276 92.072 96.8946 83.719C98.0798 79.8619 99.1582 75.9707 100.173 72.0652C100.426 71.0913 100.235 70.0043 100.254 68.6506C92.9784 75.4748 92.6492 84.199 91.719 92.7549C91.4326 91.5505 91.343 90.3937 91.3705 89.2381C91.4822 84.4028 91.75 79.5659 91.7072 74.7321C91.6889 72.7306 91.316 70.628 89.3798 69.122L89.8801 85.2137C89.6712 85.2463 89.4639 85.2787 89.2549 85.3096C88.3917 81.5162 87.5284 77.7227 86.6652 73.9309C86.3949 73.9783 86.1231 74.0274 85.8528 74.0749C86.0117 76.0459 86.169 78.0171 86.3279 79.9898C83.8567 76.8708 81.9449 73.5832 79.0853 71.057L78.5697 71.3788C79.497 72.9421 80.4211 74.5056 81.3517 76.0672C85.2302 82.5772 88.3557 89.3123 89.301 97L89.2994 97ZM90.039 93.3633C88.5281 89.2045 86.8748 84.6517 85.4369 80.694C87.4503 82.3309 89.9246 88.7919 90.039 93.3633Z" fill="#86A687"/>
<path d="M114.998 86.9159C115.507 91.0651 115.769 95.1912 115.81 99.3403C117.001 99.261 118.192 99.2061 119.382 99.187C118.958 90.5009 120.026 81.9879 122.593 73.6349C123.778 69.7778 124.856 65.8866 125.871 61.9811C126.124 61.0072 125.934 59.9202 125.952 58.5665C118.677 65.3907 118.347 74.1149 117.417 82.6707C117.131 81.4664 117.041 80.3096 117.069 79.154C117.18 74.3187 117.448 69.4818 117.405 64.648C117.387 62.6465 117.014 60.5439 115.078 59.0379L115.578 75.1296C115.369 75.1621 115.162 75.1946 114.953 75.2255C114.09 71.4321 113.227 67.6386 112.363 63.8468C112.093 63.8942 111.821 63.9433 111.551 63.9908C111.71 65.9618 111.867 67.933 112.026 69.9056C109.555 66.7867 107.643 63.4991 104.784 60.9729L104.268 61.2946C105.195 62.858 106.119 64.4215 107.05 65.9831C110.928 72.4931 114.054 79.2282 114.999 86.9159L114.998 86.9159ZM115.737 83.2792C114.226 79.1204 112.573 74.5676 111.135 70.6099C113.149 72.2468 115.623 78.7078 115.737 83.2792Z" fill="#86A687"/>
<path d="M46.3479 114.396L44.4733 97.5298L158.825 92.349L160.643 107.458L46.3479 114.396Z" fill="#4C352B"/>
<path d="M42.6904 117.71L42.3737 134.698L163 130.948L162.373 110.789L42.6904 117.71Z" fill="#4C352B"/>
<path d="M147.69 140.865C150.336 139.296 151.113 136.518 150.626 133.702C150.613 132.381 149.537 131.314 148.983 130.153C147.362 126.975 142.852 127.877 140.05 128.848C137.361 129.878 135.786 134.751 136.236 137.331C136.452 138.308 137.043 139.254 137.566 140.06C138.268 140.78 139.451 141.013 140.308 141.569C140.608 141.437 141.364 141.847 141.832 141.826C143.842 142.063 145.949 142.093 147.69 140.865Z" fill="#814E18"/>
<path d="M61.3286 131.176C58.8016 132.742 58.0636 135.519 58.5325 138.335C58.5468 139.657 59.5763 140.725 60.1073 141.887C61.6611 145.067 65.9695 144.171 68.6459 143.204C71.2133 142.177 72.7122 137.307 72.2789 134.726C72.0704 133.749 71.505 132.802 71.0039 131.995C70.3321 131.275 69.2009 131.04 68.3813 130.483C68.0954 130.615 67.3717 130.204 66.9247 130.224C65.0036 129.984 62.9897 129.951 61.3286 131.176Z" fill="#814E18"/>
</svg>
