<svg width="98" height="32" viewBox="0 0 98 32" fill="none" xmlns="http://www.w3.org/2000/svg">
<g opacity="0.5">
<path d="M9.11193 14.8788C9.66011 12.8333 11.7627 10.7307 13.8082 10.1825L26.5609 6.76491C28.6064 6.21673 29.8202 7.43057 29.272 9.47608L25.8545 22.2287C25.3063 24.2742 23.2037 26.3768 21.1582 26.925L8.40552 30.3426C6.36001 30.8908 5.14618 29.6769 5.69435 27.6314L9.11193 14.8788Z" fill="#808080"/>
<path d="M3.99963 9.76623C4.5478 7.72071 6.6504 5.61812 8.69592 5.06994L21.4486 1.65236C23.4941 1.10418 24.7079 2.31802 24.1598 4.36353L20.7422 17.1162C20.194 19.1617 18.0914 21.2643 16.0459 21.8125L3.29322 25.23C1.2477 25.7782 0.0338717 24.5644 0.582048 22.5189L3.99963 9.76623Z" fill="#333333"/>
<path d="M41.1217 20.9494H45.5083V22.6667H38.9937V9.69336H41.1217V20.9494Z" fill="#808080"/>
<path d="M46.5786 17.4774C46.5786 16.4445 46.7901 15.5298 47.2133 14.7334C47.6488 13.9369 48.2337 13.3209 48.9679 12.8854C49.7146 12.4374 50.5359 12.2134 51.4319 12.2134C52.2408 12.2134 52.9439 12.3751 53.5413 12.6987C54.151 13.0098 54.6364 13.4018 54.9973 13.8747V12.3814H57.1439V22.6667H54.9973V21.136C54.6364 21.6214 54.1448 22.0258 53.5226 22.3494C52.9004 22.6729 52.191 22.8347 51.3946 22.8347C50.511 22.8347 49.7021 22.6107 48.9679 22.1627C48.2337 21.7022 47.6488 21.0676 47.2133 20.2587C46.7901 19.4374 46.5786 18.5102 46.5786 17.4774ZM54.9973 17.5147C54.9973 16.8054 54.8479 16.1894 54.5493 15.6667C54.263 15.144 53.8835 14.7458 53.4106 14.472C52.9377 14.1982 52.4275 14.0614 51.8799 14.0614C51.3324 14.0614 50.8221 14.1982 50.3493 14.472C49.8764 14.7334 49.4906 15.1254 49.1919 15.648C48.9057 16.1582 48.7626 16.768 48.7626 17.4774C48.7626 18.1867 48.9057 18.8089 49.1919 19.344C49.4906 19.8791 49.8764 20.2898 50.3493 20.576C50.8346 20.8498 51.3448 20.9867 51.8799 20.9867C52.4275 20.9867 52.9377 20.8498 53.4106 20.576C53.8835 20.3022 54.263 19.904 54.5493 19.3814C54.8479 18.8462 54.9973 18.224 54.9973 17.5147Z" fill="#808080"/>
<path d="M69.1976 12.3814L62.8883 27.5014H60.6856L62.7763 22.4987L58.7256 12.3814H61.0963L63.9896 20.2214L66.995 12.3814H69.1976Z" fill="#808080"/>
<path d="M80.2302 17.272C80.2302 17.6578 80.2053 18.0062 80.1555 18.3174H72.2969C72.3591 19.1387 72.664 19.7982 73.2115 20.296C73.7591 20.7938 74.4311 21.0427 75.2275 21.0427C76.3724 21.0427 77.1813 20.5636 77.6542 19.6054H79.9502C79.6391 20.5511 79.0729 21.3289 78.2515 21.9387C77.4427 22.536 76.4347 22.8347 75.2275 22.8347C74.2444 22.8347 73.3609 22.6169 72.5769 22.1814C71.8053 21.7334 71.1955 21.1111 70.7475 20.3147C70.312 19.5058 70.0942 18.5725 70.0942 17.5147C70.0942 16.4569 70.3058 15.5298 70.7289 14.7334C71.1644 13.9245 71.768 13.3022 72.5395 12.8667C73.3235 12.4311 74.2195 12.2134 75.2275 12.2134C76.1982 12.2134 77.0631 12.4249 77.8222 12.848C78.5813 13.2711 79.1724 13.8685 79.5955 14.64C80.0187 15.3991 80.2302 16.2765 80.2302 17.272ZM78.0089 16.6C77.9964 15.816 77.7164 15.1876 77.1689 14.7147C76.6213 14.2418 75.9431 14.0054 75.1342 14.0054C74.4 14.0054 73.7715 14.2418 73.2489 14.7147C72.7262 15.1751 72.4151 15.8036 72.3155 16.6H78.0089Z" fill="#808080"/>
<path d="M84.4524 13.8747C84.7635 13.352 85.1742 12.9476 85.6844 12.6614C86.207 12.3627 86.823 12.2134 87.5324 12.2134V14.416H86.991C86.1573 14.416 85.5226 14.6276 85.087 15.0507C84.6639 15.4738 84.4524 16.208 84.4524 17.2534V22.6667H82.3244V12.3814H84.4524V13.8747Z" fill="#808080"/>
<path d="M93.2218 22.8347C92.4129 22.8347 91.6849 22.6916 91.0378 22.4054C90.4031 22.1067 89.8991 21.7085 89.5258 21.2107C89.1524 20.7005 88.9533 20.1342 88.9284 19.512H91.1311C91.1684 19.9476 91.3738 20.3147 91.7471 20.6134C92.1329 20.8996 92.612 21.0427 93.1844 21.0427C93.7818 21.0427 94.2422 20.9307 94.5658 20.7067C94.9018 20.4702 95.0698 20.1716 95.0698 19.8107C95.0698 19.4249 94.8831 19.1387 94.5098 18.952C94.1489 18.7654 93.5702 18.56 92.7738 18.336C92.0022 18.1245 91.3738 17.9191 90.8884 17.72C90.4031 17.5209 89.98 17.216 89.6191 16.8054C89.2707 16.3947 89.0964 15.8534 89.0964 15.1814C89.0964 14.6338 89.2582 14.136 89.5818 13.688C89.9053 13.2276 90.3658 12.8667 90.9631 12.6054C91.5729 12.344 92.2698 12.2134 93.0538 12.2134C94.2235 12.2134 95.1631 12.512 95.8724 13.1094C96.5942 13.6942 96.98 14.4969 97.0298 15.5174H94.9018C94.8644 15.0569 94.6778 14.6898 94.3418 14.416C94.0058 14.1422 93.5515 14.0054 92.9791 14.0054C92.4191 14.0054 91.9898 14.1111 91.6911 14.3227C91.3924 14.5342 91.2431 14.8142 91.2431 15.1627C91.2431 15.4365 91.3427 15.6667 91.5418 15.8534C91.7409 16.04 91.9836 16.1894 92.2698 16.3014C92.556 16.4009 92.9791 16.5316 93.5391 16.6934C94.2858 16.8925 94.8955 17.0978 95.3684 17.3094C95.8538 17.5085 96.2707 17.8071 96.6191 18.2054C96.9675 18.6036 97.148 19.1325 97.1604 19.792C97.1604 20.3769 96.9987 20.8996 96.6751 21.36C96.3515 21.8205 95.8911 22.1814 95.2938 22.4427C94.7089 22.704 94.0182 22.8347 93.2218 22.8347Z" fill="#808080"/>
</g>
</svg>
