<svg width="128" height="128" viewBox="0 0 128 128" fill="none" xmlns="http://www.w3.org/2000/svg">
<path d="M0 64C0 99.3462 28.6538 128 64 128C99.3462 128 128 99.3462 128 64C128 28.6538 99.3462 0 64 0C28.6538 0 0 28.6538 0 64Z" fill="#1E4A35"/>
<path d="M67.3082 40.3674C67.2721 40.3653 67.237 40.362 67.2556 40.397L67.3082 40.3674Z" fill="white"/>
<path d="M70.6402 32.0764C69.2117 33.6038 68.8985 34.9616 67.3964 35.6861C67.0334 35.8613 66.8751 35.0595 66.7808 34.6885C66.1013 32.0057 66.2704 29.8897 65.5193 29.1651C65.3524 29.0041 64.6339 29.0368 64.4366 29.1989C61.3901 31.7011 64.3218 36.5477 59.888 30.9765C59.6182 30.6371 58.3491 30.5261 58.3881 30.9232C58.659 33.6669 63.0743 39.1653 66.7689 40.251C67.0117 40.3228 67.5536 40.2445 68.1475 39.6711C69.2735 38.5843 72.4468 34.3556 71.5137 32.1776C71.388 31.8838 70.8764 31.8251 70.6412 32.0764H70.6402Z" fill="white"/>
<path d="M71.5102 100.327C70.8924 100.364 70.3516 99.9228 70.201 99.344C69.7545 97.6262 68.5027 93.1418 67.0407 90.7027C65.2059 87.6446 65.2059 87.4835 65.2059 87.4835C65.2059 87.4835 57.8665 78.7911 55.3652 70.9037C52.8627 63.0163 49.36 51.2125 55.3652 44.3978C58.701 39.9983 61.5362 40.1593 63.0383 40.3203C64.5393 40.4813 65.7066 43.7004 68.8766 41.6084C74.5296 44.7437 66.2701 46.9174 62.1409 44.7437C60.1067 43.6732 67.3972 50.1779 71.5264 45.8306C72.194 46.6813 72.2775 48.3665 71.1287 51.8293C69.4553 56.8718 66.1249 65.5109 66.2918 71.6283C66.4587 77.7445 69.2754 80.4915 70.7765 85.3208C72.1366 89.6975 74.4071 100.153 71.5123 100.327H71.5102Z" fill="white"/>
</svg>
