<svg width="1440" height="724" viewBox="0 0 1440 724" fill="none" xmlns="http://www.w3.org/2000/svg">
<g clip-path="url(#clip0_111_20061)">
<path d="M1283.05 304.211C1272.85 319.333 1262.02 335.369 1251.2 351.406C1251.94 351.91 1252.69 352.415 1253.41 352.904C1263.16 337.987 1277.23 326.366 1284.68 308.437C1285.34 310.692 1285.9 311.67 1285.87 312.647C1284.98 351.563 1284.05 390.479 1283.05 429.411C1286.23 430.767 1289.39 432.139 1292.57 433.495C1292.57 419.777 1292.67 406.342 1292.54 392.908C1292.4 378.59 1291.59 364.257 1291.84 349.955C1292.1 335.527 1288.22 321.02 1291.84 305.709C1309.78 306.923 1327.02 308.09 1344.25 309.257C1344.33 308.469 1344.4 307.696 1344.48 306.908C1325.07 304.195 1305.68 301.483 1284.93 298.582C1277.09 282.877 1268.9 266.446 1260.69 250C1259.96 250.315 1259.23 250.646 1258.51 250.962C1262.14 259.619 1265.56 268.37 1269.48 276.885C1273.51 285.652 1278.05 294.183 1283.05 304.195V304.211Z" fill="#A99E99"/>
<path d="M92.8353 184.98C116.417 173.371 139.927 161.618 163.446 149.901C165.108 149.071 166.706 148.114 168.486 147.139V140.216C171.782 138.609 175.061 137.02 179.324 134.944C179.324 138.158 179.36 140.207 179.324 142.256C179.044 157.177 178.71 172.098 178.484 187.02C178.032 217.079 177.716 247.138 177.219 277.197C176.813 302.192 176.208 327.188 175.756 352.192C175.63 359.007 175.254 465.518 178.723 423.179L194.371 414.985C192.185 367.802 187.651 145.767 189.34 139.466C191.056 140.333 192.754 141.109 194.371 142.03C211.685 151.987 228.989 161.97 246.285 171.954C255.028 177 263.744 182.082 272.496 187.101C274.401 188.193 276.352 189.872 278.872 187.624C278.52 183.58 275.033 182.326 272.396 180.565C253.7 168.054 234.914 155.67 216.173 143.231C211.468 140.107 206.798 136.921 202.048 133.725C203.122 129.844 203.818 126.305 199.573 122.749H183.451C183.234 120.158 182.945 118.317 182.945 116.475C182.882 85.3599 182.855 54.2536 182.792 23.1382C182.792 20.9447 183.298 18.4804 180.588 17C176.984 18.8685 177.391 22.3529 177.192 25.2685C175.422 51.0491 173.778 76.8386 172.152 102.637C171.981 105.318 172.125 108.026 172.125 110.635C174.248 112.115 176.108 113.397 177.752 114.543C178.457 125.728 176.433 130.106 168.151 134.935C154.17 143.095 140.135 151.165 126.108 159.253C112.994 166.818 99.862 174.355 86.7479 181.91C84.9867 182.921 82.8462 183.662 83.0087 186.595C86.793 189.078 89.8548 186.442 92.8263 184.98H92.8353Z" fill="#A99E99"/>
<path d="M1369.21 389.486C1362.52 386.187 1355.85 382.847 1349.18 379.517C1348.71 379.281 1348.26 379.009 1347.75 378.732V376.764C1346.82 376.308 1345.89 375.856 1344.68 375.266C1344.68 376.179 1344.67 376.762 1344.68 377.344C1344.76 381.585 1344.85 385.825 1344.92 390.066C1345.04 398.608 1345.13 407.151 1345.28 415.694C1345.39 422.797 1345.56 429.901 1345.69 437.007C1345.73 438.944 1345.83 469.214 1344.85 457.181L1340.41 454.852C1341.03 441.443 1342.32 378.342 1341.84 376.551C1341.35 376.798 1340.87 377.018 1340.41 377.28C1335.5 380.11 1330.59 382.947 1325.68 385.784C1323.2 387.218 1320.73 388.663 1318.25 390.089C1317.71 390.399 1317.16 390.876 1316.44 390.238C1316.54 389.088 1317.53 388.732 1318.28 388.232C1323.58 384.676 1328.91 381.156 1334.23 377.621C1335.56 376.734 1336.89 375.828 1338.23 374.92C1337.93 373.817 1337.73 372.811 1338.93 371.8H1343.51C1343.57 371.064 1343.65 370.541 1343.65 370.017C1343.67 361.175 1343.68 352.334 1343.69 343.492C1343.69 342.868 1343.55 342.168 1344.32 341.747C1345.34 342.278 1345.23 343.268 1345.28 344.097C1345.78 351.424 1346.25 358.753 1346.71 366.085C1346.76 366.847 1346.72 367.616 1346.72 368.358C1346.12 368.778 1345.59 369.143 1345.12 369.468C1344.92 372.647 1345.5 373.891 1347.85 375.264C1351.81 377.583 1355.79 379.876 1359.77 382.175C1363.49 384.324 1367.22 386.467 1370.94 388.614C1371.44 388.901 1372.04 389.111 1372 389.945C1370.92 390.651 1370.06 389.902 1369.21 389.486H1369.21Z" fill="#A99E99"/>
<path d="M1420.17 485.623L1117.33 363.919L644.097 521.285L563 662.215L1288.8 639.064L1420.17 485.623Z" fill="#86A687"/>
<path d="M1464.13 462.414L197.418 386.603L-88 550.287V699.048H1689.84L1464.13 462.414Z" fill="#C3CE87"/>
<path d="M371.746 532.909L353.019 492.725L208.453 410.455L307.477 500.648L322.896 536.067L371.746 532.909Z" fill="#86A687"/>
<path d="M606.777 491.878L498.117 465.774L309.124 418.172L457.278 487.08L508.69 512.531L606.777 491.878Z" fill="#86A687"/>
<path d="M275.017 600.819L162.647 439.153L206.133 544.033L224.076 605.221L275.017 600.819Z" fill="#86A687"/>
<path d="M114.252 632.436L107.011 471.615L127.342 570.849L143.15 627.457L114.252 632.436Z" fill="#86A687"/>
<path d="M701.273 472.73C701.273 472.73 331.015 516.376 317.847 522.724C304.68 529.071 114.989 604.599 114.989 604.599L48.5771 726.417C48.5771 726.417 103.307 726.417 263.38 726.417C423.453 726.417 559.746 695.888 736.927 672.749C914.107 649.611 1118.85 625.291 1118.85 625.291L826.194 454.905L701.273 472.73Z" fill="#1E4B35"/>
<path d="M541.609 584.371C541.609 584.371 561.33 580.679 563.105 590.854C564.88 601.029 542.002 589.544 541.609 584.371Z" fill="#FFF5E0"/>
<path d="M631.252 552.66C631.252 552.66 650.973 548.968 652.748 559.143C654.523 569.318 631.645 557.834 631.252 552.66Z" fill="#FFF5E0"/>
<path d="M722.744 572.841C722.744 572.841 742.464 569.15 744.239 579.325C746.014 589.5 723.137 578.015 722.744 572.841Z" fill="#FFF5E0"/>
<path d="M679.456 516.286C679.456 516.286 699.176 512.594 700.951 522.769C702.726 532.944 679.849 521.46 679.456 516.286Z" fill="#FFF5E0"/>
<path d="M517.743 530.916C517.743 530.916 537.464 527.225 539.238 537.4C541.013 547.575 518.136 536.09 517.743 530.916Z" fill="#FFF5E0"/>
<path d="M386.572 597.997C386.572 597.997 406.293 594.305 408.068 604.48C409.842 614.655 386.965 603.17 386.572 597.997Z" fill="#FFF5E0"/>
<path d="M206.353 601.602C206.353 601.602 226.073 597.91 227.848 608.085C229.623 618.26 206.746 606.776 206.353 601.602Z" fill="#FFF5E0"/>
<path d="M396.783 552.717C396.783 552.717 416.504 549.026 418.278 559.201C420.053 569.376 397.176 557.891 396.783 552.717Z" fill="#FFF5E0"/>
<path d="M283.677 632.374C283.677 632.374 303.398 628.683 305.172 638.858C306.947 649.033 284.07 637.548 283.677 632.374Z" fill="#FFF5E0"/>
<path d="M1345.84 682.463L773.359 540.811L380.085 671.47L252.212 727.31L663.388 720.257L1154.51 720.257L1345.84 682.463Z" fill="#86A687"/>
<path d="M1150.58 720.874L843.518 596.775L1035.19 719.12L1150.58 720.874Z" fill="#1E4A35"/>
<path d="M912.145 718.702L755.141 596.377L843.034 718.68L912.145 718.702Z" fill="#1E4A35"/>
</g>
<defs>
<clipPath id="clip0_111_20061">
<rect width="1440" height="724" fill="white"/>
</clipPath>
</defs>
</svg>
