<svg width="1440" height="158" viewBox="0 0 1440 158" fill="none" xmlns="http://www.w3.org/2000/svg">
<g clip-path="url(#clip0_181_8171)">
<path d="M1375.56 121.894L1083.08 37L626.043 146.771L547.722 245.077L1248.68 228.927L1375.56 121.894Z" fill="#85A687"/>
<path d="M1345.84 99.6164L180.683 5L-81 116.588V239H1549L1345.84 99.6164Z" fill="#85A687"/>
<path d="M573.264 95.2466C575.988 104.241 579.12 114.587 581.982 124.038C581.769 113.649 577.078 98.9666 573.264 95.2466Z" fill="#122C20"/>
<path d="M580.582 132.306C581.547 141.735 582.043 151.112 582.121 160.541C584.376 160.361 586.633 160.236 588.888 160.193C588.084 140.453 590.107 121.107 594.97 102.125C597.216 93.3591 599.258 84.5162 601.18 75.6408C601.659 73.4276 601.299 70.9574 601.334 67.8811C587.551 83.3894 586.928 103.215 585.165 122.659C584.623 119.922 584.453 117.293 584.505 114.667C584.717 103.679 585.224 92.6865 585.143 81.7015C585.108 77.1531 584.402 72.3747 580.734 68.9523L581.682 105.521C581.286 105.595 580.893 105.669 580.497 105.739C578.862 97.1186 577.227 88.4978 575.591 79.8808C575.079 79.9886 574.564 80.1002 574.052 80.208C574.353 84.6873 574.651 89.1667 574.952 93.6498C570.271 86.5618 566.649 79.0907 561.231 73.3497L560.255 74.0809C562.011 77.6337 563.762 81.1868 565.525 84.7356C572.873 99.5299 578.794 114.836 580.585 132.306L580.582 132.306ZM581.983 124.042C579.12 114.591 575.988 104.244 573.264 95.2502C577.079 98.9702 581.766 113.653 581.983 124.042Z" fill="#122C20"/>
<path d="M646.13 86.3655C648.854 95.3596 651.986 105.706 654.849 115.157C654.635 104.768 649.944 90.0855 646.13 86.3655Z" fill="#122C20"/>
<path d="M653.448 123.425C654.413 132.854 654.909 142.231 654.987 151.66C657.242 151.48 659.499 151.355 661.754 151.312C660.95 131.572 662.973 112.226 667.836 93.2435C670.082 84.478 672.125 75.6351 674.047 66.7597C674.526 64.5465 674.166 62.0763 674.2 59C660.418 74.5083 659.794 94.3344 658.032 113.778C657.489 111.041 657.319 108.412 657.371 105.786C657.583 94.7975 658.09 83.8053 658.009 72.8204C657.975 68.272 657.268 63.4936 653.6 60.0712L654.548 96.6403C654.152 96.7142 653.759 96.788 653.363 96.8582C651.728 88.2375 650.093 79.6167 648.457 70.9997C647.945 71.1075 647.43 71.2191 646.918 71.3269C647.219 75.8062 647.517 80.2856 647.819 84.7687C643.137 77.6807 639.515 70.2096 634.098 64.4686L633.121 65.1998C634.878 68.7526 636.628 72.3056 638.391 75.8545C645.739 90.6488 651.66 105.955 653.451 123.425L653.448 123.425ZM654.849 115.161C651.987 105.71 648.855 95.3632 646.13 86.3691C649.945 90.0891 654.632 104.772 654.849 115.161Z" fill="#122C20"/>
<path d="M491.873 84.1641C495.373 95.7213 499.398 109.016 503.076 121.16C502.801 107.811 496.774 88.9442 491.873 84.1641Z" fill="#122C20"/>
<path d="M501.276 131.785C502.517 143.901 503.154 155.95 503.254 168.066C506.152 167.835 509.052 167.674 511.95 167.619C510.916 142.254 513.516 117.394 519.765 93.0023C522.651 81.7389 525.276 70.3759 527.745 58.9713C528.361 56.1273 527.898 52.9531 527.942 49.0001C510.232 68.928 509.431 94.4041 507.166 119.389C506.469 115.872 506.251 112.494 506.318 109.119C506.59 94.9992 507.242 80.8745 507.138 66.7591C507.093 60.9145 506.185 54.7744 501.472 50.3767L502.69 97.3672C502.181 97.4622 501.677 97.557 501.168 97.6472C499.066 86.5697 496.965 75.4922 494.864 64.4195C494.206 64.558 493.544 64.7014 492.886 64.8399C493.273 70.5958 493.656 76.3518 494.043 82.1123C488.027 73.0045 483.373 63.4042 476.412 56.0271L475.157 56.9668C477.414 61.5321 479.664 66.0976 481.929 70.6579C491.37 89.6682 498.979 109.336 501.28 131.785L501.276 131.785ZM503.077 121.165C499.399 109.021 495.374 95.7261 491.874 84.1689C496.775 88.949 502.798 107.816 503.077 121.165Z" fill="#122C20"/>
<path d="M1385.28 101.785C1386.52 113.901 1387.15 125.95 1387.25 138.066C1390.15 137.835 1393.05 137.674 1395.95 137.619C1394.92 112.254 1397.52 87.3945 1403.77 63.0023C1406.65 51.7389 1409.28 40.3759 1411.74 28.9713C1412.36 26.1273 1411.9 22.9531 1411.94 19.0001C1394.23 38.928 1393.43 64.4041 1391.17 89.3885C1390.47 85.8716 1390.25 82.4936 1390.32 79.1192C1390.59 64.9992 1391.24 50.8745 1391.14 36.7591C1391.09 30.9145 1390.18 24.7744 1385.47 20.3767L1386.69 67.3672C1386.18 67.4622 1385.68 67.557 1385.17 67.6472C1383.07 56.5697 1380.96 45.4922 1378.86 34.4195C1378.21 34.558 1377.54 34.7014 1376.89 34.8399C1377.27 40.5958 1377.66 46.3518 1378.04 52.1123C1372.03 43.0045 1367.37 33.4042 1360.41 26.0271L1359.16 26.9668C1361.41 31.5321 1363.66 36.0976 1365.93 40.6579C1375.37 59.6682 1382.98 79.3358 1385.28 101.785L1385.28 101.785ZM1387.08 91.1652C1383.4 79.021 1379.37 65.7261 1375.87 54.1689C1380.77 58.949 1386.8 77.8161 1387.08 91.1652Z" fill="#122C20"/>
<path d="M150.639 176.725C151.519 185.32 151.971 193.867 152.042 202.462C154.098 202.298 156.155 202.184 158.21 202.144C157.477 184.151 159.322 166.517 163.755 149.214C165.801 141.224 167.663 133.164 169.415 125.073C169.852 123.056 169.524 120.804 169.555 118C156.992 132.136 156.423 150.208 154.817 167.932C154.323 165.437 154.168 163.04 154.215 160.647C154.408 150.63 154.871 140.611 154.797 130.598C154.765 126.452 154.121 122.096 150.778 118.977L151.642 152.31C151.281 152.378 150.923 152.445 150.562 152.509C149.071 144.651 147.581 136.793 146.09 128.938C145.623 129.036 145.154 129.138 144.687 129.236C144.962 133.319 145.233 137.403 145.508 141.489C141.24 135.028 137.939 128.218 133.001 122.985L132.11 123.651C133.712 126.89 135.308 130.129 136.915 133.364C143.612 146.849 149.009 160.8 150.642 176.725L150.639 176.725ZM151.916 169.192C149.307 160.577 146.452 151.146 143.969 142.948C147.446 146.339 151.718 159.722 151.916 169.192Z" fill="#122C20"/>
<path d="M64.6388 184.725C65.5191 193.32 65.9711 201.867 66.0421 210.462C68.0976 210.298 70.1545 210.184 72.2105 210.144C71.4772 192.151 73.3218 174.517 77.7545 157.214C79.8012 149.224 81.6634 141.164 83.4152 133.073C83.8519 131.056 83.5237 128.804 83.555 126C70.992 140.136 70.4234 158.208 68.8172 175.932C68.3226 173.437 68.1678 171.04 68.2154 168.647C68.4082 158.63 68.8708 148.611 68.7967 138.598C68.7652 134.452 68.1212 130.096 64.7778 126.977L65.6416 160.31C65.2809 160.378 64.9229 160.445 64.5621 160.509C63.0714 152.651 61.5807 144.793 60.0901 136.938C59.6234 137.036 59.1539 137.138 58.6872 137.236C58.9616 141.319 59.2332 145.403 59.5077 149.489C55.2403 143.028 51.9389 136.218 47.0008 130.985L46.1104 131.651C47.7118 134.89 49.3076 138.129 50.9145 141.364C57.6121 154.849 63.0094 168.8 64.6416 184.725L64.6388 184.725ZM65.9161 177.192C63.3071 168.577 60.4521 159.146 57.969 150.948C61.4459 154.339 65.7185 167.722 65.9161 177.192Z" fill="#122C20"/>
<path d="M909.555 87.734C909.555 87.734 1284.3 69.5892 1296.5 74.4999C1308.7 79.4105 1457.5 98.4999 1457.5 98.4999L1508.88 274.153C1508.88 274.153 1460.46 278.418 1318.86 290.892C1177.26 303.365 1054.05 285.43 895.312 277.594C736.575 269.759 553.354 262.966 553.354 262.966L797.507 80.7961L909.555 87.734Z" fill="#122C20"/>
<path d="M939.471 205.137L386.581 106.328L6.76522 197.47L-116.731 236.42L280.373 231.501L754.689 231.501L939.471 205.137Z" fill="#1E4A35"/>
<path d="M-4.14399 74.7282L-4.6153 64.3098L53.3267 64.5744L53.8192 73.9116L-4.14399 74.7282Z" fill="#4C352B"/>
<path d="M60.0745 107.709L52.5348 108.23L52.5627 55.8181L59.3197 55.2885L60.0745 107.709Z" fill="#4C352B"/>
<path d="M-7.81023 80.2825L-8.44981 90.7092L52.6233 92.0421L52.8756 79.6388L-7.81023 80.2825Z" fill="#4C352B"/>
<path d="M58.982 76.1137L58.5107 65.6953L116.453 65.9599L116.945 75.2971L58.982 76.1137Z" fill="#4C352B"/>
<path d="M57.0853 81.6214L56.4457 92.0481L117.519 93.381L117.771 80.9777L57.0853 81.6214Z" fill="#4C352B"/>
<path d="M122.574 106.057L115.035 106.577L115.063 54.166L121.82 53.6364L122.574 106.057Z" fill="#4C352B"/>
<path d="M121.483 74.4614L121.012 64.0429L178.954 64.3076L179.446 73.6448L121.483 74.4614Z" fill="#4C352B"/>
<path d="M119.584 79.969L118.945 90.3957L180.018 91.7287L180.27 79.3253L119.584 79.969Z" fill="#4C352B"/>
<path d="M185.381 104.397L177.841 104.917L177.869 52.5054L184.626 51.9758L185.381 104.397Z" fill="#4C352B"/>
<path d="M246.509 102.781L238.969 103.301L238.997 50.8894L245.754 50.3598L246.509 102.781Z" fill="#4C352B"/>
<path d="M184.291 72.801L183.819 62.3825L241.761 62.6472L242.254 71.9844L184.291 72.801Z" fill="#4C352B"/>
<path d="M182.392 78.3084L181.752 88.7351L242.825 90.068L243.078 77.6647L182.392 78.3084Z" fill="#4C352B"/>
<path d="M241.563 72.4084L239.25 62.2647L301.261 46.7272L303.409 55.799L241.563 72.4084Z" fill="#4C352B"/>
<path d="M306.886 84.2687L299.287 84.9928L298.111 37.8964L304.919 37.1905L306.886 84.2687Z" fill="#4C352B"/>
<path d="M238.837 78.8302L239.997 89.2769L300.613 73.0393L300.452 63.7675L238.837 78.8302Z" fill="#4C352B"/>
<path d="M304.191 57.7611L301.933 47.6045L359.293 33.1553L361.386 42.24L304.191 57.7611Z" fill="#4C352B"/>
<path d="M303.26 63.6752L304.395 72.0747L364.969 56.1575L363.178 47.6335L303.26 63.6752Z" fill="#4C352B"/>
<path d="M368.782 65.6695L361.203 66.6447L358.919 23.5173L365.708 22.5913L368.782 65.6695Z" fill="#4C352B"/>
<path d="M365.729 40.264L363.471 30.1074L420.831 15.6582L422.924 24.7429L365.729 40.264Z" fill="#4C352B"/>
<path d="M364.798 46.1781L365.933 54.5776L426.549 38.34L424.716 30.1364L364.798 46.1781Z" fill="#4C352B"/>
<path d="M428.979 46.7738L422.7 47.5856L420.828 9.00742L426.453 8.23319L428.979 46.7738Z" fill="#4C352B"/>
<path d="M488.774 29.9037L481.962 30.7419L480.031 -5.58848L486.133 -6.38361L488.774 29.9037Z" fill="#4C352B"/>
<path d="M426.741 23.7264L424.483 13.5698L481.843 -0.879356L483.936 8.20533L426.741 23.7264Z" fill="#4C352B"/>
<path d="M425.81 29.6408L426.932 37.0167L484.191 21.8917L484.056 14.6672L425.81 29.6408Z" fill="#4C352B"/>
</g>
<defs>
<clipPath id="clip0_181_8171">
<rect width="1440" height="158" fill="white"/>
</clipPath>
</defs>
</svg>
